<svg xmlns="http://www.w3.org/2000/svg" viewBox="0 0 750 500"><g id="freepik--background-complete--inject-212"><rect x="585.96" y="82.06" width="110.75" height="102.75" transform="matrix(0.99, -0.13, 0.13, 0.99, -11.7, 81.8)" style="fill:#f5f5f5"></rect><path d="M649.3,104a7.65,7.65,0,1,0,8.87,6.58A7.82,7.82,0,0,0,649.3,104Z" style="fill:#e0e0e0"></path><path d="M682.3,84.58,589.47,96.29c.08-.12-.88,1.09-.47.59V97l0,.18.05.36.09.73.19,1.45.36,2.9q.38,2.88.73,5.75.74,5.73,1.45,11.35,1.43,11.24,2.8,22l5.15,40.18,0,.44.46-.06,67.39-8.77L686.57,171l4.93-.67,1.25-.19.4-.07a2.58,2.58,0,0,0-.46,0l-1.31.14-5,.59-19,2.28-20.75,2.57,46.43-5.9a1.9,1.9,0,0,0,.06.29,2.18,2.18,0,0,0,0-.38l-.12-1.14c-.13-1.07-.3-2.57-.52-4.51-.48-4-1.18-9.85-2.07-17.23-1.84-15-4.46-36.27-7.61-61.85l-.06-.43ZM666,135.9l-12.85,19.72L624,125.25l-23.39,55.47c-1.52-12.13-3.17-25.26-4.91-39.13q-1.35-10.71-2.78-22-.71-5.62-1.43-11.35c-.24-1.91-.49-3.83-.73-5.76l-.37-2.89-.18-1.45-.1-.73,0-.22L682,85.5c3.3,25.25,6,46.29,8,61.09l2.31,17.3.63,4.58c.08.49.14.88.18,1.18,0,0,0,.06,0,.1Z" style="fill:#e0e0e0"></path><rect x="52.7" y="359.83" width="78.78" height="73.08" transform="translate(65.14 -9.66) rotate(9.28)" style="fill:#f5f5f5"></rect><path d="M103.48,377.89a5.44,5.44,0,1,0,4.72,6.28A5.56,5.56,0,0,0,103.48,377.89Z" style="fill:#e0e0e0"></path><path d="M129.91,371.34,64.23,360.55l-.44.31h0v.1l0,.13,0,.26-.08.51-.17,1L63.13,365c-.23,1.36-.45,2.72-.67,4.07q-.66,4.05-1.31,8-1.29,7.95-2.53,15.54C57,402.7,55.43,412.25,54,421l0,.31.32,0L102,429l13.33,2.1,3.5.53.89.13.29,0-.32-.07-.92-.17-3.55-.62-13.38-2.27-14.67-2.45L120,431.62a1.32,1.32,0,0,0,0,.21,1.56,1.56,0,0,0,.06-.26c0-.21.09-.47.15-.81.13-.75.32-1.81.56-3.18.48-2.84,1.18-6.95,2.07-12.17,1.77-10.57,4.29-25.63,7.31-43.71l.05-.31ZM108.4,403,95.65,413.89l-13.71-26.6L54.78,420.38c1.41-8.57,2.94-17.86,4.55-27.67l2.55-15.54q.66-4,1.32-8c.22-1.35.44-2.71.67-4.07L64.2,363l.17-1,.08-.51,0-.16,65,10.58c-2.86,17.88-5.23,32.79-6.91,43.27-.82,5.26-1.47,9.4-1.92,12.26-.21,1.4-.37,2.49-.49,3.25l-.12.85s0,0,0,.07Z" style="fill:#e0e0e0"></path><path d="M54.06,111.5s-6.63,2.69,1,16.76,12.87,21,12.87,21,1.38,3.28-1.4,3.86-8.94-.23-10.09,3.21,1.46,6.85,6.75,9.64,16.64,9.34,17.66,9.93,2,2.1.22,2.8-15.6,2.51-14.35,9,17.25,11.84,19,12.46,2.17,1.34,2.06,2.29-4.8,1.11-8.7,1.79-8.29,2.13-7.26,5.81,10.62,11.22,33.49,12.86L116,223l5.56-9.13c10.69-20.28,9.37-32.41,6.79-35.23s-6.15.14-8.78,3.09-5.25,6.84-6.11,6.43-1.25-1.14-.86-2.95,4.31-18.22-.53-22.7-13.66,6.25-15.22,7.43-2.3-.5-2.26-1.67S95,154,95.45,148s-.94-9.94-4.61-10.82-6.09,4.83-8.06,6.87-4-.86-4-.86-3.12-8.1-11-22-13.81-9.6-13.81-9.6" style="fill:#ebebeb"></path><path d="M116.57,225.47c-5.77-10.26-15.7-28.66-24.32-44.41s-16.42-30-22.13-40.29L63.35,128.6c-.8-1.43-1.41-2.55-1.84-3.32l-.47-.86a3.1,3.1,0,0,1-.15-.3l.18.28c.12.21.28.49.5.85.44.76,1.07,1.87,1.89,3.28,1.64,2.85,4,7,6.87,12.13,5.76,10.25,13.6,24.49,22.21,40.24s18.52,34.17,24.23,44.45" style="fill:#e0e0e0"></path><path d="M65,157.84a3.91,3.91,0,0,1,.74.19c.48.14,1.16.36,2,.64,1.67.56,4,1.41,6.48,2.38l6.43,2.51,2,.75a3.37,3.37,0,0,1,.71.31,4.24,4.24,0,0,1-.75-.18c-.47-.15-1.15-.37-2-.66-1.67-.58-4-1.45-6.47-2.42l-6.44-2.47-2-.74A3.41,3.41,0,0,1,65,157.84Z" style="fill:#e0e0e0"></path><path d="M84.06,163.92c-.09,0,1.44-4.84,3.41-10.74s3.63-10.66,3.72-10.63-1.44,4.84-3.41,10.74S84.15,164,84.06,163.92Z" style="fill:#e0e0e0"></path><path d="M96.19,188.7a5.3,5.3,0,0,1,.42-.66l1.22-1.76c1-1.48,2.42-3.54,3.89-5.87s2.73-4.47,3.63-6c.43-.73.79-1.35,1.07-1.85a4.1,4.1,0,0,1,.43-.66,4,4,0,0,1-.32.72c-.22.46-.55,1.11-1,1.91-.85,1.59-2.08,3.76-3.56,6.09s-2.91,4.37-4,5.83c-.54.72-1,1.3-1.31,1.69S96.21,188.72,96.19,188.7Z" style="fill:#e0e0e0"></path><path d="M77.78,187a3.34,3.34,0,0,1,.72,0l2,.1c1.66.11,4,.27,6.49.47s4.83.41,6.49.57l2,.21a3.59,3.59,0,0,1,.71.12,2.38,2.38,0,0,1-.72,0l-2-.11c-1.66-.1-4-.26-6.49-.47s-4.83-.4-6.49-.56l-2-.21A2.42,2.42,0,0,1,77.78,187Z" style="fill:#e0e0e0"></path><path d="M85.71,210.24a3.7,3.7,0,0,1,.93,0l2.53.12c2.13.12,5.08.31,8.33.54s6.2.46,8.32.63l2.52.24a6.09,6.09,0,0,1,.93.12,3.77,3.77,0,0,1-.93,0l-2.53-.12c-2.14-.12-5.08-.31-8.34-.54s-6.19-.45-8.32-.63l-2.52-.23A6.4,6.4,0,0,1,85.71,210.24Z" style="fill:#e0e0e0"></path><path d="M108.71,211.7a5.84,5.84,0,0,1,.51-.86l1.46-2.29c1.23-1.92,2.92-4.59,4.7-7.59s3.34-5.76,4.44-7.76l1.31-2.37a5.58,5.58,0,0,1,.52-.86,6.71,6.71,0,0,1-.4.92c-.28.57-.7,1.4-1.22,2.42-1.06,2-2.57,4.81-4.36,7.81s-3.51,5.66-4.8,7.56c-.64.95-1.17,1.71-1.55,2.23A5.49,5.49,0,0,1,108.71,211.7Z" style="fill:#e0e0e0"></path><rect x="544.75" y="206.05" width="171.55" height="106.32" rx="7.87" style="fill:#e0e0e0"></rect><circle cx="630.52" cy="260.66" r="13.07" transform="translate(0.36 522.19) rotate(-45)" style="fill:#ebebeb"></circle><path d="M627.37,264.48v-7.71a.5.5,0,0,1,.73-.43l6.9,3.89a.49.49,0,0,1,0,.86l-6.89,3.82A.49.49,0,0,1,627.37,264.48Z" style="fill:#fff"></path><path d="M554.55,300.16v.28h-1.29v-.22l.7-.66c.17-.17.2-.27.2-.37s-.11-.25-.33-.25a.51.51,0,0,0-.41.18l-.23-.17a.83.83,0,0,1,.67-.29c.38,0,.63.19.63.5a.72.72,0,0,1-.29.56l-.47.44Z" style="fill:#fff"></path><path d="M554.73,299.29a.2.2,0,0,1,.2-.21.21.21,0,0,1,0,.42A.2.2,0,0,1,554.73,299.29Zm0,1a.2.2,0,0,1,.2-.21.2.2,0,0,1,.21.21.2.2,0,0,1-.21.2A.19.19,0,0,1,554.73,300.25Z" style="fill:#fff"></path><path d="M556,298.68v1.76h-.32V299h-.37v-.28Z" style="fill:#fff"></path><path d="M557.86,300h-.31v.4h-.31V300h-1v-.23l.87-1.13h.35l-.82,1.08h.58v-.35h.3v.35h.31Z" style="fill:#fff"></path><rect x="560.72" y="299.29" width="132.86" height="0.7" style="fill:#fff"></rect><rect x="560.62" y="298.56" width="41.52" height="1.88" style="fill:#ebebeb"></rect><path d="M603.48,299.64a2,2,0,1,1-2-2A2,2,0,0,1,603.48,299.64Z" style="fill:#ebebeb"></path><path d="M696.93,299.62a.58.58,0,0,1-.64.57c-.48,0-.76-.31-.76-.87a.83.83,0,0,1,.86-.93.92.92,0,0,1,.46.11l-.12.25a.53.53,0,0,0-.33-.09c-.33,0-.54.21-.54.6h0a.57.57,0,0,1,.47-.19A.55.55,0,0,1,696.93,299.62Zm-.31,0c0-.19-.14-.3-.35-.3a.32.32,0,0,0-.36.3c0,.17.13.29.36.29S696.62,299.82,696.62,299.64Z" style="fill:#fff"></path><path d="M697.09,299a.2.2,0,0,1,.2-.21.21.21,0,1,1,0,.42A.2.2,0,0,1,697.09,299Zm0,1a.2.2,0,0,1,.2-.21.2.2,0,0,1,.21.21.2.2,0,0,1-.21.2A.19.19,0,0,1,697.09,300Z" style="fill:#fff"></path><path d="M697.71,299.29c0-.58.31-.9.73-.9s.73.32.73.9-.31.9-.73.9S697.71,299.87,697.71,299.29Zm1.14,0c0-.42-.17-.62-.41-.62s-.4.2-.4.62.16.62.4.62S698.85,299.71,698.85,299.29Z" style="fill:#fff"></path><path d="M699.39,299.29c0-.58.32-.9.73-.9s.74.32.74.9-.32.9-.74.9S699.39,299.87,699.39,299.29Zm1.14,0c0-.42-.17-.62-.41-.62s-.4.2-.4.62.16.62.4.62S700.53,299.71,700.53,299.29Z" style="fill:#fff"></path><polygon points="703.73 299.18 703.03 299.18 703.03 297.39 704.82 297.39 704.82 298.09 703.73 298.09 703.73 299.18" style="fill:#fff"></polygon><polygon points="704.82 301.51 703.03 301.51 703.03 299.72 703.73 299.72 703.73 300.81 704.82 300.81 704.82 301.51" style="fill:#fff"></polygon><polygon points="707.65 301.51 705.86 301.51 705.86 300.81 706.95 300.81 706.95 299.71 707.65 299.71 707.65 301.51" style="fill:#fff"></polygon><polygon points="707.65 299.18 706.95 299.18 706.95 298.09 705.86 298.09 705.86 297.39 707.65 297.39 707.65 299.18" style="fill:#fff"></polygon><path d="M685,216.39a28,28,0,0,1,3.62-.2h.19v.2c0,1.37,0,2.92,0,4.59v.59l-.42-.42-.49-.48-1.22-1.23h.33l-1.92,1.69-.37.32V221c0-1.42.07-2.6.11-3.4a6,6,0,0,1,.1-1.19,7.49,7.49,0,0,1,.11,1.33c0,.81.09,1.93.11,3.26l-.36-.16,1.89-1.73.17-.15.16.16,1.23,1.22.48.49-.42.17c0-1.67,0-3.22,0-4.59l.2.19C686.51,216.53,685.06,216.43,685,216.39Z" style="fill:#fff"></path><path d="M698.28,217a12.4,12.4,0,0,1-.87,1.12c-.59.73-1.48,1.83-2.57,3l-.4.46V221c0-.72,0-1.49,0-2.28v-.22l.07.17-1.6-1.55-.42-.41h.58c1.59,0,3,.1,3.86.16a10.78,10.78,0,0,1,1.36.1s-.64,0-1.57.09-2.19.11-3.65.11l.16-.4c.51.49,1,1,1.62,1.54l.07.07v.33c0,.79,0,1.56,0,2.28l-.4-.16c1-1.11,1.93-2,2.62-2.71S698.23,217,698.28,217Z" style="fill:#fff"></path><path d="M698.28,217c.06.13-.71.57-1.71,1a4.33,4.33,0,0,1-1.9.53c0-.13.71-.57,1.71-1A4.33,4.33,0,0,1,698.28,217Z" style="fill:#fff"></path><path d="M704.76,216.39s.23-.08.65,0a2.46,2.46,0,0,1,1.52.91,2.72,2.72,0,0,1,.45,2.6,2.77,2.77,0,0,1-5.23,0,2.71,2.71,0,0,1,.44-2.6,2.48,2.48,0,0,1,1.52-.91c.42-.07.65,0,.65,0s-.23.05-.6.17a2.61,2.61,0,0,0-1.3.94,2.4,2.4,0,0,0-.29,2.24,2.34,2.34,0,0,0,4.38,0,2.4,2.4,0,0,0-.29-2.24,2.61,2.61,0,0,0-1.3-.94C705,216.44,704.76,216.43,704.76,216.39Z" style="fill:#fff"></path><path d="M705.63,220c-.09.09-.66-.32-1.26-.92l-.07-.07v-.12c0-.86.11-1.55.24-1.55s.25.69.25,1.55v0l-.07-.18C705.32,219.38,705.73,219.94,705.63,220Z" style="fill:#fff"></path><path d="M642.62,219.87c0,.13-17.63.24-39.37.24s-39.38-.11-39.38-.24,17.63-.25,39.38-.25S642.62,219.73,642.62,219.87Z" style="fill:#fff"></path><circle cx="557.05" cy="219.87" r="3.11" style="fill:#fff"></circle></g><g id="freepik--Window--inject-212"><rect x="112.29" y="44.39" width="505.78" height="364.08" style="fill:#fff"></rect><rect x="111.66" y="44.39" width="505.78" height="26.91" style="fill:#e0e0e0"></rect><path d="M129.57,58.33a3.31,3.31,0,1,1-3.3-3.5A3.4,3.4,0,0,1,129.57,58.33Z" style="fill:#263238"></path><path d="M141.85,58.33a3.31,3.31,0,1,1-3.31-3.5A3.4,3.4,0,0,1,141.85,58.33Z" style="fill:#263238"></path><path d="M154.12,58.33a3.31,3.31,0,1,1-3.3-3.5A3.39,3.39,0,0,1,154.12,58.33Z" style="fill:#263238"></path><path d="M329.73,100.28c0,.19-11.05.34-24.67.34s-24.67-.15-24.67-.34,11-.35,24.67-.35S329.73,100.08,329.73,100.28Z" style="fill:#263238"></path><path d="M395.36,100.28c0,.19-11.05.34-24.67.34s-24.67-.15-24.67-.34,11-.35,24.67-.35S395.36,100.08,395.36,100.28Z" style="fill:#263238"></path><path d="M461,100.28c0,.19-11.05.34-24.67.34s-24.67-.15-24.67-.34,11-.35,24.67-.35S461,100.08,461,100.28Z" style="fill:#263238"></path><path d="M527.2,100.28c0,.19-11,.34-24.67.34s-24.67-.15-24.67-.34,11.05-.35,24.67-.35S527.2,100.08,527.2,100.28Z" style="fill:#263238"></path><path d="M584.72,108.59s.42,0,1.18-.21a5.5,5.5,0,0,0,2.84-1.85,5.73,5.73,0,0,0,1.12-2.25,11.57,11.57,0,0,0,.18-3.07c-.14-2.19.49-5-1.38-7.12a5.14,5.14,0,0,0-3.52-1.83c-1.41,0-3,0-4.53,0l-10,0-23,0a5.2,5.2,0,0,0-4.61,3,6.15,6.15,0,0,0-.58,2.88v3.09a11.56,11.56,0,0,0,.18,2.92,5.6,5.6,0,0,0,1.3,2.41A5.26,5.26,0,0,0,546,108a8.15,8.15,0,0,0,2.58.25l18.79.07,12.67.11,3.45.07.89,0c.21,0,.31,0,.31,0a1.2,1.2,0,0,1-.31,0l-.89,0-3.45.07-12.67.11-18.79.07a8.26,8.26,0,0,1-2.76-.26,5.88,5.88,0,0,1-2.45-1.58,6.2,6.2,0,0,1-1.46-2.69,6.45,6.45,0,0,1-.2-1.58c0-.51,0-1,0-1.52V98.18a6.71,6.71,0,0,1,.64-3.19,5.83,5.83,0,0,1,5.19-3.37l23,0,10,0c1.58,0,3.08,0,4.57,0a5.63,5.63,0,0,1,3.82,2,6.15,6.15,0,0,1,1.42,3.83c0,1.27,0,2.48,0,3.61a11.57,11.57,0,0,1-.24,3.16,5.91,5.91,0,0,1-1.23,2.34,5.43,5.43,0,0,1-3,1.8A3.83,3.83,0,0,1,584.72,108.59Z" style="fill:#263238"></path><rect x="150.65" y="195.5" width="153.18" height="31.41" rx="8.61" style="fill:#e0e0e0"></rect><path d="M111.66,44.39l505.79-.25h.26v.25c0,109.86,0,233.6,0,364v.33h-.28l-505.79-.05h-.23v-.23c.14-221,.23-362.19.23-364.09,0,1.9.1,143.11.23,364.09l-.23-.23,505.79-.06-.28.29v-.05c0-130.44,0-254.18,0-364l.26.26Z" style="fill:#263238"></path><path d="M574.31,260.74s0-.64,0-1.86,0-3,0-5.38c0-4.73,0-11.69,0-20.62,0-17.85-.06-43.59-.11-75.22l.2.2L393,157.92h0l.26-.26c0,36.46,0,71.32,0,103.07l-.25-.24,130.41.12,37.44.07,10,0h2.58l.88,0h-3.4l-9.93,0-37.39.07L393,261h-.24v-.25c0-31.75,0-66.61,0-103.07v-.26H393l181.27.06h.2v.2c0,31.68-.08,57.47-.1,75.34,0,8.92,0,15.85,0,20.57,0,2.35,0,4.14,0,5.35S574.31,260.74,574.31,260.74Z" style="fill:#FF725E"></path><path d="M570.39,157.52l-.44.3-1.3.83-5,3.14c-4.37,2.71-10.72,6.61-18.59,11.37-15.73,9.55-37.6,22.53-62,36.48s-46.66,26.21-62.85,35c-8.1,4.38-14.67,7.89-19.22,10.28l-5.25,2.75-1.37.71a5,5,0,0,1-.47.22,5,5,0,0,1,.45-.27l1.34-.75,5.2-2.84L420,244.28c16.15-8.83,38.39-21.15,62.77-35.1s46.26-26.87,62-36.33l18.68-11.24,5.08-3.05,1.33-.78C570.23,157.6,570.39,157.52,570.39,157.52Z" style="fill:#FF725E"></path><path d="M572.22,260.74c-.07.12-39.85-22.66-88.83-50.87s-88.64-51.2-88.57-51.32,39.84,22.65,88.83,50.87S572.29,260.61,572.22,260.74Z" style="fill:#FF725E"></path><path d="M570.62,312c0,.2-39.62.36-88.47.36s-88.49-.16-88.49-.36,39.61-.37,88.49-.37S570.62,311.79,570.62,312Z" style="fill:#263238"></path><path d="M570.62,322.72c0,.2-39.62.36-88.47.36s-88.49-.16-88.49-.36,39.61-.37,88.49-.37S570.62,322.52,570.62,322.72Z" style="fill:#263238"></path><path d="M472.59,349.42c0,.19-17.37.34-38.78.34s-38.79-.15-38.79-.34,17.36-.33,38.79-.33S472.59,349.24,472.59,349.42Z" style="fill:#263238"></path><path d="M548.19,336.49c0,.18-34.29.33-76.58.33s-76.59-.15-76.59-.33,34.28-.34,76.59-.34S548.19,336.3,548.19,336.49Z" style="fill:#263238"></path><path d="M593.93,369.26s0-.5,0-1.45,0-2.36,0-4.21c0-3.71,0-9.18,0-16.24,0-14.1-.05-34.58-.09-60.1l.18.17-220.25.09h0l.26-.26c0,28.62,0,56.31,0,82l-.25-.25,157.81.11,45.89.07,12.29,0h3.18l1.09,0h-1.06l-3.15,0-12.24,0-45.83.07-158,.12h-.25v-.25c0-25.69,0-53.38,0-82V287h.27l220.25.08h.17v.18c0,25.56-.07,46.08-.09,60.21,0,7,0,12.49,0,16.19,0,1.84,0,3.24,0,4.19S593.93,369.26,593.93,369.26Z" style="fill:#263238"></path><ellipse cx="158.68" cy="101.16" rx="11.21" ry="10.71" style="fill:#FF725E"></ellipse><rect x="75.58" y="230.89" width="79.21" height="55.11" style="fill:#455a64"></rect><path d="M154.78,230.89c.09.12-17.55,12.66-39.38,28S75.79,286.6,75.7,286.48s17.55-12.66,39.4-28S154.7,230.77,154.78,230.89Z" style="fill:#263238"></path><path d="M154.78,286l-.21-.12-.61-.4-2.3-1.57L143.27,278l-27.6-19.51L88.17,238.9l-8.3-6-2.24-1.66c-.24-.17-.43-.32-.58-.44l-.19-.16s.08,0,.22.12l.61.4,2.3,1.57,8.39,5.86L116,258.11l27.5,19.63,8.3,6,2.24,1.65.58.44C154.73,285.93,154.79,286,154.78,286Z" style="fill:#263238"></path></g><g id="freepik--HTML--inject-212"><rect x="141.23" y="352.8" width="210.87" height="119.83" style="fill:#fafafa"></rect><path d="M352.11,472.63s0-.74,0-2.15,0-3.52,0-6.26c0-5.5,0-13.58-.05-24,0-20.75-.06-50.68-.1-87.46l.2.2-210.86.06h0l.26-.26c0,42.39,0,82.92,0,119.83l-.24-.24,151.7.11,43.55.07,11.61,0h3l1,0h-1l-3,0-11.55,0-43.5.06-151.86.12H141v-.24c0-36.91,0-77.44,0-119.83v-.26h.28l210.86.06h.2v.2c-.05,36.83-.08,66.81-.11,87.58,0,10.37,0,18.43-.05,23.92,0,2.73,0,4.81,0,6.22S352.11,472.63,352.11,472.63Z" style="fill:#263238"></path><path d="M226.79,372.35c0,.14-14.33.26-32,.26s-32-.12-32-.26,14.32-.26,32-.26S226.79,372.21,226.79,372.35Z" style="fill:#ebebeb"></path><path d="M260.29,383.83c0,.15-14.33.26-32,.26s-32-.11-32-.26,14.32-.26,32-.26S260.29,383.69,260.29,383.83Z" style="fill:#ebebeb"></path><path d="M330,372.35c0,.14-14.32.26-32,.26s-32-.12-32-.26,14.33-.26,32-.26S330,372.21,330,372.35Z" style="fill:#ebebeb"></path><path d="M254,372.34a72.94,72.94,0,0,1-8.64.26,72.94,72.94,0,0,1-8.64-.26,72.94,72.94,0,0,1,8.64-.26A72.94,72.94,0,0,1,254,372.34Z" style="fill:#ebebeb"></path><path d="M181.94,383.83a70.33,70.33,0,0,1-8.64.26,70.46,70.46,0,0,1-8.64-.26,72.94,72.94,0,0,1,8.64-.26A72.8,72.8,0,0,1,181.94,383.83Z" style="fill:#ebebeb"></path><path d="M285.2,383.35a67.7,67.7,0,0,1-8.32.26,67.46,67.46,0,0,1-8.31-.26,67.46,67.46,0,0,1,8.31-.26A67.7,67.7,0,0,1,285.2,383.35Z" style="fill:#ebebeb"></path><path d="M226.79,398.65c0,.14-14.33.26-32,.26s-32-.12-32-.26,14.32-.26,32-.26S226.79,398.5,226.79,398.65Z" style="fill:#ebebeb"></path><path d="M260.29,410.13c0,.15-14.33.26-32,.26s-32-.11-32-.26,14.32-.26,32-.26S260.29,410,260.29,410.13Z" style="fill:#ebebeb"></path><path d="M330,398.65c0,.14-14.32.26-32,.26s-32-.12-32-.26,14.33-.26,32-.26S330,398.5,330,398.65Z" style="fill:#ebebeb"></path><path d="M254,398.64a72.94,72.94,0,0,1-8.64.26,72.94,72.94,0,0,1-8.64-.26,72.94,72.94,0,0,1,8.64-.26A72.94,72.94,0,0,1,254,398.64Z" style="fill:#ebebeb"></path><path d="M181.94,410.13a70.33,70.33,0,0,1-8.64.26,70.46,70.46,0,0,1-8.64-.26,72.94,72.94,0,0,1,8.64-.26A72.8,72.8,0,0,1,181.94,410.13Z" style="fill:#ebebeb"></path><path d="M285.2,409.65a67.7,67.7,0,0,1-8.32.26,67.46,67.46,0,0,1-8.31-.26,65.17,65.17,0,0,1,8.31-.26A65.4,65.4,0,0,1,285.2,409.65Z" style="fill:#ebebeb"></path><path d="M227.38,444.24c0,.15-14.32.26-32,.26s-32-.11-32-.26,14.33-.26,32-.26S227.38,444.1,227.38,444.24Z" style="fill:#ebebeb"></path><path d="M260.88,455.73c0,.14-14.33.26-32,.26s-32-.12-32-.26,14.33-.26,32-.26S260.88,455.59,260.88,455.73Z" style="fill:#ebebeb"></path><path d="M330.59,444.24c0,.15-14.33.26-32,.26s-32-.11-32-.26,14.32-.26,32-.26S330.59,444.1,330.59,444.24Z" style="fill:#ebebeb"></path><path d="M254.58,444.24a72.94,72.94,0,0,1-8.64.26,72.8,72.8,0,0,1-8.64-.26,70.33,70.33,0,0,1,8.64-.26A70.46,70.46,0,0,1,254.58,444.24Z" style="fill:#ebebeb"></path><path d="M182.54,455.73a72.94,72.94,0,0,1-8.64.26,72.94,72.94,0,0,1-8.64-.26,72.94,72.94,0,0,1,8.64-.26A72.94,72.94,0,0,1,182.54,455.73Z" style="fill:#ebebeb"></path><path d="M285.79,455.24a65.17,65.17,0,0,1-8.31.26,65.27,65.27,0,0,1-8.32-.26,67.56,67.56,0,0,1,8.32-.26A67.46,67.46,0,0,1,285.79,455.24Z" style="fill:#ebebeb"></path><path d="M226.79,423.38c0,.14-14.33.26-32,.26s-32-.12-32-.26,14.32-.26,32-.26S226.79,423.23,226.79,423.38Z" style="fill:#ebebeb"></path><path d="M260.29,434.86c0,.14-14.33.26-32,.26s-32-.12-32-.26,14.32-.26,32-.26S260.29,434.72,260.29,434.86Z" style="fill:#ebebeb"></path><path d="M330,423.38c0,.14-14.32.26-32,.26s-32-.12-32-.26,14.33-.26,32-.26S330,423.23,330,423.38Z" style="fill:#ebebeb"></path><path d="M254,423.37a72.94,72.94,0,0,1-8.64.26,72.94,72.94,0,0,1-8.64-.26,70.46,70.46,0,0,1,8.64-.26A70.46,70.46,0,0,1,254,423.37Z" style="fill:#ebebeb"></path><path d="M181.94,434.86a72.8,72.8,0,0,1-8.64.26,72.94,72.94,0,0,1-8.64-.26,72.94,72.94,0,0,1,8.64-.26A72.8,72.8,0,0,1,181.94,434.86Z" style="fill:#ebebeb"></path><path d="M285.2,434.38a67.7,67.7,0,0,1-8.32.26,67.46,67.46,0,0,1-8.31-.26,65.17,65.17,0,0,1,8.31-.26A65.4,65.4,0,0,1,285.2,434.38Z" style="fill:#ebebeb"></path><path d="M215.2,399.56v21.85h-4.06V412h-11.3v9.37h-4.06V399.56h4.06v9h11.3v-9Z" style="fill:#263238"></path><path d="M225.49,403h-7.24v-3.43H236.8V403h-7.25v18.42h-4.06Z" style="fill:#263238"></path><path d="M259.92,421.41l0-14.49-7.18,12H250.9l-7.18-11.8v14.3h-3.87V399.56h3.34L251.87,414l8.52-14.48h3.34l0,21.85Z" style="fill:#263238"></path><path d="M269.66,399.56h4.06V418h11.42v3.44H269.66Z" style="fill:#263238"></path></g><g id="freepik--speech-bubble--inject-212"><path d="M209.16,155.51l-11.2-5.7a29.26,29.26,0,1,0-1.55,10.38h0Z" style="fill:#fff"></path><path d="M209.16,155.51l-12.71,4.81a.11.11,0,0,1-.16-.07.13.13,0,0,1,0-.06h0l.25,0a29.25,29.25,0,0,1-8.45,12.7,25.25,25.25,0,0,1-3.74,2.75c-.69.41-1.37.84-2.1,1.23L180,178a29.56,29.56,0,0,1-21.76.29,29.25,29.25,0,0,1-10.38-6.72,29.83,29.83,0,0,1-6.9-11.07A29,29,0,0,1,139.52,147a29.44,29.44,0,0,1,5-13,29.83,29.83,0,0,1,9.85-8.93,29,29,0,0,1,12-3.67,29.63,29.63,0,0,1,21,6.63,31.21,31.21,0,0,1,6.31,7.25,29.17,29.17,0,0,1,4.35,14.54l-.07-.11,11.14,5.81-11.26-5.59a.11.11,0,0,1-.06-.11,29.06,29.06,0,0,0-4.4-14.35,31.44,31.44,0,0,0-6.27-7.13,29.33,29.33,0,0,0-20.74-6.46,28.41,28.41,0,0,0-11.82,3.63,29.45,29.45,0,0,0-9.68,8.78A29,29,0,0,0,140,147a28.47,28.47,0,0,0,1.37,13.29,29.35,29.35,0,0,0,6.78,10.89,28.66,28.66,0,0,0,10.19,6.62,29.21,29.21,0,0,0,21.44-.22l2.24-1c.71-.39,1.39-.81,2.08-1.21a25.88,25.88,0,0,0,3.7-2.7,29.09,29.09,0,0,0,8.45-12.51.13.13,0,0,1,.16-.08.14.14,0,0,1,.09.14h0l-.18-.13Z" style="fill:#263238"></path><path d="M175.36,157.16a3,3,0,0,1,.45-.51l1.31-1.32c1.11-1.09,2.66-2.6,4.39-4.24l0,0v.22c-1.74-1.61-3.3-3.09-4.42-4.16l-1.31-1.29a3.65,3.65,0,0,1-.46-.5s.21.13.54.41l1.38,1.22c1.15,1,2.74,2.48,4.48,4.1l.11.11-.11.11,0,0c-1.73,1.64-3.3,3.12-4.45,4.18l-1.37,1.24A3,3,0,0,1,175.36,157.16Z" style="fill:#263238"></path><path d="M175.36,157.29a.14.14,0,0,1-.09,0h0c-.09-.1-.06-.14.45-.68l1.31-1.31c1.13-1.12,2.62-2.56,4.22-4.09-1.58-1.46-3.06-2.86-4.21-4l-1.31-1.29c-.5-.5-.56-.57-.46-.68s.16,0,.71.41l1.38,1.22c1.18,1,2.69,2.44,4.29,3.92l0,0v0l.17.16.22.2-.26.24-.12.12v0l0,0c-1.63,1.55-3.16,3-4.31,4L176,156.83C175.59,157.17,175.44,157.29,175.36,157.29Zm6.07-6-3.37,3.25c1-.92,2.17-2,3.41-3.21h0Zm.24-.19v0l0,0Zm-3.58-3.29c1,.94,2.14,2,3.34,3.14l0,0C180.26,149.83,179.09,148.76,178.09,147.85Z" style="fill:#263238"></path><path d="M161.94,145.32a2.41,2.41,0,0,1-.45.51l-1.3,1.31c-1.12,1.1-2.67,2.6-4.39,4.25l0,0v-.22c1.74,1.61,3.3,3.08,4.42,4.16l1.31,1.29c.31.3.47.48.45.5a4.13,4.13,0,0,1-.53-.42L160,155.53c-1.16-1-2.74-2.49-4.48-4.1l-.12-.11.12-.11,0,0c1.72-1.65,3.3-3.12,4.45-4.18l1.37-1.25A3.22,3.22,0,0,1,161.94,145.32Z" style="fill:#263238"></path><path d="M162,157.29c-.08,0-.22-.11-.62-.45L160,155.62c-1.16-1-2.68-2.42-4.29-3.92l0,0v0l-.17-.16-.22-.2.25-.24.13-.12v0l0,0c1.63-1.55,3.15-3,4.3-4.05l1.38-1.24c.54-.47.6-.52.7-.42s0,.18-.45.69l-1.31,1.31c-1.12,1.11-2.61,2.55-4.21,4.08,1.59,1.49,3.08,2.89,4.2,4l1.32,1.29c.5.51.55.56.46.67A.14.14,0,0,1,162,157.29Zm-6.11-5.77c1.22,1.14,2.38,2.2,3.38,3.1l-3.34-3.13Zm-.23-.2h0v0Zm.22-.21h0l0,0c1.23-1.17,2.4-2.29,3.38-3.25C158.25,148.82,157.07,149.93,155.83,151.11Z" style="fill:#263238"></path><path d="M165.39,160c-.08,0,1.33-4,3.14-8.85s3.36-8.76,3.43-8.73-1.33,4-3.14,8.84S165.47,160,165.39,160Z" style="fill:#263238"></path><path d="M165.4,160.08l-.06,0h0c-.15-.05-.17-.06.79-2.77.6-1.67,1.41-3.88,2.29-6.23s1.71-4.55,2.36-6.2c1.05-2.67,1.08-2.67,1.23-2.61s.17.06-.79,2.77c-.6,1.67-1.41,3.89-2.29,6.23s-1.71,4.55-2.36,6.21C165.65,159.78,165.52,160.08,165.4,160.08Zm5.15-13.93c-.53,1.37-1.17,3.06-1.9,5s-1.35,3.64-1.85,5c.53-1.36,1.17-3,1.9-5S170.05,147.53,170.55,146.15Z" style="fill:#263238"></path></g><g id="freepik--Floor--inject-212"><path d="M676,472.63c0,.14-137,.26-306,.26s-306-.12-306-.26,137-.26,306-.26S676,472.49,676,472.63Z" style="fill:#263238"></path></g><g id="freepik--Character--inject-212"><path d="M243.12,126.73a12.22,12.22,0,0,1,10.77-10.24,16.08,16.08,0,0,0,4.17-.47,25.33,25.33,0,0,0,3-1.71,8.16,8.16,0,0,1,10,2.08c2.14,2.74,3-1.07,8.06,1.93,4.19,2.49,2,6,2,6a9.37,9.37,0,0,1,9.3,7.42c.5,2.7-.05,6,2.05,7.74,1,.86,2.44,1.09,3.5,1.91,1.95,1.51,2,4.43,1.58,6.86s-1.2,5-.3,7.3c1.48,3.78,6.86,5.27,7.52,9.27.31,1.89-.48,4.16.83,5.55a6.53,6.53,0,0,0,2,1.16,8.55,8.55,0,0,1,.32,15.18c-.76.42-1.67.8-2,1.62s.28,1.86.71,2.73a8.21,8.21,0,0,1-11.69,10.65,12.85,12.85,0,0,1-7.55,6,7.81,7.81,0,0,1-4.49.12,9,9,0,0,1-3.08-1.9c-4.37-3.81-10.5-9.64-10.91-15.42" style="fill:#263238"></path><path d="M344,194.91l-26.2,24c-3.25-.75-43.14-24.6-43.14-24.6L268.38,225s40.83,18.77,52.06,16.5c1.84-.38,4.85-.61,6.74-3,9-11.55,28.06-40.13,28.06-40.13Z" style="fill:#ffbe9d"></path><path d="M356.69,168.5c-1.73.71-7.91,11.13-7.91,11.13l-1.55.08a4.92,4.92,0,0,0-4.62,5.51c.51,4.34,1.42,9.69,1.42,9.69l8.64,3.94,2.57-.54c2.38-.12,4.7-5,6.17-8.38s-.94-4.09-.94-4.09c0-3.39-2.87-2.72-2.87-2.72a3,3,0,0,0-3.09-2.94s3.83-7,4.58-9.49S358.42,167.8,356.69,168.5Z" style="fill:#ffbe9d"></path><path d="M357.43,183.12a16.72,16.72,0,0,1-.9,2.19,9,9,0,0,1-.54,1.08,4.83,4.83,0,0,1-.94,1.05,3.37,3.37,0,0,1-1.41.72,2.13,2.13,0,0,1-1.67-.4,1.48,1.48,0,0,1-.49-.77,2.14,2.14,0,0,1,0-.87,8.73,8.73,0,0,1,.44-1.47A19,19,0,0,1,353,182.3a14,14,0,0,1,.91-1.47,2,2,0,0,1,.4-.5c.05,0-.46.78-1.1,2.08a21.51,21.51,0,0,0-1,2.35,9.31,9.31,0,0,0-.41,1.42,1.35,1.35,0,0,0,.41,1.31,1.8,1.8,0,0,0,1.4.33,3.06,3.06,0,0,0,1.26-.63,4.49,4.49,0,0,0,.9-1,7.46,7.46,0,0,0,.56-1A15.65,15.65,0,0,1,357.43,183.12Z" style="fill:#eb996e"></path><path d="M360.37,185.36a2.32,2.32,0,0,1-.14.6,13.49,13.49,0,0,1-.57,1.57,7.77,7.77,0,0,1-1.31,2.14,3.31,3.31,0,0,1-1.2.92,1.51,1.51,0,0,1-2.16-1.74,7.37,7.37,0,0,1,.4-1.44,21.56,21.56,0,0,1,.93-2.29c.3-.64.57-1.15.77-1.49a1.86,1.86,0,0,1,.34-.51c.05,0-.35.8-.89,2.09-.27.65-.57,1.43-.85,2.3a6.36,6.36,0,0,0-.36,1.38,1.18,1.18,0,0,0,1.69,1.39,3.23,3.23,0,0,0,1.1-.83,7.74,7.74,0,0,0,1.32-2C360,186.17,360.32,185.34,360.37,185.36Z" style="fill:#eb996e"></path><path d="M361.9,187.87a3.94,3.94,0,0,1-.34,1.61,8,8,0,0,1-.79,1.62,4.7,4.7,0,0,1-.66.86,1.35,1.35,0,0,1-1.18.39,1.13,1.13,0,0,1-.82-.94,2.89,2.89,0,0,1,.06-1.11,7.3,7.3,0,0,1,.64-1.68,13.66,13.66,0,0,1,.77-1.45,5.65,5.65,0,0,1-.55,1.55,8.17,8.17,0,0,0-.55,1.65,2.88,2.88,0,0,0,0,1,.83.83,0,0,0,.56.68,1,1,0,0,0,.88-.31,4.25,4.25,0,0,0,.62-.78,9.64,9.64,0,0,0,.84-1.54C361.73,188.48,361.85,187.86,361.9,187.87Z" style="fill:#eb996e"></path><path d="M347.23,179.71a74.68,74.68,0,0,1,7.64.07,2.79,2.79,0,0,1-1.52,3.3,7.91,7.91,0,0,1-3.9.56,5,5,0,0,1-.11,7.4" style="fill:#ffbe9d"></path><path d="M349.34,191a6.42,6.42,0,0,0,1.25-1.94,4.89,4.89,0,0,0-1.25-5.34l-.32-.3h.44a8.43,8.43,0,0,0,3.49-.4c1.35-.52,2.26-2.06,1.77-3.23l.14.1c-2.23-.17-4.14-.17-5.49-.19H347.8a2.12,2.12,0,0,1-.57,0,2.37,2.37,0,0,1,.56-.07c.37,0,.9-.06,1.58-.08,1.35,0,3.26-.08,5.51.06h.1l0,.1a2.48,2.48,0,0,1-.2,2.15,3.53,3.53,0,0,1-1.73,1.52,8.68,8.68,0,0,1-3.65.41l.12-.28a5.11,5.11,0,0,1,1.56,3,5,5,0,0,1-.34,2.65,4.88,4.88,0,0,1-1,1.47A1.76,1.76,0,0,1,349.34,191Z" style="fill:#eb996e"></path><path d="M297.21,453.7a2.18,2.18,0,0,0,.39-.87,6.13,6.13,0,0,0,.21-2.58,3,3,0,0,0-.21-.88,1.06,1.06,0,0,0-.85-.69.79.79,0,0,0-.64.22,1,1,0,0,0-.26.59,6.39,6.39,0,0,0,0,1.08c.06.73.06,1.42.17,2.27a1.36,1.36,0,0,0,.89,1.07,2.83,2.83,0,0,0,1.35.06,11.05,11.05,0,0,0,2.35-.7,10.26,10.26,0,0,0,1.05-.52,3,3,0,0,0,.95-.72,1,1,0,0,0,0-1.28,1.23,1.23,0,0,0-1.15-.27,6.91,6.91,0,0,0-1.68.69,9.12,9.12,0,0,0-2.08,1.54c-.43.43-.62.72-.59.74a17.72,17.72,0,0,1,2.85-1.92,7.26,7.26,0,0,1,1.58-.59c.28,0,.58,0,.69.14a.51.51,0,0,1-.06.64,2.88,2.88,0,0,1-.8.56c-.32.17-.66.33-1,.48a10.75,10.75,0,0,1-2.24.65,2.2,2.2,0,0,1-1.06,0,.77.77,0,0,1-.53-.66c-.11-.69-.13-1.49-.2-2.18a7.19,7.19,0,0,1-.05-1c0-.28.16-.42.36-.4.47,0,.63.65.71,1.16A8.79,8.79,0,0,1,297.21,453.7Z" style="fill:#263238"></path><path d="M339.78,413.5a2.12,2.12,0,0,0,0-.95,6.32,6.32,0,0,0-1-2.41,2.94,2.94,0,0,0-.57-.69,1.06,1.06,0,0,0-1.07-.25.79.79,0,0,0-.48.48,1.06,1.06,0,0,0,0,.64,5.88,5.88,0,0,0,.5,1c.37.63.67,1.25,1.15,2a1.38,1.38,0,0,0,1.27.57,2.67,2.67,0,0,0,1.23-.55,10.29,10.29,0,0,0,2.52-2.59,3.31,3.31,0,0,0,.54-1.06,1,1,0,0,0-.55-1.16,1.19,1.19,0,0,0-1.14.25,7,7,0,0,0-1.21,1.37,9.28,9.28,0,0,0-1.18,2.3,2.37,2.37,0,0,0-.21.92,19.24,19.24,0,0,1,1.71-3,7,7,0,0,1,1.16-1.22.73.73,0,0,1,.68-.18.5.5,0,0,1,.22.59,2.69,2.69,0,0,1-.46.86,9.4,9.4,0,0,1-.69.87,10,10,0,0,1-1.72,1.57,2.2,2.2,0,0,1-1,.45.79.79,0,0,1-.77-.36c-.4-.57-.78-1.28-1.14-1.87a6,6,0,0,1-.48-.87c-.1-.27,0-.44.14-.52.44-.18.86.31,1.15.73A9.2,9.2,0,0,1,339.78,413.5Z" style="fill:#263238"></path><polygon points="310.13 423.26 297.93 449.71 278.24 440.61 290.86 407.88 310.13 423.26" style="fill:#ffbe9d"></polygon><path d="M300.24,447.94l-7.13,13.6s18.25,18.87,16.53,23.08l-42.9-20.57,11.79-27.26Z" style="fill:#455a64"></path><path d="M280.73,453.32a1.94,1.94,0,0,0-2.17,1.42A1.86,1.86,0,0,0,280,456.9a2.05,2.05,0,0,0,2.29-1.52,2,2,0,0,0-1.69-2.09" style="fill:#e0e0e0"></path><g style="opacity:0.6000000000000001"><path d="M266.74,464.05l1.79-3.42,40.46,21s1.51,1.75.65,3Z" style="fill:#fff"></path></g><path d="M293.91,461.65c-.11.21-1.2-.2-2.56,0s-2.32.8-2.48.62.74-1.24,2.39-1.42S294,461.48,293.91,461.65Z" style="fill:#263238"></path><path d="M297.51,465.67c-.05.23-1.12.15-2.26.69s-1.79,1.39-2,1.28.23-1.36,1.66-2S297.6,465.47,297.51,465.67Z" style="fill:#263238"></path><path d="M297.49,472.28c-.21,0,0-1.23,1.08-2.12s2.29-.88,2.29-.66-.89.54-1.77,1.28S297.7,472.36,297.49,472.28Z" style="fill:#263238"></path><path d="M296,456.41c-.18.15-1-.6-2.22-1.08s-2.33-.56-2.35-.79,1.22-.56,2.65,0S296.13,456.3,296,456.41Z" style="fill:#263238"></path><path d="M310.41,432.34,341.49,355s-.72-13.74-3.25-18.07-79.15-29.64-79.15-29.64-19.52-4.7-32.53,0-22.77,21-21,30S215,353,215,353l56.34,1.68,30.72,11.2L281.4,425.11S292,436.68,310.41,432.34Z" style="fill:#263238"></path><polygon points="337.93 380.49 338.66 409.6 316.98 410.13 313.85 375.19 337.93 380.49" style="fill:#ffbe9d"></polygon><path d="M340,407l-.4,15.35s24.71,8.87,25,13.41l-47.57.49-1.46-29.68Z" style="fill:#455a64"></path><path d="M324.82,420.43a2,2,0,0,0-1.32,2.24,1.87,1.87,0,0,0,2.2,1.32,2.06,2.06,0,0,0,1.39-2.37,1.94,1.94,0,0,0-2.44-1.12" style="fill:#e0e0e0"></path><g style="opacity:0.6000000000000001"><path d="M317,436.25l.09-3.86,45.58,1s2.13.9,1.9,2.39Z" style="fill:#fff"></path></g><path d="M340.32,422.1c0,.23-1.16.35-2.3,1.11s-1.73,1.74-1.95,1.65.12-1.44,1.51-2.33S340.37,421.88,340.32,422.1Z" style="fill:#263238"></path><path d="M345.33,424.11c.06.22-.94.63-1.72,1.62s-1,2-1.23,2-.39-1.33.6-2.54S345.33,423.89,345.33,424.11Z" style="fill:#263238"></path><path d="M348.23,430.05c-.21.06-.55-1.1,0-2.38s1.66-1.8,1.76-1.6-.56.88-1,1.93S348.46,430,348.23,430.05Z" style="fill:#263238"></path><path d="M339.85,416.49c-.1.22-1.17-.09-2.48,0s-2.33.53-2.45.33.85-1,2.4-1.14S340,416.31,339.85,416.49Z" style="fill:#263238"></path><path d="M325.27,299.65s13-1,14.44,13.06,2.86,79.87,2.86,79.87l-30.35,2.53-4.7-67.22-48.43-20.6S316.6,297.85,325.27,299.65Z" style="fill:#263238"></path><path d="M271.72,280.63s7.89,22.11,6.39,24.57-21.78,12.6-21.78,12.6L205.6,337.29s-5.21-8.29-5.21-21S218,280.63,218,280.63Z" style="fill:#263238"></path><path d="M256.69,306.16s.07,0,.23.13l.72.33,2.81,1.25,10.55,4.6,36.41,15.67-.16-.23c.46,6.64.95,13.81,1.47,21.23,1.23,17.35,2.37,33.34,3.27,46l0,.23.22,0,22.12-1.94,6.09-.57,1.59-.17a2.15,2.15,0,0,0,.54-.08l-.54,0-1.6.1-6.1.44-22.13,1.75.24.21c-.87-12.66-2-28.65-3.16-46-.52-7.42-1-14.59-1.49-21.23v-.17l-.16-.06-36.48-15.49-10.61-4.45-2.85-1.16-.74-.29A.84.84,0,0,0,256.69,306.16Z" style="fill:#455a64"></path><path d="M216.34,308.37a6.75,6.75,0,0,0,1.42-.39l3.82-1.23a83.29,83.29,0,0,1,12.79-3.23,37.6,37.6,0,0,1,13.08.17,52.12,52.12,0,0,1,5.25,1.52,6.56,6.56,0,0,0-1.32-.67,23.82,23.82,0,0,0-3.84-1.24,35.35,35.35,0,0,0-13.26-.34,71.07,71.07,0,0,0-12.83,3.41c-1.6.57-2.88,1.06-3.76,1.41A7.29,7.29,0,0,0,216.34,308.37Z" style="fill:#455a64"></path><path d="M223.51,296.72a36.27,36.27,0,0,1,4.43,0c1.37.09,3,.3,4.81.51s3.79.46,5.84.85a27.23,27.23,0,0,1,9.94,3.68,31.75,31.75,0,0,1,3.45,2.78,3.9,3.9,0,0,0-.74-.95,15.16,15.16,0,0,0-2.48-2.16,25.55,25.55,0,0,0-10.06-3.91c-2.08-.39-4.08-.62-5.9-.81s-3.45-.35-4.83-.39a18.1,18.1,0,0,0-3.29.14A4,4,0,0,0,223.51,296.72Z" style="fill:#455a64"></path><path d="M273,193.54a16.39,16.39,0,0,1,8.42,7.32c3.17,5.6,2.32,8.37,1.5,11.68s-2.29,9.88-2.37,9.46S273,193.54,273,193.54Z" style="fill:#ffbe9d"></path><polygon points="272.62 193.53 265.97 189.59 228.47 188.6 241.1 230.02 263.94 244.41 277.48 237.63 278.83 222.58 272.62 193.53" style="fill:#ffbe9d"></polygon><path d="M273,193.54s8.62,27.66,8.42,35.58-3.48,30.42-3.1,34.85-1.17,16.66-6.58,16.66H218s-12.12-3.35-12.65-10.64,9.33-69.61,9.33-69.61S221.56,190,226,189.09s12.68-2.78,15.65,6.41,3.94,13.9,10.27,20.24,15.36,13.45,15.36,13.45,7.28-6.09,7.6-14.33-2.75-21.59-2.75-21.59Z" style="fill:#FF725E"></path><path d="M265,281.23a5.06,5.06,0,0,0,2.12-1.12,12.8,12.8,0,0,0,3.59-4.55,24.51,24.51,0,0,0,1.83-5.49,8.57,8.57,0,0,0,.37-2.35,11.25,11.25,0,0,0-.76,2.25,34.5,34.5,0,0,1-1.94,5.34,14.54,14.54,0,0,1-3.34,4.49C265.81,280.75,265,281.14,265,281.23Z" style="fill:#263238"></path><path d="M236.61,246.94a4.19,4.19,0,0,0,.9.76,15.88,15.88,0,0,0,2.78,1.62,16.64,16.64,0,0,0,4.58,1.38,15.85,15.85,0,0,0,5.86-.25,19.39,19.39,0,0,0,9.12-5.29,23.21,23.21,0,0,0,2.09-2.44,4.46,4.46,0,0,0,.63-1c-.08-.07-1.05,1.3-3,3.14a20.11,20.11,0,0,1-9,5,16.42,16.42,0,0,1-10.15-.93C238,247.91,236.67,246.85,236.61,246.94Z" style="fill:#263238"></path><path d="M265.69,280.23c.11.1.85-.75,1.1-2.07s-.1-2.38-.24-2.33a17.54,17.54,0,0,0-.31,2.22C266,279.25,265.55,280.15,265.69,280.23Z" style="fill:#263238"></path><g style="opacity:0.30000000000000004"><path d="M261.67,243a15.58,15.58,0,0,1-5.51,10.55A13,13,0,0,1,244.67,256a11.12,11.12,0,0,1-7.85-8.53,33.07,33.07,0,0,0,8.57,3,16.84,16.84,0,0,0,16.54-7.81l-.44.46"></path></g><g style="opacity:0.30000000000000004"><path d="M273,268.56a12,12,0,0,1-3.83,11.21,2.59,2.59,0,0,1-2.41.81,28.67,28.67,0,0,0,6.18-12.27"></path></g><path d="M200.39,230.7l27.05,12.69s11-24.4,12-27.74,3.92-8.61.87-15.57-10.73-10.83-15.83-9C212.53,195.23,200.39,230.7,200.39,230.7Z" style="fill:#FF725E"></path><path d="M278.83,230.62c1.26,0,15.77,7.59,15.77,7.59l8.26-27.36c-12.34-8.22-24.94-16.77-32.16-18.71L277,213.91Z" style="fill:#FF725E"></path><path d="M224.79,241.67c-5.13,8.42-8.7,13.26-8.7,13.26l46,28-5.35,12.44-59.6-24.53s-5.88-6-3.8-12.78l9.5-26.23Z" style="fill:#ffbe9d"></path><path d="M204.91,259.21a39.29,39.29,0,0,1,5.5-2.86,38.94,38.94,0,0,1,6-1.42,14.84,14.84,0,0,0-11.53,4.28Z" style="fill:#eb996e"></path><path d="M200.39,230.7a3,3,0,0,1,.53.19l1.5.64,5.47,2.43,18,8.18,2.19,1-.35.13c3.13-6.44,5.86-12.2,7.8-16.35.94-2,1.7-3.69,2.26-4.92.25-.53.45-1,.61-1.33a3.76,3.76,0,0,1,.24-.45,1.48,1.48,0,0,1-.15.49c-.11.32-.28.78-.52,1.37-.47,1.18-1.19,2.88-2.12,5-1.85,4.2-4.53,10-7.65,16.43l-.11.23-.23-.11-2.19-1-17.9-8.33-5.39-2.58-1.46-.72A1.89,1.89,0,0,1,200.39,230.7Z" style="fill:#263238"></path><path d="M277.16,205.87a7.36,7.36,0,0,1,.63,1.29,27.91,27.91,0,0,1,1.23,3.71,67.77,67.77,0,0,1,1.85,12.73,90.13,90.13,0,0,1-.12,12.86c-.14,1.64-.33,3-.49,3.87a7,7,0,0,1-.32,1.4,8.29,8.29,0,0,1,.12-1.43c.09-.91.23-2.23.32-3.87a109.09,109.09,0,0,0,0-12.8A77.65,77.65,0,0,0,278.66,211a37.2,37.2,0,0,0-1.06-3.73A8.15,8.15,0,0,1,277.16,205.87Z" style="fill:#263238"></path><path d="M297.69,291.44,286.23,286l-22.36-1.77L262,282.91l-5.35,12.44s5.86,2.81,8.93,3.06l18.81-.57,9.83,1Z" style="fill:#ffbe9d"></path><path d="M283.33,147.87a4.88,4.88,0,0,0,2,0,11.9,11.9,0,0,0,4.57-1.76,11.78,11.78,0,0,0,3.47-3.44,5,5,0,0,0,.86-1.83,15.49,15.49,0,0,0-1.17,1.61,13.71,13.71,0,0,1-7.8,5A15.34,15.34,0,0,0,283.33,147.87Z" style="fill:#455a64"></path><path d="M280.4,134.58s.4.61,1.31,1.31a11.54,11.54,0,0,0,8.53,2.17,4.16,4.16,0,0,0,1.78-.52c0-.18-2.81.62-6.12-.25A18.46,18.46,0,0,1,280.4,134.58Z" style="fill:#455a64"></path><path d="M301.88,200.38l.18,0c.12,0,.29-.07.52-.15a6.51,6.51,0,0,0,1.81-1,7,7,0,0,0,2.06-2.55,6.86,6.86,0,0,0,.5-4.31A7,7,0,0,0,306,190a9.49,9.49,0,0,0-1.85-2.06,9.37,9.37,0,0,1-1.91-2.07,2.87,2.87,0,0,1-.09-2.73,13.91,13.91,0,0,1,1.88-2.55,9,9,0,0,0,1-1.41,5.59,5.59,0,0,0,.57-1.7,6,6,0,0,0-3.26-6.17,19.74,19.74,0,0,0-3.56-.82,4.13,4.13,0,0,1-1.5-.64,2.45,2.45,0,0,1-.88-1.27,5,5,0,0,1,.35-3.12c.41-1,1-1.94,1.35-2.95a4.77,4.77,0,0,0,.21-3.18,5,5,0,0,0-1.8-2.4,13.79,13.79,0,0,0-4.84-2,10.62,10.62,0,0,1-3.83-1.75,4.76,4.76,0,0,1-1.6-2.65,3,3,0,0,1,.19-2c.2-.42.39-.59.36-.61a1.66,1.66,0,0,0-.46.56,3,3,0,0,0-.3,2,4.89,4.89,0,0,0,1.61,2.86,10.88,10.88,0,0,0,3.91,1.88,13.72,13.72,0,0,1,4.68,2,4.55,4.55,0,0,1,1.62,2.19,4.23,4.23,0,0,1-.22,2.85c-.37,1-.92,1.88-1.36,2.93a5.46,5.46,0,0,0-.38,3.47,2.92,2.92,0,0,0,1.06,1.55,4.64,4.64,0,0,0,1.71.74,20.23,20.23,0,0,1,3.45.79,5.46,5.46,0,0,1,3,5.59,5.29,5.29,0,0,1-.5,1.53,9.34,9.34,0,0,1-.93,1.33,13.42,13.42,0,0,0-1.92,2.67,3.35,3.35,0,0,0,.12,3.18,10.07,10.07,0,0,0,2,2.17,9,9,0,0,1,1.79,1.94,7.08,7.08,0,0,1,.92,2.24,6.54,6.54,0,0,1-.41,4.1,7,7,0,0,1-1.91,2.51A9.09,9.09,0,0,1,301.88,200.38Z" style="fill:#455a64"></path><path d="M242.38,135.64l.08-4.11,24.88-3.7c7.65-.5,15.57,7.47,15.74,15.13.19,8.51.09,18.91-1.17,25.2C279.37,180.81,269.54,182,269.54,182L269,194.68l-28.18-.79Z" style="fill:#ffbe9d"></path><path d="M279.87,152.31a1.64,1.64,0,0,1-1.64,1.58,1.57,1.57,0,0,1-1.63-1.54,1.65,1.65,0,0,1,1.64-1.59A1.58,1.58,0,0,1,279.87,152.31Z" style="fill:#263238"></path><path d="M280.17,148.26c-.21.2-1.41-.76-3.17-.83s-3.08.76-3.26.54.13-.48.71-.86a4.44,4.44,0,0,1,2.62-.7,4.24,4.24,0,0,1,2.51.93C280.11,147.77,280.28,148.17,280.17,148.26Z" style="fill:#263238"></path><path d="M263.61,151.66a1.64,1.64,0,0,1-1.64,1.59,1.58,1.58,0,0,1-1.63-1.55,1.64,1.64,0,0,1,1.64-1.58A1.57,1.57,0,0,1,263.61,151.66Z" style="fill:#263238"></path><path d="M262.88,147.89c-.21.2-1.41-.77-3.17-.83s-3.08.76-3.26.53.13-.47.71-.86a4.52,4.52,0,0,1,2.62-.69,4.3,4.3,0,0,1,2.51.92C262.82,147.4,263,147.79,262.88,147.89Z" style="fill:#263238"></path><path d="M268.73,161.18a11.48,11.48,0,0,1,2.88-.4c.45,0,.88-.1,1-.4a2.34,2.34,0,0,0-.24-1.35c-.38-1.1-.77-2.26-1.19-3.47-1.65-4.94-2.82-9-2.62-9.06s1.7,3.89,3.34,8.83c.4,1.22.78,2.38,1.13,3.49a2.63,2.63,0,0,1,.17,1.77,1.17,1.17,0,0,1-.77.63,3.06,3.06,0,0,1-.76.07A11.24,11.24,0,0,1,268.73,161.18Z" style="fill:#263238"></path><path d="M269.54,182.07a33.75,33.75,0,0,1-17.31-5.29s3.94,9.1,17.17,8.46Z" style="fill:#eb996e"></path><path d="M267.82,165.38a3.19,3.19,0,0,0-2.8-1.29,2.91,2.91,0,0,0-2,1,1.84,1.84,0,0,0-.22,2.09,2.13,2.13,0,0,0,2.28.68,6.8,6.8,0,0,0,2.3-1.25,2.11,2.11,0,0,0,.53-.5.61.61,0,0,0,0-.66" style="fill:#eb996e"></path><path d="M263.51,162.18c.29,0,.21,1.91,1.79,3.33s3.62,1.29,3.62,1.56-.47.35-1.33.34a4.76,4.76,0,0,1-3-1.2,4.08,4.08,0,0,1-1.38-2.78C263.15,162.63,263.38,162.17,263.51,162.18Z" style="fill:#263238"></path><path d="M263.62,141c-.2.47-1.94.17-4,.33s-3.76.66-4,.22c-.12-.21.19-.64.88-1.08a6.82,6.82,0,0,1,3-.92,6.72,6.72,0,0,1,3.11.5C263.33,140.4,263.7,140.79,263.62,141Z" style="fill:#263238"></path><path d="M279.73,143.15c-.32.38-1.52-.08-3-.16s-2.7.16-3-.27c-.12-.21.09-.6.65-1a4.33,4.33,0,0,1,4.79.35C279.72,142.54,279.88,143,279.73,143.15Z" style="fill:#263238"></path><path d="M286.36,127.53c-2.05,4.45-6.65,11.08-11.53,11.56A14.42,14.42,0,0,1,262,133.32c-.82,3.61-4.89,5.45-8.56,6a14.7,14.7,0,0,1-7.73-.7,7.71,7.71,0,0,1-4.77-5.8c-.34-2.6,3.49-8.87,6.08-9.29" style="fill:#263238"></path><path d="M246.62,192.62a10.05,10.05,0,0,1-7.35,8.91,7.11,7.11,0,0,1-13.77,2.76,8.75,8.75,0,0,0-1-2.41c-1.25-1.58-3.68-1.26-5.59-1.88-3.45-1.12-4.95-5.35-4.56-8.95a8.1,8.1,0,0,0,.1-2.14c-.21-1.44-1.34-2.55-2.18-3.74-3.47-4.92-2-12.06,1.82-16.69,1.28-1.54,2.9-3.15,2.78-5.15a10.65,10.65,0,0,0-1.09-3.17,9.09,9.09,0,0,1,2.46-9.92,2,2,0,0,0,1-2.32,10.63,10.63,0,0,1,9-11.36,2.52,2.52,0,0,0,.94-.21c.82-.42.84-1.55.95-2.47.28-2.42,2.16-6.94,4-8.53,5.14-4.39,10.12-.82,11.9.86,0,0,3.52,17.44,2.84,20.69s-3.07,11.35-2.12,15,2.49,11.22,1,14.53S246.62,192.62,246.62,192.62Z" style="fill:#263238"></path><path d="M227.39,136.5s.22.22.67.55a18.39,18.39,0,0,0,2,1.22,25,25,0,0,0,15.29,2.51,17.36,17.36,0,0,0,2.32-.51c.54-.16.83-.27.82-.31s-1.23.21-3.2.44a29.2,29.2,0,0,1-7.7-.2,28.4,28.4,0,0,1-7.36-2.28C228.48,137.09,227.44,136.42,227.39,136.5Z" style="fill:#455a64"></path><path d="M225.71,137.73a4.05,4.05,0,0,0,.37,1,8.52,8.52,0,0,0,.56,1.16,14.08,14.08,0,0,0,.85,1.49,22.84,22.84,0,0,0,2.76,3.52,25.76,25.76,0,0,0,4.2,3.51,26.74,26.74,0,0,0,4.88,2.48,23.23,23.23,0,0,0,4.32,1.14,14.89,14.89,0,0,0,1.7.2,8.61,8.61,0,0,0,1.29,0,4.55,4.55,0,0,0,1.1-.06c0-.11-1.57-.09-4-.57a25.59,25.59,0,0,1-4.2-1.23,28.18,28.18,0,0,1-4.76-2.47,27.85,27.85,0,0,1-4.14-3.4,24.62,24.62,0,0,1-2.79-3.38C226.41,139.14,225.81,137.68,225.71,137.73Z" style="fill:#455a64"></path><path d="M234.83,202.54s-.22,0-.61-.07a2.7,2.7,0,0,1-1.47-.87,3.73,3.73,0,0,1-.95-2.5,12.27,12.27,0,0,1,.66-3.62,7.82,7.82,0,0,0,.27-4.59c-.53-1.65-1.87-2.93-3-4.29a8.34,8.34,0,0,1-1.52-2.25,3.14,3.14,0,0,1,.08-2.63,5.91,5.91,0,0,1,2-2.1c.82-.6,1.72-1.12,2.59-1.77a5.6,5.6,0,0,0,2.09-2.49,3.88,3.88,0,0,0-.33-3.15c-1-1.81-2.52-3.13-2.89-4.87a5.89,5.89,0,0,1,1.3-4.67,20.67,20.67,0,0,1,3.06-3.28,21.4,21.4,0,0,0,2.58-2.76A8.63,8.63,0,0,0,240,154.1a5.38,5.38,0,0,0,.2-1.8,3.13,3.13,0,0,0-.11-.62,6.9,6.9,0,0,1-.3,2.35,12.76,12.76,0,0,1-4,5.07,20.48,20.48,0,0,0-3.17,3.3,8.6,8.6,0,0,0-1.23,2.28,5.09,5.09,0,0,0-.19,2.77c.42,2,2,3.32,2.91,5a3.34,3.34,0,0,1,.29,2.72,5.2,5.2,0,0,1-1.9,2.23c-.84.62-1.74,1.15-2.59,1.77a6.47,6.47,0,0,0-2.14,2.3,3.72,3.72,0,0,0-.09,3.06,9,9,0,0,0,1.63,2.4c1.22,1.37,2.5,2.6,3,4.09a7.62,7.62,0,0,1-.21,4.35,12.11,12.11,0,0,0-.6,3.73,4,4,0,0,0,1.11,2.64,2.74,2.74,0,0,0,1.6.83A1.34,1.34,0,0,0,234.83,202.54Z" style="fill:#455a64"></path><path d="M362.17,247.29l-64.48.52c-2.09,0-4.09,1-4.4,3.08l-7.05,47H253a1.94,1.94,0,1,0,0,3.87H359.1l7.25-49.6A4.22,4.22,0,0,0,362.17,247.29Z" style="fill:#e0e0e0"></path><path d="M362.17,247.29a3.22,3.22,0,0,1,1,.09,4.25,4.25,0,0,1,3.26,3.7,11.88,11.88,0,0,1-.23,2.65l-.93,6.54c-1.42,9.86-3.47,24.05-6,41.51l0,.17h-.17L256.19,302h-2.77a2.58,2.58,0,0,1-1.46-.28,2.17,2.17,0,0,1-1-1.16,2.2,2.2,0,0,1,1-2.68,2.72,2.72,0,0,1,1.45-.27h32.82l-.25.21c2.54-16.83,4.9-32.53,7-46.61a3.63,3.63,0,0,1,1.19-2.46,4.84,4.84,0,0,1,2.47-1.09,22.91,22.91,0,0,1,2.6-.09h2.53l9.7-.07,17.26-.11,24.56-.12,6.57,0h1.69l.58,0-.58,0-1.69,0-6.57.1-24.56.27-17.25.17-9.71.09-2.53,0a21.34,21.34,0,0,0-2.54.09,4.42,4.42,0,0,0-2.25,1,3.22,3.22,0,0,0-1.05,2.2l-6.95,46.63,0,.21h-33a2.21,2.21,0,0,0-1.2.21,1.67,1.67,0,0,0-.76,2,1.64,1.64,0,0,0,.75.89,2.09,2.09,0,0,0,1.21.21h2.77l102.91.06-.19.17c2.58-17.44,4.69-31.63,6.15-41.48.37-2.46.69-4.64,1-6.54a11.88,11.88,0,0,0,.26-2.61,4,4,0,0,0-.75-2,4.22,4.22,0,0,0-2.38-1.65A6.16,6.16,0,0,0,362.17,247.29Z" style="fill:#263238"></path><circle cx="327.19" cy="273.92" r="4.04" style="fill:#fff"></circle><path d="M288.85,301.32c.09,0,2.15-11.95,4.59-26.73s4.34-26.76,4.25-26.78-2.14,11.95-4.58,26.73S288.76,301.3,288.85,301.32Z" style="fill:#263238"></path></g><g id="freepik--Picture--inject-212"><path d="M463.73,214.91s0-.6,0-1.74,0-2.83,0-5c0-4.4,0-10.84-.05-19,0-16.4-.07-39.84-.12-68l.22.22-105.09,0h0l.26-.26c0,34.15,0,66.28,0,93.87l-.23-.23,76,.12,21.44.06,5.68,0,1.46,0h0l-1.44,0-5.63,0L434.8,215l-76.17.12h-.23v-.23c0-27.59,0-59.72,0-93.87v-.26h.27l105.09,0H464V121c0,28.27-.08,51.76-.11,68.19,0,8.18,0,14.61-.06,19,0,2.18,0,3.85,0,5S463.73,214.91,463.73,214.91Z" style="fill:#263238"></path><rect x="365.49" y="126.38" width="89.68" height="83.19" style="fill:#FF725E"></rect><g style="opacity:0.30000000000000004"><path d="M419.73,145.13a6.19,6.19,0,1,0,6.45,6.19A6.32,6.32,0,0,0,419.73,145.13Z"></path><path d="M448.21,132.92l-75.76-.06c.08-.09-.82.78-.44.42V138c0,1.57,0,3.13,0,4.69V152c0,6.11,0,12.1,0,17.92,0,11.65,0,22.67,0,32.8V203h.37l55-.18,15.37-.09,4,0,1,0a1.06,1.06,0,0,0,.33,0l-.37,0-1.06,0-4.1,0-15.45-.09-16.93-.06h37.9c0,.14,0,.23,0,.23a.87.87,0,0,0,0-.3c0-.24,0-.54,0-.93,0-.87,0-2.09.05-3.68,0-3.28.05-8,.09-14.05.05-12.2.11-29.58.19-50.45v-.35Zm-18.34,39.55L417.54,187l-20.29-27.37-24.44,42.17c0-9.89,0-20.61,0-31.93,0-5.82,0-11.81,0-17.92q0-4.59,0-9.27v-9l75-.06c.07,20.62.14,37.8.18,49.88,0,6.06.08,10.83.1,14.13,0,1.61,0,2.86,0,3.74,0,.41,0,.72,0,1v.09Z"></path></g><rect x="355.88" y="117.58" width="5.51" height="5.51" style="fill:#263238"></rect><rect x="460.09" y="117.58" width="5.51" height="5.51" style="fill:#263238"></rect><rect x="460.09" y="211.25" width="5.51" height="5.51" style="fill:#263238"></rect><rect x="356.65" y="211.25" width="5.51" height="5.51" style="fill:#263238"></rect><rect x="356.65" y="164.96" width="5.51" height="5.51" style="fill:#263238"></rect><rect x="407.75" y="212.16" width="5.51" height="5.51" style="fill:#263238"></rect><rect x="460.98" y="162.21" width="5.51" height="5.51" style="fill:#263238"></rect><rect x="407.77" y="118.08" width="5.51" height="5.51" style="fill:#263238"></rect></g><g id="freepik--Plant--inject-212"><path d="M624.35,376.45c-.1.13-.93-.37-1.86-1.11s-1.6-1.45-1.5-1.57.94.38,1.86,1.12S624.45,376.33,624.35,376.45Z" style="fill:#263238"></path><path d="M649.62,338.69c.15-3.53.25-7.15-.86-10.5s-3.7-6.44-7.16-7.16c-4-.81-8,1.68-10.21,5.05s-3,7.46-3.62,11.44a403.64,403.64,0,0,0-4.95,83L639,422.83C646.07,393.84,648.33,368.5,649.62,338.69Z" style="fill:#455a64"></path><path d="M639.36,320.91a1.09,1.09,0,0,1-.08.26l-.26.73q-.4,1-1.08,2.79c-.23.61-.52,1.27-.77,2l-.78,2.45-.9,2.8q-.4,1.53-.84,3.21a140,140,0,0,0-3.12,16c-.87,6.08-1.45,12.81-1.9,19.88-.82,14.15-1,27-1.32,36.29-.17,4.64-.33,8.4-.51,11-.08,1.26-.15,2.25-.2,3,0,.32-.05.57-.07.78a.7.7,0,0,1,0,.26,1,1,0,0,1,0-.26c0-.21,0-.47,0-.78,0-.74,0-1.73.09-3,.11-2.6.21-6.36.33-11,.26-9.29.32-22.14,1.15-36.32.45-7.08,1-13.82,1.94-19.91a134.06,134.06,0,0,1,3.26-16c.3-1.12.6-2.19.87-3.2s.66-1.93,1-2.81l.84-2.43c.25-.75.57-1.41.81-2l1.18-2.76.32-.71A.68.68,0,0,1,639.36,320.91Z" style="fill:#263238"></path><path d="M640.85,320.92a11.72,11.72,0,0,1,2,3.34,24.86,24.86,0,0,1,1.47,10.45c-.43,8.93-1.23,21.23-2.29,34.81s-2.25,25.86-3.21,34.73c-.47,4.44-.89,8-1.19,10.5-.15,1.2-.28,2.15-.37,2.86,0,.29-.08.53-.11.74s0,.25,0,.24a.78.78,0,0,1,0-.25l0-.75c.06-.7.15-1.66.26-2.86.24-2.54.58-6.12,1-10.52.85-8.88,2-21.16,3-34.74s1.93-25.88,2.46-34.77a25.3,25.3,0,0,0-1.27-10.36A22,22,0,0,0,640.85,320.92Z" style="fill:#263238"></path><path d="M652.05,362.73a8.93,8.93,0,0,1-3.06-.8,8.77,8.77,0,0,1-2.87-1.33,17,17,0,0,1,5.93,2.13Z" style="fill:#263238"></path><path d="M654,346.26a9.82,9.82,0,0,1-2.91,1.62,10.17,10.17,0,0,1-3.15,1.1,9.65,9.65,0,0,1,2.91-1.62A10,10,0,0,1,654,346.26Z" style="fill:#263238"></path><path d="M653,332.83a10.19,10.19,0,0,1-4.78-.33,5.17,5.17,0,0,1,2.41-.13A5.3,5.3,0,0,1,653,332.83Z" style="fill:#263238"></path><path d="M636.32,324.22c-.13.08-.84-.8-1.58-2s-1.23-2.19-1.09-2.28.84.8,1.58,2A5.68,5.68,0,0,1,636.32,324.22Z" style="fill:#263238"></path><path d="M630.81,332.34a4.71,4.71,0,0,1-2.29.24c-1.27,0-2.29-.18-2.28-.34a4.85,4.85,0,0,1,2.29-.24C629.79,332,630.82,332.18,630.81,332.34Z" style="fill:#263238"></path><path d="M626.86,348.6a5.64,5.64,0,0,1-2.42-.66c-1.27-.52-2.26-1.05-2.2-1.2a5.64,5.64,0,0,1,2.42.66C625.93,347.91,626.92,348.45,626.86,348.6Z" style="fill:#263238"></path><path d="M626.43,362.27c0,.16-.88.48-2,.73s-2.14.31-2.17.16.88-.48,2-.73S626.4,362.11,626.43,362.27Z" style="fill:#263238"></path><path d="M624.57,384.63c0,.16-1,.47-2.18.69s-2.25.27-2.28.11.95-.46,2.18-.68A4.84,4.84,0,0,1,624.57,384.63Z" style="fill:#263238"></path><path d="M623.34,397c.07.14-.74.72-1.82,1.29s-2,.92-2.09.78.74-.72,1.82-1.29S623.26,396.84,623.34,397Z" style="fill:#263238"></path><path d="M633.42,411c-.14.08-.85-.9-1.59-2.19a6.44,6.44,0,0,1-1.08-2.47c.14-.08.85.9,1.58,2.18A6.5,6.5,0,0,1,633.42,411Z" style="fill:#263238"></path><path d="M636.33,387.71c.11.11-.68,1.07-1.77,2.13s-2.06,1.84-2.17,1.72.68-1.07,1.77-2.13S636.21,387.59,636.33,387.71Z" style="fill:#263238"></path><path d="M635.68,375.49c-.11.11-.85-.5-1.64-1.35s-1.33-1.62-1.21-1.73.85.49,1.64,1.34S635.8,375.38,635.68,375.49Z" style="fill:#263238"></path><path d="M637.68,359.88c.12.1-.54,1-1.47,2.07s-1.78,1.8-1.9,1.69.54-1,1.47-2.07S637.56,359.77,637.68,359.88Z" style="fill:#263238"></path><path d="M638.81,348.55c-.11.11-1-.61-2.06-1.62s-1.76-1.91-1.65-2,1,.61,2.06,1.61S638.92,348.44,638.81,348.55Z" style="fill:#263238"></path><path d="M641,333.23c.14.09-.33,1.11-1,2.3s-1.39,2.08-1.53,2,.33-1.1,1-2.29S640.88,333.15,641,333.23Z" style="fill:#263238"></path><path d="M645.18,319a5.49,5.49,0,0,1-.91,2.3c-.65,1.19-1.28,2.09-1.42,2s.27-1.1.91-2.3S645,319,645.18,319Z" style="fill:#263238"></path><path d="M649.9,325.49c.07.14-.58.6-1.44,1s-1.63.63-1.7.49.58-.6,1.45-1S649.83,325.35,649.9,325.49Z" style="fill:#263238"></path><path d="M650,376.46a9.92,9.92,0,0,1-5.9-2.52,16,16,0,0,1,3,1.22A15.58,15.58,0,0,1,650,376.46Z" style="fill:#263238"></path><path d="M648.08,387.25c0,.16-.94.48-2.17.71s-2.25.31-2.28.15.94-.47,2.17-.71A4.78,4.78,0,0,1,648.08,387.25Z" style="fill:#263238"></path><path d="M645.71,405.76a6.28,6.28,0,0,1-2.46-2.16,6.18,6.18,0,0,1-1.54-2.89,19.75,19.75,0,0,1,2,2.53A18.72,18.72,0,0,1,645.71,405.76Z" style="fill:#263238"></path><path d="M619.75,414.23c-.11-.13.55-.86,1.46-1.64s1.74-1.31,1.84-1.19-.55.85-1.46,1.63S619.85,414.35,619.75,414.23Z" style="fill:#263238"></path><path d="M612.28,373.83c-1-3.29-3-7.11-6.47-7.16a5.73,5.73,0,0,0-4.84,3.24,11.88,11.88,0,0,0-1.31,5.94,154.82,154.82,0,0,0,7.4,43h12.62A150,150,0,0,0,612.28,373.83Z" style="fill:#455a64"></path><path d="M589.47,353.16c-1.76-7.05-7-10.86-13.13-11.21-5.57,1-7.73,6.46-8.4,12.09s1.09,11.21,2.81,16.6q8.29,26,16.6,51.93L603,420.86C598.08,397.67,595.23,376.17,589.47,353.16Z" style="fill:#455a64"></path><path d="M605.81,366.67a13,13,0,0,0-1.07,1.78,11.86,11.86,0,0,0-.59,5.58c.25,2.4.52,5.28.92,8.45s1,6.64,1.69,10.26c1.43,7.25,3,13.75,4.06,18.49.51,2.36.9,4.29,1.15,5.62.1.61.19,1.12.26,1.54a1.84,1.84,0,0,1,.06.54,1.67,1.67,0,0,1-.17-.52c-.1-.41-.22-.91-.37-1.51-.34-1.41-.79-3.29-1.33-5.58-1.12-4.71-2.79-11.2-4.22-18.47-.71-3.63-1.27-7.12-1.65-10.31-.21-1.59-.34-3.11-.47-4.53s-.27-2.74-.33-3.95a11.36,11.36,0,0,1,.79-5.7A5.08,5.08,0,0,1,605.81,366.67Z" style="fill:#263238"></path><path d="M576.57,341.5a20.74,20.74,0,0,0-1.9,2.55,17.93,17.93,0,0,0-2.38,8.21c-.24,3.65.57,8,1.94,12.63s2.89,9.8,4.47,15.17c3.13,10.76,6,20.49,8,27.61,1,3.49,1.79,6.34,2.37,8.38.25.95.46,1.71.61,2.29a4,4,0,0,1,.18.81,4,4,0,0,1-.29-.78l-.72-2.25c-.62-2-1.48-4.86-2.55-8.34l-8.19-27.55L573.72,365c-1.35-4.68-2.14-9.09-1.84-12.81a17.58,17.58,0,0,1,2.6-8.3A9.8,9.8,0,0,1,576.57,341.5Z" style="fill:#263238"></path><path d="M599.62,419.18a4,4,0,0,1-.35-.75c-.21-.51-.54-1.24-.9-2.21-.74-1.93-1.7-4.77-2.69-8.33s-2-7.86-2.93-12.66-1.91-10.07-3-15.61-2.31-10.75-3.72-15.41a86.42,86.42,0,0,0-4.57-12.09,66.39,66.39,0,0,0-4.23-7.62c-.54-.88-1-1.52-1.33-2a6.69,6.69,0,0,1-.44-.71,4.57,4.57,0,0,1,.54.64c.32.43.84,1.05,1.41,1.91a57.06,57.06,0,0,1,4.41,7.57,81.56,81.56,0,0,1,4.72,12.12,154.91,154.91,0,0,1,3.77,15.45c1,5.54,2,10.81,2.91,15.62s1.86,9.09,2.8,12.65,1.83,6.42,2.52,8.36c.32,1,.61,1.73.79,2.24A3.94,3.94,0,0,1,599.62,419.18Z" style="fill:#263238"></path><path d="M571,368.05c0,.16-.81.5-1.91.76s-2,.35-2,.2.82-.5,1.91-.76S571,367.9,571,368.05Z" style="fill:#263238"></path><path d="M569.37,357.34a19.17,19.17,0,0,1-5.31.21,9.13,9.13,0,0,1,5.31-.21Z" style="fill:#263238"></path><path d="M571.14,347.56c-.11.12-1-.43-1.91-1.23s-1.63-1.56-1.53-1.68,1,.43,1.91,1.23S571.24,347.44,571.14,347.56Z" style="fill:#263238"></path><path d="M575.92,338.51c.16,0,.12.8.09,1.72s0,1.68-.19,1.71-.41-.74-.38-1.73S575.77,338.47,575.92,338.51Z" style="fill:#263238"></path><path d="M585.7,342.77c.13.09-.25.87-.85,1.73s-1.2,1.49-1.33,1.39.25-.86.86-1.72S585.57,342.68,585.7,342.77Z" style="fill:#263238"></path><path d="M592.05,353.8c.06.15-.75.62-1.81,1.05s-2,.67-2,.52.76-.62,1.82-1.05S592,353.65,592.05,353.8Z" style="fill:#263238"></path><path d="M595.9,365.15a4.72,4.72,0,0,1-2.49,1.08,4.79,4.79,0,0,1-2.71.1,9.83,9.83,0,0,1,2.59-.66A9.64,9.64,0,0,1,595.9,365.15Z" style="fill:#263238"></path><path d="M578.22,361.92c-.15,0,0-.83.25-1.75s.64-1.62.8-1.58,0,.84-.25,1.76S578.37,362,578.22,361.92Z" style="fill:#263238"></path><path d="M580.69,376.17a5.33,5.33,0,0,1,.71-2.36c.54-1.24,1.09-2.19,1.24-2.13a5.53,5.53,0,0,1-.71,2.36C581.39,375.28,580.84,376.23,580.69,376.17Z" style="fill:#263238"></path><path d="M574.6,380.07c-.06.15-1.06-.13-2.26-.5s-2.18-.72-2.14-.88a4.25,4.25,0,0,1,2.31.33C573.74,379.4,574.66,379.92,574.6,380.07Z" style="fill:#263238"></path><path d="M578.11,391.68c.09.13-.58.77-1.5,1.43s-1.75,1.08-1.84.95.58-.77,1.5-1.42S578,391.55,578.11,391.68Z" style="fill:#263238"></path><path d="M580.93,403.26c0,.15-.8.49-1.86.75s-2,.34-2,.19.79-.49,1.85-.75S580.89,403.1,580.93,403.26Z" style="fill:#263238"></path><path d="M596.21,374.82c.08.13-.63.7-1.66,1.09s-1.95.43-2,.28.78-.45,1.76-.82S596.13,374.68,596.21,374.82Z" style="fill:#263238"></path><path d="M598.4,392.83c-.07.15-.92-.11-1.89-.57s-1.72-.95-1.65-1.09.91.11,1.89.57S598.46,392.69,598.4,392.83Z" style="fill:#263238"></path><path d="M602.25,405.72a5.94,5.94,0,0,1-2.5-.67c-1.32-.51-2.34-1.05-2.28-1.2a6,6,0,0,1,2.5.67C601.29,405,602.31,405.57,602.25,405.72Z" style="fill:#263238"></path><path d="M581.54,415.82c-.08-.14,1-.83,2.14-1.77s2.11-1.77,2.23-1.66-.63,1.14-1.87,2.11A5.2,5.2,0,0,1,581.54,415.82Z" style="fill:#263238"></path><path d="M591.74,409.27c-.17,0-.39-.85-.78-1.86s-.81-1.8-.67-1.89.79.6,1.21,1.69S591.89,409.25,591.74,409.27Z" style="fill:#263238"></path><path d="M589,393.76c-.09.13-.75-.18-1.47-.7s-1.22-1-1.13-1.17.75.19,1.47.7S589.13,393.63,589,393.76Z" style="fill:#263238"></path><path d="M612.79,369.47c.1.13-.54.76-1.43,1.41s-1.68,1.08-1.77.95.54-.76,1.43-1.41S612.7,369.34,612.79,369.47Z" style="fill:#263238"></path><path d="M616.37,379.26c0,.15-1,.36-2.23.23s-2.18-.56-2.13-.7,1,0,2.19.12S616.36,379.09,616.37,379.26Z" style="fill:#263238"></path><path d="M601,381.45c0,.15-.89.49-2.09.57s-2.17-.13-2.16-.28,1-.22,2.12-.3S601,381.29,601,381.45Z" style="fill:#263238"></path><path d="M602.3,372.2c0,.15-.95.18-2-.3s-1.63-1.2-1.52-1.31.82.36,1.76.79S602.32,372,602.3,372.2Z" style="fill:#263238"></path><path d="M617.69,389.77c-.08.13-1-.32-2.14-1s-1.93-1.36-1.85-1.5,1,.32,2.15,1S617.78,389.63,617.69,389.77Z" style="fill:#263238"></path><rect x="573.13" y="417.24" width="82.12" height="14.55" style="fill:#FF725E"></rect><polygon points="579.27 428.9 589.25 472.4 638.19 472.4 649.12 428.9 579.27 428.9" style="fill:#FF725E"></polygon><path d="M655.2,431.81c0,.16-18.52.29-41.36.29s-41.37-.13-41.37-.29,18.52-.29,41.37-.29S655.2,431.65,655.2,431.81Z" style="fill:#263238"></path><path d="M609.54,381.77c-.14.08-.7-.57-1.26-1.46s-.89-1.68-.76-1.77.7.57,1.25,1.46S609.67,381.69,609.54,381.77Z" style="fill:#263238"></path><path d="M609.57,393.48c-.15-.05,0-1,.43-2.21s.82-2.08,1-2,0,1-.42,2.21S609.72,393.53,609.57,393.48Z" style="fill:#263238"></path><path d="M613.58,405.77c-.15.07-.76-.91-1.37-2.19a5.76,5.76,0,0,1-.85-2.45,6.31,6.31,0,0,1,1.37,2.2A6.09,6.09,0,0,1,613.58,405.77Z" style="fill:#263238"></path><path d="M604.9,415.66c-.12-.1.37-.86,1.1-1.7s1.41-1.42,1.53-1.32-.37.87-1.1,1.7S605,415.77,604.9,415.66Z" style="fill:#263238"></path><path d="M603.08,397.71c0,.15-.82.15-1.76,0s-1.69-.43-1.67-.59.82-.15,1.77,0S603.11,397.55,603.08,397.71Z" style="fill:#263238"></path></g></svg>