<svg xmlns="http://www.w3.org/2000/svg" viewBox="0 0 750 500"><g id="freepik--background-complete--inject-213"><path d="M552.53,87.9l8.29-13.37L556.7,72A3.72,3.72,0,0,1,555,68.47a22.09,22.09,0,0,0,.07-2.3,3.81,3.81,0,0,1,2-3.44l4.25-2.27-7.44-13.87-4.24,2.27a3.68,3.68,0,0,1-3.85-.2,18.82,18.82,0,0,0-2.13-1.32A3.68,3.68,0,0,1,541.7,44l.15-4.81-15.72-.49L526,43.51a3.71,3.71,0,0,1-2.13,3.23c-.37.17-.74.35-1.1.54l-1.06.61a3.68,3.68,0,0,1-3.85,0l-4.12-2.56-8.3,13.37,4.13,2.56a3.74,3.74,0,0,1,1.71,3.52,21.81,21.81,0,0,0-.08,2.29,3.78,3.78,0,0,1-1.95,3.43L505,72.78l7.44,13.87,4.25-2.28a3.77,3.77,0,0,1,3.94.28q.95.64,1.95,1.2a3.72,3.72,0,0,1,2,3.36l-.15,4.86,15.73.49.15-4.83a3.71,3.71,0,0,1,2.18-3.24c.35-.17.7-.34,1-.53s.67-.37,1-.57a3.76,3.76,0,0,1,3.93,0ZM540.64,77.09a12.89,12.89,0,1,1,4.55-15A12.89,12.89,0,0,1,540.64,77.09Z" style="fill:#ebebeb"></path><path d="M66.86,161.18a2.62,2.62,0,0,1,1.29,2.43c0,.27,0,.54,0,.81s0,.55,0,.82a2.6,2.6,0,0,1-1.28,2.42l-2.93,1.69,5.51,9.55,2.93-1.69a2.58,2.58,0,0,1,2.74.1c.46.29.93.57,1.42.82A2.63,2.63,0,0,1,78,180.46v3.37H89v-3.37a2.62,2.62,0,0,1,1.44-2.33c.49-.25,1-.53,1.42-.82a2.6,2.6,0,0,1,2.75-.1l2.93,1.69,5.51-9.55-2.94-1.7a2.6,2.6,0,0,1-1.28-2.42c0-.27,0-.54,0-.81s0-.54,0-.81a2.61,2.61,0,0,1,1.29-2.43l2.93-1.69-5.51-9.55-2.92,1.69a2.64,2.64,0,0,1-2.75-.09,15.48,15.48,0,0,0-1.42-.83A2.61,2.61,0,0,1,89,148.38V145H78v3.37a2.63,2.63,0,0,1-1.45,2.33,15.64,15.64,0,0,0-1.43.83,2.62,2.62,0,0,1-2.74.09l-2.92-1.69-5.51,9.55Zm16.64-5.79a9,9,0,1,1-9,9A9,9,0,0,1,83.5,155.39Z" style="fill:#ebebeb"></path><path d="M649.86,190.44a2.63,2.63,0,0,1,1.28,2.43c0,.27,0,.54,0,.82s0,.54,0,.81a2.63,2.63,0,0,1-1.28,2.43l-2.93,1.69,5.51,9.54,2.93-1.68a2.62,2.62,0,0,1,2.75.09,12.47,12.47,0,0,0,1.42.82,2.62,2.62,0,0,1,1.44,2.33v3.38h11v-3.38a2.63,2.63,0,0,1,1.45-2.33,13.4,13.4,0,0,0,1.42-.82,2.6,2.6,0,0,1,2.74-.09l2.93,1.68,5.51-9.54-2.94-1.7a2.62,2.62,0,0,1-1.28-2.42q0-.41,0-.81c0-.28,0-.55,0-.82a2.63,2.63,0,0,1,1.29-2.43l2.93-1.69-5.51-9.54-2.92,1.68a2.6,2.6,0,0,1-2.74-.09,15.55,15.55,0,0,0-1.43-.82,2.63,2.63,0,0,1-1.45-2.33v-3.38H661v3.38a2.61,2.61,0,0,1-1.45,2.33,15.38,15.38,0,0,0-1.42.82,2.62,2.62,0,0,1-2.75.09l-2.92-1.68-5.51,9.54Zm16.63-5.79a9,9,0,1,1-9,9A9,9,0,0,1,666.49,184.65Z" style="fill:#ebebeb"></path><polygon points="689.34 120.44 687.87 120.44 687.87 119.47 688.36 119.47 688.36 118.98 689.34 118.98 689.34 120.44" style="fill:#ebebeb"></polygon><path d="M685.92,120.44H684v-1h1.95Zm-3.9,0h-1.95v-1H682Zm-3.89,0h-2v-1h2Zm-3.9,0h-2v-1h2Zm-3.9,0h-2v-1h2Zm-3.9,0h-1.95v-1h1.95Zm-3.9,0h-1.95v-1h1.95Zm-3.9,0h-2v-1h2Zm-3.9,0h-2v-1h2Zm-3.9,0h-2v-1h2Zm-3.9,0H645v-1h1.95Zm-3.9,0h-1.95v-1H643Zm-3.9,0h-2v-1h2Zm-3.9,0h-2v-1h2Zm-3.9,0h-2v-1h2Zm-3.9,0h-1.94v-1h1.94Zm-3.89,0h-1.95v-1h1.95Z" style="fill:#ebebeb"></path><polygon points="619.64 120.44 618.17 120.44 618.17 118.98 619.15 118.98 619.15 119.47 619.64 119.47 619.64 120.44" style="fill:#ebebeb"></polygon><path d="M619.15,117h-1v-2h1Zm0-3.9h-1v-1.95h1Zm0-3.9h-1v-2h1Zm0-3.9h-1v-2h1Zm0-3.9h-1v-2h1Zm0-3.9h-1v-2h1Zm0-3.9h-1V91.68h1Zm0-3.89h-1V87.79h1Zm0-3.9h-1v-2h1Zm0-3.9h-1V80h1Zm0-3.9h-1v-2h1Zm0-3.9h-1v-2h1Zm0-3.9h-1V68.29h1Zm0-3.9h-1v-2h1Zm0-3.9h-1V60.49h1Zm0-3.9h-1V56.59h1Zm0-3.9h-1v-2h1Z" style="fill:#ebebeb"></path><polygon points="619.15 50.74 618.17 50.74 618.17 49.28 619.64 49.28 619.64 50.26 619.15 50.26 619.15 50.74" style="fill:#ebebeb"></polygon><path d="M685.92,50.26H684v-1h1.95Zm-3.9,0h-1.95v-1H682Zm-3.89,0h-2v-1h2Zm-3.9,0h-2v-1h2Zm-3.9,0h-2v-1h2Zm-3.9,0h-1.95v-1h1.95Zm-3.9,0h-1.95v-1h1.95Zm-3.9,0h-2v-1h2Zm-3.9,0h-2v-1h2Zm-3.9,0h-2v-1h2Zm-3.9,0H645v-1h1.95Zm-3.9,0h-1.95v-1H643Zm-3.9,0h-2v-1h2Zm-3.9,0h-2v-1h2Zm-3.9,0h-2v-1h2Zm-3.9,0h-1.94v-1h1.94Zm-3.89,0h-1.95v-1h1.95Z" style="fill:#ebebeb"></path><polygon points="689.34 50.74 688.36 50.74 688.36 50.26 687.87 50.26 687.87 49.28 689.34 49.28 689.34 50.74" style="fill:#ebebeb"></polygon><path d="M689.34,117h-1v-2h1Zm0-3.9h-1v-1.95h1Zm0-3.9h-1v-2h1Zm0-3.9h-1v-2h1Zm0-3.9h-1v-2h1Zm0-3.9h-1v-2h1Zm0-3.9h-1V91.69h1Zm0-3.89h-1V87.79h1Zm0-3.9h-1v-2h1Zm0-3.9h-1V80h1Zm0-3.9h-1v-2h1Zm0-3.9h-1v-2h1Zm0-3.9h-1V68.29h1Zm0-3.9h-1v-2h1Zm0-3.9h-1V60.49h1Zm0-3.9h-1V56.59h1Zm0-3.9h-1v-2h1Z" style="fill:#ebebeb"></path><rect x="614.29" y="115.58" width="8.75" height="8.75" style="fill:#fff"></rect><path d="M623.52,124.82H613.8v-9.73h9.72Zm-8.74-1h7.77v-7.77h-7.77Z" style="fill:#ebebeb"></path><rect x="614.32" y="80.49" width="8.75" height="8.75" style="fill:#fff"></rect><path d="M623.52,89.72H613.8V80h9.72Zm-8.74-1h7.77V81h-7.77Z" style="fill:#ebebeb"></path><rect x="614.32" y="45.39" width="8.75" height="8.75" style="fill:#fff"></rect><path d="M623.52,54.63H613.8V44.91h9.72Zm-8.74-1h7.77V45.88h-7.77Z" style="fill:#ebebeb"></path><rect x="684.51" y="115.58" width="8.75" height="8.75" style="fill:#fff"></rect><path d="M693.71,124.82H684v-9.73h9.72Zm-8.75-1h7.77v-7.77H685Z" style="fill:#ebebeb"></path><rect x="684.51" y="80.49" width="8.75" height="8.75" style="fill:#fff"></rect><path d="M693.71,89.72H684V80h9.72Zm-8.75-1h7.77V81H685Z" style="fill:#ebebeb"></path><rect x="684.51" y="45.39" width="8.75" height="8.75" style="fill:#fff"></rect><path d="M693.71,54.63H684V44.91h9.72Zm-8.75-1h7.77V45.88H685Z" style="fill:#ebebeb"></path><rect x="649.42" y="45.39" width="8.75" height="8.75" style="fill:#fff"></rect><path d="M658.62,54.63h-9.73V44.91h9.73Zm-8.75-1h7.77V45.88h-7.77Z" style="fill:#ebebeb"></path><rect x="649.38" y="115.58" width="8.75" height="8.75" style="fill:#fff"></rect><path d="M658.62,124.82h-9.73v-9.73h9.73Zm-8.75-1h7.77v-7.77h-7.77Z" style="fill:#ebebeb"></path><path d="M672.21,78.88h-1.15C667.8,69,665.93,65,660.44,65h-.73v39.74h5.13V106h-22v-1.27h5.13V65h-.78c-5.5,0-7.55,4.53-10.64,13.89h-1.14l.6-15.16h35.64Z" style="fill:#ebebeb"></path><path d="M71.65,303.8a2.49,2.49,0,0,1-1.74,4.26,2.61,2.61,0,0,1-1.82-.71L57,296.09a.31.31,0,0,1-.2-.23.58.58,0,0,0-.12-.08,1.35,1.35,0,0,1-.11-.32.21.21,0,0,1-.12-.16c0-.08,0-.19-.08-.23s-.08-.16-.08-.2v-.28c0-.08,0-.12,0-.24s0-.15,0-.19v-.28c0-.08.08-.12.08-.16s0-.19.08-.31,0,0,0-.08.12-.28.19-.36a.08.08,0,0,1,.08-.08.73.73,0,0,1,.24-.27l11.1-11.26a2.58,2.58,0,0,1,3.56,0,2.51,2.51,0,0,1,0,3.55l-9.37,9.44Z" style="fill:#ebebeb"></path><path d="M81.72,305.06l9.68-23a2.19,2.19,0,0,1,2.88-1.15,2.14,2.14,0,0,1,1.11,2.81l-9.68,23.07a2.2,2.2,0,0,1-2,1.3,2,2,0,0,1-.79-.15A2.14,2.14,0,0,1,81.72,305.06Z" style="fill:#ebebeb"></path><path d="M114.51,295.78a0,0,0,0,1,0,0,1.82,1.82,0,0,1-.28.27l-11.1,11.26a2.51,2.51,0,1,1-3.56-3.55l9.37-9.45-9.37-9.44a2.51,2.51,0,0,1,0-3.55,2.58,2.58,0,0,1,3.56,0l11.1,11.26a1.82,1.82,0,0,1,.28.27s0,.08,0,.08a2.14,2.14,0,0,1,.19.36s0,0,0,.08a1.82,1.82,0,0,0,.12.35s0,0,0,.12v.28s0,.16,0,.19,0,.16,0,.2v.32s0,0,0,.08-.08.27-.12.35,0,0,0,.12S114.59,295.62,114.51,295.78Z" style="fill:#ebebeb"></path></g><g id="freepik--Floor--inject-213"><polygon points="55.93 445.13 135.7 445.04 215.47 445 375 444.93 534.53 445 614.3 445.03 694.07 445.13 614.3 445.23 534.53 445.26 375 445.33 215.47 445.26 135.7 445.23 55.93 445.13" style="fill:#263238"></polygon></g><g id="freepik--Window--inject-213"><rect x="117.19" y="80.2" width="513.61" height="310.64" style="fill:#fff"></rect><path d="M630.8,390.84l-513.61.38h-.37v-.38l-.13-310.63v-.5h.5l513.61.2h.29v.3Zm0,0-.29-310.63.29.29-513.61.2.5-.49-.13,310.63-.37-.37Z" style="fill:#c7c7c7"></path><rect x="117.19" y="80.2" width="513.61" height="50.61" style="fill:#FFC727"></rect><rect x="138.5" y="113.09" width="10.56" height="1.76" style="fill:#fff"></rect><rect x="138.5" y="120.99" width="10.56" height="1.76" style="fill:#fff"></rect><rect x="138.5" y="117.09" width="10.56" height="1.76" style="fill:#fff"></rect><rect x="510.47" y="112.94" width="99.01" height="9.97" style="opacity:0.1"></rect><rect x="599.51" y="112.94" width="9.97" height="9.97" style="fill:#fff"></rect><path d="M607.66,120.72l-.92.7L605,119.16l-.63-.82a1.58,1.58,0,0,0,.36-.2,1.51,1.51,0,0,0,.48-.62l.66.88Z" style="fill:#FFC727"></path><path d="M605.84,115.41a2.51,2.51,0,1,0-.81,3.75,2.56,2.56,0,0,0,.35-.22,2.65,2.65,0,0,0,.52-.54A2.52,2.52,0,0,0,605.84,115.41Zm-1.08,2.73a1.58,1.58,0,0,1-.36.2,1.5,1.5,0,0,1-1.47-2.59A1.5,1.5,0,0,1,605,116a1.49,1.49,0,0,1-.28,2.11Z" style="fill:#FFC727"></path><rect x="512.56" y="114.9" width="0.54" height="6.05" style="fill:#fff"></rect><path d="M236.64,123.25H188.2V112.59h48.44Zm-47.44-1h46.44v-8.66H189.2Z" style="fill:#fff"></path><path d="M294.5,123.25H246.06V112.59H294.5Zm-47.44-1H293.5v-8.66H247.06Z" style="fill:#fff"></path><rect x="304.42" y="113.09" width="47.44" height="9.67" style="opacity:0.1"></rect><path d="M410.22,123.25H361.78V112.59h48.44Zm-47.44-1h46.44v-8.66H362.78Z" style="fill:#fff"></path><path d="M468.08,123.25H419.64V112.59h48.44Zm-47.44-1h46.44v-8.66H420.64Z" style="fill:#fff"></path><rect x="117.19" y="80.2" width="513.61" height="8.04" style="fill:#37474f"></rect><path d="M123.58,84.22a2,2,0,1,1-2-2A2,2,0,0,1,123.58,84.22Z" style="fill:#c7c7c7"></path><path d="M131.72,84.22a2,2,0,1,1-2-2A2,2,0,0,1,131.72,84.22Z" style="fill:#fff"></path><path d="M139.86,84.22a2,2,0,1,1-2-2A2,2,0,0,1,139.86,84.22Z" style="fill:#FFC727"></path><rect x="621.97" y="130.82" width="8.82" height="260.03" style="fill:#dbdbdb"></rect><path d="M626.38,221h0a2.13,2.13,0,0,1-2.28-2V134.3a2.14,2.14,0,0,1,2.28-2h0a2.14,2.14,0,0,1,2.28,2V219A2.13,2.13,0,0,1,626.38,221Z" style="fill:#a6a6a6"></path><path d="M138.69,143.37v38.11H176.8V143.37Zm2.88,35.23V146.25h32.35V178.6Z" style="fill:#ebebeb"></path><rect x="306.21" y="149.78" width="18.87" height="18.86" style="fill:#FFC727"></rect><rect x="470.99" y="149.78" width="18.87" height="18.86" style="fill:#FFC727"></rect><rect x="137.2" y="246.29" width="18.87" height="18.86" style="fill:#FFC727"></rect><path d="M580.45,343.55v38.11h38.11V343.55Zm2.88,35.23V346.43h32.35v32.35Z" style="fill:#ebebeb"></path><rect x="146.64" y="255.72" width="66.11" height="12.36" style="fill:#455a64"></rect><rect x="146.64" y="274.18" width="181.66" height="4.62" style="fill:#dbdbdb"></rect><rect x="146.64" y="284.34" width="181.66" height="4.62" style="fill:#dbdbdb"></rect><rect x="146.64" y="294.5" width="181.66" height="4.62" style="fill:#dbdbdb"></rect><rect x="146.64" y="304.66" width="181.66" height="4.62" style="fill:#dbdbdb"></rect><rect x="146.64" y="314.83" width="181.66" height="4.62" style="fill:#dbdbdb"></rect><rect x="315.64" y="159.21" width="66.11" height="12.36" style="fill:#455a64"></rect><rect x="315.64" y="180.09" width="135.83" height="4.62" style="fill:#dbdbdb"></rect><rect x="315.64" y="190.25" width="135.83" height="4.62" style="fill:#dbdbdb"></rect><rect x="315.64" y="200.41" width="135.83" height="4.62" style="fill:#dbdbdb"></rect><rect x="315.64" y="210.58" width="135.83" height="4.62" style="fill:#dbdbdb"></rect><rect x="315.64" y="224.09" width="135.83" height="4.62" style="fill:#dbdbdb"></rect><rect x="315.64" y="234.26" width="135.83" height="4.62" style="fill:#dbdbdb"></rect><rect x="480.42" y="159.21" width="120.9" height="12.58" style="fill:#455a64"></rect><rect x="480.76" y="171.9" width="120.26" height="197.23" style="fill:#fff"></rect><path d="M601.35,369.45H480.42V171.57H601.35Zm-120.26-.65H600.68V172.22H481.09Z" style="fill:#dbdbdb"></path><polygon points="481.07 369.25 480.44 369 600.7 171.78 601.32 172.02 481.07 369.25" style="fill:#dbdbdb"></polygon><polygon points="600.7 369.25 480.44 172.02 481.07 171.78 601.32 369 600.7 369.25" style="fill:#dbdbdb"></polygon><rect x="93.03" y="159.43" width="144.09" height="79.23" style="fill:#fff"></rect><path d="M92.81,238.88v-.2l0-79.43H93l144.33,0,0,79.63h-.24Zm.45-79.23,0,78.82,143.6,0,0-78.83Z" style="fill:#dbdbdb"></path><path d="M93.26,159.65C105.38,166,117.42,172.5,129.45,179l36,19.59,35.82,19.8,17.85,10,17.77,10.08-18.13-9.62L200.7,219.1l-36-19.59L128.89,179.7C117,173.06,105.08,166.41,93.26,159.65Z" style="fill:#dbdbdb"></path><path d="M236.89,159.65c-11.81,6.76-23.71,13.41-35.62,20l-35.82,19.81-36,19.59-18,9.72-18.14,9.62L111,228.36l17.85-10,35.82-19.8,36-19.59C212.73,172.5,224.77,166,236.89,159.65Z" style="fill:#dbdbdb"></path><rect x="282.71" y="232.58" width="55.71" height="294.01" transform="translate(-69.02 690.15) rotate(-90)" style="fill:#fff"></rect><path d="M458.05,351.57v56h-295v-56Zm-1,55.72V351.88H164v55.41Z" style="fill:#FFC727"></path><polygon points="457.75 407.3 457.38 407.58 163.38 351.87 163.74 351.58 457.75 407.3" style="fill:#FFC727"></polygon><polygon points="457.75 351.87 163.74 407.58 163.38 407.3 457.38 351.58 457.75 351.87" style="fill:#FFC727"></polygon></g><g id="freepik--Plant--inject-213"><path d="M108.41,363.07c6.89-14.16,18.94-21.43,32.53-17.41s15.68,23,5.54,27.74-20.28-9.18-25.63-12S108.41,363.07,108.41,363.07Z" style="fill:#FFC727"></path><path d="M101.74,400.75c0-1.7.11-3.41.17-5.11.12-3.41.23-6.82.36-10.23.23-6.23.9-12.35,3.48-18.09a28,28,0,0,1,10.93-12.59,22.93,22.93,0,0,1,5.74-2.48,13.43,13.43,0,0,1,6.7-3.68,27.17,27.17,0,0,1,9.56-.24c.11,0,.11.19,0,.18a23,23,0,0,0-9,.64,19,19,0,0,0-3.65,1.42,17.35,17.35,0,0,0-2.1,1.33,19.69,19.69,0,0,1,8.3.08,19.42,19.42,0,0,1,2.88.95,8.68,8.68,0,0,1,2.26-.19,13.28,13.28,0,0,1,2.94.42,22.07,22.07,0,0,1,5.59,2.44.09.09,0,1,1-.09.15,20.93,20.93,0,0,0-5.46-2.05,17.5,17.5,0,0,0-2.8-.41,13.53,13.53,0,0,0-1.56,0,18,18,0,0,1,8.78,8.75c.05.11-.11.2-.15.09a16.53,16.53,0,0,0-11.2-9c-.3-.08-.6-.12-.9-.18.1.44.08.94.14,1.37.09.69.21,1.37.35,2.06a34.56,34.56,0,0,0,1.1,4.14,32.63,32.63,0,0,0,1.65,4,19.41,19.41,0,0,0,2.29,3.88c.09.09-.07.21-.14.1-.82-1.28-1.77-2.46-2.51-3.78a28.48,28.48,0,0,1-1.84-4,26,26,0,0,1-1.21-4.24c-.15-.76-.27-1.53-.36-2.3a5.55,5.55,0,0,1-.09-1.41,19,19,0,0,0-4.82-.1c.6,3.38,1.25,6.9,3.14,9.83.06.1-.1.19-.16.09a41.26,41.26,0,0,1-2.33-4.83,18.13,18.13,0,0,1-1.16-5,22.22,22.22,0,0,0-8,2.67,26.42,26.42,0,0,0-10.62,11.62A43.68,43.68,0,0,0,104,383.77c-.45,7.23-.55,14.51-1.27,21.73,0,.47-.8.63-.89.1A26.17,26.17,0,0,1,101.74,400.75Z" style="fill:#263238"></path><path d="M117.66,353.59a8,8,0,0,1,1.57-1.44,20.66,20.66,0,0,1,1.75-1.33,12.81,12.81,0,0,1,3.91-1.82.09.09,0,0,1,0,.18,10.31,10.31,0,0,0-3.86,1.89c-.58.43-1.13.88-1.67,1.35a10.09,10.09,0,0,1-1.58,1.34A.12.12,0,0,1,117.66,353.59Z" style="fill:#263238"></path><path d="M139.64,358.72a42.42,42.42,0,0,1,3.16,4.18,24.83,24.83,0,0,1,2.35,4.66c0,.05-.06.08-.08,0a55.7,55.7,0,0,0-5.56-8.74C139.44,358.76,139.57,358.63,139.64,358.72Z" style="fill:#263238"></path><path d="M124.83,357.32a10.24,10.24,0,0,0,.77,2.56,17.67,17.67,0,0,0,1.32,2.27c0,.05,0,.1-.08.06a9.18,9.18,0,0,1-2.19-4.85C124.63,357.25,124.81,357.21,124.83,357.32Z" style="fill:#263238"></path><path d="M102.7,363.42S93,351.16,74.13,355.5c-17.89,4.13-26.15,36.94-8.07,40.87S81,369.93,87.54,364.78C92.37,361,99.33,361.81,102.7,363.42Z" style="fill:#FFC727"></path><path d="M59.59,373.42a37.23,37.23,0,0,1,3.88-3,17.37,17.37,0,0,1,4.13-2.07,25.66,25.66,0,0,1,2.46-3.15,24.2,24.2,0,0,1,5.69-4.53l-.56,0a30,30,0,0,0-3,0,16.73,16.73,0,0,0-5.81,1.45c-.1.05-.18-.12-.07-.17a26.56,26.56,0,0,1,5.8-1.74,17,17,0,0,1,2.94-.26c.52,0,1,0,1.58.1l.3,0a25.25,25.25,0,0,1,5.43-2l-.53-.14c-.92-.21-1.85-.34-2.79-.46a22.1,22.1,0,0,0-5.63.09.09.09,0,0,1,0-.18,36.07,36.07,0,0,1,5.69-.23,24,24,0,0,1,4.74.62,24.33,24.33,0,0,1,3.43-.39C93.8,357.12,101,359.57,105,365s4.83,12.6,5.54,19.11a144.64,144.64,0,0,1,.72,27.36c0,.54-.8.44-.81-.07-.25-7.73-.52-15.47-1.26-23.18-.34-3.57-.72-7.15-1.32-10.69a31.72,31.72,0,0,0-2.59-8.8,16.13,16.13,0,0,0-6.36-6.83,21.31,21.31,0,0,0-9-2.77,24.21,24.21,0,0,0-8.44.79,5.83,5.83,0,0,1,0,1.67,9.11,9.11,0,0,1-.42,2.05,11.31,11.31,0,0,1-.78,1.83c-.35.64-.79,1.22-1.18,1.84-.06.1-.22,0-.14-.1a8.69,8.69,0,0,0,1.46-3.71,15.68,15.68,0,0,0,.22-1.92c0-.49,0-1,0-1.46a24.81,24.81,0,0,0-8.22,4.34c-.46.37-.9.75-1.33,1.15a9.18,9.18,0,0,1,1.59,2,19.45,19.45,0,0,1,1.68,3,25.56,25.56,0,0,1,1.74,6.55.09.09,0,0,1-.18,0,18.81,18.81,0,0,0-2.14-6.2,25,25,0,0,0-1.67-2.76c-.32-.45-.65-.9-1-1.33-.18-.24-.38-.47-.56-.72a25.89,25.89,0,0,0-5.34,7.51l0,0a12.67,12.67,0,0,1,2.2,3.17,29.4,29.4,0,0,1,1.77,3.77,64.09,64.09,0,0,1,2.24,7.67c0,.11-.15.15-.17,0a32.32,32.32,0,0,0-2.67-7.55c-.57-1.19-1.16-2.35-1.79-3.49a30.61,30.61,0,0,1-1.76-3.29A24,24,0,0,0,63,382.65a.09.09,0,0,1-.18,0A30.43,30.43,0,0,1,67,369.25c-1.15.49-2.3,1-3.41,1.56a19,19,0,0,0-3.91,2.75C59.62,373.64,59.5,373.5,59.59,373.42Z" style="fill:#263238"></path><path d="M73.4,374.12c.56,1.86,1.27,3.66,1.78,5.54a21.15,21.15,0,0,1,.83,5.53c0,.05-.08.05-.09,0a54.32,54.32,0,0,0-2.69-11A.09.09,0,1,1,73.4,374.12Z" style="fill:#263238"></path><path d="M61.47,369.51A10.39,10.39,0,0,1,64,367.73a18.4,18.4,0,0,1,2.89-1c.11,0,.15.16,0,.18A11.79,11.79,0,0,0,64.1,368a19.68,19.68,0,0,0-2.55,1.58C61.49,369.64,61.42,369.56,61.47,369.51Z" style="fill:#263238"></path><path d="M93.44,347.05s-1.8-22-18.18-29.16c-13.67-6-21.49,9.4-11.83,18.8C71.25,344.3,83.79,340.87,93.44,347.05Z" style="fill:#FFC727"></path><path d="M66.46,322.15a69.18,69.18,0,0,1,7.28,3.45,54.23,54.23,0,0,1,5.65,3.75c-.27-.55-.5-1.14-.78-1.68-.43-.85-.88-1.68-1.39-2.49a23.09,23.09,0,0,0-3.61-4.56c-.08-.08,0-.21.13-.13a35.46,35.46,0,0,1,3.8,4.42,26.64,26.64,0,0,1,1.56,2.49,10.23,10.23,0,0,1,1.1,2.54l.18.13a53.85,53.85,0,0,1,7.82,7.65q-.08-.33-.15-.63c-.31-1.08-.64-2.14-1-3.2a27.31,27.31,0,0,0-3-6.42c-.06-.1.1-.19.16-.09a50,50,0,0,1,3.42,6.26,22.45,22.45,0,0,1,1.13,3.26,14.29,14.29,0,0,1,.54,2.21c.71.9,1.41,1.82,2.07,2.76,7,10,10.56,22.1,11.4,34.21a103.34,103.34,0,0,1,.19,10.85,68.31,68.31,0,0,1-1,10.88c0,.23-.4.16-.4-.06.08-3.18.41-6.35.47-9.53a95.31,95.31,0,0,0-.3-9.56,89.9,89.9,0,0,0-3.57-18.74,67.19,67.19,0,0,0-8.33-17.61c-.69-.14-1.37-.33-2-.5s-1.64-.42-2.45-.65a24.66,24.66,0,0,1-4.56-1.67.09.09,0,0,1,.09-.16,14.64,14.64,0,0,0,4.63,1.6c1.28.26,2.61.42,3.9.72-1.19-1.73-2.46-3.41-3.81-5a28.39,28.39,0,0,1-9.32-.69,38,38,0,0,1-4.76-1.49c-1.64-.63-3.19-1.44-4.81-2.12-.12,0,0-.23.07-.16a27.31,27.31,0,0,0,9.44,3.09,58.11,58.11,0,0,0,8.83.73c-1.16-1.33-2.36-2.63-3.64-3.85-4.3-4.1-9.41-7.86-15.07-9.82C66.3,322.29,66.36,322.11,66.46,322.15Z" style="fill:#263238"></path><path d="M79.78,322.22a24.61,24.61,0,0,1,2,2.94,15.52,15.52,0,0,1,1.44,3.41,0,0,0,0,1-.06,0c-.55-1.08-1-2.2-1.56-3.28a16.24,16.24,0,0,0-2-3C79.58,322.26,79.71,322.13,79.78,322.22Z" style="fill:#263238"></path><path d="M64.56,329.55a16.22,16.22,0,0,0,3.36,1.4,29.11,29.11,0,0,0,3.41.92c.06,0,0,.1,0,.1a16.47,16.47,0,0,1-3.54-.78,30.64,30.64,0,0,1-3.31-1.48C64.36,329.66,64.46,329.49,64.56,329.55Z" style="fill:#263238"></path><path d="M106.16,343.08c.1.95,2.48-8,16.32-15.93,12.57-7.22,27.57-26,15.25-37.83C127.78,279.76,101.57,300.61,106.16,343.08Z" style="fill:#FFC727"></path><path d="M96.63,394.37a246.9,246.9,0,0,1,2.2-27.83,125.29,125.29,0,0,1,5.85-24.91c1-2.91,2.2-5.78,3.48-8.6a20,20,0,0,1,.06-3.29c.07-1.41.19-2.82.32-4.22s.28-2.81.44-4.21.47-2.8.53-4.2c0-.13.2-.1.17,0a30.15,30.15,0,0,0-.5,4.45c-.1,1.36-.18,2.72-.22,4.08s0,2.73,0,4.09c0,.49,0,1,0,1.54,1.3-2.75,2.7-5.46,4.21-8.1-.94-5.74.27-11.74,1.45-17.35,0-.11.19-.06.17,0a48.42,48.42,0,0,0-.91,8.9c-.06,2.35,0,4.71.06,7.07l1-1.69q2.69-4.4,5.75-8.59a13.37,13.37,0,0,1,.13-4.09,32.44,32.44,0,0,1,1-4.47c.45-1.47,1-2.91,1.54-4.32s1.4-2.83,2-4.29a.09.09,0,1,1,.17.07,20.94,20.94,0,0,0-1.74,4.34,40.16,40.16,0,0,0-1.13,4.31c-.29,1.45-.53,2.91-.74,4.39-.13,1-.22,2-.39,3a105.31,105.31,0,0,1,9.7-11.27c.08-.09.2,0,.12.13a126.87,126.87,0,0,0-14.07,19.14l-.45.77c.76-.48,1.64-.86,2.36-1.26q2-1.11,4-2.21c1.32-.71,2.62-1.43,3.93-2.15.67-.37,1.33-.76,2-1.11a14.94,14.94,0,0,0,2.35-1.3.09.09,0,1,1,.1.15c-1.33.73-2.51,1.82-3.79,2.64s-2.61,1.62-4,2.37c-2.46,1.37-5.13,2.36-7.55,3.78-1.68,2.94-3.23,6-4.66,9q2.2-1.41,4.5-2.69c1-.55,2-1.09,3-1.62a14.29,14.29,0,0,0,2.78-1.68c.09-.07.21.05.13.13a26.51,26.51,0,0,1-5.32,3.7c-1.78,1-3.57,2-5.42,2.95q-2.22,4.86-4,9.91c-5.83,16.49-8,34-9,51.4-.3,5.18-.46,10.37-.53,15.56s.21,10.37.2,15.55c0,.15-.25.19-.27,0-.62-4.6-.73-9.28-.93-13.91S96.53,399.09,96.63,394.37Z" style="fill:#263238"></path><path d="M121.78,319.69a66.57,66.57,0,0,0,7.36-3.81,76.81,76.81,0,0,0,7-4.43s.08,0,0,.07a58.76,58.76,0,0,1-6.71,4.68,66.16,66.16,0,0,1-7.59,3.65C121.76,319.89,121.68,319.73,121.78,319.69Z" style="fill:#263238"></path><path d="M117.77,301c.21-.81.46-1.6.73-2.38a.07.07,0,0,1,0-.09c.17-.45.36-.89.54-1.33a1.38,1.38,0,0,1,.06-.16l.11-.26s0,0,0,0-.09.3-.13.46,0,.16-.08.25A65.34,65.34,0,0,0,117,307c0,.1-.17.1-.16,0A32,32,0,0,1,117.77,301Z" style="fill:#263238"></path><polygon points="82.01 397.72 83 409.43 86.02 445.13 118.41 445.13 121.43 409.43 122.42 397.72 82.01 397.72" style="fill:#455a64"></polygon><polygon points="82.01 397.72 83 409.43 121.43 409.43 122.42 397.72 82.01 397.72" style="fill:#263238"></polygon><rect x="78.83" y="393.02" width="46.77" height="11.23" transform="translate(204.43 797.27) rotate(180)" style="fill:#455a64"></rect></g><g id="freepik--Image--inject-213"><rect x="349.8" y="257.9" width="97.12" height="61.87" transform="translate(796.72 577.67) rotate(180)" style="fill:#FFC727"></rect><polygon points="345.67 325.47 343.92 325.47 343.92 323.72 344.42 323.72 344.42 324.97 345.67 324.97 345.67 325.47" style="fill:#263238"></polygon><path d="M448,325.47h-3V325h3Zm-6,0h-3V325h3Zm-6,0h-3V325h3Zm-6,0h-3V325h3Zm-6,0h-3V325h3Zm-6,0h-3V325h3Zm-6,0h-3V325h3Zm-6,0h-3V325h3Zm-6,0h-3V325h3Zm-6,0h-3V325h3Zm-6,0h-3V325h3Zm-6,0h-3V325h3Zm-6,0h-3V325h3Zm-6,0h-3V325h3Zm-6,0h-3V325h3Zm-6,0h-3V325h3Zm-6,0h-3V325h3Z" style="fill:#263238"></path><polygon points="452.8 325.47 451.05 325.47 451.05 324.97 452.3 324.97 452.3 323.72 452.8 323.72 452.8 325.47" style="fill:#263238"></polygon><path d="M452.8,320.69h-.5v-3h.5Zm0-6.07h-.5v-3h.5Zm0-6.07h-.5v-3h.5Zm0-6.06h-.5v-3h.5Zm0-6.07h-.5v-3h.5Zm0-6.07h-.5v-3h.5Zm0-6.07h-.5v-3h.5Zm0-6.07h-.5v-3h.5Zm0-6.06h-.5v-3h.5Zm0-6.07h-.5v-3h.5Zm0-6.07h-.5v-3h.5Z" style="fill:#263238"></path><polygon points="452.8 253.94 452.3 253.94 452.3 252.69 451.05 252.69 451.05 252.19 452.8 252.19 452.8 253.94" style="fill:#263238"></polygon><path d="M448,252.69h-3v-.5h3Zm-6,0h-3v-.5h3Zm-6,0h-3v-.5h3Zm-6,0h-3v-.5h3Zm-6,0h-3v-.5h3Zm-6,0h-3v-.5h3Zm-6,0h-3v-.5h3Zm-6,0h-3v-.5h3Zm-6,0h-3v-.5h3Zm-6,0h-3v-.5h3Zm-6,0h-3v-.5h3Zm-6,0h-3v-.5h3Zm-6,0h-3v-.5h3Zm-6,0h-3v-.5h3Zm-6,0h-3v-.5h3Zm-6,0h-3v-.5h3Zm-6,0h-3v-.5h3Z" style="fill:#263238"></path><polygon points="344.42 253.94 343.92 253.94 343.92 252.19 345.67 252.19 345.67 252.69 344.42 252.69 344.42 253.94" style="fill:#263238"></polygon><path d="M344.42,320.69h-.5v-3h.5Zm0-6.07h-.5v-3h.5Zm0-6.07h-.5v-3h.5Zm0-6.06h-.5v-3h.5Zm0-6.07h-.5v-3h.5Zm0-6.07h-.5v-3h.5Zm0-6.07h-.5v-3h.5Zm0-6.07h-.5v-3h.5Zm0-6.06h-.5v-3h.5Zm0-6.07h-.5v-3h.5Zm0-6.07h-.5v-3h.5Z" style="fill:#263238"></path><g style="opacity:0.1"><polygon points="381.84 306.44 446.92 306.44 414.38 279.51 381.84 306.44"></polygon></g><polygon points="349.8 306.47 407.51 306.47 378.66 288.93 349.8 306.47" style="fill:#FFC727"></polygon><g style="opacity:0.2"><polygon points="349.8 306.47 407.51 306.47 378.66 288.93 349.8 306.47"></polygon></g><rect x="349.8" y="306.44" width="97.12" height="13.33" style="fill:#FFC727"></rect><g style="opacity:0.2"><rect x="349.8" y="306.44" width="97.12" height="13.33"></rect></g><circle cx="367.12" cy="274.82" r="8.96" style="opacity:0.1"></circle><rect x="341.01" y="249.29" width="6.31" height="6.31" style="fill:#263238"></rect><rect x="341.01" y="322.07" width="6.31" height="6.31" style="fill:#263238"></rect><rect x="341.91" y="286.58" width="4.51" height="4.51" style="fill:#263238"></rect><rect x="396.11" y="250.19" width="4.51" height="4.51" style="fill:#263238"></rect><rect x="396.11" y="322.97" width="4.51" height="4.51" style="fill:#263238"></rect><rect x="450.3" y="286.58" width="4.51" height="4.51" style="fill:#263238"></rect><rect x="449.39" y="249.29" width="6.31" height="6.31" style="fill:#263238"></rect><rect x="449.39" y="322.07" width="6.31" height="6.31" style="fill:#263238"></rect></g><g id="freepik--Cursor--inject-213"><polygon points="464.87 348.54 469.6 359.95 464.88 361.9 460.13 350.42 452.33 356.47 452.33 324.33 474.83 347.06 464.87 348.54" style="fill:#263238"></polygon><path d="M452.61,320.06a4.38,4.38,0,0,1-.5-2.13,4.27,4.27,0,0,1,.5-2.13,4.79,4.79,0,0,1,0,4.26Z" style="fill:#263238"></path><path d="M448.94,321.58a4.36,4.36,0,0,1-1.86-1.15,4.54,4.54,0,0,1-1.16-1.86,4.3,4.3,0,0,1,1.86,1.15A4.47,4.47,0,0,1,448.94,321.58Z" style="fill:#263238"></path><path d="M447.42,325.25a4.38,4.38,0,0,1-2.13.5,4.27,4.27,0,0,1-2.13-.5,4.38,4.38,0,0,1,2.13-.5A4.49,4.49,0,0,1,447.42,325.25Z" style="fill:#263238"></path><path d="M448.94,328.92a4.47,4.47,0,0,1-1.16,1.86,4.3,4.3,0,0,1-1.86,1.15,4.54,4.54,0,0,1,1.16-1.86A4.36,4.36,0,0,1,448.94,328.92Z" style="fill:#263238"></path><path d="M457.8,325.25a4.49,4.49,0,0,1,2.13-.5,4.38,4.38,0,0,1,2.13.5,4.27,4.27,0,0,1-2.13.5A4.38,4.38,0,0,1,457.8,325.25Z" style="fill:#263238"></path><path d="M456.28,321.58a4.76,4.76,0,0,1,3-3,4.76,4.76,0,0,1-3,3Z" style="fill:#263238"></path></g><g id="freepik--Character--inject-213"><rect x="579.81" y="285.62" width="60.31" height="12.49" style="fill:#FFC727"></rect><polygon points="595.99 298.01 594.3 313.97 573.46 445.33 567.49 445.33 583.95 313.97 585.28 298.01 595.99 298.01" style="fill:#FFC727"></polygon><polygon points="652.44 445.33 646.47 445.33 625.62 313.97 623.93 298.01 634.64 298.01 635.98 313.97 652.44 445.33" style="fill:#FFC727"></polygon><rect x="575.85" y="403.85" width="66.52" height="3.75" style="fill:#FFC727"></rect><polygon points="583.95 313.4 594.3 313.4 595.99 298.01 585.28 298.01 583.95 313.4" style="opacity:0.1"></polygon><polygon points="635.98 313.4 625.62 313.4 623.93 298.01 634.64 298.01 635.98 313.4" style="opacity:0.1"></polygon><path d="M516,306.89c.66-2,36-48.67,38.4-49.57.27-.12,16.06,11.12,16.06,11.12.65.87,30.67-5.48,30.67-5.48l.3,36.21L546.77,298s-7.38,4.34-14.14,7.88h0a79.18,79.18,0,0,1-8.89,4.31C521,310.91,515.35,308.87,516,306.89Z" style="fill:#f7a9a0"></path><path d="M523.72,310.2a78.49,78.49,0,0,0,8.88-4.31h0c6.75-3.53,14.14-7.88,14.14-7.88l12.17.26,19-30.74c-4.18.74-7.3,1.18-7.51.91,0,0-15.78-11.24-16.06-11.12-2.42.9-37.74,47.57-38.4,49.57S521,310.91,523.72,310.2Z" style="fill:#fff"></path><path d="M515.69,307c.7-2,36.18-48.69,38.66-49.62.94-.35,8.66,4.42,16.13,11.11l-22.91,30.05s-21.14,11.19-24,11.92S515,309,515.69,307Z" style="fill:#a6a6a6"></path><path d="M518.07,307.7c6.14-7.67,30.18-39.2,35.67-47.26,0-.06,0-.09,0,0-6.25,7.47-30,39.19-35.75,47.19C517.82,307.77,517.94,307.86,518.07,307.7Z" style="fill:#263238"></path><path d="M527.56,308.68a7.86,7.86,0,0,0,1.65-6.13,7.64,7.64,0,0,0-2.84-4.92s-.12.05-.07.09a9.13,9.13,0,0,1,1.17,10.89A.06.06,0,1,0,527.56,308.68Z" style="fill:#263238"></path><path d="M544.92,300.34c2.42-3.1,4.08-7.56,3-11.46,0-.15-.26-.09-.28,0a53.74,53.74,0,0,1-3.15,11.18A.25.25,0,0,0,544.92,300.34Z" style="fill:#263238"></path><path d="M542.14,302c2.42-3.1,4.08-7.56,3-11.46,0-.15-.26-.09-.28,0a53.74,53.74,0,0,1-3.15,11.18A.25.25,0,0,0,542.14,302Z" style="fill:#263238"></path><path d="M539.36,303.74c2.42-3.1,4.08-7.56,3-11.46,0-.15-.26-.09-.28,0a53.74,53.74,0,0,1-3.15,11.18A.25.25,0,0,0,539.36,303.74Z" style="fill:#263238"></path><path d="M536.58,305.44c2.42-3.1,4.08-7.57,3-11.46,0-.15-.26-.09-.28,0a53.74,53.74,0,0,1-3.15,11.18A.25.25,0,0,0,536.58,305.44Z" style="fill:#263238"></path><path d="M559.65,268.09c2.66-3.52-2.8-7.66-5.47-4.14S557,271.61,559.65,268.09Z" style="fill:#263238"></path><path d="M550.7,310.08c2.52-.59,2.75-3.56,2.13-5.57a20.71,20.71,0,0,0-5.84-8.94.1.1,0,0,0-.16,0,.49.49,0,0,0-.69.37c-.15,3.4-.73,7,.16,10.37C546.82,308.29,548.32,310.63,550.7,310.08Zm-3.73-8.9c0-1.68.15-3.34.12-5a61.64,61.64,0,0,1,3.3,5.3,22,22,0,0,1,1.24,2.75c.52,1.46.79,6.52-2.85,4.25C546.77,307.2,546.92,303.17,547,301.18Z" style="fill:#263238"></path><path d="M551.74,286.91c-2.49,2.41-3.85,5.81-5.47,8.81a.47.47,0,0,0,.39.66c0,.07,0,.13.13.11a20.6,20.6,0,0,0,9.61-4.64c1.57-1.41,2.9-4.07,1-5.87S553.2,285.51,551.74,286.91Zm3.22-.53c4.3-.08,1.45,4.12.25,5.11a21,21,0,0,1-2.48,1.71,61.69,61.69,0,0,1-5.55,2.84c.89-1.42,1.64-2.91,2.48-4.36C550.65,290,552.59,286.42,555,286.38Z" style="fill:#263238"></path><path d="M602.8,251.86h24.55s25.67-12.34,46.35-7.37c23.7,5.7,26.73,35.48,9,46-22.45,13.33-122.35,10.75-122.35,10.75l21.6-36.6s33.22-7,63.35-6l-42.51,5.79Z" style="fill:#37474f"></path><path d="M580.52,267a1.33,1.33,0,0,0,.05-.19l0-.15c0-.12.07-.24.1-.36s.16-.47.25-.71.19-.47.3-.7a5.47,5.47,0,0,1,.41-.65s0,0,.06,0l0,0,.06,0,.05,0c3.66-.68,28.48-4.23,32.17-4.65s7.46-.77,11.19-1.08a220.33,220.33,0,0,1,22.4-.81l2.1.06c.15-.05.31-.07.46-.11.36-.09.71-.17,1.08-.24.67-.13,1.35-.23,2-.34,1.41-.21,2.83-.36,4.24-.63.08,0,.12.12,0,.14-1.41.31-2.8.72-4.22,1l-1.22.26c2.74.14,5.47.35,8.21.6.08,0,.08.14,0,.14-3.72-.22-7.47-.25-11.2-.19s-7.4.15-11.1.36c-7.47.43-14.94,1.1-22.38,1.88-4.18.43-29.49,4.13-33.69,4.3h-.05a1.69,1.69,0,0,1-.12.28c-.11.23-.23.46-.35.68s-.24.43-.38.63-.13.2-.2.3l-.11.16a.83.83,0,0,0-.11.15C580.62,267.16,580.47,267.09,580.52,267Z" style="fill:#263238"></path><path d="M568.15,299c1.34-2.14,2.48-4.43,3.7-6.63l3.69-6.64c2.46-4.41,11.28-19.23,12.15-20.27a.08.08,0,0,1,.14.08c-.41,1.15-5.92,11-7.19,13.16-2.53,4.38-5.19,8.67-7.82,13-.75,1.24-1.52,2.46-2.28,3.68s-1.57,2.44-2.27,3.7C568.23,299.17,568.11,299.1,568.15,299Z" style="fill:#263238"></path><path d="M587.94,269.18c2.2-.53,4.46-.87,6.69-1.3l6.7-1.25q6.7-1.25,13.43-2.38c8.93-1.51,17.91-2.76,26.94-3.62,5.09-.49,10.2-.81,15.3-1.19.11,0,.1.17,0,.17-9.09.41-18.17,1.64-27.17,2.94s-17.81,2.68-26.69,4.18c-2.5.42-5,.85-7.51,1.29s-5.09,1-7.65,1.31C587.88,269.34,587.84,269.2,587.94,269.18Z" style="fill:#263238"></path><path d="M562.55,426c2.15-.22,55.67-24.27,57.13-26.48.56-.83-2.49-8.83-6.45-18.39-.85-2.07-1.75-4.2-2.67-6.35-6-14-12.62-28.71-12.62-28.71l-35.84,16,13.6,28.27,3,6.21s-16.37,18.37-17.71,21S560.4,426.21,562.55,426Z" style="fill:#f7a9a0"></path><path d="M562.55,426c2.15-.22,55.67-24.27,57.13-26.48.68-1-4-12.62-9.12-24.74L575.7,390.33l3,6.21s-16.37,18.37-17.71,21S560.4,426.21,562.55,426Z" style="fill:#fff"></path><path d="M562.55,426c2.15-.22,55.67-24.27,57.13-26.48.56-.83-2.49-8.83-6.45-18.39l-34.55,15.41s-16.37,18.37-17.71,21S560.4,426.21,562.55,426Z" style="fill:#a6a6a6"></path><path d="M562.36,423.51c8.87-4.25,45-20.57,54.15-24.1.07,0,.09,0,0,.06-8.7,4.41-45,20.43-54.11,24.19C562.23,423.74,562.17,423.6,562.36,423.51Z" style="fill:#263238"></path><path d="M563.55,414a7.89,7.89,0,0,1,6.35-.22,7.66,7.66,0,0,1,4.16,3.89c0,.05-.08.1-.11.05a9.14,9.14,0,0,0-10.35-3.61A.06.06,0,1,1,563.55,414Z" style="fill:#263238"></path><path d="M575.6,399c3.57-1.66,8.31-2.27,11.86-.33.13.07,0,.27-.11.26a55.06,55.06,0,0,0-11.61.54A.25.25,0,0,1,575.6,399Z" style="fill:#263238"></path><path d="M573.32,401.32c3.57-1.67,8.3-2.27,11.85-.34.14.08,0,.27-.1.27a53.82,53.82,0,0,0-11.62.54A.25.25,0,0,1,573.32,401.32Z" style="fill:#263238"></path><path d="M571,403.64c3.57-1.66,8.3-2.26,11.85-.33.14.08,0,.27-.1.26a55,55,0,0,0-11.61.54A.25.25,0,0,1,571,403.64Z" style="fill:#263238"></path><path d="M568.75,406c3.56-1.66,8.3-2.27,11.85-.33.14.07,0,.27-.1.26a55.13,55.13,0,0,0-11.62.54A.25.25,0,0,1,568.75,406Z" style="fill:#263238"></path><path d="M610.39,391.92c4-1.8,6.84,4.47,2.8,6.27S606.35,393.72,610.39,391.92Z" style="fill:#263238"></path><path d="M570.07,396.29c3.06,1.63,6.72,1.87,10.07,2.49.35.07.56-.28.52-.58a.1.1,0,0,0,.06-.15,20.66,20.66,0,0,0-7.39-7.72c-1.82-1.06-4.77-1.5-5.91.82S568.28,395.34,570.07,396.29Zm-1.5-2.9c-1.4-4.07,3.47-2.65,4.78-1.82a21.49,21.49,0,0,1,2.4,1.84,61.3,61.3,0,0,1,4.42,4.41c-1.63-.41-3.28-.67-4.92-1C573.3,396.39,569.34,395.63,568.57,393.39Z" style="fill:#263238"></path><path d="M592.44,390c-1.33-2.22-4.23-1.52-6-.31a20.67,20.67,0,0,0-6.7,8.32.11.11,0,0,0,.08.15.48.48,0,0,0,.56.53c3.29-.9,6.91-1.46,9.82-3.35C591.94,394.27,593.71,392.13,592.44,390Zm-7.32,6.3c-1.6.49-3.22.89-4.81,1.43a61.06,61.06,0,0,1,4-4.77,20.52,20.52,0,0,1,2.24-2c1.23-.95,6-2.78,4.92,1.39C590.92,394.65,587,395.75,585.12,396.33Z" style="fill:#263238"></path><path d="M609.74,371.49l-40.31,18.23s-48-92.1-49.24-120.29c-1.07-24,15.63-33.26,69.63-17.74l13.23.17V261c-5.81.76-21.3,3.2-21.3,3.2-11.27,4.25-14.9,6-14.72,6.37C595.14,327.32,609.74,371.49,609.74,371.49Z" style="fill:#37474f"></path><path d="M560.43,260.44c1.63,2.17,3.13,4.43,4.57,6.73a97.12,97.12,0,0,1,27.47-7.24c2.66-.33,5.32-.56,8-.71.11,0,.11.16,0,.17a120.47,120.47,0,0,0-28,5.32c-2.51.77-5,1.67-7.45,2.55,1.73,2.77,3.36,5.61,4.93,8.46a167.79,167.79,0,0,1,7.88,16.46c1.3,3.11,2.56,6.25,3.67,9.43,0,.09-.12.15-.15.06Q574,285.2,565.26,269.43c-1.65-3-3.37-5.9-5-8.89C560.24,260.46,560.37,260.36,560.43,260.44Z" style="fill:#263238"></path><path d="M568.55,380c2.35-.92,4.63-2.06,6.93-3.1l6.92-3.11c4.61-2.06,20.55-8.66,21.87-9,.08,0,.13.1.06.15-1,.67-11.3,5.24-13.63,6.24-4.65,2-9.35,3.84-14,5.73-1.34.54-2.69,1.05-4,1.58s-2.72,1-4,1.6C568.52,380.14,568.47,380,568.55,380Z" style="fill:#263238"></path><path d="M560.63,264.6c3.18,6,5.89,12.37,8.65,18.61s5.43,12.48,8,18.76q7.76,18.78,14.45,38c2.54,7.24,4.9,14.53,7.21,21.84,0,.1-.13.14-.16,0-4.27-12.92-8.9-25.73-13.73-38.46s-9.94-25.28-15.36-37.73q-2.28-5.25-4.64-10.46c-1.57-3.47-3.2-6.93-4.67-10.45C560.35,264.58,560.55,264.46,560.63,264.6Z" style="fill:#263238"></path><path d="M586.16,188.18c-18,13.92-34.44,29.85-36.37,39.22-1.22,5.89,3.3,15.35,6.6,20.94,1.6,2.72,27.07-13.58,24.35-15.59-6.73-5-8.06-7.2-7.68-8.51.25-.85,18.61-23.66,23.18-33.28C602.61,177.56,594.05,182.09,586.16,188.18Z" style="fill:#f7a9a0"></path><path d="M560.22,208.85l17.14,11.65s16.09-20.41,20-30.64-.38-10.35-10.49-3.1S560.22,208.85,560.22,208.85Z" style="fill:#FFC727"></path><path d="M560.22,208.85l17.14,11.65s16.09-20.41,20-30.64-.38-10.35-10.49-3.1S560.22,208.85,560.22,208.85Z" style="fill:#FFC727"></path><path d="M590.39,192.7l-1.86-.48.46-1.86a.37.37,0,0,0-.26-.44.37.37,0,0,0-.44.27l-.55,2.21s0,0,0,0v.08h0l0,0s0,0,0,0l0,0s0,0,0,0l0,0,0,0s0,0,0,0,0,0,0,0h0s0,0,0,0h0s0,0,0,0l2.21.57a.39.39,0,0,0,.28,0,.41.41,0,0,0,.16-.22A.36.36,0,0,0,590.39,192.7Zm1.45-4.24a.31.31,0,0,0-.35-.27.32.32,0,0,0-.27.36l.51,3.56a.31.31,0,0,0,.35.27l.11,0a.31.31,0,0,0,.15-.31Zm3.25,0a.2.2,0,0,1,0-.05h0s0,0,0,0a0,0,0,0,1,0,0,0,0,0,0,1,0,0l0,0,0,0,0,0h0l-.05,0h0l0,0-2.21-.57a.37.37,0,0,0-.44.26.36.36,0,0,0,.26.44l1.86.48-.46,1.86a.35.35,0,0,0,.26.44.36.36,0,0,0,.27,0,.37.37,0,0,0,.17-.22l.54-2.22s0,0,0,0h0v-.08Zm-16.47,8.88a.36.36,0,0,0-.45-.23l-2.16.73,0,0h0l0,0h0s0,0,0,0l0,0s0,0,0,0,0,0,0,0a0,0,0,0,0,0,0l0,0s0,0,0,0a.1.1,0,0,0,0,0,0,0,0,0,0,0,0s0,0,0,0v0a.06.06,0,0,0,0,0l.7,2.17a.48.48,0,0,0,.19.21.36.36,0,0,0,.5-.44l-.59-1.82,1.81-.61A.35.35,0,0,0,578.62,197.34Zm3,1.4a.31.31,0,0,0-.44,0l-2.74,2.34a.31.31,0,0,0,0,.44.2.2,0,0,0,.09.07.3.3,0,0,0,.34,0l2.74-2.34A.32.32,0,0,0,581.57,198.74Zm1.82,2.87h0a.13.13,0,0,0,0-.06l-.7-2.16a.37.37,0,0,0-.46-.23.35.35,0,0,0-.23.45l.59,1.83-1.81.61a.35.35,0,0,0-.24.45.37.37,0,0,0,.46.23l2.16-.73.06,0,0,0h0l0,0h0a.05.05,0,0,0,0,0s0,0,0,0v0l0,0h0a.11.11,0,0,1,0-.06h0S583.39,201.64,583.39,201.61Zm-15.15,9,1.35-1.36a.37.37,0,0,0,0-.52.38.38,0,0,0-.51,0l-1.6,1.63a.08.08,0,0,0,0,0h0l0,.05h0l0,.05a0,0,0,0,0,0,0v.14s0,0,0,0l0,0a0,0,0,0,0,0,0l0,0h0s0,0,0,0l1.6,1.62a.35.35,0,0,0,.26.1.36.36,0,0,0,.25-.61Zm4.61-2a.32.32,0,0,0-.41.17l-1.4,3.32a.31.31,0,0,0,.17.41.25.25,0,0,0,.12,0,.33.33,0,0,0,.29-.18l1.39-3.33A.31.31,0,0,0,572.85,208.7Zm3,1.92v-.06l0-.05h0l0-.05h0a.08.08,0,0,0,0,0l-1.6-1.63a.38.38,0,0,0-.51,0,.37.37,0,0,0,0,.52l1.35,1.36L573.61,212a.36.36,0,0,0,0,.51.35.35,0,0,0,.26.1.35.35,0,0,0,.25-.1l1.6-1.62,0,0a0,0,0,0,0,0,0l0,0v0s0,0,0-.05h0v0a.1.1,0,0,1,0,0A.1.1,0,0,0,575.82,210.62Z" style="fill:#030402;opacity:0.1"></path><path d="M579.71,216.23a146.63,146.63,0,0,1-15.15-10.49c-.06,0,0-.14.08-.09,1.3,1,9.15,6,15.16,10.47C579.87,216.17,579.79,216.27,579.71,216.23Z" style="fill:#263238"></path><path d="M598.69,185a21.18,21.18,0,0,1-1.36,4.9c-3.88,10.23-20,30.64-20,30.64l-6.84-4.65Z" style="opacity:0.1"></path><path d="M637.64,251.61c-.13.16-57.78,1.38-58.37.83-.81-.78,4.53-55,12.88-68.44,2.08-3.36,11.91-5.85,16.31-1.29C625.48,200.33,638.07,251,637.64,251.61Z" style="fill:#FFC727"></path><path d="M590.39,192.7l-1.71-.44c-.08.23-.15.46-.22.69l1.75.45a.39.39,0,0,0,.28,0,.41.41,0,0,0,.16-.22A.36.36,0,0,0,590.39,192.7Zm1.45-4.24a.31.31,0,0,0-.35-.27.32.32,0,0,0-.27.36l.51,3.56a.31.31,0,0,0,.35.27l.11,0a.31.31,0,0,0,.15-.31Zm3.25,0a.2.2,0,0,1,0-.05h0s0,0,0,0a0,0,0,0,1,0,0,0,0,0,0,1,0,0l0,0,0,0,0,0h0l-.05,0h0l0,0-2.21-.57a.37.37,0,0,0-.44.26.36.36,0,0,0,.26.44l1.86.48-.46,1.86a.35.35,0,0,0,.26.44.36.36,0,0,0,.27,0,.37.37,0,0,0,.17-.22l.54-2.22s0,0,0,0h0v-.08ZM614.54,211l-1.86-.48.46-1.86a.36.36,0,0,0-.26-.44.37.37,0,0,0-.44.26l-.54,2.21a.13.13,0,0,0,0,.06h0s0,0,0,.06h0s0,0,0,0v0l0,0s0,0,0,0l0,0,0,0h0l0,0h0l0,0h0l0,0,2.21.57a.39.39,0,0,0,.28,0,.34.34,0,0,0,.16-.21A.35.35,0,0,0,614.54,211Zm1.45-4.25a.3.3,0,0,0-.34-.26.31.31,0,0,0-.28.35l.51,3.57a.3.3,0,0,0,.35.26.21.21,0,0,0,.11,0,.32.32,0,0,0,.16-.31Zm3.25,0a.11.11,0,0,0,0,0s0,0,0,0,0,0,0,0v0l0,0,0,0h0s0,0,0,0h0l-.05,0a0,0,0,0,0,0,0h0l-2.21-.58a.38.38,0,0,0-.44.27.37.37,0,0,0,.26.44l1.86.47L618,208.9a.36.36,0,0,0,.26.44.35.35,0,0,0,.28,0,.37.37,0,0,0,.16-.22l.54-2.21,0-.06v-.06S619.25,206.73,619.24,206.73Zm-31.38,25.79L586,232l.46-1.86a.37.37,0,0,0-.26-.44.4.4,0,0,0-.45.27l-.54,2.21a.11.11,0,0,0,0,.05,0,0,0,0,0,0,0v.06h0l0,0s0,0,0,0l0,0v0l0,0,0,0,0,0s0,0,0,0,0,0,0,0,0,0,0,0h.06l2.21.57a.36.36,0,0,0,.27,0,.38.38,0,0,0,.17-.22A.37.37,0,0,0,587.86,232.52Zm1.46-4.24A.31.31,0,0,0,589,228a.33.33,0,0,0-.27.36l.5,3.56a.32.32,0,0,0,.36.27.21.21,0,0,0,.11,0,.31.31,0,0,0,.15-.31Zm3.25,0v0a.2.2,0,0,1,0-.05h0l0,0a0,0,0,0,0,0,0v0l0,0h0l0,0a0,0,0,0,1,0,0l0,0h0l-.06,0-2.2-.57a.38.38,0,0,0-.44.26.35.35,0,0,0,.26.44l1.86.48-.46,1.86a.35.35,0,0,0,.26.44.36.36,0,0,0,.27,0,.41.41,0,0,0,.17-.22l.54-2.22s0,0,0,0h0S592.58,228.32,592.57,228.3Zm22.32,19.19L613,247l.46-1.86a.36.36,0,1,0-.7-.18l-.55,2.22a.11.11,0,0,0,0,.05h0v.06s0,0,0,0,0,0,0,0,0,0,0,0l0,0a.1.1,0,0,1,0,0l0,0s0,0,0,0a0,0,0,0,1,0,0l0,0h0l0,0h0l0,0,2.21.57a.37.37,0,0,0,.27-.05.35.35,0,0,0-.1-.65Zm1.46-4.25A.31.31,0,0,0,616,243a.31.31,0,0,0-.27.35l.5,3.57a.31.31,0,0,0,.36.26.35.35,0,0,0,.11,0,.33.33,0,0,0,.15-.31Zm3.25,0v0a.43.43,0,0,1,0-.05h0l0,0a0,0,0,0,1,0,0l0,0a.08.08,0,0,1,0,0h0l0,0a0,0,0,0,0,0,0l-.05,0h-.07l-2.2-.57a.36.36,0,1,0-.18.7l1.86.48-.46,1.86a.35.35,0,0,0,.26.44.36.36,0,0,0,.27-.05.32.32,0,0,0,.17-.22l.54-2.21a.11.11,0,0,0,0,0h0S619.61,243.28,619.6,243.27Zm-11.7-59.69a.37.37,0,0,0-.46-.23l-2.16.73,0,0a0,0,0,0,0,0,0s0,0-.05,0a0,0,0,0,0,0,0l0,0,0,0,0,0s0,0,0,0a0,0,0,0,1,0,0s0,0,0,0,0,0,0,0v0a0,0,0,0,0,0,0s0,0,0,.05v0a0,0,0,0,0,0,0l.7,2.17a.39.39,0,0,0,.19.21.36.36,0,0,0,.27,0,.37.37,0,0,0,.23-.46l-.6-1.82,1.82-.61A.37.37,0,0,0,607.9,183.58Zm2.53,1.35h0l-2.74,2.35a.31.31,0,0,0,0,.44.31.31,0,0,0,.09.07.32.32,0,0,0,.35,0l2.74-2.34v0A5.71,5.71,0,0,0,610.43,184.93Zm.89,1.09.54,1.65-1.82.61a.35.35,0,0,0-.23.45.35.35,0,0,0,.18.21.39.39,0,0,0,.28,0l2.16-.73.05,0h0l0,0a0,0,0,0,1,0,0l0,0h0a.05.05,0,0,1,0,0,0,0,0,0,1,0,0,0,0,0,0,0,0,0,.08.08,0,0,0,0,0h0s0,0,0-.06v-.09C612.22,187.2,611.77,186.6,611.32,186Zm-10.89,30.46a.38.38,0,0,0-.46-.23l-2.16.73,0,0h0l0,0h0s0,0,0,0h0l0,0,0,0v0l0,0s0,0,0,0,0,0,0,0v0s0,0,0,.05v0s0,0,0,0l.7,2.17a.39.39,0,0,0,.19.21.36.36,0,0,0,.5-.44l-.59-1.82,1.82-.61A.37.37,0,0,0,600.43,216.48Zm2.94,1.41a.31.31,0,0,0-.44,0l-2.74,2.34a.31.31,0,0,0,0,.44.2.2,0,0,0,.09.07.3.3,0,0,0,.34,0l2.74-2.35A.3.3,0,0,0,603.37,217.89Zm1.82,2.86h0a.11.11,0,0,0,0-.05l-.7-2.17a.37.37,0,0,0-.46-.23.36.36,0,0,0-.23.46l.59,1.82-1.81.61a.35.35,0,0,0-.23.46.32.32,0,0,0,.18.2.36.36,0,0,0,.27,0l2.16-.73.06,0,0,0h0l0,0h0a.05.05,0,0,0,0,0l0,0s0,0,0,0,0,0,0,0v0s0,0,0,0,0,0,0,0S605.19,220.78,605.19,220.75Zm21.07,11.91a.37.37,0,0,0-.46-.23l-2.16.73a.05.05,0,0,0,0,0s0,0,0,0l-.05,0h0l0,0s0,0,0,0l0,0a0,0,0,0,1,0,0s0,0,0,0,0,0,0,0,0,0,0,0,0,0,0,0v.08h0a.09.09,0,0,0,0,.05l.7,2.17a.43.43,0,0,0,.19.21.41.41,0,0,0,.27,0,.37.37,0,0,0,.23-.46l-.6-1.82,1.82-.61A.37.37,0,0,0,626.26,232.66Zm3,1.4a.33.33,0,0,0-.45,0L626,236.36a.32.32,0,0,0,0,.45.31.31,0,0,0,.09.07.34.34,0,0,0,.35,0l2.74-2.35A.3.3,0,0,0,629.21,234.06Zm1.8,2.8-.7-2.17a.38.38,0,0,0-.46-.23.37.37,0,0,0-.23.46l.6,1.82-1.82.61a.37.37,0,0,0-.23.46.42.42,0,0,0,.18.21.39.39,0,0,0,.28,0l2.16-.73.05,0h0l0,0v0l0,0a0,0,0,0,1,0,0s0,0,0,0l0,0v0a.08.08,0,0,0,0,0s0,0,0,0,0,0,0-.05h0v-.07S631,236.88,631,236.86Zm-30.94-37.33,1.35-1.36a.36.36,0,0,0-.51-.51l-1.6,1.62s0,0,0,0a0,0,0,0,0,0,0l0,.06h0a.06.06,0,0,0,0,0s0,0,0,0v.14a0,0,0,0,1,0,0,0,0,0,0,0,0,0s0,0,0,0l0,.05h0a0,0,0,0,0,0,0l1.6,1.63a.35.35,0,0,0,.26.1.35.35,0,0,0,.25-.1.36.36,0,0,0,0-.51Zm4.61-1.94a.31.31,0,0,0-.41.17l-1.4,3.32a.31.31,0,0,0,.17.41l.12,0a.31.31,0,0,0,.29-.19l1.39-3.32A.3.3,0,0,0,604.68,197.59Zm3,1.86s0,0,0,0h0a.33.33,0,0,1,0-.06,0,0,0,0,0,0,0s0,0,0,0l-1.6-1.62a.36.36,0,0,0-.51.51l1.35,1.36-1.35,1.37a.36.36,0,0,0,0,.51.37.37,0,0,0,.26.1.33.33,0,0,0,.25-.1l1.6-1.63a.08.08,0,0,0,0,0h0l0-.05v0s0,0,0,0h0v-.14S607.65,199.45,607.65,199.45Zm8.24,23.26,1.35-1.36a.36.36,0,0,0-.51-.51l-1.6,1.62s0,0,0,0h0s0,0,0,.06h0a.06.06,0,0,0,0,0s0,0,0,0v.06s0,0,0,0v0a0,0,0,0,1,0,0,0,0,0,0,0,0,0s0,0,0,0a.09.09,0,0,0,0,0h0s0,0,0,0l1.6,1.63a.35.35,0,0,0,.26.1.35.35,0,0,0,.25-.1.37.37,0,0,0,0-.52Zm4.61-1.94a.31.31,0,0,0-.41.17l-1.4,3.32a.31.31,0,0,0,.17.41l.12,0a.31.31,0,0,0,.29-.19l1.39-3.32A.3.3,0,0,0,620.5,220.77Zm3,1.86s0,0,0,0h0a.33.33,0,0,1,0-.06h0s0,0,0,0l-1.6-1.62a.36.36,0,0,0-.51.51l1.35,1.36-1.35,1.36a.37.37,0,0,0,0,.52.37.37,0,0,0,.26.1.33.33,0,0,0,.25-.1l1.6-1.63,0,0h0l0,0v0s0,0,0,0a0,0,0,0,1,0,0v-.14S623.47,222.63,623.47,222.63Zm-33.33,22.66,1.35-1.36a.37.37,0,0,0,0-.52.38.38,0,0,0-.51,0L589.37,245l0,0h0l0,0a0,0,0,0,1,0,0,.09.09,0,0,1,0,0v.16s0,0,0,0a0,0,0,0,1,0,0s0,0,0,0,0,0,0,0h0a.05.05,0,0,0,0,0l1.61,1.62a.35.35,0,0,0,.26.1.36.36,0,0,0,.25-.61Zm4.61-1.94a.3.3,0,0,0-.41.16l-1.4,3.32a.31.31,0,0,0,.17.41.22.22,0,0,0,.11,0,.33.33,0,0,0,.3-.18l1.39-3.33A.3.3,0,0,0,594.75,243.35Zm3,1.91v-.06l0,0h0l0,0h0l0,0-1.6-1.63a.38.38,0,0,0-.51,0,.37.37,0,0,0,0,.52l1.35,1.36-1.35,1.36a.36.36,0,0,0,0,.51.35.35,0,0,0,.25.1.35.35,0,0,0,.26-.1l1.6-1.62s0,0,0,0h0l0-.05v0s0,0,0,0h0v-.07S597.72,245.27,597.72,245.26Zm33.78,4.22a.38.38,0,0,0-.51,0l-1.6,1.63,0,0s0,0,0,0,0,0,0,.05h0a.08.08,0,0,0,0,0s0,0,0,0v0a.1.1,0,0,0,0,0v.07s0,0,0,0a0,0,0,0,0,0,0l0,0a.08.08,0,0,0,0,0h0s0,0,0,0l.24.24,1,0-.47-.47L631.5,250A.36.36,0,0,0,631.5,249.48Zm3.27-.07a.33.33,0,0,0-.42.17l-.92,2.18.68,0,.81-1.92A.31.31,0,0,0,634.77,249.41Zm3,1.86a.09.09,0,0,1,0-.05h0l0-.05v0l0,0,0-.05L636,249.48a.4.4,0,0,0-.52,0,.36.36,0,0,0,0,.51l1.35,1.37-.3.3c.68,0,1.06,0,1.07,0a.08.08,0,0,1,0,0h0l0-.05v0a.11.11,0,0,1,0-.05h0v-.16ZM590.61,213a.36.36,0,0,0-.43-.28l-1.87.41-.43-1.87a.35.35,0,0,0-.43-.27.38.38,0,0,0-.28.43l.51,2.22a.08.08,0,0,0,0,.05,0,0,0,0,0,0,0l0,.05h0l0,0s0,0,0,0l0,0,0,0h0l0,0h0s0,0,0,0h.14l2.23-.48a.37.37,0,0,0,.22-.17A.33.33,0,0,0,590.61,213Zm1-1.76-2.06-3a.31.31,0,0,0-.43-.08.32.32,0,0,0-.08.44l2.05,3a.31.31,0,0,0,.44.07.3.3,0,0,0,.08-.08A.34.34,0,0,0,591.63,211.23Zm1.41-2.07-.51-2.22a.07.07,0,0,0,0-.05h0l0,0s0,0,0,0l0,0s0,0,0,0l0,0a0,0,0,0,0,0,0h0l0,0h-.21l-2.23.48a.38.38,0,0,0-.27.43.36.36,0,0,0,.43.28l1.87-.41.43,1.87a.36.36,0,0,0,.43.28.34.34,0,0,0,.22-.17A.31.31,0,0,0,593,209.16Zm14.24,28.5-1.87.41L605,236.2a.36.36,0,1,0-.71.16l.51,2.22a.43.43,0,0,0,0,0h0s0,0,0,.06h0l0,0,0,0,0,0,0,0,0,0,0,0h.06a0,0,0,0,0,0,0h.07a0,0,0,0,0,0,0l2.23-.48a.4.4,0,0,0,.23-.17.36.36,0,0,0-.39-.54Zm1.45-1.48-2.06-3a.3.3,0,0,0-.42-.08.31.31,0,0,0-.09.43l2.06,3a.29.29,0,0,0,.43.08.15.15,0,0,0,.08-.08A.32.32,0,0,0,608.73,236.18Zm1.42-2.07-.51-2.22a.43.43,0,0,0,0,0h0l0-.05s0,0,0,0,0,0,0,0h0l0,0,0,0h0l0,0h-.2l-2.23.48a.38.38,0,0,0-.28.43.37.37,0,0,0,.43.28l1.88-.41.42,1.87a.35.35,0,0,0,.43.27.32.32,0,0,0,.23-.16A.35.35,0,0,0,610.15,234.11Zm-30,16.84-.9-1.3c0,.37,0,.72,0,1l.44.63a.31.31,0,0,0,.43.08.17.17,0,0,0,.08-.09A.3.3,0,0,0,580.16,251Zm1.42-2.07-.51-2.22s0,0,0-.06h0a.17.17,0,0,1,0-.05h0l0,0s0,0,0,0l0,0,0,0h0l0,0s0,0,0,0h-.14l-.05,0-1.18.25q0,.39-.06.75l1-.22.42,1.86a.37.37,0,0,0,.43.28.39.39,0,0,0,.23-.16A.37.37,0,0,0,581.58,248.88Z" style="fill:#030402;opacity:0.1"></path><path d="M596,257.86c-2.34,1.93-6.6-4.23-6.6-4.23a5.56,5.56,0,0,1-.92,3.68c-1.37,1.85-4.87.51-4.87.51a6.86,6.86,0,0,1-1.59,3.73c-1.49,1.63-5.21.78-5.21.78a6,6,0,0,1-3.47,2.4c-3.79.81-7.9-3.45-10.55-6.13S555.16,245.83,554,244l17.07-17.11s15.27,8.65,17.93,12.24C591.25,242.17,599.56,254.92,596,257.86Z" style="fill:#f7a9a0"></path><path d="M589.42,253.52a50.22,50.22,0,0,0-6.59-10.44c-.05-.07-.16,0-.11.09,2.49,3.2,4.18,7.15,6.53,10.45C589.31,253.71,589.46,253.63,589.42,253.52Z" style="fill:#263238"></path><path d="M583.77,257.54a10.8,10.8,0,0,0-1.65-2.27c-.64-.77-1.29-1.52-2-2.26-1.33-1.48-2.69-2.93-4.1-4.35-.06-.06-.17,0-.11.09,1.33,1.48,2.63,3,3.88,4.52.63.76,1.26,1.54,1.88,2.32a12.78,12.78,0,0,0,1.84,2.11A.14.14,0,0,0,583.77,257.54Z" style="fill:#263238"></path><path d="M576.75,262.27a7.53,7.53,0,0,0-1.6-2c-.62-.66-1.24-1.33-1.85-2-1.22-1.34-2.45-2.68-3.63-4.06,0-.07-.17,0-.11.09,1.19,1.41,2.36,2.83,3.56,4.23l1.78,2.06a7.05,7.05,0,0,0,1.78,1.71A.05.05,0,0,0,576.75,262.27Z" style="fill:#263238"></path><path d="M612,184.16c27.82,14,53.62,35.74,53,44.2-.61,8.94-15.82,21.57-30.43,26.22-3,.95-16.52-19.81-13.56-21.41,2.3-1.24,12.84-6.41,13.9-8.17.73-1.23-20.89-22.39-28.79-34.05C597.91,178.74,604.56,180.41,612,184.16Z" style="fill:#f7a9a0"></path><path d="M627.25,231.35S618.07,234,612.14,236c-3.3,1.11-8.8,3.53-10.85,5.46-3.07,2.89-14.07,16.92-10.73,19.66,3,2.48,6-2.84,6-2.84s-3.76,5.51,0,7.05,7-5.75,7-5.75-4.4,5.58-.23,6.83c3.62,1.1,8.17-6.92,8.17-6.92s-5.26,5.35-1.66,6.83c4,1.64,12.3-9.52,12.3-9.52,8.17-.55,13-2,18.35-4.58C641.39,251.72,627.25,231.35,627.25,231.35Z" style="fill:#f7a9a0"></path><path d="M602.35,261.38l.84-1.68a30,30,0,0,1,1.73-3.21q1-1.5,2-2.91c.75-1,1.61-1.94,2.34-3a.07.07,0,1,1,.11.08,31.87,31.87,0,0,0-2,3.12c-.64,1-1.26,2.07-1.89,3.11s-1.28,2-1.92,3c-.32.5-.61,1-.91,1.52a11.13,11.13,0,0,1-.87,1.45s-.1,0-.09-.06A7.85,7.85,0,0,1,602.35,261.38Z" style="fill:#263238"></path><path d="M595.77,259.42a48.93,48.93,0,0,1,3.08-6A33.79,33.79,0,0,1,603,248c0-.06.15,0,.11.08-1.19,1.93-2.41,3.85-3.63,5.76-.59.94-3.16,5.27-3.48,5.69C595.9,259.64,595.74,259.54,595.77,259.42Z" style="fill:#263238"></path><path d="M608.49,263.38a48.56,48.56,0,0,1,3-5.62,44.43,44.43,0,0,1,4.3-4.89c.06-.05.16,0,.11.09-1.3,1.73-2.64,3.43-3.86,5.23-.59.87-2.76,4.49-3.4,5.27C608.59,263.54,608.47,263.46,608.49,263.38Z" style="fill:#263238"></path><path d="M643.35,202l-16.48,15.46S609.16,198.47,603.74,189s-1.24-10.29,9.88-4.7S643.35,202,643.35,202Z" style="fill:#FFC727"></path><path d="M619.24,206.73a.11.11,0,0,0,0,0s0,0,0,0,0,0,0,0v0l0,0,0,0h0s0,0,0,0h0l-.05,0a0,0,0,0,0,0,0h0l-2.21-.58a.4.4,0,0,0-.19,0c.26.3.51.6.77.89l1.1.28-.19.77c.19.23.39.45.58.67l.39-1.61,0-.06v-.06S619.25,206.73,619.24,206.73ZM607.9,183.58a.37.37,0,0,0-.46-.23l-2.16.73,0,0a0,0,0,0,0,0,0s0,0-.05,0a0,0,0,0,0,0,0l0,0,0,0,0,0s0,0,0,0a0,0,0,0,1,0,0s0,0,0,0,0,0,0,0v0a0,0,0,0,0,0,0s0,0,0,.05v0a0,0,0,0,0,0,0l.7,2.17a.39.39,0,0,0,.19.21.36.36,0,0,0,.27,0,.37.37,0,0,0,.23-.46l-.6-1.82,1.82-.61A.37.37,0,0,0,607.9,183.58Zm3,1.4a.33.33,0,0,0-.45,0l-2.74,2.35a.31.31,0,0,0,0,.44.31.31,0,0,0,.09.07.32.32,0,0,0,.35,0l2.74-2.34A.33.33,0,0,0,610.85,185Zm1.8,2.8-.7-2.16a.37.37,0,0,0-.46-.23.35.35,0,0,0-.23.45l.6,1.83-1.82.61a.35.35,0,0,0-.23.45.35.35,0,0,0,.18.21.39.39,0,0,0,.28,0l2.16-.73.05,0h0l0,0a0,0,0,0,1,0,0l0,0h0a.05.05,0,0,1,0,0,0,0,0,0,1,0,0,0,0,0,0,0,0,0,.08.08,0,0,0,0,0h0s0,0,0-.06v-.08Zm20.46,16.1a.37.37,0,0,0-.46-.23l-2.16.73,0,0h0l0,0h0l0,0s0,0,0,0,0,0,0,0l0,0s0,0,0,0l0,0s0,0,0,0v0s0,0,0,0,0,0,0,0a0,0,0,0,0,0,0s0,0,0,.05L631,207a.33.33,0,0,0,.19.21.36.36,0,0,0,.5-.43l-.6-1.83,1.82-.61A.35.35,0,0,0,633.11,203.88Zm2.95,1.4a.33.33,0,0,0-.45,0l-2.74,2.34a.31.31,0,0,0,0,.44.23.23,0,0,0,.09.08.34.34,0,0,0,.35,0l2.74-2.35A.31.31,0,0,0,636.06,205.28Zm1.1.63a.38.38,0,0,0-.46-.23.37.37,0,0,0-.23.46l.57,1.73.58-.54ZM635,209a.41.41,0,0,0,.18.21.38.38,0,0,0,.28,0l.12,0,1.27-1.19-1.62.54A.37.37,0,0,0,635,209Zm-11.13-11a.35.35,0,0,0-.43-.27l-1.87.4-.42-1.87a.38.38,0,0,0-.44-.27.36.36,0,0,0-.27.43l.51,2.22a.43.43,0,0,0,0,.05v0s0,0,0,.05h0l0,0,0,0,0,0s0,0,0,0h0l0,0s0,0,0,0h.17l2.23-.48a.38.38,0,0,0,.23-.16A.36.36,0,0,0,623.89,198Zm1-1.76-2.06-3a.3.3,0,0,0-.42-.08.32.32,0,0,0-.09.44l2.06,3a.3.3,0,0,0,.43.07.15.15,0,0,0,.08-.08A.32.32,0,0,0,624.91,196.23Zm1.42-2.06-.51-2.23s0,0,0-.05h0l0,0h0a.11.11,0,0,1,0,0h0l0,0,0,0h0l0,0h-.15l-.05,0-2.23.47a.39.39,0,0,0-.28.44.36.36,0,0,0,.43.27l1.88-.41.42,1.87a.37.37,0,0,0,.43.28.39.39,0,0,0,.23-.16A.37.37,0,0,0,626.33,194.17Z" style="fill:#030402;opacity:0.1"></path><path d="M638.63,200A153.73,153.73,0,0,1,625,213.32c-.06.06-.14,0-.08-.09,1.26-1.12,7.86-8.09,13.64-13.29C638.6,199.88,638.69,200,638.63,200Z" style="fill:#263238"></path><path d="M627.92,216.37a9.48,9.48,0,0,0-1,.79c-2.72-3.2-2.19-2.45-4.94-5.63l-4-4.68c-1.4-1.62-2.72-3.34-4.2-4.89,0,0-.11,0-.07.06,1,1.61,2.27,3.11,3.46,4.62-.24-.22-.47-.45-.72-.66-.56-.47-1.11-.93-1.63-1.44-.08-.08-.21,0-.13.11.49.49,1,1,1.41,1.52s1,1,1.44,1.5,1,.9,1.49,1.34l.18.16c.76.94,1.51,1.89,2.28,2.81a51.88,51.88,0,0,0,5.38,5.62,10.15,10.15,0,0,0,1.19-1.14A.06.06,0,0,0,627.92,216.37Z" style="fill:#263238"></path><path d="M596.8,192.78c2.45-.32,6.71-5.74,8-9.91.08-.28-.86-2.92-1.84-6.18-.6-2-1.21-4.19-1.62-6.26L589,176.17a33.57,33.57,0,0,1,2.84,7.67,5.41,5.41,0,0,1,.08.87.71.71,0,0,0,0,.14C592,186.52,593,193.27,596.8,192.78Z" style="fill:#f7a9a0"></path><path d="M592,184.71a.74.74,0,0,1,0,.15,9.13,9.13,0,0,0,1.36-.2c7.46-1.67,7.48-11.28,7.34-13.9L589,176.17a33.57,33.57,0,0,1,2.84,7.67A5.52,5.52,0,0,1,592,184.71Z" style="fill:#263238"></path><path d="M602.45,156.54c1.55,4.64-.55,18.22-3.8,21.33-4.7,4.5-12.59,5.13-16.46-.57-3.75-5.52-.7-23.18,2.94-26C590.5,147.1,600.15,149.68,602.45,156.54Z" style="fill:#f7a9a0"></path><path d="M590.28,165s.07.06.06.1c-.21.9-.29,2,.47,2.43a0,0,0,0,1,0,.05C589.82,167.29,589.94,165.87,590.28,165Z" style="fill:#263238"></path><path d="M591.28,164.25c1.48.18,1,3.13-.35,3S590,164.11,591.28,164.25Z" style="fill:#263238"></path><path d="M585.17,164.08s-.08,0-.09.07c-.11.92-.39,2-1.27,2.13,0,0,0,.05,0,.06C584.85,166.35,585.21,165,585.17,164.08Z" style="fill:#263238"></path><path d="M584.5,163c-1.46-.34-2,2.6-.68,2.91S585.72,163.29,584.5,163Z" style="fill:#263238"></path><path d="M592.65,163.08c-.38-.16-.71-.38-1.08-.58a2,2,0,0,1-1-.8.63.63,0,0,1,.22-.74,1.59,1.59,0,0,1,1.59.08,2.3,2.3,0,0,1,1.15,1.19A.67.67,0,0,1,592.65,163.08Z" style="fill:#263238"></path><path d="M583.54,160.05c.42,0,.81-.08,1.22-.13a1.93,1.93,0,0,0,1.22-.36.63.63,0,0,0,.08-.77,1.56,1.56,0,0,0-1.49-.53,2.35,2.35,0,0,0-1.53.66A.68.68,0,0,0,583.54,160.05Z" style="fill:#263238"></path><path d="M589.81,173.73c-.25.18-.52.44-.85.42a2.47,2.47,0,0,1-1-.38,0,0,0,0,0,0,0,1.26,1.26,0,0,0,1.09.67,1,1,0,0,0,.84-.7C589.91,173.73,589.85,173.7,589.81,173.73Z" style="fill:#263238"></path><path d="M589.27,170.84a3.15,3.15,0,0,1-2.29,1.07,3.93,3.93,0,0,1-1.13-.13l-.21-.05-.2-.07a.22.22,0,0,1-.15-.23h0s0-.07,0-.1h0v-.08c.09-.71.32-1.77.32-1.77-.27.09-1.68.47-1.6.11a46.9,46.9,0,0,1,2.67-9.24c0-.1.18,0,.16,0-.51,2.93-1.54,5.75-2.1,8.68a5.84,5.84,0,0,1,1.54-.22c.1,0-.49,2-.5,2.36v0a4.42,4.42,0,0,0,3.38-.5C589.27,170.7,589.34,170.78,589.27,170.84Z" style="fill:#263238"></path><path d="M586.32,171.49a3.73,3.73,0,0,0,1.3,1.38,1.7,1.7,0,0,0,1,.22c.76-.08.89-.75.84-1.35a4.35,4.35,0,0,0-.19-.92A4.85,4.85,0,0,1,586.32,171.49Z" style="fill:#263238"></path><path d="M587.62,172.87a1.7,1.7,0,0,0,1,.22c.76-.08.89-.75.84-1.35A1.75,1.75,0,0,0,587.62,172.87Z" style="fill:#ff9bbc"></path><path d="M601.91,168.84s4.92-8.11,4.47-12.8c-.21-2.12-3.1-3.55-3.1-3.55a4.78,4.78,0,0,0-1.51-4.82c-2.5-2.36-8.57-1.84-8.57-1.84s-3.94-5.69-9.51-3.44-1.94,8.57-1.94,8.57-2,2.9,2.94,5.17,14.8,0,14.8,0a34.6,34.6,0,0,0,.14,10.29A3.16,3.16,0,0,0,601.91,168.84Z" style="fill:#263238"></path><path d="M592.23,145.91a9.74,9.74,0,0,1,3.92-.72,10.56,10.56,0,0,1,3.53.56,5.86,5.86,0,0,1,4.12,4.4,4.1,4.1,0,0,1-.78,3.08s-.08,0,0,0c1.29-1.59.61-4.07-.72-5.41a8.77,8.77,0,0,0-5.87-2.17,17.19,17.19,0,0,0-4.11.43A.06.06,0,0,1,592.23,145.91Z" style="fill:#263238"></path><path d="M579.71,145.08a4.76,4.76,0,0,1,3.3-3,8.14,8.14,0,0,1,5.27.19,10.21,10.21,0,0,1,4.31,3.2s0,.07-.05,0a9,9,0,0,0-8.61-3.2,4.39,4.39,0,0,0-3.44,6.56,9.13,9.13,0,0,0,3.57,3.59,0,0,0,1,1,0,.06,9.46,9.46,0,0,1-3.56-3A5.33,5.33,0,0,1,579.71,145.08Z" style="fill:#263238"></path><path d="M590.19,170.43a4,4,0,0,1-2.53-5.1h0a4,4,0,1,1,3.51,5.3A4.16,4.16,0,0,1,590.19,170.43Zm-2-4.93a3.48,3.48,0,1,0,4.41-2.19,3.21,3.21,0,0,0-.85-.17A3.47,3.47,0,0,0,588.17,165.5Z" style="fill:#455a64"></path><path d="M581.85,168.78c-1.62-.31-2.59-2.34-2.17-4.52a4.82,4.82,0,0,1,1.37-2.6,2.5,2.5,0,0,1,4.21.82,4.76,4.76,0,0,1,.3,2.92c-.4,2.06-1.91,3.53-3.45,3.42Zm-.43-6.73a4.26,4.26,0,0,0-1.21,2.31c-.37,1.89.41,3.63,1.74,3.89s2.71-1.06,3.08-2.95a4.23,4.23,0,0,0-.26-2.59,2.12,2.12,0,0,0-1.49-1.3l-.2,0A2.2,2.2,0,0,0,581.42,162.05Z" style="fill:#455a64"></path><path d="M587.7,165.81l.42-.34c-.5-.61-1.76-1.56-2.92-.72l.31.44C586.56,164.43,587.65,165.76,587.7,165.81Z" style="fill:#455a64"></path><path d="M605.1,170.25l.52-.15c-.07-.24-.73-2.37-1.87-2.79s-8.27-1.1-8.58-1.13l0,.54c2.07.2,7.62.79,8.45,1.1S604.93,169.67,605.1,170.25Z" style="fill:#455a64"></path><path d="M599.86,167.63s3-4.39,5-3.32-.27,7.44-2.59,8.32a2.37,2.37,0,0,1-3.18-1.25Z" style="fill:#f7a9a0"></path><path d="M604.18,166.12s.05,0,0,.06a6,6,0,0,0-3.07,3.77,1.3,1.3,0,0,1,2-.37s0,.1,0,.09a1.45,1.45,0,0,0-1.6.52,7,7,0,0,0-.76,1.3c-.08.15-.34.07-.28-.1v0C600.35,169.27,602,166.35,604.18,166.12Z" style="fill:#263238"></path><path d="M606,184.27a44.73,44.73,0,0,1-3.36,6.07,10,10,0,0,1-5,3.94c-2,.57-4.12.54-5.35-1.83A15.45,15.45,0,0,1,591,185.9a.08.08,0,1,0-.16,0c.16,3.36.62,8.53,3.8,9.11,3.56.64,6.5-1.69,8.4-4.43a32.59,32.59,0,0,0,3.09-6.29S606.06,184.23,606,184.27Z" style="fill:#263238"></path><rect x="566.31" y="264.16" width="63.94" height="2.86" style="fill:#c7c7c7"></rect><polygon points="566.31 264.16 566.31 267.02 609.77 267.02 607.58 264.16 566.31 264.16" style="fill:#a6a6a6"></polygon><polygon points="604.82 267.02 542.51 267.02 537.32 224.7 599.63 224.7 604.82 267.02" style="fill:#c7c7c7"></polygon><path d="M574.86,245.86a3.71,3.71,0,0,1-3.72,3.8,3.87,3.87,0,0,1-3.86-3.8,3.71,3.71,0,0,1,3.72-3.79A3.87,3.87,0,0,1,574.86,245.86Z" style="fill:#fff"></path></g></svg>