<svg xmlns="http://www.w3.org/2000/svg" viewBox="0 0 750 500"><g id="freepik--background-complete--inject-206"><path d="M234.74,314.25c0-.4,1.25-.73,2.79-.73l-.73.73h0V314a2.62,2.62,0,0,1,0-.27c0-.14,0-.31,0-.53a6.49,6.49,0,0,1,.16-.89c.13-.5.31-.81.51-.81s.38.31.52.81a8.64,8.64,0,0,1,.15.89c0,.21,0,.39,0,.53l0,.27v.27h0l-.73.73C236,315,234.74,314.65,234.74,314.25Z" style="fill:#e0e0e0"></path><path d="M223.55,314.25c0-.4,1.25-.73,2.8-.73s2.79.33,2.79.73-1.25.73-2.79.73S223.55,314.65,223.55,314.25Z" style="fill:#e0e0e0"></path><path d="M212.36,314.25c0-.4,1.26-.73,2.8-.73s2.8.33,2.8.73-1.25.73-2.8.73S212.36,314.65,212.36,314.25Z" style="fill:#e0e0e0"></path><path d="M201.18,314.25c0-.4,1.25-.73,2.79-.73s2.8.33,2.8.73-1.25.73-2.8.73S201.18,314.65,201.18,314.25Z" style="fill:#e0e0e0"></path><path d="M190,314.25c0-.4,1.25-.73,2.8-.73s2.8.33,2.8.73-1.26.73-2.8.73S190,314.65,190,314.25Z" style="fill:#e0e0e0"></path><path d="M178.81,314.25c0-.4,1.25-.73,2.79-.73s2.8.33,2.8.73-1.25.73-2.8.73S178.81,314.65,178.81,314.25Z" style="fill:#e0e0e0"></path><path d="M167.62,314.25c0-.4,1.25-.73,2.8-.73s2.79.33,2.79.73-1.25.73-2.79.73S167.62,314.65,167.62,314.25Z" style="fill:#e0e0e0"></path><path d="M156.44,314.25c0-.4,1.25-.73,2.79-.73s2.8.33,2.8.73-1.25.73-2.8.73S156.44,314.65,156.44,314.25Z" style="fill:#e0e0e0"></path><path d="M145.25,314.25c0-.4,1.25-.73,2.8-.73s2.79.33,2.79.73-1.25.73-2.79.73S145.25,314.65,145.25,314.25Z" style="fill:#e0e0e0"></path><path d="M134.06,314.25c0-.4,1.26-.73,2.8-.73s2.8.33,2.8.73-1.26.73-2.8.73S134.06,314.65,134.06,314.25Z" style="fill:#e0e0e0"></path><path d="M122.88,314.25c0-.4,1.25-.73,2.79-.73s2.8.33,2.8.73-1.25.73-2.8.73S122.88,314.65,122.88,314.25Z" style="fill:#e0e0e0"></path><path d="M111.69,314.25c0-.4,1.25-.73,2.8-.73s2.8.33,2.8.73-1.26.73-2.8.73S111.69,314.65,111.69,314.25Z" style="fill:#e0e0e0"></path><path d="M100.51,314.25c0-.4,1.25-.73,2.79-.73s2.8.33,2.8.73-1.25.73-2.8.73S100.51,314.65,100.51,314.25Z" style="fill:#e0e0e0"></path><path d="M89.32,314.25c0-.4,1.25-.73,2.8-.73s2.79.33,2.79.73-1.25.73-2.79.73S89.32,314.65,89.32,314.25Z" style="fill:#e0e0e0"></path><path d="M78.14,314.25c0-.4,1.25-.73,2.79-.73s2.8.33,2.8.73-1.25.73-2.8.73S78.14,314.65,78.14,314.25Z" style="fill:#e0e0e0"></path><path d="M69.75,311.46c.4,0,.73,1.25.73,2.79-1.46-1.45-.41-.4-.73-.73h.56l.53,0a6.07,6.07,0,0,1,.88.16c.51.13.82.31.82.51s-.31.38-.82.51a6.07,6.07,0,0,1-.88.16l-.53,0h-.56l-.73-.73C69,312.71,69.35,311.46,69.75,311.46Z" style="fill:#e0e0e0"></path><path d="M69.75,300.34c.4,0,.73,1.24.73,2.78s-.33,2.78-.73,2.78-.73-1.25-.73-2.78S69.35,300.34,69.75,300.34Z" style="fill:#e0e0e0"></path><path d="M69.75,289.22c.4,0,.73,1.25.73,2.78s-.33,2.78-.73,2.78S69,293.54,69,292,69.35,289.22,69.75,289.22Z" style="fill:#e0e0e0"></path><path d="M69.75,278.1c.4,0,.73,1.25.73,2.78s-.33,2.78-.73,2.78-.73-1.24-.73-2.78S69.35,278.1,69.75,278.1Z" style="fill:#e0e0e0"></path><path d="M69.75,267c.4,0,.73,1.24.73,2.78s-.33,2.78-.73,2.78S69,271.3,69,269.77,69.35,267,69.75,267Z" style="fill:#e0e0e0"></path><path d="M69.75,255.87c.4,0,.73,1.25.73,2.78s-.33,2.78-.73,2.78-.73-1.24-.73-2.78S69.35,255.87,69.75,255.87Z" style="fill:#e0e0e0"></path><path d="M69.75,244.75c.4,0,.73,1.25.73,2.78s-.33,2.78-.73,2.78-.73-1.24-.73-2.78S69.35,244.75,69.75,244.75Z" style="fill:#e0e0e0"></path><path d="M69.75,233.64c.4,0,.73,1.24.73,2.78s-.33,2.78-.73,2.78S69,238,69,236.42,69.35,233.64,69.75,233.64Z" style="fill:#e0e0e0"></path><path d="M69.75,222.52c.4,0,.73,1.25.73,2.78s-.33,2.78-.73,2.78S69,226.84,69,225.3,69.35,222.52,69.75,222.52Z" style="fill:#e0e0e0"></path><path d="M72.54,214.17c0,.4-1.25.73-2.79.73l.73-.73h0v.25c0,.09,0,.18,0,.28s0,.31,0,.53a6.07,6.07,0,0,1-.16.88c-.13.51-.31.82-.51.82s-.39-.31-.52-.82a6.16,6.16,0,0,1-.15-.88c0-.22,0-.39,0-.53v-.53h0l.73-.73C71.29,213.44,72.54,213.77,72.54,214.17Z" style="fill:#e0e0e0"></path><path d="M83.73,214.17c0,.4-1.25.73-2.8.73s-2.79-.33-2.79-.73,1.25-.73,2.79-.73S83.73,213.77,83.73,214.17Z" style="fill:#e0e0e0"></path><path d="M94.91,214.17c0,.4-1.25.73-2.79.73s-2.8-.33-2.8-.73,1.25-.73,2.8-.73S94.91,213.77,94.91,214.17Z" style="fill:#e0e0e0"></path><path d="M106.1,214.17c0,.4-1.25.73-2.8.73s-2.79-.33-2.79-.73,1.25-.73,2.79-.73S106.1,213.77,106.1,214.17Z" style="fill:#e0e0e0"></path><path d="M117.29,214.17c0,.4-1.26.73-2.8.73s-2.8-.33-2.8-.73,1.25-.73,2.8-.73S117.29,213.77,117.29,214.17Z" style="fill:#e0e0e0"></path><path d="M128.47,214.17c0,.4-1.25.73-2.8.73s-2.79-.33-2.79-.73,1.25-.73,2.79-.73S128.47,213.77,128.47,214.17Z" style="fill:#e0e0e0"></path><path d="M139.66,214.17c0,.4-1.26.73-2.8.73s-2.8-.33-2.8-.73,1.26-.73,2.8-.73S139.66,213.77,139.66,214.17Z" style="fill:#e0e0e0"></path><path d="M150.84,214.17c0,.4-1.25.73-2.79.73s-2.8-.33-2.8-.73,1.25-.73,2.8-.73S150.84,213.77,150.84,214.17Z" style="fill:#e0e0e0"></path><path d="M162,214.17c0,.4-1.25.73-2.8.73s-2.79-.33-2.79-.73,1.25-.73,2.79-.73S162,213.77,162,214.17Z" style="fill:#e0e0e0"></path><path d="M173.21,214.17c0,.4-1.25.73-2.79.73s-2.8-.33-2.8-.73,1.25-.73,2.8-.73S173.21,213.77,173.21,214.17Z" style="fill:#e0e0e0"></path><path d="M184.4,214.17c0,.4-1.25.73-2.8.73s-2.79-.33-2.79-.73,1.25-.73,2.79-.73S184.4,213.77,184.4,214.17Z" style="fill:#e0e0e0"></path><path d="M195.59,214.17c0,.4-1.26.73-2.8.73s-2.8-.33-2.8-.73,1.25-.73,2.8-.73S195.59,213.77,195.59,214.17Z" style="fill:#e0e0e0"></path><path d="M206.77,214.17c0,.4-1.25.73-2.8.73s-2.79-.33-2.79-.73,1.25-.73,2.79-.73S206.77,213.77,206.77,214.17Z" style="fill:#e0e0e0"></path><path d="M218,214.17c0,.4-1.25.73-2.8.73s-2.8-.33-2.8-.73,1.26-.73,2.8-.73S218,213.77,218,214.17Z" style="fill:#e0e0e0"></path><path d="M229.14,214.17c0,.4-1.25.73-2.79.73s-2.8-.33-2.8-.73,1.25-.73,2.8-.73S229.14,213.77,229.14,214.17Z" style="fill:#e0e0e0"></path><path d="M237.53,217c-.4,0-.73-1.25-.73-2.79,1.46,1.45.41.4.73.73H237l-.53,0a6.49,6.49,0,0,1-.89-.16c-.5-.13-.81-.31-.81-.51s.31-.39.81-.52a6.58,6.58,0,0,1,.89-.15l.53-.05h.56l.73.73C238.26,215.71,237.93,217,237.53,217Z" style="fill:#e0e0e0"></path><path d="M237.53,228.08c-.4,0-.73-1.24-.73-2.78s.33-2.78.73-2.78.73,1.25.73,2.78S237.93,228.08,237.53,228.08Z" style="fill:#e0e0e0"></path><path d="M237.53,239.2c-.4,0-.73-1.25-.73-2.78s.33-2.78.73-2.78.73,1.24.73,2.78S237.93,239.2,237.53,239.2Z" style="fill:#e0e0e0"></path><path d="M237.53,250.31c-.4,0-.73-1.24-.73-2.78s.33-2.78.73-2.78.73,1.25.73,2.78S237.93,250.31,237.53,250.31Z" style="fill:#e0e0e0"></path><path d="M237.53,261.43c-.4,0-.73-1.24-.73-2.78s.33-2.78.73-2.78.73,1.25.73,2.78S237.93,261.43,237.53,261.43Z" style="fill:#e0e0e0"></path><path d="M237.53,272.55c-.4,0-.73-1.25-.73-2.78s.33-2.78.73-2.78.73,1.24.73,2.78S237.93,272.55,237.53,272.55Z" style="fill:#e0e0e0"></path><path d="M237.53,283.66c-.4,0-.73-1.24-.73-2.78s.33-2.78.73-2.78.73,1.25.73,2.78S237.93,283.66,237.53,283.66Z" style="fill:#e0e0e0"></path><path d="M237.53,294.78c-.4,0-.73-1.24-.73-2.78s.33-2.78.73-2.78.73,1.25.73,2.78S237.93,294.78,237.53,294.78Z" style="fill:#e0e0e0"></path><path d="M237.53,305.9c-.4,0-.73-1.25-.73-2.78s.33-2.78.73-2.78.73,1.24.73,2.78S237.93,305.9,237.53,305.9Z" style="fill:#e0e0e0"></path><rect x="65.75" y="309.43" width="8" height="8" style="fill:#e0e0e0"></rect><rect x="65.75" y="210.17" width="8" height="8" style="fill:#e0e0e0"></rect><rect x="233.53" y="210.17" width="8" height="8" style="fill:#e0e0e0"></rect><rect x="233.53" y="309.07" width="8" height="8" style="fill:#e0e0e0"></rect><rect x="149.64" y="309.07" width="8" height="8" style="fill:#e0e0e0"></rect><rect x="149.64" y="210.17" width="8" height="8" style="fill:#e0e0e0"></rect><rect x="65.75" y="260.21" width="8" height="8" style="fill:#e0e0e0"></rect><rect x="233.53" y="260.21" width="8" height="8" style="fill:#e0e0e0"></rect><path d="M684,110.21c0-.3.94-.55,2.11-.55-1.1,1.1-.3.31-.55.55h0V110a1.34,1.34,0,0,0,0-.21c0-.11,0-.24,0-.4a5.09,5.09,0,0,1,.12-.67c.1-.38.24-.62.39-.62s.29.24.39.62a5.09,5.09,0,0,1,.12.67c0,.16,0,.29,0,.4v.4h0c-.25.25.55-.54-.55.55C685,110.76,684,110.52,684,110.21Z" style="fill:#e0e0e0"></path><path d="M675.56,110.21c0-.3,1-.55,2.11-.55s2.12.25,2.12.55-.95.55-2.12.55S675.56,110.52,675.56,110.21Z" style="fill:#e0e0e0"></path><path d="M667.11,110.21c0-.3.95-.55,2.11-.55s2.12.25,2.12.55-1,.55-2.12.55S667.11,110.52,667.11,110.21Z" style="fill:#e0e0e0"></path><path d="M658.66,110.21c0-.3,1-.55,2.12-.55s2.11.25,2.11.55-.95.55-2.11.55S658.66,110.52,658.66,110.21Z" style="fill:#e0e0e0"></path><path d="M650.22,110.21c0-.3.94-.55,2.11-.55s2.11.25,2.11.55-1,.55-2.11.55S650.22,110.52,650.22,110.21Z" style="fill:#e0e0e0"></path><path d="M641.77,110.21c0-.3.94-.55,2.11-.55s2.11.25,2.11.55-.94.55-2.11.55S641.77,110.52,641.77,110.21Z" style="fill:#e0e0e0"></path><path d="M633.32,110.21c0-.3.95-.55,2.11-.55s2.11.25,2.11.55-.94.55-2.11.55S633.32,110.52,633.32,110.21Z" style="fill:#e0e0e0"></path><path d="M624.87,110.21c0-.3,1-.55,2.11-.55s2.12.25,2.12.55-1,.55-2.12.55S624.87,110.52,624.87,110.21Z" style="fill:#e0e0e0"></path><path d="M616.42,110.21c0-.3,1-.55,2.11-.55s2.12.25,2.12.55-.95.55-2.12.55S616.42,110.52,616.42,110.21Z" style="fill:#e0e0e0"></path><path d="M608,110.21c0-.3.95-.55,2.12-.55s2.11.25,2.11.55-1,.55-2.11.55S608,110.52,608,110.21Z" style="fill:#e0e0e0"></path><path d="M599.53,110.21c0-.3.94-.55,2.11-.55s2.11.25,2.11.55-.94.55-2.11.55S599.53,110.52,599.53,110.21Z" style="fill:#e0e0e0"></path><path d="M591.08,110.21c0-.3.94-.55,2.11-.55s2.11.25,2.11.55-.94.55-2.11.55S591.08,110.52,591.08,110.21Z" style="fill:#e0e0e0"></path><path d="M582.63,110.21c0-.3,1-.55,2.11-.55s2.11.25,2.11.55-.94.55-2.11.55S582.63,110.52,582.63,110.21Z" style="fill:#e0e0e0"></path><path d="M574.18,110.21c0-.3,1-.55,2.11-.55s2.12.25,2.12.55-.95.55-2.12.55S574.18,110.52,574.18,110.21Z" style="fill:#e0e0e0"></path><path d="M565.73,110.21c0-.3.95-.55,2.12-.55s2.11.25,2.11.55-1,.55-2.11.55S565.73,110.52,565.73,110.21Z" style="fill:#e0e0e0"></path><path d="M559.4,108.1c.3,0,.55,1,.55,2.11-1.1-1.09-.31-.3-.55-.55h.42l.4,0a5.09,5.09,0,0,1,.67.12c.38.1.62.23.62.38s-.24.29-.62.39a5.09,5.09,0,0,1-.67.12l-.4,0h-.42c-.25-.24.55.55-.55-.55C558.85,109.05,559.09,108.1,559.4,108.1Z" style="fill:#e0e0e0"></path><path d="M559.4,99.71c.3,0,.55.94.55,2.1s-.25,2.1-.55,2.1-.55-.94-.55-2.1S559.09,99.71,559.4,99.71Z" style="fill:#e0e0e0"></path><path d="M559.4,91.31c.3,0,.55.94.55,2.1s-.25,2.1-.55,2.1-.55-.94-.55-2.1S559.09,91.31,559.4,91.31Z" style="fill:#e0e0e0"></path><path d="M559.4,82.91c.3,0,.55.94.55,2.1s-.25,2.1-.55,2.1-.55-.94-.55-2.1S559.09,82.91,559.4,82.91Z" style="fill:#e0e0e0"></path><path d="M559.4,74.52c.3,0,.55.94.55,2.1s-.25,2.1-.55,2.1-.55-.94-.55-2.1S559.09,74.52,559.4,74.52Z" style="fill:#e0e0e0"></path><path d="M559.4,66.12c.3,0,.55.94.55,2.1s-.25,2.1-.55,2.1-.55-.94-.55-2.1S559.09,66.12,559.4,66.12Z" style="fill:#e0e0e0"></path><path d="M559.4,57.73c.3,0,.55.94.55,2.1s-.25,2.09-.55,2.09-.55-.94-.55-2.09S559.09,57.73,559.4,57.73Z" style="fill:#e0e0e0"></path><path d="M559.4,49.33c.3,0,.55.94.55,2.1s-.25,2.1-.55,2.1-.55-.94-.55-2.1S559.09,49.33,559.4,49.33Z" style="fill:#e0e0e0"></path><path d="M559.4,40.93c.3,0,.55.94.55,2.1s-.25,2.1-.55,2.1-.55-.94-.55-2.1S559.09,40.93,559.4,40.93Z" style="fill:#e0e0e0"></path><path d="M561.51,34.62c0,.31-1,.55-2.11.55,1.1-1.09.3-.3.55-.54h0v.4c0,.11,0,.24,0,.4a3.9,3.9,0,0,1-.11.67c-.1.38-.24.62-.39.62s-.29-.24-.39-.62a5.09,5.09,0,0,1-.12-.67l0-.4v-.4h0c.24-.25-.55.54.55-.55C560.56,34.08,561.51,34.32,561.51,34.62Z" style="fill:#e0e0e0"></path><path d="M570,34.62c0,.31-1,.55-2.11.55s-2.12-.24-2.12-.55.95-.54,2.12-.54S570,34.32,570,34.62Z" style="fill:#e0e0e0"></path><path d="M578.41,34.62c0,.31-.95.55-2.12.55s-2.11-.24-2.11-.55,1-.54,2.11-.54S578.41,34.32,578.41,34.62Z" style="fill:#e0e0e0"></path><path d="M586.85,34.62c0,.31-.94.55-2.11.55s-2.11-.24-2.11-.55,1-.54,2.11-.54S586.85,34.32,586.85,34.62Z" style="fill:#e0e0e0"></path><path d="M595.3,34.62c0,.31-.94.55-2.11.55s-2.11-.24-2.11-.55.94-.54,2.11-.54S595.3,34.32,595.3,34.62Z" style="fill:#e0e0e0"></path><path d="M603.75,34.62c0,.31-1,.55-2.11.55s-2.11-.24-2.11-.55.94-.54,2.11-.54S603.75,34.32,603.75,34.62Z" style="fill:#e0e0e0"></path><path d="M612.2,34.62c0,.31-1,.55-2.11.55s-2.12-.24-2.12-.55.95-.54,2.12-.54S612.2,34.32,612.2,34.62Z" style="fill:#e0e0e0"></path><path d="M620.65,34.62c0,.31-.95.55-2.11.55s-2.12-.24-2.12-.55,1-.54,2.12-.54S620.65,34.32,620.65,34.62Z" style="fill:#e0e0e0"></path><path d="M629.1,34.62c0,.31-1,.55-2.12.55s-2.11-.24-2.11-.55,1-.54,2.11-.54S629.1,34.32,629.1,34.62Z" style="fill:#e0e0e0"></path><path d="M637.54,34.62c0,.31-.94.55-2.11.55s-2.11-.24-2.11-.55.95-.54,2.11-.54S637.54,34.32,637.54,34.62Z" style="fill:#e0e0e0"></path><path d="M646,34.62c0,.31-.94.55-2.11.55s-2.11-.24-2.11-.55.94-.54,2.11-.54S646,34.32,646,34.62Z" style="fill:#e0e0e0"></path><path d="M654.44,34.62c0,.31-1,.55-2.11.55s-2.11-.24-2.11-.55.94-.54,2.11-.54S654.44,34.32,654.44,34.62Z" style="fill:#e0e0e0"></path><path d="M662.89,34.62c0,.31-.95.55-2.11.55s-2.12-.24-2.12-.55,1-.54,2.12-.54S662.89,34.32,662.89,34.62Z" style="fill:#e0e0e0"></path><path d="M671.34,34.62c0,.31-1,.55-2.12.55s-2.11-.24-2.11-.55.95-.54,2.11-.54S671.34,34.32,671.34,34.62Z" style="fill:#e0e0e0"></path><path d="M679.79,34.62c0,.31-.95.55-2.12.55s-2.11-.24-2.11-.55,1-.54,2.11-.54S679.79,34.32,679.79,34.62Z" style="fill:#e0e0e0"></path><path d="M686.12,36.74c-.3,0-.55-1-.55-2.11l.55.54h-.42l-.4,0a5.09,5.09,0,0,1-.67-.12c-.38-.1-.62-.23-.62-.39s.24-.28.62-.38a5.09,5.09,0,0,1,.67-.12l.4,0h.42c.25.24-.55-.55.55.55C686.67,35.79,686.42,36.74,686.12,36.74Z" style="fill:#e0e0e0"></path><path d="M686.12,45.13c-.3,0-.55-.94-.55-2.1s.25-2.1.55-2.1.55.94.55,2.1S686.42,45.13,686.12,45.13Z" style="fill:#e0e0e0"></path><path d="M686.12,53.53c-.3,0-.55-.94-.55-2.1s.25-2.1.55-2.1.55.94.55,2.1S686.42,53.53,686.12,53.53Z" style="fill:#e0e0e0"></path><path d="M686.12,61.92c-.3,0-.55-.94-.55-2.09s.25-2.1.55-2.1.55.94.55,2.1S686.42,61.92,686.12,61.92Z" style="fill:#e0e0e0"></path><path d="M686.12,70.32c-.3,0-.55-.94-.55-2.1s.25-2.1.55-2.1.55.94.55,2.1S686.42,70.32,686.12,70.32Z" style="fill:#e0e0e0"></path><path d="M686.12,78.72c-.3,0-.55-.94-.55-2.1s.25-2.1.55-2.1.55.94.55,2.1S686.42,78.72,686.12,78.72Z" style="fill:#e0e0e0"></path><path d="M686.12,87.11c-.3,0-.55-.94-.55-2.1s.25-2.1.55-2.1.55.94.55,2.1S686.42,87.11,686.12,87.11Z" style="fill:#e0e0e0"></path><path d="M686.12,95.51c-.3,0-.55-.94-.55-2.1s.25-2.1.55-2.1.55.94.55,2.1S686.42,95.51,686.12,95.51Z" style="fill:#e0e0e0"></path><path d="M686.12,103.91c-.3,0-.55-.94-.55-2.1s.25-2.1.55-2.1.55.94.55,2.1S686.42,103.91,686.12,103.91Z" style="fill:#e0e0e0"></path><rect x="556.38" y="106.57" width="6.04" height="6.04" style="fill:#e0e0e0"></rect><rect x="556.38" y="31.6" width="6.04" height="6.04" style="fill:#e0e0e0"></rect><rect x="683.1" y="31.6" width="6.04" height="6.04" style="fill:#e0e0e0"></rect><rect x="683.1" y="106.3" width="6.04" height="6.04" style="fill:#e0e0e0"></rect><rect x="619.74" y="106.3" width="6.04" height="6.04" style="fill:#e0e0e0"></rect><rect x="619.74" y="31.6" width="6.04" height="6.04" style="fill:#e0e0e0"></rect><rect x="556.38" y="69.4" width="6.04" height="6.04" style="fill:#e0e0e0"></rect><rect x="683.1" y="69.4" width="6.04" height="6.04" style="fill:#e0e0e0"></rect><polygon points="46.2 54.17 133.08 54.17 133.08 180.13 46.8 180.13 46.2 54.17" style="fill:#e0e0e0"></polygon><rect x="39.69" y="54.76" width="86.08" height="124.77" transform="translate(165.46 234.3) rotate(180)" style="fill:#fff"></rect><path d="M126.36,54.17v126H39.1v-126Zm-1.18,124.77V55.36H40.28V178.94Z" style="fill:#e0e0e0"></path><rect x="50.38" y="68.28" width="64.69" height="97.74" style="fill:#fff"></rect><path d="M50.38,68.28s0,.17,0,.48,0,.79,0,1.39c0,1.24,0,3,0,5.37,0,4.69,0,11.52.08,20.14,0,17.24.08,41.64.14,70.36l-.29-.28,64.69,0h0l-.3.31c0-36.87,0-70.86.06-97.74l.24.24L68,68.39l-13-.06-3.42,0c-.78,0-1.19,0-1.19,0l1.14,0,3.37,0,13-.06L115.07,68h.25v.25c0,26.88,0,60.87.06,97.74v.31h-.31l-64.69,0H50.1V166c.06-28.8.11-53.26.14-70.55,0-8.59.06-15.39.08-20.07,0-2.31,0-4.09,0-5.32,0-.58,0-1,0-1.35S50.38,68.28,50.38,68.28Z" style="fill:#e0e0e0"></path><path d="M39.45,179.53a10.16,10.16,0,0,1,1.39-2.14c.92-1.28,2.22-3,3.73-4.89s2.92-3.53,4-4.69A10.9,10.9,0,0,1,50.38,166c.13.12-2.34,3.12-5.33,6.86S39.59,179.64,39.45,179.53Z" style="fill:#e0e0e0"></path><path d="M39.69,54.76a63.09,63.09,0,0,1,5.59,6.57c2.95,3.73,5.24,6.84,5.1,7a63.09,63.09,0,0,1-5.59-6.57C41.84,58,39.55,54.87,39.69,54.76Z" style="fill:#e0e0e0"></path><path d="M125.78,54.86,114.51,68.77" style="fill:#fff"></path><path d="M114.51,68.77c-.14-.1,2.28-3.3,5.39-7.14a66.87,66.87,0,0,1,5.88-6.77c.13.11-2.28,3.31-5.4,7.15S114.64,68.88,114.51,68.77Z" style="fill:#e0e0e0"></path><path d="M125.77,179.53c-.13.11-2.61-2.8-5.53-6.49s-5.18-6.77-5-6.88,2.61,2.8,5.53,6.5A60.75,60.75,0,0,1,125.77,179.53Z" style="fill:#e0e0e0"></path><path d="M86.9,118.58H75.52l-1.36,3.13a7.05,7.05,0,0,0-.66,2.59,2.15,2.15,0,0,0,1.09,2,9.38,9.38,0,0,0,3.16.57v.88H67v-.88a4.71,4.71,0,0,0,2.85-1.44,18.68,18.68,0,0,0,2.76-4.86L84.17,94.86h.45l11.62,26.43A16,16,0,0,0,99,126a3.69,3.69,0,0,0,2.28.86v.88H85.66v-.88h.65a4.83,4.83,0,0,0,2.63-.52,1.29,1.29,0,0,0,.53-1.1,2.85,2.85,0,0,0-.15-.88c0-.14-.27-.73-.71-1.78Zm-.81-1.76-4.8-11.1-4.94,11.1Z" style="fill:#e0e0e0"></path><polygon points="622.86 393.2 622.86 418.39 659.71 418.39 700.34 418.39 700.34 393.2 622.86 393.2" style="fill:#f5f5f5"></polygon><polygon points="619.61 386.16 619.61 393.2 703.05 393.2 703.05 386.16 659.71 386.16 619.61 386.16" style="fill:#e0e0e0"></polygon><polygon points="661.33 418.39 700.34 418.39 700.34 393.2 703.05 393.2 703.05 386.16 659.71 386.16 659.71 392.55 661.33 418.39" style="fill:#e0e0e0"></polygon><rect x="633.7" y="397.26" width="15.71" height="3.79" style="fill:#e0e0e0"></rect><rect x="631.68" y="405.8" width="20.18" height="8.01" style="fill:#fff"></rect><path d="M712,472.55l-1.63-345.06h-6.68v68H686.41l-.32-68h-6.68v68H620.05l-.32-68h-6.68v68H595.84l-.32-68h-6.68V472.55h8.31l-.22-46.31h16.12v46.31h8.3l-.21-46.31h58.27v46.31h8.31l-.22-46.31h16.17v46.31Zm-107.43-92-6-25.58h12.26Zm8.5-24v60.41l-7.24-31Zm0-87.82-7.24-31,7.24-29.43Zm-1.3,5.55H596.84l7.65-31.13Zm-7.2-42L597.71,203h14Zm-1.33,5.41-7.05,28.68-.28-60.1ZM596.6,357.57l6.62,28.36-6.36,25.88Zm7.88,33.78,6.39,27.35H597.76Zm-7.66-44-.05-.23-.21.05-.31-65.44h16.8V347.4Zm23.63-65.62h59V347.4H620.76Zm74.2-38.67,7.26,31.13H687Zm-7.91,21.59-.27-56.6,6.91,29.58Zm16.93,6-7.7-33,7.7-31.33Zm0,3.44v.11h-.46Zm0,84.17V415l-6.79-29.1Zm-8,22.22-6-25.58H701.9Zm-.91-148.24L687.87,203h14Zm9,49.5V347.4H687.89l-.06-.23-.7.16-.31-65.55Zm-9.38,104.15-6.84,27.84-.28-58.35Zm1.26,5.42,6.39,27.35H688.83ZM679.41,203v71.25h-59L620.08,203ZM622.17,418.7H621.1l-.3-63.76h58.61V418.7Z" style="fill:#e0e0e0"></path><rect x="663.2" y="223.1" width="11.04" height="51.43" style="fill:#e0e0e0"></rect><path d="M671.13,262.19a2.19,2.19,0,1,1-2.19-2.18A2.19,2.19,0,0,1,671.13,262.19Z" style="fill:#fafafa"></path><rect x="667.16" y="236.73" width="3.38" height="21.02" style="fill:#fafafa"></rect><rect x="651.99" y="223.1" width="11.04" height="51.43" style="fill:#ebebeb"></rect><path d="M659.92,262.19a2.19,2.19,0,1,1-2.19-2.18A2.19,2.19,0,0,1,659.92,262.19Z" style="fill:#fafafa"></path><rect x="655.95" y="236.73" width="3.38" height="21.02" style="fill:#fafafa"></rect><rect x="641.32" y="223.1" width="11.04" height="51.43" style="fill:#f5f5f5"></rect><path d="M649.24,262.19a2.19,2.19,0,1,1-2.18-2.18A2.18,2.18,0,0,1,649.24,262.19Z" style="fill:#e0e0e0"></path><rect x="645.28" y="236.73" width="3.38" height="21.02" style="fill:#e0e0e0"></rect><polygon points="627.67 273.75 640.93 228.5 636.36 226.5 622.76 272.11 627.67 273.75" style="fill:#f5f5f5"></polygon><polygon points="608.02 347.4 608.02 339.62 663.03 339.62 663.2 347.4 608.02 347.4" style="fill:#f5f5f5"></polygon><path d="M663.06,340.89s-48.79.36-51.95,1.1c-.68.16-1.37,3.15,0,3.43s51.95.68,51.95.68Z" style="fill:#fff"></path><polygon points="614.41 339.31 614.41 331.52 657.99 331.52 658.13 339.31 614.41 339.31" style="fill:#ebebeb"></polygon><path d="M658,332.79s-38.64.36-41.15,1.1c-.54.17-1.08,3.16,0,3.43S658,338,658,338Z" style="fill:#fafafa"></path><polygon points="614.22 331.61 614.22 323.83 657.79 323.83 657.93 331.61 614.22 331.61" style="fill:#e0e0e0"></polygon><path d="M657.81,325.1s-38.64.36-41.14,1.1c-.54.16-1.09,3.16,0,3.43s41.14.69,41.14.69Z" style="fill:#fafafa"></path><rect x="668.16" y="145.01" width="11.04" height="51.43" style="fill:#f5f5f5"></rect><path d="M676.08,184.1a2.19,2.19,0,1,1-2.18-2.18A2.19,2.19,0,0,1,676.08,184.1Z" style="fill:#e0e0e0"></path><rect x="672.11" y="158.63" width="3.38" height="21.02" style="fill:#e0e0e0"></rect><rect x="656.95" y="145.01" width="11.03" height="51.43" style="fill:#ebebeb"></rect><path d="M664.87,184.1a2.19,2.19,0,1,1-2.18-2.18A2.19,2.19,0,0,1,664.87,184.1Z" style="fill:#fafafa"></path><rect x="660.9" y="158.63" width="3.37" height="21.02" style="fill:#fafafa"></rect><rect x="646.27" y="145.01" width="11.04" height="51.43" style="fill:#e0e0e0"></rect><path d="M654.2,184.1a2.19,2.19,0,1,1-2.19-2.18A2.19,2.19,0,0,1,654.2,184.1Z" style="fill:#fafafa"></path><rect x="650.23" y="158.63" width="3.38" height="21.02" style="fill:#fafafa"></rect><path d="M103.16,464.09c-1.32-1.14-4.29-4.75-2-8.94.84-1.54,2.61-2.3,4.22-3a17.32,17.32,0,0,0,4.64-2.4c2.51-2.14,3.2-5.69,4.87-8.54,1.92-3.27,5.49-5.73,9.26-5.55,4.33.19,7.93,3.72,9.57,7.75s1.69,8.5,1.72,12.84c0,2.41-.09,5.12-1.85,6.74s-4.08,1.52-6.28,1.45l-23.63-.73" style="fill:#f5f5f5"></path><path d="M148.35,399.12H86.22l11.19,66.74a7.46,7.46,0,0,0,5.31,5.94l.21.06a5.73,5.73,0,0,0,.56.14,7.48,7.48,0,0,0,1.26.15v.06l.3,0h27.7a7.61,7.61,0,0,0,1.52-.15,7.46,7.46,0,0,0,6.28-6.52l5.4-46,.24-1.83h0l2.14-18.21Zm-11.72,42.57h-6.38l.65-19.37h7.39Zm2.27-19.37H145l-2.27,19.37h-5.49Zm-18.21,40.84-.39-16.82h9.18l-.56,16.82Zm-9.93-16.82h8.92l.39,16.82h-8Zm.69,16.82H104c-.71-4.54-1.64-10.44-2.64-16.82h8.81Zm-1-21.47-1.51-19.37h10.24l.45,19.37Zm9.79,0-.44-19.37h10.53l-.64,19.37Zm-.55-24-.41-17.94H131l-.6,17.94Zm-.62,0H108.53l-1.39-17.94h11.47Zm-11.1,0H96.82c-.4-2.48-.77-4.82-1.1-6.93-1.16-7.26-1.6-10-1.84-11h12.64Zm.36,4.64,1.5,19.37H100.6c-.31-2-.62-3.95-.93-5.94-.72-4.57-1.44-9.14-2.12-13.43ZM100,441.69H94l-3.24-19.37h6.19C97.87,428.31,98.92,435,100,441.69Zm.73,4.65c.91,5.82,1.81,11.56,2.64,16.82H97.58l-2.82-16.82Zm28.83,16.82.56-16.82h6.13l-1.43,16.82Zm1.51-45.48.6-17.94h8.56l-1.53,17.94ZM93.29,399.74c.25,1.3,1.38,8.36,2.9,17.94H90l-3-17.94Zm46.93,63.42h-4.81l1.44-16.82h5.34Zm5.33-45.48H139.3l1.53-17.94h6.83Z" style="fill:#e0e0e0"></path></g><g id="freepik--Screen--inject-206"><polygon points="598.82 43.73 152.88 43.73 152.88 304.09 394.79 304.09 410.93 318.88 424.88 304.09 598.82 304.09 598.82 43.73" style="fill:#fafafa"></polygon><rect x="152.88" y="43.73" width="445.95" height="19.24" style="fill:#e0e0e0"></rect><circle cx="163.94" cy="53.69" r="2.5" style="fill:#263238"></circle><circle cx="173.24" cy="53.69" r="2.5" style="fill:#263238"></circle><circle cx="182.54" cy="53.69" r="2.5" style="fill:#263238"></circle><path d="M376.47,85.16c0,.14-8.8.26-19.66.26s-19.66-.12-19.66-.26,8.8-.26,19.66-.26S376.47,85,376.47,85.16Z" style="fill:#263238"></path><path d="M428.76,85.16c0,.14-8.8.26-19.65.26s-19.66-.12-19.66-.26,8.8-.26,19.66-.26S428.76,85,428.76,85.16Z" style="fill:#263238"></path><path d="M481.06,85.16c0,.14-8.8.26-19.66.26s-19.66-.12-19.66-.26,8.8-.26,19.66-.26S481.06,85,481.06,85.16Z" style="fill:#263238"></path><path d="M533.81,85.16c0,.14-8.8.26-19.65.26s-19.66-.12-19.66-.26,8.8-.26,19.66-.26S533.81,85,533.81,85.16Z" style="fill:#263238"></path><path d="M222.6,105.72v13.36a2.35,2.35,0,0,0,2.36,2.36h15.12l3.78,4.81,4.14-4.63h15.73a2.36,2.36,0,0,0,2.36-2.36V105.65a2.36,2.36,0,0,0-2.36-2.36l-38.78.07A2.36,2.36,0,0,0,222.6,105.72Z" style="fill:#FF725E"></path><path d="M231.69,116.34h-2.26v-2.13l5.22-5.71.1,0a1.71,1.71,0,0,1,1.69.24,2.14,2.14,0,0,1,.46,1.84l0,.1Zm-1.51-.75h1.18l4.82-5.27a1.38,1.38,0,0,0-.24-1,1,1,0,0,0-.89-.1l-4.87,5.33Z" style="fill:#fff"></path><path d="M246.46,114.9v.74h-4.31V109.7h4.2v.74H243v1.83h3V113h-3v1.91Z" style="fill:#fff"></path><path d="M251.91,109.35v6.29h-.78v-.71a1.92,1.92,0,0,1-1.61.76,2.3,2.3,0,0,1,0-4.59,1.89,1.89,0,0,1,1.57.73v-2.48Zm-.81,4a1.52,1.52,0,1,0-3,0,1.52,1.52,0,1,0,3,0Z" style="fill:#fff"></path><path d="M253.31,109.76a.54.54,0,0,1,.55-.54.52.52,0,0,1,.55.52.55.55,0,0,1-1.1,0Zm.14,1.39h.82v4.49h-.82Z" style="fill:#fff"></path><path d="M258.35,115.38a1.53,1.53,0,0,1-1,.31,1.28,1.28,0,0,1-1.43-1.4v-2.47h-.76v-.67h.76v-1h.82v1h1.29v.67h-1.29v2.43c0,.49.25.76.7.76a1,1,0,0,0,.64-.22Z" style="fill:#fff"></path><path d="M333.93,273.81H186.47V125.92H333.93Zm-146.46-1H332.93V126.92H187.47Z" style="fill:#FF725E"></path><path d="M261.82,276.15h-5.09v-5h5.09Zm-4.09-1h3.09v-3h-3.09Z" style="fill:#FF725E"></path><path d="M336,194.83h-5.09v-5H336Zm-4.09-1H335v-3h-3.09Z" style="fill:#FF725E"></path><path d="M189,194.83H183.9v-5H189Zm-4.09-1H188v-3H184.9Z" style="fill:#FF725E"></path><path d="M558.07,202.55H362.35V155.3H558.07Zm-194.72-1H557.07V156.3H363.35Z" style="fill:#FF725E"></path><path d="M559.48,221.78c0,.14-42.7.26-95.37.26s-95.38-.12-95.38-.26,42.69-.26,95.38-.26S559.48,221.64,559.48,221.78Z" style="fill:#263238"></path><path d="M558.46,250.8c0,.15-42.71.27-95.38.27s-95.38-.12-95.38-.27,42.7-.26,95.38-.26S558.46,250.66,558.46,250.8Z" style="fill:#e0e0e0"></path><path d="M558.46,258.48c0,.14-42.71.26-95.38.26s-95.38-.12-95.38-.26,42.7-.26,95.38-.26S558.46,258.33,558.46,258.48Z" style="fill:#e0e0e0"></path><path d="M465.33,231.85c0,.15-21.63.26-48.3.26s-48.3-.11-48.3-.26,21.62-.26,48.3-.26S465.33,231.71,465.33,231.85Z" style="fill:#263238"></path><path d="M577,283.26h-5v-1h5Zm-10,0h-5v-1h5Zm-10,0h-5v-1h5Zm-10,0h-5v-1h5Zm30.5-1.1h-1v-5h1Zm-38.9-.5h-1v-5h1Zm38.9-9.5h-1v-5h1Zm-38.9-.5h-1v-5h1Zm38.9-9.5h-1v-5h1Zm-38.9-.5h-1v-5h1Zm38.9-9.5h-1v-5h1Zm-38.9-.5h-1v-5h1Zm36.7-7.3h-5v-1h5Zm-10,0h-5v-1h5Zm-10,0h-5v-1h5Zm-10,0h-5v-1h5Z" style="fill:#263238"></path><path d="M538.39,248a3.68,3.68,0,1,1,3.68-3.68A3.68,3.68,0,0,1,538.39,248Zm0-6.35a2.68,2.68,0,1,0,2.68,2.67A2.68,2.68,0,0,0,538.39,241.68Z" style="fill:#263238"></path><path d="M576.75,248a3.68,3.68,0,1,1,3.68-3.68A3.68,3.68,0,0,1,576.75,248Zm0-6.35a2.68,2.68,0,1,0,2.68,2.67A2.68,2.68,0,0,0,576.75,241.68Z" style="fill:#263238"></path><path d="M538.39,287.48a3.68,3.68,0,1,1,3.68-3.67A3.68,3.68,0,0,1,538.39,287.48Zm0-6.35a2.68,2.68,0,1,0,2.68,2.68A2.68,2.68,0,0,0,538.39,281.13Z" style="fill:#263238"></path><path d="M576.75,287.48a3.68,3.68,0,1,1,3.68-3.67A3.68,3.68,0,0,1,576.75,287.48Zm0-6.35a2.68,2.68,0,1,0,2.68,2.68A2.68,2.68,0,0,0,576.75,281.13Z" style="fill:#263238"></path><path d="M556.7,256.2h-7.2v-3.41h18.43v3.41h-7.2v18.31h-4Z" style="fill:#263238"></path><path d="M579.64,91.41s.34,0,.94-.16a4.35,4.35,0,0,0,2.26-1.38,4.15,4.15,0,0,0,.9-1.69,8.57,8.57,0,0,0,.14-2.32c-.11-1.64.39-3.79-1.1-5.35a4.21,4.21,0,0,0-2.8-1.38c-1.13,0-2.36,0-3.61,0l-8,0-18.34,0a4.15,4.15,0,0,0-3.67,2.25,4.34,4.34,0,0,0-.46,2.16v2.33a8.77,8.77,0,0,0,.14,2.2,4.36,4.36,0,0,0,1,1.81A4.41,4.41,0,0,0,548.82,91a6.91,6.91,0,0,0,2,.18l15,.06,10.1.08,2.75,0,.71,0,.24,0a.75.75,0,0,1-.24,0l-.71,0-2.75.05-10.1.09-15,.05a6.89,6.89,0,0,1-2.19-.2,4.59,4.59,0,0,1-3.12-3.21,4.82,4.82,0,0,1-.17-1.19V83.58A4.68,4.68,0,0,1,550,78.65l18.34,0,8,0c1.26,0,2.45,0,3.64,0a4.56,4.56,0,0,1,3,1.53,4.48,4.48,0,0,1,1.13,2.89c0,1,0,1.86,0,2.71a8.34,8.34,0,0,1-.19,2.38,4.47,4.47,0,0,1-3.38,3.12A3,3,0,0,1,579.64,91.41Z" style="fill:#263238"></path><rect x="268.32" y="103.29" width="27.03" height="18.27" rx="3.51" style="fill:#FF725E"></rect><path d="M280.48,116.13h-6v-7.36h6Zm-5-1h4v-5.36h-4Z" style="fill:#fff"></path><rect x="276.49" y="107.9" width="1.96" height="1.28" style="fill:#fff"></rect><rect x="273.55" y="108.72" width="7.84" height="1" style="fill:#fff"></rect><path d="M291.13,109.45a1,1,0,1,1-1-1A1,1,0,0,1,291.13,109.45Z" style="fill:#fff"></path><path d="M291.13,112.11a1,1,0,1,1-1-1A1,1,0,0,1,291.13,112.11Z" style="fill:#fff"></path><path d="M291.13,114.77a1,1,0,1,1-1-1A1,1,0,0,1,291.13,114.77Z" style="fill:#fff"></path><g style="opacity:0.30000000000000004"><path d="M284.92,103.29h6.92a3.51,3.51,0,0,1,3.51,3.51v11.25a3.51,3.51,0,0,1-3.51,3.51h-6.92a0,0,0,0,1,0,0V103.29A0,0,0,0,1,284.92,103.29Z" style="fill:#fff"></path></g><rect x="196.51" y="136.09" width="127.39" height="123.24" style="fill:#455a64"></rect><g style="opacity:0.30000000000000004"><polygon points="206.39 248.79 241.63 185.37 270.45 225.9 287.96 204.38 314.02 248.79 206.39 248.79"></polygon></g><g style="opacity:0.30000000000000004"><path d="M282.73,173a9.17,9.17,0,1,1-9.17-9.16A9.17,9.17,0,0,1,282.73,173Z"></path></g><g style="opacity:0.30000000000000004"><path d="M314,145.78l-107.62-.09c.12-.13-1.16,1.16-.62.63v13.94q0,6.93,0,13.72c0,9.06,0,17.93,0,26.56,0,17.26,0,33.58.06,48.59v.53h.53l78.16-.27,21.83-.14,5.72-.06,1.45,0a2.56,2.56,0,0,0,.47,0l-.53,0-1.51,0-5.82-.06-22-.14-77.29-.27c0-14.86,0-31,.05-48.06,0-8.63,0-17.5,0-26.56V146.9l106.51-.08c.11,30.55.2,56,.27,73.89.05,9,.1,16,.13,20.93q0,3.59.06,5.55c0,.6,0,1.07,0,1.44a3.54,3.54,0,0,0,0,.5,2.29,2.29,0,0,0,0-.45c0-.35,0-.8,0-1.38,0-1.28,0-3.1.06-5.44,0-4.86.08-11.89.13-20.82.07-18.08.16-43.83.27-74.74v-.52Z"></path></g><rect x="378.3" y="130.42" width="147.78" height="18.22" rx="4.08" style="fill:#FF725E"></rect><g style="opacity:0.30000000000000004"><rect x="382.92" y="133.84" width="48.26" height="10.72" style="fill:#fff"></rect></g><path d="M387.88,137.82h-1.74v-.63h4.19v.63H388.6v4.44h-.72Z" style="fill:#fff"></path><path d="M390.8,137.24a.47.47,0,0,1,.94,0,.47.47,0,0,1-.94,0Zm.12,1.18h.7v3.84h-.7Z" style="fill:#fff"></path><path d="M395.1,142a1.32,1.32,0,0,1-.84.27,1.1,1.1,0,0,1-1.22-1.2V139h-.65v-.57H393v-.84h.7v.84h1.1V139h-1.1v2.08a.56.56,0,0,0,.6.64.86.86,0,0,0,.54-.18Z" style="fill:#fff"></path><path d="M395.94,136.89h.69v5.37h-.69Z" style="fill:#fff"></path><path d="M401.4,140.57h-3.11a1.3,1.3,0,0,0,1.39,1.12,1.43,1.43,0,0,0,1.11-.46l.38.45a2.09,2.09,0,0,1-3.57-1.34,1.87,1.87,0,0,1,1.92-2,1.85,1.85,0,0,1,1.9,2A1.65,1.65,0,0,1,401.4,140.57Zm-3.11-.5h2.46a1.24,1.24,0,0,0-2.46,0Z" style="fill:#fff"></path><polygon points="423.5 138.75 428.09 138.75 425.8 141.04 423.5 138.75" style="fill:#fff"></polygon><path d="M445,140.73c0,.92-.76,1.46-2.19,1.46h-2.88v-5.33h2.72c1.41,0,2.09.58,2.09,1.4a1.27,1.27,0,0,1-.71,1.16A1.34,1.34,0,0,1,445,140.73ZM441.43,138v1h1c.5,0,.76-.17.76-.52s-.26-.51-.76-.51Zm2.06,2.62c0-.37-.28-.55-.79-.55h-1.27v1.09h1.27C443.21,141.11,443.49,140.93,443.49,140.57Z" style="fill:#fff"></path><path d="M453.28,136.78h.39l-1.07,5.33h-.39Z" style="fill:#fff"></path><rect x="461.22" y="133.67" width="1" height="11.54" style="fill:#fff"></rect><rect x="484.35" y="133.44" width="1" height="11.54" style="fill:#fff"></rect><rect x="505.87" y="133.67" width="1" height="11.54" style="fill:#fff"></rect><rect x="467.65" y="136.53" width="6.31" height="1" style="fill:#fff"></rect><rect x="467.65" y="140.17" width="6.31" height="1" style="fill:#fff"></rect><rect x="467.65" y="138.42" width="3.16" height="1" style="fill:#fff"></rect><polygon points="477.83 138.78 481.16 138.78 479.5 140.28 477.83 138.78" style="fill:#fff"></polygon><polygon points="494.2 141.6 488.43 141.6 488.43 136.86 491.42 136.86 491.42 137.86 489.43 137.86 489.43 140.6 493.2 140.6 493.2 139.6 494.2 139.6 494.2 141.6" style="fill:#fff"></polygon><polygon points="497.53 141.6 495.07 141.6 495.07 140.6 496.53 140.6 496.53 137.86 492.76 137.86 492.76 139.13 491.76 139.13 491.76 136.86 497.53 136.86 497.53 141.6" style="fill:#fff"></polygon><polygon points="499.87 138.85 502.95 138.85 501.41 140.28 499.87 138.85" style="fill:#fff"></polygon><path d="M517.63,142.93H512.3v-6.48h5.33Zm-4.33-1h3.33v-4.48H513.3Z" style="fill:#fff"></path><rect x="514.12" y="135.78" width="1.69" height="1.1" style="fill:#fff"></rect><rect x="511.59" y="136.42" width="6.75" height="1" style="fill:#fff"></rect><polygon points="454.52 147.61 460.44 154.12 466.17 147.48 454.52 147.61" style="fill:#FF725E"></polygon><rect x="469.23" y="163.2" width="83.17" height="34.51" style="fill:#e0e0e0"></rect><path d="M385.07,183.07v7.23h-3V183l-8.3-13.62H377l6.69,11,6.73-11h3Z" style="fill:#263238"></path><path d="M393.8,179.85c0-6.13,4.72-10.7,11.14-10.7S416,173.69,416,179.85s-4.73,10.69-11.09,10.69S393.8,186,393.8,179.85Zm19.24,0a8.13,8.13,0,1,0-8.1,8A7.85,7.85,0,0,0,413,179.85Z" style="fill:#263238"></path><path d="M420.42,181.28V169.39h3v11.77c0,4.63,2.12,6.72,5.88,6.72s5.92-2.09,5.92-6.72V169.39h2.9v11.89c0,6.06-3.32,9.26-8.84,9.26S420.42,187.34,420.42,181.28Z" style="fill:#263238"></path><path d="M458.22,190.3l-4.51-6.42c-.42,0-.87.06-1.32.06h-5.17v6.36h-3V169.39h8.15c5.44,0,8.73,2.75,8.73,7.29a6.6,6.6,0,0,1-4.6,6.6l5,7Zm-.09-13.62c0-3-2-4.69-5.83-4.69h-5.08v9.41h5.08C456.13,181.4,458.13,179.67,458.13,176.68Z" style="fill:#263238"></path><path d="M479.44,173.33h-6.7l.81-3.94h18.23l-.81,3.94h-6.66l-3.41,17h-4.84Z" style="fill:#263238"></path><path d="M498.41,173.27l-.89,4.54h9.71l-.75,3.77h-9.74l-1,4.84H507.2l-.81,3.88H490.2l4.18-20.91h15.8l-.8,3.88Z" style="fill:#263238"></path><path d="M523,179.76l5.74,10.54h-5.23l-3.7-7.11-6.34,7.11h-5.79l10-10.84-5.41-10.07h5.17l3.49,6.72,6.1-6.72h5.49Z" style="fill:#263238"></path><path d="M538.19,173.33h-6.7l.81-3.94h18.23l-.81,3.94h-6.66l-3.41,17h-4.84Z" style="fill:#263238"></path><circle cx="188.49" cy="85.16" r="8.49" style="fill:#e0e0e0"></circle><path d="M598.82,43.73c0,1.62.08,101,.2,260.36v.2h-.2l-173.94,0,.18-.08-13.95,14.8-.17.17-.17-.16-16.14-14.79.16.06-235.81,0h-6.36v-.26c0-92.18,0-180.15,0-260.36v-.24h.24l445.94.24L152.88,44l.24-.24c0,80.21,0,168.18,0,260.36l-.26-.26h242l.07.07,16.13,14.79-.34,0,14-14.8.07-.07h.1l173.94,0-.2.2C598.74,144.7,598.82,45.35,598.82,43.73Z" style="fill:#263238"></path></g><g id="freepik--Plant--inject-206"><path d="M165.7,387.43a30.39,30.39,0,0,0-13-4.46c-2.12-.22-4.44-.16-6.14,1.12a1.28,1.28,0,0,0-.63,1.13,1.39,1.39,0,0,0,.6.76,18.55,18.55,0,0,0,19.15,1.45" style="fill:#FF725E"></path><path d="M165.37,387.07a64.14,64.14,0,0,1-8.39-7.38,21.24,21.24,0,0,1-5.25-9.72,3.9,3.9,0,0,1,.41-3.25c6.69,5.22,11.94,12,13.23,20.35" style="fill:#FF725E"></path><path d="M165.63,387.38a30.34,30.34,0,0,1,.16-11,14.87,14.87,0,0,1,5.86-9.09c1.16,2.7.66,5.81-.15,8.63a41.88,41.88,0,0,1-5.82,12.24" style="fill:#FF725E"></path><path d="M172.18,399.12a19.18,19.18,0,0,0-10.41,5.27,19.65,19.65,0,0,0-6,10.22c3.9-.24,7.21-3,9.61-6.07s4.06-6.47,6.7-9.36" style="fill:#FF725E"></path><path d="M173.61,401a25.66,25.66,0,0,1,3-24.29c2.27,8.06,1.43,17.17-3,24.29" style="fill:#FF725E"></path><path d="M182.26,411.31a18.58,18.58,0,0,0-17.75,10.21,1.4,1.4,0,0,0-.12,1.4,1.32,1.32,0,0,0,1.18.34c3.5-.22,6.6-2.33,9.16-4.73s4.78-5.16,7.61-7.23" style="fill:#FF725E"></path><path d="M182,410.74a32.93,32.93,0,0,1-.33-18.46c.65-2.38,1.74-4.88,3.94-6a.75.75,0,0,1,.6-.1.79.79,0,0,1,.38.44,11.16,11.16,0,0,1,.93,5.3,33.56,33.56,0,0,1-.83,5.36c-.69,3.28-1.06,6.8-2.86,9.63a18.64,18.64,0,0,0-1.14,2.11c-.34.72-.34,1-.66,1.55" style="fill:#FF725E"></path><path d="M204.9,414.16a23.8,23.8,0,0,1,4.17-19.58c.3-.39.7-.81,1.19-.76.75.07.94,1.07.91,1.82a35.46,35.46,0,0,1-6.27,18.52" style="fill:#FF725E"></path><path d="M207,415.57a28.48,28.48,0,0,0,23.37-4.75,19,19,0,0,0-12.65-1.56c-4.22,1-8.09,2.86-10.72,6.31" style="fill:#FF725E"></path><path d="M208.71,411.27c4.39-7.16,12.81-11.84,21.2-12.26-1,3.41-3.77,6.06-6.93,7.67a38.45,38.45,0,0,1-10.18,3c-1.36.27-3.22.56-4.09,1.62" style="fill:#FF725E"></path><path d="M205.33,390.41A62,62,0,0,0,208.05,378a20.71,20.71,0,0,0-2.48-12.29c-4.1,7.94-4.52,17.22-.36,25.13" style="fill:#FF725E"></path><path d="M219.15,383.43c4.8-8.73,14.59-15.69,24.5-16.67-3.82,9.52-14.25,16.87-24.5,16.67" style="fill:#FF725E"></path><path d="M216.13,385.13c7.16,1.09,13.26,5.67,20,8.44a9,9,0,0,0,4.51.86,3.53,3.53,0,0,0,2.21-6.24,9.57,9.57,0,0,0-3.28-2c-7.29-3-15.1-3.11-22.77-1.27" style="fill:#FF725E"></path><path d="M212,390.15c1.62.47,2.17,1.31,3.46,2.4a37.25,37.25,0,0,0,15.12,7.77c.58.14,1.34.2,1.62-.32s-.06-1-.39-1.42a20.85,20.85,0,0,0-9.13-6.19c-3.49-1.3-6.51-2.87-10.68-2.54" style="fill:#FF725E"></path><path d="M207.32,359.83a28.57,28.57,0,0,0,21.94,7.47,1.48,1.48,0,0,0,1-.36c.55-.6-.11-1.53-.75-2-6.46-5-14.27-7.11-22.19-5.08" style="fill:#FF725E"></path><path d="M212.86,357.81a30.57,30.57,0,0,1,27.38-4.52A21.72,21.72,0,0,1,227.19,359a41.49,41.49,0,0,1-14.33-1.21" style="fill:#FF725E"></path><path d="M210.66,343.87c-.64-6.44-.23-11.52-.67-18,0-.52-.15-1.14-.63-1.32-.68-.26-1.24.56-1.46,1.25a20.59,20.59,0,0,0,2.75,17.92" style="fill:#FF725E"></path><path d="M210.19,344.59a37.89,37.89,0,0,0,10.67-10.37c2.11-2.89,3.88-6.34,3.4-9.88a10.22,10.22,0,0,0-7.69,3.82,21.31,21.31,0,0,0-3.92,7.9c-.86,2.83-1.46,5.74-2.46,8.53" style="fill:#FF725E"></path><path d="M220.67,341.67a85.82,85.82,0,0,0,26.25-15.48c-3.13-1.26-6.72-.5-9.86.76a31.07,31.07,0,0,0-16.52,14.65" style="fill:#FF725E"></path><path d="M213.14,348.11a53.53,53.53,0,0,0,14.58.07c4.72-.79,9.19-2.66,13.6-4.52a1.63,1.63,0,0,0,.93-.7,1.08,1.08,0,0,0-.33-1.17,2.75,2.75,0,0,0-1.16-.54c-4.8-1.35-10-.72-14.71.88a67.8,67.8,0,0,0-12.91,6" style="fill:#FF725E"></path><path d="M185.47,360.05c-3.31-6.67-3.09-14.46-.24-21.34,2,3.07,2.26,7,1.89,10.61s-1.48,7.4-1.55,11.07" style="fill:#FF725E"></path><path d="M172.26,353.39a29.78,29.78,0,0,0-22.12,9.43,20.73,20.73,0,0,0,12.11-2.25,61.45,61.45,0,0,0,10.38-6.95" style="fill:#FF725E"></path><path d="M163.38,350.42c-4-.32-7.93-.82-11.81.37a14.19,14.19,0,0,0-9,7.63,21.48,21.48,0,0,0,11.07-2.09,64.17,64.17,0,0,0,9.74-5.91" style="fill:#FF725E"></path><path d="M176.53,350.56c-3.64-2.38-7.37-4.81-11.6-5.79s-9.13-.26-12.08,2.93c3.43,2,7.58,2.25,11.55,2.24s8.84,0,12.58,1.28" style="fill:#FF725E"></path><path d="M176.55,350.75c-6.21-6.1-8.57-17.05-6.07-25.39a38.72,38.72,0,0,1,6.07,25.39" style="fill:#FF725E"></path><path d="M193.63,333.47c1.17-2.72,2-5.58,3-8.35a23.93,23.93,0,0,1,4.35-7.7,11.44,11.44,0,0,1,7.69-4,31,31,0,0,1-14.93,20.08" style="fill:#FF725E"></path><path d="M190.54,337.07c-1.94-2.67-4.18-6.29-6.81-8.28s-6-3.2-9.26-2.43a21.57,21.57,0,0,0,16.07,10.71" style="fill:#FF725E"></path><path d="M191.15,333.69a45.9,45.9,0,0,1-3.06-9.92,15.53,15.53,0,0,1,1.55-10.09c3.41,6.45,4.51,13.36,1.69,20.09" style="fill:#FF725E"></path><path d="M193.66,313.68c1.93-6.39,7.78-11.09,14.09-13.25a5.29,5.29,0,0,1,2.48-.37,2.16,2.16,0,0,1,1.82,1.52c.23,1.09-.67,2.06-1.51,2.78a47.91,47.91,0,0,1-16.88,9.32" style="fill:#FF725E"></path><path d="M193.73,308.46c.24-4.12.5-8.3,1.84-12.2s3.92-7.57,7.68-9.28c.64,4.16-1.2,8.3-3.41,11.88s-4.88,7-6.21,11" style="fill:#FF725E"></path><path d="M193.63,311.29c-1.6-4.65-1.76-10.57-4.55-14.62-2-2.84-5.07-4.77-6.75-7.77a11.78,11.78,0,0,0,.39,8.82,25.66,25.66,0,0,0,5.16,7.38c2.06,2.2,3.83,3.86,5.75,6.19" style="fill:#FF725E"></path><path d="M193.66,448.41c-.13,0-.23-31.06-.24-69.37s.08-69.37.21-69.37.23,31.05.24,69.37S193.78,448.41,193.66,448.41Z" style="fill:#263238"></path><path d="M220.8,355.37a7.2,7.2,0,0,1-1.17.44l-3.21,1.08c-2.71.92-6.43,2.26-10.47,3.92s-7.78,3.11-9.93,5a7.42,7.42,0,0,0-2,2.63c-.31.73-.36,1.18-.4,1.17s0-.11,0-.32a5.2,5.2,0,0,1,.23-.91,7,7,0,0,1,1.94-2.81,17.5,17.5,0,0,1,4.31-2.67c1.72-.81,3.63-1.65,5.66-2.48,4.05-1.66,7.8-2.95,10.54-3.8,1.37-.43,2.49-.74,3.26-.95A6.89,6.89,0,0,1,220.8,355.37Z" style="fill:#263238"></path><path d="M229.7,333.51s-.11.14-.33.35l-1,.94-3.72,3.38-12.38,11c-4.84,4.3-9,8.41-11.91,11.51-1.45,1.54-2.59,2.82-3.37,3.72l-.9,1a2.4,2.4,0,0,1-.33.34s.08-.15.26-.4.46-.62.84-1.08c.74-.93,1.84-2.25,3.27-3.83A156.51,156.51,0,0,1,212,348.87c4.85-4.29,9.26-8.15,12.47-10.93l3.82-3.27,1.05-.87A2,2,0,0,1,229.7,333.51Z" style="fill:#263238"></path><path d="M207.05,353.58c-.13-.05.88-2.39,1.89-5.33s1.49-5.44,1.62-5.42a18.13,18.13,0,0,1-1.2,5.56,34.82,34.82,0,0,1-1.5,3.73A5.9,5.9,0,0,1,207.05,353.58Z" style="fill:#263238"></path><path d="M193.69,372.38a5.27,5.27,0,0,1-.75-.86L191,369.07c-1.6-2.07-3.82-4.93-6.3-8.06s-4.77-5.94-6.42-8l-1.95-2.42a5.72,5.72,0,0,1-.68-.92,5.33,5.33,0,0,1,.81.81c.5.54,1.2,1.33,2.06,2.32,1.72,2,4,4.76,6.53,7.9s4.67,6,6.21,8.15c.77,1.06,1.38,1.93,1.79,2.53A6.79,6.79,0,0,1,193.69,372.38Z" style="fill:#263238"></path><path d="M187.73,364.74a10.92,10.92,0,0,1-2.49-4.67,13.24,13.24,0,0,1-.56-4.7h.19c-.08.36-.15.55-.18.55s0-.21,0-.58l.2,0a21.69,21.69,0,0,0,.79,4.58A37.15,37.15,0,0,0,187.73,364.74Z" style="fill:#263238"></path><path d="M180.05,355.08a7.63,7.63,0,0,0-1.74-1,11.68,11.68,0,0,0-4.83-.39,28.92,28.92,0,0,0-4.87.79,16.45,16.45,0,0,1-2,.48,6.67,6.67,0,0,1,1.92-.79,22.84,22.84,0,0,1,4.91-.93,10.72,10.72,0,0,1,5,.54A3.07,3.07,0,0,1,180.05,355.08Z" style="fill:#263238"></path><path d="M178.23,352.73c0,.07-1-.4-2.67-1a26.75,26.75,0,0,0-13.44-1c-1.72.31-2.76.63-2.78.55a2.64,2.64,0,0,1,.71-.3,16.17,16.17,0,0,1,2-.56,23.32,23.32,0,0,1,6.88-.48,23.77,23.77,0,0,1,6.73,1.51,18.06,18.06,0,0,1,1.91.87A2.92,2.92,0,0,1,178.23,352.73Z" style="fill:#263238"></path><path d="M193.63,342.83a56.3,56.3,0,0,1-1.95-6.76,56.14,56.14,0,0,1-1.51-6.86,108.38,108.38,0,0,1,3.46,13.62Z" style="fill:#263238"></path><path d="M193.75,342.83a31,31,0,0,0-2.16-4.05,17.23,17.23,0,0,0-3.17-3.27,2.92,2.92,0,0,1,1.23.63,10,10,0,0,1,2.31,2.39A8.92,8.92,0,0,1,193.75,342.83Z" style="fill:#263238"></path><path d="M193.66,431.85s-.14-.75-.49-2.07a29.64,29.64,0,0,0-2.08-5.37,74.16,74.16,0,0,0-11-15.52c-2.46-2.81-4.84-5.46-6.87-8a56.4,56.4,0,0,1-4.91-7.09,33.61,33.61,0,0,1-2.48-5.25c-.23-.65-.39-1.16-.49-1.51a2.46,2.46,0,0,1-.12-.53s.26.71.77,2a40.25,40.25,0,0,0,2.59,5.16,61.18,61.18,0,0,0,5,7c2,2.51,4.43,5.14,6.89,8a70.55,70.55,0,0,1,11,15.67,27,27,0,0,1,2,5.47,14.7,14.7,0,0,1,.27,1.56A2.84,2.84,0,0,1,193.66,431.85Z" style="fill:#263238"></path><path d="M218.18,404.15a10.89,10.89,0,0,1-1.28.72,27.58,27.58,0,0,0-3.33,2.2,38,38,0,0,0-4.38,4c-1.54,1.62-3.12,3.5-4.74,5.52-3.23,4.06-6.25,7.64-8.06,10.51-.92,1.42-1.59,2.62-2,3.46s-.68,1.3-.71,1.29,0-.13.12-.37.22-.57.43-1a32.13,32.13,0,0,1,1.91-3.55,117.88,117.88,0,0,1,8-10.62c1.62-2,3.22-3.91,4.79-5.53a35.11,35.11,0,0,1,4.49-4,22.58,22.58,0,0,1,3.44-2.11c.42-.21.77-.34,1-.44S218.18,404.13,218.18,404.15Z" style="fill:#263238"></path><path d="M218.66,413.13a16.67,16.67,0,0,1-2.71.4,34.67,34.67,0,0,0-6.45,1.27,19.38,19.38,0,0,0-5.77,3c-1.33,1-1.95,1.87-2,1.82s.1-.24.4-.62a10.1,10.1,0,0,1,1.41-1.45,17.4,17.4,0,0,1,5.84-3.21,29.35,29.35,0,0,1,6.55-1.16A16.34,16.34,0,0,1,218.66,413.13Z" style="fill:#263238"></path><path d="M202.51,418.67c-.14-.08,1.08-1.95,2-4.47s1.1-4.76,1.26-4.74a4.18,4.18,0,0,1,0,1.46,15.36,15.36,0,0,1-.8,3.43,16.11,16.11,0,0,1-1.57,3.15A4.61,4.61,0,0,1,202.51,418.67Z" style="fill:#263238"></path><path d="M226.13,380a3.31,3.31,0,0,1-.44.23l-1.27.58c-.56.24-1.24.54-2,.95s-1.66.8-2.59,1.36l-1.48.84c-.52.3-1,.65-1.57,1-1.09.66-2.19,1.48-3.35,2.31a57.52,57.52,0,0,0-12.93,13.37c-.79,1.2-1.57,2.32-2.19,3.44-.32.55-.66,1.07-.94,1.59s-.53,1-.79,1.51c-.52,1-.9,1.86-1.27,2.65s-.66,1.46-.88,2-.39.95-.54,1.3a2.4,2.4,0,0,1-.21.44,1.7,1.7,0,0,1,.13-.48l.46-1.32a20,20,0,0,1,.81-2.07c.35-.8.71-1.72,1.22-2.69l.77-1.53c.27-.53.6-1.06.91-1.62.62-1.13,1.39-2.27,2.18-3.48a55.54,55.54,0,0,1,13-13.47c1.18-.83,2.29-1.64,3.4-2.3.55-.33,1.07-.68,1.59-1l1.51-.82c.94-.54,1.85-.93,2.64-1.31a21.26,21.26,0,0,1,2-.88l1.31-.5A1.39,1.39,0,0,1,226.13,380Z" style="fill:#263238"></path><path d="M206.72,393a3.1,3.1,0,0,1,1.06-1.59,6.82,6.82,0,0,1,4.3-1.65,11.86,11.86,0,0,1,4.53.89,6.47,6.47,0,0,1,1.71.83,10.44,10.44,0,0,1-1.81-.53,13.88,13.88,0,0,0-4.41-.74,7,7,0,0,0-4.11,1.45A12.5,12.5,0,0,0,206.72,393Z" style="fill:#263238"></path><path d="M203.82,396a16.73,16.73,0,0,0,1.22-4,16,16,0,0,0-.28-4.14,2.56,2.56,0,0,1,.51,1.15,8.26,8.26,0,0,1-.7,6C204.19,395.69,203.86,396.05,203.82,396Z" style="fill:#263238"></path><path d="M172.21,436.3c.67,11.87,4.24,23.94,9.74,36.15h23.93c5.25-12.09,8.58-24.14,9.17-36.15Z" style="fill:#455a64"></path><path d="M211.17,455.51c0,.12-7.88.22-17.59.22s-17.6-.1-17.6-.22,7.88-.23,17.6-.23S211.17,455.38,211.17,455.51Z" style="fill:#fafafa"></path><path d="M210.64,459.81c0,.12-7.39.22-16.5.22s-16.49-.1-16.49-.22,7.38-.23,16.49-.23S210.64,459.68,210.64,459.81Z" style="fill:#fafafa"></path></g><g id="freepik--Floor--inject-206"><path d="M697.69,472.6c0,.15-140.91.26-314.67.26s-314.7-.11-314.7-.26,140.87-.26,314.7-.26S697.69,472.46,697.69,472.6Z" style="fill:#263238"></path></g><g id="freepik--Pallet--inject-206"><rect x="294.61" y="446.51" width="25.09" height="25.95" style="fill:#455a64"></rect><path d="M309.3,447.22s-.28.15-.78.43a14.7,14.7,0,0,0-2,1.38,21.7,21.7,0,0,0-5,6.22c-.79,1.36-1.42,2.71-2,3.94a12.8,12.8,0,0,1-2,3,6.25,6.25,0,0,1-2,1.47,3.14,3.14,0,0,1-.86.29s.31-.1.82-.36a6.52,6.52,0,0,0,1.88-1.5c1.43-1.51,2.38-4.25,4-7a20.85,20.85,0,0,1,5.1-6.23,13.5,13.5,0,0,1,2.05-1.34A7,7,0,0,1,309.3,447.22Z" style="fill:#263238"></path><path d="M308.9,463.87l.48-.4c.31-.26.77-.65,1.32-1.2.28-.27.58-.58.89-.94a2,2,0,0,0,.66-1.29,1,1,0,0,0-1.28-.74,5.58,5.58,0,0,0-1.7.95,18.28,18.28,0,0,0-3.45,2.92,8.52,8.52,0,0,0-1.37,2.08,2,2,0,0,0-.14,1.24,1.3,1.3,0,0,0,.84.88,3.94,3.94,0,0,0,2.69-.21,9.5,9.5,0,0,0,2.48-1.5,11.47,11.47,0,0,0,3.73-4.78,6.65,6.65,0,0,0,.39-3,2.59,2.59,0,0,0-1.55-2.31,3.63,3.63,0,0,0-2.72.59,13,13,0,0,0-2.26,1.66c-2.69,2.5-4.36,5.42-6.13,7.57a16.23,16.23,0,0,1-4.9,4.37,9.07,9.07,0,0,1-1.65.69,4.71,4.71,0,0,1-.61.15l.15-.05.44-.14a9.49,9.49,0,0,0,1.63-.73,16.32,16.32,0,0,0,4.83-4.38c1.75-2.15,3.4-5.09,6.12-7.62a12.48,12.48,0,0,1,2.28-1.69,3.77,3.77,0,0,1,2.88-.61,2.14,2.14,0,0,1,1.21,1,3.9,3.9,0,0,1,.48,1.49,6.89,6.89,0,0,1-.39,3.14,11.8,11.8,0,0,1-3.8,4.87,9.73,9.73,0,0,1-2.54,1.52,4.14,4.14,0,0,1-2.83.21,1.51,1.51,0,0,1-1-1,2.17,2.17,0,0,1,.16-1.36,8.52,8.52,0,0,1,1.41-2.12,18.45,18.45,0,0,1,3.5-2.93,5.69,5.69,0,0,1,1.75-1,1.12,1.12,0,0,1,1.42.86,2,2,0,0,1-.7,1.37q-.48.53-.9.93A13.41,13.41,0,0,1,308.9,463.87Z" style="fill:#263238"></path><path d="M319.54,451s-.09.34-.23,1a22.29,22.29,0,0,0-.42,2.7c-.13,1.14-.22,2.52-.44,4a18.13,18.13,0,0,1-6.94,11.83,13.27,13.27,0,0,1-3.23,1.89s.07-.06.22-.14l.66-.35a18.25,18.25,0,0,0,7.72-8.53c1.49-3.21,1.56-6.47,1.86-8.75a20.14,20.14,0,0,1,.49-2.7A6.38,6.38,0,0,1,319.54,451Z" style="fill:#263238"></path><path d="M300,447.14a2,2,0,0,1,0,.46,12.17,12.17,0,0,1-.2,1.24,14.86,14.86,0,0,1-3.84,7.23,9.88,9.88,0,0,1-.92.85,1.69,1.69,0,0,1-.37.27s.47-.45,1.18-1.22a16.57,16.57,0,0,0,2.35-3.35,16.9,16.9,0,0,0,1.46-3.82C299.93,447.78,300,447.13,300,447.14Z" style="fill:#263238"></path><rect x="294.61" y="414.44" width="25.09" height="25.09" style="fill:#455a64"></rect><path d="M305.39,415.49a2.67,2.67,0,0,1-.14.64,11.63,11.63,0,0,1-.56,1.69,16.62,16.62,0,0,1-3.16,4.95,16.82,16.82,0,0,1-4.68,3.54,13.35,13.35,0,0,1-1.64.7l-.62.19a3.11,3.11,0,0,1,.59-.27c.39-.15.94-.41,1.6-.75a17.71,17.71,0,0,0,4.6-3.55,17.39,17.39,0,0,0,3.17-4.86,15.76,15.76,0,0,0,.63-1.66A4.59,4.59,0,0,1,305.39,415.49Z" style="fill:#263238"></path><path d="M310.6,423.62a13.57,13.57,0,0,1-1.51,2.28,18,18,0,0,1-5.69,4.75,17.34,17.34,0,0,1-2.26,1,4,4,0,0,1-2.66.3,1.34,1.34,0,0,1-.86-1.14,2.91,2.91,0,0,1,.32-1.45,16.78,16.78,0,0,1,1.59-2.6,18,18,0,0,1,11.31-7,15.33,15.33,0,0,1,1.79-.21,6.64,6.64,0,0,1,1.78.06,2.43,2.43,0,0,1,1.53.89,3.08,3.08,0,0,1,.55,1.66,8.83,8.83,0,0,1-2.48,6,17.42,17.42,0,0,1-4.76,3.5,45.43,45.43,0,0,1-4.69,2.12c-2.93,1.15-5.37,1.88-7.05,2.39l-1.95.57c-.44.13-.68.18-.68.18l.67-.22,1.93-.61c1.68-.53,4.11-1.28,7-2.44a47.93,47.93,0,0,0,4.66-2.15,17.11,17.11,0,0,0,4.69-3.47,8.57,8.57,0,0,0,2.42-5.81,2.8,2.8,0,0,0-.5-1.54,2.27,2.27,0,0,0-1.41-.82,6.66,6.66,0,0,0-1.73-.05,17.38,17.38,0,0,0-12.95,7.07,16.17,16.17,0,0,0-1.58,2.57,2.74,2.74,0,0,0-.32,1.35,1.2,1.2,0,0,0,.75,1,3.84,3.84,0,0,0,2.54-.29,15.92,15.92,0,0,0,2.25-1,18.05,18.05,0,0,0,5.7-4.67c.55-.68.93-1.25,1.19-1.63S310.6,423.62,310.6,423.62Z" style="fill:#263238"></path><path d="M319.5,430.7s0,.06-.11.16l-.34.41a19.44,19.44,0,0,1-1.37,1.45,25.77,25.77,0,0,1-11.33,6.41,17.73,17.73,0,0,1-1.94.43l-.53.08-.19,0s.06,0,.18-.06l.53-.12c.45-.09,1.11-.26,1.92-.49a28.71,28.71,0,0,0,6-2.52,28,28,0,0,0,5.26-3.86c.61-.57,1.09-1.05,1.41-1.39l.37-.39Z" style="fill:#263238"></path><rect x="504.71" y="414.44" width="25.09" height="25.09" style="fill:#455a64"></rect><path d="M515.49,415.49a2.67,2.67,0,0,1-.14.64,11.63,11.63,0,0,1-.56,1.69,16.62,16.62,0,0,1-3.16,4.95,16.82,16.82,0,0,1-4.68,3.54,13.35,13.35,0,0,1-1.64.7l-.62.19a3.11,3.11,0,0,1,.59-.27,17.11,17.11,0,0,0,6.2-4.3,17.39,17.39,0,0,0,3.17-4.86,15.76,15.76,0,0,0,.63-1.66A4.59,4.59,0,0,1,515.49,415.49Z" style="fill:#263238"></path><path d="M520.7,423.62a13.57,13.57,0,0,1-1.51,2.28,18,18,0,0,1-5.69,4.75,16.76,16.76,0,0,1-2.26,1,4,4,0,0,1-2.66.3,1.34,1.34,0,0,1-.86-1.14,2.91,2.91,0,0,1,.32-1.45,16.78,16.78,0,0,1,1.59-2.6,18,18,0,0,1,11.31-7,15.59,15.59,0,0,1,1.79-.21,6.64,6.64,0,0,1,1.78.06,2.43,2.43,0,0,1,1.53.89,3.08,3.08,0,0,1,.55,1.66,8.83,8.83,0,0,1-2.48,6,17.42,17.42,0,0,1-4.76,3.5,45.43,45.43,0,0,1-4.69,2.12c-2.93,1.15-5.37,1.88-7,2.39l-1.95.57c-.44.13-.68.18-.68.18l.67-.22,1.93-.61c1.68-.53,4.11-1.28,7-2.44a47.93,47.93,0,0,0,4.66-2.15A17.31,17.31,0,0,0,524,428a8.56,8.56,0,0,0,2.41-5.81,2.8,2.8,0,0,0-.5-1.54,2.24,2.24,0,0,0-1.41-.82,6.65,6.65,0,0,0-1.73-.05,17.38,17.38,0,0,0-12.95,7.07,16.17,16.17,0,0,0-1.58,2.57,2.74,2.74,0,0,0-.32,1.35,1.2,1.2,0,0,0,.75,1,3.84,3.84,0,0,0,2.54-.29,15.43,15.43,0,0,0,2.25-1,18.05,18.05,0,0,0,5.7-4.67c.55-.68.93-1.25,1.19-1.63S520.7,423.62,520.7,423.62Z" style="fill:#263238"></path><path d="M529.6,430.7s0,.06-.11.16l-.34.41a19.44,19.44,0,0,1-1.37,1.45,25.81,25.81,0,0,1-11.32,6.41,18.34,18.34,0,0,1-2,.43l-.53.08-.19,0s.06,0,.18-.06l.53-.12c.45-.09,1.11-.26,1.92-.49a29,29,0,0,0,6-2.52,28.25,28.25,0,0,0,5.25-3.86c.61-.57,1.09-1.05,1.41-1.39l.37-.39Z" style="fill:#263238"></path><rect x="504.71" y="446.51" width="25.09" height="25.95" style="fill:#455a64"></rect><path d="M519.4,447.22s-.28.15-.78.43a14.7,14.7,0,0,0-2,1.38,21.87,21.87,0,0,0-5,6.22c-.78,1.36-1.42,2.71-2,3.94a12.8,12.8,0,0,1-2,3,6.14,6.14,0,0,1-1.95,1.47,3.14,3.14,0,0,1-.86.29s.31-.1.82-.36a6.53,6.53,0,0,0,1.89-1.5c1.43-1.51,2.37-4.25,3.95-7a20.85,20.85,0,0,1,5.1-6.23,13.5,13.5,0,0,1,2.05-1.34A7,7,0,0,1,519.4,447.22Z" style="fill:#263238"></path><path d="M519,463.87l.48-.4c.32-.26.77-.65,1.33-1.2.27-.27.57-.58.88-.94a2,2,0,0,0,.66-1.29,1,1,0,0,0-1.28-.74,5.58,5.58,0,0,0-1.7.95,18.6,18.6,0,0,0-3.45,2.92,8.52,8.52,0,0,0-1.37,2.08,2,2,0,0,0-.14,1.24,1.3,1.3,0,0,0,.84.88,3.94,3.94,0,0,0,2.69-.21,9.5,9.5,0,0,0,2.48-1.5,11.47,11.47,0,0,0,3.73-4.78,6.65,6.65,0,0,0,.39-3,2.59,2.59,0,0,0-1.55-2.31,3.63,3.63,0,0,0-2.72.59,12.59,12.59,0,0,0-2.25,1.66c-2.7,2.5-4.37,5.42-6.14,7.57a16.23,16.23,0,0,1-4.9,4.37,9.07,9.07,0,0,1-1.65.69,4.71,4.71,0,0,1-.61.15l.15-.05.44-.14a9.16,9.16,0,0,0,1.63-.73,16.32,16.32,0,0,0,4.83-4.38c1.75-2.15,3.4-5.09,6.12-7.62a12.48,12.48,0,0,1,2.28-1.69,3.77,3.77,0,0,1,2.88-.61,2.14,2.14,0,0,1,1.21,1,3.9,3.9,0,0,1,.48,1.49,6.63,6.63,0,0,1-.39,3.14,11.64,11.64,0,0,1-3.8,4.87,9.57,9.57,0,0,1-2.54,1.52,4.13,4.13,0,0,1-2.83.21,1.51,1.51,0,0,1-1-1,2.17,2.17,0,0,1,.16-1.36,8.52,8.52,0,0,1,1.41-2.12,18.45,18.45,0,0,1,3.5-2.93,5.69,5.69,0,0,1,1.75-1,1.12,1.12,0,0,1,1.42.86,2,2,0,0,1-.7,1.37c-.31.35-.62.66-.9.93A13.41,13.41,0,0,1,519,463.87Z" style="fill:#263238"></path><path d="M529.64,451s-.09.34-.23,1a24.49,24.49,0,0,0-.42,2.7c-.13,1.14-.22,2.52-.44,4a17.94,17.94,0,0,1-1.37,4.79,18.24,18.24,0,0,1-5.57,7,13.06,13.06,0,0,1-3.23,1.89.83.83,0,0,1,.22-.14l.66-.35a18.31,18.31,0,0,0,7.73-8.53c1.48-3.21,1.55-6.47,1.85-8.75a20.14,20.14,0,0,1,.49-2.7A8.33,8.33,0,0,1,529.64,451Z" style="fill:#263238"></path><path d="M510.14,447.14a1.46,1.46,0,0,1,0,.46,12.17,12.17,0,0,1-.2,1.24,14.86,14.86,0,0,1-3.84,7.23,9.88,9.88,0,0,1-.92.85,1.69,1.69,0,0,1-.37.27s.47-.45,1.18-1.22a16.57,16.57,0,0,0,2.35-3.35,16.9,16.9,0,0,0,1.46-3.82C510,447.78,510.1,447.13,510.14,447.14Z" style="fill:#263238"></path><rect x="289.04" y="439.53" width="246.92" height="7.84" style="fill:#455a64"></rect><path d="M536,447.37c0,.14-55.27.26-123.43.26s-123.45-.12-123.45-.26,55.26-.26,123.45-.26S536,447.23,536,447.37Z" style="fill:#263238"></path><path d="M536,439.53c0,.15-55.27.26-123.43.26s-123.45-.11-123.45-.26,55.26-.26,123.45-.26S536,439.39,536,439.53Z" style="fill:#263238"></path><rect x="288.72" y="408.42" width="247.21" height="7.06" style="fill:#455a64"></rect><path d="M533.1,415.49c0,.14-54.63.26-122,.26s-122-.12-122-.26,54.62-.26,122-.26S533.1,415.34,533.1,415.49Z" style="fill:#263238"></path></g><g id="freepik--Character--inject-206"><path d="M467.92,401.88l-19.79-15.31,12.47-17.94,20.51,17.94s-.07,7.49-2.93,10.62S467.92,401.88,467.92,401.88Z" style="fill:#84685e"></path><path d="M482.24,387.26l-1.47-1.35a32,32,0,0,1-13.52,15.81l11,9.33,28.25-32.86C503.16,375.68,482.24,387.26,482.24,387.26Z" style="fill:#FF725E"></path><path d="M478.21,411.05l-2.68-2.28,28.15-30.72s1.9-.91,2.78.14Z" style="fill:#263238"></path><path d="M482.53,386.59c.16.14-.46,1-.62,2.24s.15,2.23,0,2.32-.91-.94-.69-2.43S482.41,386.42,482.53,386.59Z" style="fill:#263238"></path><path d="M486.92,384.36c.19.1-.14,1,.07,2.16s.8,1.9.65,2.06-1.14-.53-1.37-1.94S486.77,384.24,486.92,384.36Z" style="fill:#263238"></path><path d="M492.73,386c-.09.18-1.09-.29-1.61-1.45s-.23-2.22,0-2.18.27.92.71,1.87S492.85,385.78,492.73,386Z" style="fill:#263238"></path><path d="M366.08,355.53c.05-.56,29.64-25.73,32.9-27.74,4.1-2.53,14.13-3.67,19.32.81,4.81,4.16,46.32,38.83,46.32,38.83l-16.74,20.43L411.81,359.7s-34.22,20.58-34.56,21.09-16.37-5.57-16.37-6.08S366.08,355.53,366.08,355.53Z" style="fill:#263238"></path><path d="M334.86,254.44a78.61,78.61,0,0,1-.77-13.44,27.3,27.3,0,0,1,3.66-12.84c.36-.58,3.18-4.38,3.84-4.18.46.14-1.55,3.81-1.39,4.27a23.05,23.05,0,0,1-.1,13.73,60.81,60.81,0,0,1-5.24,12.46" style="fill:#263238"></path><path d="M339.39,293.56a12.81,12.81,0,0,1-9.78-15l8.21-41.13c1.85-11.12,9.87-19.31,20.94-17.15l1,.26a20.15,20.15,0,0,1,14.85,22.95c-1.66,9.63-3.62,20.25-5,25.29-2.82,10.45-13.72,9.39-13.72,9.39s-.55,2.44-1.2,5.55a12.82,12.82,0,0,1-15.33,9.86Z" style="fill:#84685e"></path><path d="M355.9,278.27a26.15,26.15,0,0,1-12.61-7.53s1.37,8.47,12.07,10.21Z" style="fill:#664d42"></path><path d="M352.45,259.54a2.33,2.33,0,1,1,1.66,4.23,2.9,2.9,0,0,1-1.84-.37,2.27,2.27,0,0,1-1-1,2.06,2.06,0,0,1,.27-2,3.09,3.09,0,0,1,1.3-1.1" style="fill:#664d42"></path><path d="M369.68,251.71a1.54,1.54,0,0,1-1.83,1.14,1.48,1.48,0,0,1-1.19-1.75,1.54,1.54,0,0,1,1.82-1.14A1.48,1.48,0,0,1,369.68,251.71Z" style="fill:#263238"></path><path d="M371.09,248.06c-.23.14-1.15-1-2.76-1.39s-3,.09-3.12-.15.21-.42.82-.66a4.27,4.27,0,0,1,2.56-.12,4,4,0,0,1,2.14,1.35C371.13,247.6,371.21,248,371.09,248.06Z" style="fill:#263238"></path><path d="M355.1,248.37a1.54,1.54,0,0,1-1.83,1.14,1.46,1.46,0,0,1-1.19-1.74,1.54,1.54,0,0,1,1.83-1.14A1.47,1.47,0,0,1,355.1,248.37Z" style="fill:#263238"></path><path d="M355.51,244.47c-.24.14-1.16-1-2.77-1.39s-3,.09-3.12-.15.21-.42.82-.66a4.31,4.31,0,0,1,2.57-.12,4,4,0,0,1,2.13,1.35C355.54,244,355.62,244.4,355.51,244.47Z" style="fill:#263238"></path><path d="M357.9,257.83a10.61,10.61,0,0,1,2.74.2c.42.06.83.08,1-.19a2.2,2.2,0,0,0,0-1.28c-.13-1.1-.27-2.25-.41-3.45-.55-4.89-.83-8.87-.63-8.89s.8,3.93,1.34,8.82q.18,1.8.36,3.45a2.54,2.54,0,0,1-.2,1.67,1.09,1.09,0,0,1-.83.43,3,3,0,0,1-.73-.09A11.16,11.16,0,0,1,357.9,257.83Z" style="fill:#263238"></path><path d="M352.88,257.72c.26.06-.18,1.8,1,3.43s3.09,1.91,3,2.16-.5.23-1.29.05a4.49,4.49,0,0,1-2.56-1.7,3.94,3.94,0,0,1-.73-2.85C352.45,258.07,352.76,257.68,352.88,257.72Z" style="fill:#263238"></path><path d="M357.16,238.18c-.27.4-1.83-.22-3.78-.48s-3.6-.13-3.75-.59c-.07-.22.3-.56,1-.83a6.48,6.48,0,0,1,3-.25,6.34,6.34,0,0,1,2.78,1.07C357,237.56,357.28,238,357.16,238.18Z" style="fill:#263238"></path><path d="M371.63,243.34c-.38.29-1.39-.38-2.72-.74s-2.52-.38-2.69-.83c-.06-.22.21-.54.79-.76a4.07,4.07,0,0,1,4.36,1.27C371.74,242.77,371.8,243.19,371.63,243.34Z" style="fill:#263238"></path><path d="M336.66,245.52c-.16-.13-6.66-4-8.27,3.24s6,7.35,6,7.15S336.66,245.52,336.66,245.52Z" style="fill:#84685e"></path><path d="M332.83,252.68s-.15.06-.38.11a1.32,1.32,0,0,1-.95-.19,3.19,3.19,0,0,1-.81-3.12,4.27,4.27,0,0,1,.75-1.72,1.47,1.47,0,0,1,1.16-.75.65.65,0,0,1,.67.51c.05.22,0,.35,0,.38s.18-.09.19-.4a.86.86,0,0,0-.19-.52,1,1,0,0,0-.65-.34,1.82,1.82,0,0,0-1.56.83,4.27,4.27,0,0,0-.89,1.92c-.28,1.46.16,3,1.14,3.52a1.37,1.37,0,0,0,1.19.07C332.78,252.85,332.85,252.7,332.83,252.68Z" style="fill:#664d42"></path><path d="M372.67,230.81c1.31-.4-1.59-5.14-4.19-7.06-3.93-2.91-10.31-5.54-14.56-5.26-5.12.34-9.65,1.88-13,5.76a29.08,29.08,0,0,0-6.3,13.85,8.79,8.79,0,0,0,.07,4.64c.66,1.79,2.36,3.2,1.86,5.35a3.34,3.34,0,0,0,.18,2.31c1,1.87,3,.88,4-.32,2.19-2.49,3.09-5.82,3.93-9a32.55,32.55,0,0,0,1.3-7.8,8.3,8.3,0,0,1,.26-2.5,7.17,7.17,0,0,1,2-3.53,4.34,4.34,0,0,1,.79-.51,6.62,6.62,0,0,1,6.61.27c3.8,2.31,6.6,5.33,11.76,4.39a5.9,5.9,0,0,0,2.44-1.35,2.16,2.16,0,0,1,2.83.71Z" style="fill:#263238"></path><path d="M333.8,258.48s0,.18-.17.37a1.35,1.35,0,0,1-1.05.26,2.44,2.44,0,0,1-1.43-.67,2.61,2.61,0,0,1-.83-1.78,2.85,2.85,0,0,1,.6-1.86,2.7,2.7,0,0,1,1.31-.88c.87-.25,1.42,0,1.4.05s-.54,0-1.25.35a2.39,2.39,0,0,0-1.45,2.31,2.27,2.27,0,0,0,1.72,2.06,1.37,1.37,0,0,0,.85,0C333.68,258.57,333.75,258.46,333.8,258.48Z" style="fill:#263238"></path><path d="M437.07,356.36l-19.33-12.69-6.81,5.15-46.8-2.11,0,1.33-2.93,15.65,58.12-3.47s3.43,2.59,4.95,2,2.87-1.25,2.87-1.25l2.31.73a5.23,5.23,0,0,0,3.74-2.57s3.24,3.43,4.91,3.47S437.07,356.36,437.07,356.36Z" style="fill:#84685e"></path><path d="M331,275.84s-6.92.8-11.64,4.14c-7.47,5.28-15.32,17.45-17.91,34.33-2.16,14-.78,29.07-1.44,39.37-1,15.61-1.05,22.65,0,26.1,1.74,5.73,4.88,25.37,17.82,27.36A45.8,45.8,0,0,0,324,394.45c1.74-6.47,7.69-24.45,24.34-26.66,1.48-.2,18.23-2.72,18.23-2.72s-1.12-16.1-1.12-22.45c0-3.17,1-9.15,2.1-14.33,1.35-6.63-.53-13.66-2.33-20.18s-3.16-15.33-4.37-17.62A17,17,0,0,0,354,284Z" style="fill:#FF725E"></path><path d="M331,275.84s8.61,10.09,13,21.75c3.1,8.22,14,29.55,14,29.55s-.44-15.48-1.4-23.63c-1.4-11.86-2.05-19.18-2.05-19.18l-11.15-6.05Z" style="fill:#84685e"></path><path d="M343.79,368.29a13.07,13.07,0,0,1-1.63,0,23.57,23.57,0,0,0-4.38.49,30.27,30.27,0,0,0-6.21,2A27.5,27.5,0,0,0,324.8,375a53.16,53.16,0,0,0-9.15,11.28c-1,1.53-1.77,2.79-2.37,3.76a10,10,0,0,1-.92,1.35,10.49,10.49,0,0,1,.74-1.46c.51-.92,1.26-2.24,2.23-3.84a49.65,49.65,0,0,1,9.13-11.49,27.26,27.26,0,0,1,6.92-4.22,28.28,28.28,0,0,1,6.34-1.92,19.76,19.76,0,0,1,4.44-.33,9.35,9.35,0,0,1,1.21.1A1.43,1.43,0,0,1,343.79,368.29Z" style="fill:#263238"></path><path d="M304.24,318.21s5.58-34.58,21.14-35.88,13.95,17.08,13.16,25.94a130.37,130.37,0,0,1-1.8,13.61Z" style="fill:#FF725E"></path><path d="M338,321.88l-.6,0-1.78-.16-6.83-.65-24.41-2.41-.28,0,.08-.27c1.37-4.2,2.25-8.92,3.39-13.85s2.62-10.15,5.63-14.84a19.8,19.8,0,0,1,9.86-8.19,12.84,12.84,0,0,1,6.16-.58,8.28,8.28,0,0,1,5.16,2.87,20.68,20.68,0,0,1,2.92,4.83,12.63,12.63,0,0,1,.84,2.59c.15.88.27,1.73.38,2.58a81.76,81.76,0,0,1,.66,9.45,135.89,135.89,0,0,1-.65,13.69c-.16,1.6-.28,2.84-.37,3.73,0,.4-.08.72-.11,1a1.56,1.56,0,0,1-.05.31s0-.12,0-.35,0-.56.06-1c.06-.88.15-2.12.26-3.7.21-3.23.58-7.9.48-13.67a81.9,81.9,0,0,0-.72-9.41c-.11-.83-.24-1.7-.39-2.55a11.9,11.9,0,0,0-.82-2.49,20.2,20.2,0,0,0-2.86-4.69,7.78,7.78,0,0,0-4.88-2.7,12.4,12.4,0,0,0-5.92.57,19.37,19.37,0,0,0-9.58,8c-2.95,4.59-4.42,9.78-5.58,14.67s-2,9.64-3.44,13.87l-.19-.3,24.24,2.63,6.86.77,1.83.22.47.06Z" style="fill:#263238"></path><g style="opacity:0.30000000000000004"><path d="M311.35,384.14a5.09,5.09,0,0,0-1.2,2.16,1.93,1.93,0,0,0,.92,2.12c1.05.47,2.18-.43,3-1.28,2.84-3.11,5.3-6.55,8.13-9.68a23.87,23.87,0,0,1,9.44-6.94C321.84,373.49,317.77,376.21,311.35,384.14Z"></path></g><g style="opacity:0.30000000000000004"><path d="M364.47,348.25a1.82,1.82,0,0,0-.73-1.32,2.11,2.11,0,0,0-1.76.13l-22,8.46c-4.3,1.66-9,3.34-13.43,2-4.63-1.38-7.82-5.86-8.93-10.56s-.5-9.62.29-14.39,2.16-12.4,2.16-12.4l-13.68-1.35c-1.52,14.44-2.6,31.34.15,43.31,1.05,4.57,3.57,7.43,7.5,10,3.23,2.09,9.33-.33,13.33-1.92,10.39-4.14,20.28-8.29,28.47-13,2-1.15,8.14-5.31,9.49-7.18S364.87,350.52,364.47,348.25Z"></path></g><path d="M308.06,319s-.94,25.31.07,35.45c.78,7.71,3.62,13.12,8.06,13.86s22.9-4.07,33.8-9.61A230.6,230.6,0,0,0,370.21,347l-.83-10.25s-20.31,4.6-23.82,5.15-14.23,1.73-14.23,1.73c0-.32,3.41-21.94,3.41-21.94Z" style="fill:#84685e"></path><path d="M396.25,334.63c-.93-.94-22.66,1.59-26.34,2l-.53.06.83,10.25,15.67,0,.51,2.44s-2-.31-3.06.61,3.49,1.79,4.48,1.93c2.79.39,4.19-2.36,4.19-2.36,2.24,1.47,4.26-1.29,4.26-1.29,1.79,1.29,3.35-1.54,3.35-1.54s2.85,3,4.48,3.36a9.83,9.83,0,0,0,3.25,0S397.27,335.64,396.25,334.63Z" style="fill:#84685e"></path><path d="M392,349.23c-.16,0-.43-1.62-1.23-3.46a31.67,31.67,0,0,0-1.84-3.15,5.74,5.74,0,0,1,2.32,2.94A7.12,7.12,0,0,1,392,349.23Z" style="fill:#664d42"></path><path d="M392.06,340.16c0-.05.52.2,1.14.83a9.94,9.94,0,0,1,1.82,2.86,21.66,21.66,0,0,1,1.14,3.17c.21.86.06,1.43,0,1.41s-.06-.53-.34-1.31-.75-1.89-1.26-3.06a13.6,13.6,0,0,0-1.63-2.83C392.41,340.57,392,340.22,392.06,340.16Z" style="fill:#664d42"></path><path d="M395.87,338.24a20.73,20.73,0,0,1,4,9.07c-.14,0-.82-2.07-1.94-4.57S395.74,338.32,395.87,338.24Z" style="fill:#664d42"></path><path d="M408.24,458.21,406.54,438h23.17L429,457.79s-6.33,5.29-10.56,5.16S408.24,458.21,408.24,458.21Z" style="fill:#84685e"></path><path d="M429,459.79l0-2a31.92,31.92,0,0,1-20.8.42l.33,14.39,43.33-.77C451.57,467.7,429,459.79,429,459.79Z" style="fill:#FF725E"></path><path d="M408.57,472.6l-.08-3.51,41.66.58s1.94.8,1.75,2.16Z" style="fill:#263238"></path><path d="M429.71,459.55c0,.22-1.06.33-2.09,1s-1.57,1.6-1.77,1.52.1-1.31,1.36-2.13S429.75,459.36,429.71,459.55Z" style="fill:#263238"></path><path d="M434.28,461.35c.06.21-.85.58-1.56,1.49s-.89,1.86-1.1,1.85-.37-1.2.53-2.31S434.28,461.15,434.28,461.35Z" style="fill:#263238"></path><path d="M437,466.75c-.19.05-.5-1,0-2.17s1.5-1.65,1.6-1.48-.51.81-.93,1.77S437.17,466.72,437,466.75Z" style="fill:#263238"></path><path d="M414.68,465.17a1.14,1.14,0,1,1-1.14-1.14A1.13,1.13,0,0,1,414.68,465.17Z" style="fill:#263238"></path><path d="M318.48,406.15c-.19.3,18.52,3,34.48,2.18S402.65,395,402.65,395a107,107,0,0,0-1.42,14.65c-.05,6.7,3.25,29.38,3.25,29.38h27.7V390.42s-.78-18.35-.83-21.38c-.09-4.55-5.51-11.09-14.37-10.58-7.47.44-73.69,9.9-73.69,9.9s-10,3.16-14,8.48S318.48,406.15,318.48,406.15Z" style="fill:#263238"></path><path d="M328.59,390a6.34,6.34,0,0,1-2.5.18,6,6,0,0,1-2.49-.35,6.33,6.33,0,0,1,2.51-.17A6.21,6.21,0,0,1,328.59,390Z" style="fill:#455a64"></path><path d="M338.58,389.51a6.34,6.34,0,0,1-2.48.44,6.16,6.16,0,0,1-2.51-.07,6.31,6.31,0,0,1,2.47-.44A6.25,6.25,0,0,1,338.58,389.51Z" style="fill:#455a64"></path><path d="M348.49,388.19a6.39,6.39,0,0,1-2.44.63,6.23,6.23,0,0,1-2.51.12,6.1,6.1,0,0,1,2.44-.64A6.35,6.35,0,0,1,348.49,388.19Z" style="fill:#455a64"></path><path d="M358.31,386.33a12.37,12.37,0,0,1-4.9,1,11.92,11.92,0,0,1,4.9-1Z" style="fill:#455a64"></path><path d="M368.08,384.18a12.16,12.16,0,0,1-4.88,1.09,6.17,6.17,0,0,1,2.38-.8A6.26,6.26,0,0,1,368.08,384.18Z" style="fill:#455a64"></path><path d="M377.83,382a6.17,6.17,0,0,1-2.38.8,6.26,6.26,0,0,1-2.5.29,6.46,6.46,0,0,1,2.39-.8A6.21,6.21,0,0,1,377.83,382Z" style="fill:#455a64"></path><path d="M387.63,380a6.38,6.38,0,0,1-2.4.74,6.24,6.24,0,0,1-2.51.23,6.31,6.31,0,0,1,2.41-.74A6.19,6.19,0,0,1,387.63,380Z" style="fill:#455a64"></path><path d="M397.5,378.4a6.16,6.16,0,0,1-2.43.61,6.28,6.28,0,0,1-2.52.1,6.38,6.38,0,0,1,2.44-.61A6,6,0,0,1,397.5,378.4Z" style="fill:#455a64"></path><path d="M407.47,377.79A10,10,0,0,1,405,378a6.68,6.68,0,0,1-2.51-.09,5.82,5.82,0,0,1,2.49-.43A4.58,4.58,0,0,1,407.47,377.79Z" style="fill:#455a64"></path><path d="M413.2,384.64a11,11,0,0,1-.56-2.42c-.28-1.31-.89-2.22-.79-2.31s1,.76,1.3,2.19A4.32,4.32,0,0,1,413.2,384.64Z" style="fill:#455a64"></path><path d="M413.59,394.63a6.41,6.41,0,0,1-.36-2.49,6.24,6.24,0,0,1,.15-2.5,11.88,11.88,0,0,1,.21,5Z" style="fill:#455a64"></path><path d="M414.09,404.62a12.11,12.11,0,0,1-.26-5,6,6,0,0,1,.39,2.48A6.35,6.35,0,0,1,414.09,404.62Z" style="fill:#455a64"></path><path d="M414.63,414.6a12.35,12.35,0,0,1-.27-5,6.33,6.33,0,0,1,.4,2.48A6.11,6.11,0,0,1,414.63,414.6Z" style="fill:#455a64"></path><path d="M415.16,424.59a12.17,12.17,0,0,1-.26-5,6.14,6.14,0,0,1,.39,2.49A6.35,6.35,0,0,1,415.16,424.59Z" style="fill:#455a64"></path><path d="M415.61,434.58a6.35,6.35,0,0,1-.37-2.49,6.45,6.45,0,0,1,.16-2.51,6.19,6.19,0,0,1,.36,2.49A6.34,6.34,0,0,1,415.61,434.58Z" style="fill:#455a64"></path><path d="M413,371.25a36.48,36.48,0,0,1-1.71,3.49c-1.08,2.14-2.51,5.12-3.94,8.48s-2.55,6.47-3.33,8.73a38.4,38.4,0,0,1-1.31,3.66,4,4,0,0,1,.19-1c.16-.65.42-1.59.77-2.74a92.46,92.46,0,0,1,3.2-8.83,90.55,90.55,0,0,1,4.1-8.44c.58-1.05,1.07-1.89,1.43-2.46A4.23,4.23,0,0,1,413,371.25Z" style="fill:#455a64"></path><path d="M421.61,380.15c0,.08-1.3.6-3.35,1.65a43.8,43.8,0,0,0-7.49,4.91,42.82,42.82,0,0,0-6.27,6.4c-1.43,1.8-2.21,3-2.28,3a3.53,3.53,0,0,1,.46-.9,25.93,25.93,0,0,1,1.52-2.29,37.16,37.16,0,0,1,6.24-6.57,36.73,36.73,0,0,1,7.66-4.84,26.16,26.16,0,0,1,2.54-1.05A3.27,3.27,0,0,1,421.61,380.15Z" style="fill:#455a64"></path><path d="M364.27,350.7a2.53,2.53,0,0,1,.37-.28l1.13-.74,4.37-2.82,0,0h0l15.67-.11h.17l0,.17.52,2.44.06.3-.31,0a3.94,3.94,0,0,0-2.86.57c-.31.11.34.5.8.66a15.67,15.67,0,0,0,1.6.48,7.33,7.33,0,0,0,3.33.3,4.44,4.44,0,0,0,2.56-2.15l.14-.24.22.14a2.2,2.2,0,0,0,2.07.22,4.64,4.64,0,0,0,1.85-1.45l.14-.18.21.12a1.5,1.5,0,0,0,.8.29,1.6,1.6,0,0,0,.84-.27,4.42,4.42,0,0,0,1.34-1.47l.17-.3.24.25a23.75,23.75,0,0,0,2.44,2.23,7.71,7.71,0,0,0,1.41.88,4.8,4.8,0,0,0,1.61.29,10.5,10.5,0,0,0,2-.13l-.17.41c-2.81-4-5.54-7.92-8.16-11.58L397,336l-.49-.64a4.2,4.2,0,0,0-.47-.55,3.2,3.2,0,0,0-.68-.11l-.78,0c-2.09,0-4.13.16-6.07.3-7.78.63-14.2,1.36-18.6,1.83h0l-5.24,1.08-1.36.26a1.83,1.83,0,0,1-.47.06l.45-.13,1.35-.32,5.22-1.19h0c4.39-.54,10.81-1.33,18.6-2,1.95-.15,4-.32,6.11-.33.26,0,.53,0,.81,0a2.47,2.47,0,0,1,.89.17,3.55,3.55,0,0,1,.6.66l.5.65c.64.88,1.3,1.78,2,2.68,2.63,3.65,5.36,7.54,8.18,11.57l.23.34-.4.07a11.78,11.78,0,0,1-2.15.13,5,5,0,0,1-1.8-.34,7.4,7.4,0,0,1-1.51-.94,24,24,0,0,1-2.51-2.29l.42-.05a4.93,4.93,0,0,1-1.52,1.66,2.2,2.2,0,0,1-1.12.34,2,2,0,0,1-1.09-.38l.36-.06A5,5,0,0,1,394.4,350a2.72,2.72,0,0,1-2.53-.27l.36-.1a5,5,0,0,1-2.88,2.4,4.33,4.33,0,0,1-1.86,0q-.87-.15-1.71-.36a13.1,13.1,0,0,1-1.65-.5,4,4,0,0,1-.8-.41.89.89,0,0,1-.35-.42.58.58,0,0,1,.2-.6,3.07,3.07,0,0,1,1.6-.66,6.43,6.43,0,0,1,1.64,0l-.25.26c-.17-.85-.34-1.69-.5-2.44l.21.17-15.67,0,.07,0-4.43,2.71-1.17.69A3,3,0,0,1,364.27,350.7Z" style="fill:#664d42"></path><path d="M432.18,393.38a1.92,1.92,0,0,1-.07-.53c0-.41-.05-.92-.09-1.54-.06-1.4-.14-3.32-.23-5.64s-.18-5.25-.28-8.38c-.07-1.57-.06-3.25-.19-4.94a30.13,30.13,0,0,0-.91-5.18,18.1,18.1,0,0,0-.87-2.51,7.08,7.08,0,0,0-1.44-2.06,12.9,12.9,0,0,0-4-2.71,12.33,12.33,0,0,0-4.25-1.05,33.1,33.1,0,0,0-3.88,0c-2.38.13-4.3.33-5.63.44l-1.53.11a2.22,2.22,0,0,1-.54,0,1.81,1.81,0,0,1,.53-.11l1.52-.21c1.32-.17,3.24-.42,5.63-.61a35.11,35.11,0,0,1,3.92-.1,12.71,12.71,0,0,1,4.42,1.05,13.33,13.33,0,0,1,4.17,2.79,7.78,7.78,0,0,1,1.55,2.21,18.82,18.82,0,0,1,.89,2.59,29.14,29.14,0,0,1,.92,5.27c.12,1.74.11,3.38.16,5,.06,3.14.12,6,.17,8.39s0,4.24.06,5.65v1.54A2,2,0,0,1,432.18,393.38Z" style="fill:#455a64"></path><path d="M370.78,361.45l40.9-7.32,28.63-44.63,28.1,5.88L442,355.94l-74,9.24h0A3.39,3.39,0,0,1,370.78,361.45Z" style="fill:#455a64"></path><path d="M441.53,334.06c-.86,1.17-1,2.55-.27,3.06s2,0,2.83-1.19,1-2.54.27-3.06S442.38,332.89,441.53,334.06Z" style="fill:#fff"></path></g></svg>
