<svg width="24" height="24" viewBox="0 0 24 24" fill="none" xmlns="http://www.w3.org/2000/svg">
<g id="akar-icons:youtube-fill" clip-path="url(#clip0_80_184)">
<g id="Group">
<g id="Group_2">
<path id="Vector" d="M23.5 6.50695C23.3641 6.02219 23.0994 5.5833 22.734 5.23695C22.3583 4.87996 21.8978 4.62459 21.396 4.49495C19.518 3.99995 11.994 3.99995 11.994 3.99995C8.85734 3.96427 5.72144 4.12123 2.60401 4.46995C2.1022 4.60917 1.64257 4.87024 1.26601 5.22995C0.896007 5.58595 0.628007 6.02495 0.488007 6.50595C0.1517 8.3177 -0.0117011 10.1573 6.83166e-06 12C-0.0119932 13.841 0.151007 15.68 0.488007 17.494C0.625007 17.973 0.892007 18.41 1.26301 18.763C1.63401 19.116 2.09601 19.371 2.60401 19.506C4.50701 20 11.994 20 11.994 20C15.1347 20.0357 18.2746 19.8787 21.396 19.53C21.8978 19.4003 22.3583 19.145 22.734 18.788C23.104 18.435 23.367 17.996 23.499 17.518C23.8441 15.7069 24.0119 13.8665 24 12.023C24.026 10.1716 23.8584 8.32252 23.5 6.50595V6.50695ZM9.60201 15.424V8.57695L15.862 12.001L9.60201 15.424Z" fill="black"/>
</g>
</g>
</g>
<defs>
<clipPath id="clip0_80_184">
<rect width="24" height="24" fill="white"/>
</clipPath>
</defs>
</svg>
