<svg width="24" height="24" viewBox="0 0 24 24" fill="none" xmlns="http://www.w3.org/2000/svg">
<g id="akar-icons:twitter-fill">
<g id="Group">
<path id="Vector" d="M23.643 4.93695C22.808 5.30695 21.911 5.55696 20.968 5.66996C21.941 5.08775 22.669 4.17142 23.016 3.09195C22.1019 3.63494 21.1014 4.01715 20.058 4.22196C19.3564 3.47282 18.4271 2.97628 17.4143 2.80943C16.4016 2.64258 15.3621 2.81475 14.4572 3.29921C13.5524 3.78367 12.8328 4.55332 12.4102 5.48866C11.9875 6.424 11.8855 7.4727 12.12 8.47195C10.2677 8.37895 8.45564 7.8975 6.80144 7.05886C5.14723 6.22022 3.68785 5.04312 2.51801 3.60396C2.11801 4.29396 1.88801 5.09396 1.88801 5.94596C1.88757 6.71295 2.07644 7.4682 2.43789 8.14469C2.79934 8.82118 3.32217 9.39799 3.96001 9.82396C3.22029 9.80042 2.49688 9.60054 1.85001 9.24095V9.30095C1.84994 10.3767 2.22204 11.4193 2.90319 12.252C3.58434 13.0846 4.53258 13.6559 5.58701 13.869C4.9008 14.0547 4.18135 14.082 3.48301 13.949C3.78051 14.8746 4.36001 15.684 5.14038 16.2639C5.92075 16.8438 6.86293 17.1651 7.83501 17.183C6.18484 18.4784 4.1469 19.181 2.04901 19.178C1.67739 19.1781 1.30609 19.1564 0.937012 19.113C3.06649 20.4821 5.54535 21.2088 8.07701 21.206C16.647 21.206 21.332 14.108 21.332 7.95195C21.332 7.75196 21.327 7.54995 21.318 7.34995C22.2293 6.69093 23.0159 5.87485 23.641 4.93995L23.643 4.93695Z" fill="black"/>
</g>
</g>
</svg>
