<svg width="76" height="76" viewBox="0 0 76 76" fill="none" xmlns="http://www.w3.org/2000/svg">
<g id="noto:pot-of-food">
<path id="Vector" d="M14.1431 45.7959L9.57126 38.6294L10.8241 33.7012L21.3988 26.7128L36.005 24.9197L52.5825 27.0691L60.5625 30.2041C60.5625 30.2041 66.5653 35.3994 66.6544 36.4741C66.7434 37.5487 65.0394 43.1953 64.9503 43.4625C64.8613 43.7297 63.6975 49.5544 60.2003 50.8072C56.7031 52.06 34.2178 55.29 33.8556 55.1059C33.4934 54.9219 14.1431 45.7959 14.1431 45.7959Z" fill="#2F2F2F"/>
<path id="Vector_2" d="M11.7266 43.5575C11.7266 43.5575 11.8631 42.0375 12.3797 40.5234C13.0684 38.4928 19.4334 29.6697 37.2637 29.6697C55.0941 29.6697 64.9503 38.4512 63.9647 42.8391C62.9791 47.2269 50.7062 58.2528 50.7062 58.2528C50.7062 58.2528 29.2006 54.9397 28.8444 54.8506C28.4822 54.7556 11.7266 43.5575 11.7266 43.5575V43.5575Z" fill="#F7B03A"/>
<path id="Vector_3" d="M20.0213 38.3325C19.4988 38.4453 19.0416 38.7838 19.0891 39.3894C19.1306 39.995 19.6887 40.28 20.1875 40.1969C20.9653 40.0663 21.2444 39.5141 21.1434 38.9738C21.0425 38.4809 20.4963 38.2256 20.0213 38.3325Z" fill="#FFE36A"/>
<path id="Vector_4" d="M19.5225 41.1528C20.045 41.9781 19.2553 43.1241 17.676 43.6228C16.0966 44.1216 14.9981 43.8722 14.8141 42.7916C14.63 41.7109 16.0372 41.0281 16.7616 40.7787C17.486 40.5294 18.9822 40.3037 19.5225 41.1528V41.1528Z" fill="#FFE36A"/>
<path id="Vector_5" d="M27.9834 35.1797C28.0191 35.9813 29.165 36.4266 30.7859 36.2188C32.4069 36.0109 33.2738 35.1203 33.1906 34.3128C33.1075 33.5053 31.9675 33.1906 30.6613 33.2738C29.355 33.3569 27.9419 34.1644 27.9834 35.1797Z" fill="#FFE36A"/>
<path id="Vector_6" d="M33.5469 33.0837C33.5469 33.8022 34.3959 34.0397 35.4944 33.9744C36.8006 33.9031 37.1569 33.3925 37.2163 32.9175C37.2756 32.4425 36.4919 31.6944 35.3875 31.7775C34.295 31.8606 33.5469 32.2941 33.5469 33.0837Z" fill="#FFE36A"/>
<path id="Vector_7" d="M44.4363 39.805C44.3531 40.7134 44.9766 41.7109 47.4228 41.5091C49.8691 41.3072 50.35 40.0781 50.35 39.6447C50.35 39.2112 49.9463 37.8931 47.6128 37.8575C46.2056 37.8337 44.5609 38.4334 44.4363 39.805V39.805Z" fill="#FFE36A"/>
<path id="Vector_8" d="M55.8303 39.2884C55.7828 39.7516 55.9312 40.9509 58.1341 40.8856C60.3309 40.8263 60.0637 40.0781 60.0637 39.7456C60.0637 39.4131 59.3156 38.19 57.76 38.0238C56.5191 37.8872 55.9134 38.5166 55.8303 39.2884V39.2884Z" fill="#FFE36A"/>
<path id="Vector_9" d="M58.6506 42.5006C58.6091 43.0587 59.2503 43.4981 60.6219 43.415C61.7856 43.3437 62.2903 42.7322 62.2606 42.275C62.2191 41.61 61.5778 41.2775 60.5803 41.3191C59.7075 41.3547 58.716 41.7169 58.6506 42.5006Z" fill="#FFE36A"/>
<path id="Vector_10" d="M33.4638 48.0641C33.4875 48.5391 34.5028 49.1031 36.1416 49.1031C37.7803 49.1031 38.0891 48.4203 38.0891 47.9216C38.0891 47.4228 37.5725 46.8647 36.0584 46.7994C34.7047 46.74 33.4222 47.2566 33.4638 48.0641V48.0641Z" fill="#FFE36A"/>
<path id="Vector_11" d="M16.4528 46.4253C16.5122 46.2828 16.5834 45.6594 16.8863 45.1369C17.1534 44.6797 17.6284 44.3056 18.1747 44.3056C19.1306 44.3056 21.2859 44.6797 21.7847 45.3625C22.1469 45.8613 22.1172 47.7078 20.6625 48.1828C19.2078 48.6638 16.4528 46.4253 16.4528 46.4253V46.4253Z" fill="#D64C12"/>
<path id="Vector_12" d="M20.8881 36.8778C20.9178 37.2578 21.5294 38.0178 22.3428 37.9584C23.1503 37.899 25.4956 36.8184 25.7272 36.3375C25.9528 35.8625 25.0028 34.7819 24.3794 34.7819C23.7559 34.7819 20.8288 36.094 20.8881 36.8778V36.8778Z" fill="#D64C12"/>
<path id="Vector_13" d="M44.7925 43.2725C44.5491 43.7653 44.2938 45.22 45.3506 45.6178C46.4075 46.0097 50.4984 46.1997 50.4984 45.0181C50.4984 43.8366 49.3347 42.9875 48.9013 42.9222C48.4619 42.8569 45.1666 42.5244 44.7925 43.2725Z" fill="#D64C12"/>
<path id="Vector_14" d="M49.5841 41.3428C48.9131 42.3819 50.1363 43.6169 51.0388 44.0384C52.9863 44.9528 53.9659 44.7984 54.6488 44.2878C55.8125 43.415 55.4147 42.5422 52.9269 41.3844C51.1516 40.5531 50.0413 40.6362 49.5841 41.3428V41.3428Z" fill="#D64C12"/>
<path id="Vector_15" d="M38.6353 35.15C38.6175 36.2484 41.0756 37.3588 42.845 37.4122C44.6144 37.4656 45.0775 36.6344 45.2081 36.2425C45.3388 35.8506 44.7153 34.5028 44.0147 33.9269C43.3141 33.3509 41.5209 32.7572 40.7134 32.8641C39.9059 32.965 38.6591 33.7488 38.6353 35.15V35.15Z" fill="#7F594B"/>
<path id="Vector_16" d="M24.1834 40.9213C24.3022 41.6634 25.4362 42.1681 27.4312 42.2988C29.8478 42.4531 31.3797 41.3606 31.4331 40.8975C31.4865 40.4284 30.0794 39.235 27.6153 39.235C24.6228 39.2291 24.0825 40.2681 24.1834 40.9213Z" fill="#FE8D00"/>
<path id="Vector_17" d="M23.3284 45.3388C23.2513 46.6628 24.1834 47.2091 25.4837 47.1556C26.7841 47.1022 29.2244 45.885 29.7172 44.4778C30.0259 43.605 28.5712 42.0613 26.4397 42.1384C25.2106 42.1859 23.3938 44.1809 23.3284 45.3388Z" fill="#7F594B"/>
<path id="Vector_18" d="M46.1997 37.5131C46.7222 37.7981 48.6697 37.2519 50.2016 36.9431C51.7334 36.6344 53.295 36.4741 53.5265 35.9813C53.7581 35.4884 53.3425 33.4103 51.0565 33.2263C48.7706 33.0422 47.4703 33.9031 46.924 34.4969C46.3778 35.0966 46.0156 35.8209 45.9859 36.0288C45.9622 36.2425 45.8375 37.3172 46.1997 37.5131Z" fill="#FE8D00"/>
<path id="Vector_19" d="M55.5037 41.414C56.2459 41.2834 55.765 39.0509 55.1653 38.374C54.5656 37.6972 52.8794 37.3884 51.8106 37.519C50.7478 37.6497 50.0175 37.9347 49.9641 38.5344C49.9106 39.1341 51.8106 40.1434 52.7962 40.5887C53.7878 41.0222 55.0584 41.4912 55.5037 41.414V41.414Z" fill="#FE8D00"/>
<path id="Vector_20" d="M29.9844 43.0944C30.5959 43.3081 32.0209 42.8925 32.0388 41.99C32.0566 41.0875 31.2431 40.2444 30.4416 40.4284C30.0378 40.5175 29.1947 41.5684 29.2125 41.9722C29.2303 42.3819 29.6697 42.9875 29.9844 43.0944Z" fill="#92A51E"/>
<path id="Vector_21" d="M32.9769 37.6794C33.0303 38.3978 34.6275 39.1459 35.1797 38.6709C35.7022 38.2197 35.3994 36.3019 34.7225 36.3019C33.8794 36.3019 32.9531 37.3825 32.9769 37.6794V37.6794Z" fill="#92A51E"/>
<path id="Vector_22" d="M34.485 41.1291C34.4969 41.3844 34.8709 42.56 35.7913 42.5422C36.7116 42.5244 37.9584 41.5862 37.9584 41.1112C37.9584 40.6362 36.5097 39.1103 35.8269 39.1281C35.3638 39.14 34.4672 40.6362 34.485 41.1291V41.1291Z" fill="#92A51E"/>
<path id="Vector_23" d="M37.5131 37.7328C37.4062 38.3681 37.8812 38.4334 38.3028 38.5047C38.7244 38.5759 39.2587 38.7066 39.8109 39.425C40.3631 40.1434 40.9034 41.6338 40.9687 41.7941C41.1706 42.3106 42.0909 42.5838 42.75 41.9425C43.4091 41.3013 42.1087 38.475 40.9509 37.5725C39.7872 36.67 37.715 36.5572 37.5131 37.7328V37.7328Z" fill="#FBE0BC"/>
<path id="Vector_24" d="M37.2163 39.2409C37.3053 39.8287 38.6472 40.9094 39.5853 40.4344C40.5234 39.9594 39.5141 38.2078 39.1044 38.0178C38.8491 37.8931 37.0856 38.3859 37.2163 39.2409Z" fill="#92A51E"/>
<path id="Vector_25" d="M42.6728 37.7922C42.2512 37.7744 41.9009 37.9228 41.9187 38.6353C41.9366 39.3537 42.2097 40.1612 43.1478 40.2147C44.0859 40.2681 44.175 39.039 44.175 38.8906C44.175 38.7422 43.605 37.8278 42.6728 37.7922V37.7922Z" fill="#92A51E"/>
<path id="Vector_26" d="M42.946 41.6813C42.5956 41.5981 40.9094 42.3225 40.8738 43.0053C40.8381 43.6822 41.4616 44.1988 42.5244 44.3294C43.5872 44.46 44.3056 44.46 44.4541 43.9434C44.5966 43.4269 43.991 41.9366 42.946 41.6813Z" fill="#92A51E"/>
<path id="Vector_27" d="M50.5994 47.8622C50.6647 48.26 52.0659 48.8834 52.5172 48.7587C52.9625 48.6341 54.0609 46.3422 55.7056 45.8731C57.3503 45.3981 57.8966 45.6 58.1222 45.3506C58.3478 45.1012 58.0213 43.9553 57.475 43.7594C56.9288 43.5634 55.4563 43.2844 53.6156 44.3591C51.7275 45.4516 50.5222 47.4169 50.5994 47.8622V47.8622Z" fill="#FBE0AF"/>
<path id="Vector_28" d="M33.054 42.2097C32.2465 42.2572 31.16 43.4566 30.6909 44.5491C29.9725 46.2056 29.7469 47.5831 29.9428 47.9334C30.1447 48.2838 31.5756 48.7706 32.1575 48.3788C32.3059 48.2778 32.4544 46.4372 33.1787 45.0419C33.6715 44.0978 34.4969 43.7238 34.6453 43.5753C34.7937 43.4269 34.3722 42.1384 33.054 42.2097Z" fill="#FBE0AF"/>
<path id="Vector_29" d="M26.1072 33.8022C25.8875 34.01 25.2878 34.9719 25.4838 36.6641C25.6381 37.9525 25.8163 38.7363 26.2319 38.9263C26.5525 39.0747 28.8444 39.3003 29.0463 38.7006C29.2481 38.1009 27.8291 36.4384 27.6747 36.1356C27.5203 35.8328 27.4491 34.0931 27.4253 33.8734C27.4016 33.6478 26.4575 33.4756 26.1072 33.8022V33.8022Z" fill="#FBE0AF"/>
<path id="Vector_30" d="M72.8353 33.6122C71.7606 31.4628 70.5969 30.6553 69.6113 30.6553C68.6256 30.6553 65.2234 32.2703 65.2234 32.2703C65.2234 32.2703 57.5938 24.0766 38.2434 23.7975C19.5166 23.5244 11.5544 31.2728 11.5544 31.2728C11.5544 31.2728 8.85876 29.2184 6.25813 29.4856C3.66345 29.7587 1.42501 36.5691 2.58876 38.5403C3.75251 40.5116 5.45657 40.4225 6.79845 41.1409C8.14032 41.8594 9.39907 42.6669 9.66626 43.1122C9.93345 43.5575 10.7409 53.5087 13.2525 57.9856C15.7641 62.4684 20.5081 68.4712 37.8931 68.8275C55.2781 69.1837 59.9688 62.1656 62.0825 58.1637C64.5941 53.4137 65.7578 44.6322 65.7578 44.6322C65.7578 44.6322 67.5509 43.0172 69.5222 42.2156C71.7013 41.325 72.6572 41.1409 73.2866 40.2444C73.91 39.3419 73.91 35.7616 72.8353 33.6122ZM38.5166 50.3678C19.7897 50.1837 10.735 44.27 11.0081 37.5547C11.1863 33.1669 19.9678 25.9053 37.1747 26.0834C54.5656 26.2675 65.4016 32.5375 65.3125 38.3562C65.2175 44.1809 56.8872 50.5459 38.5166 50.3678Z" fill="#6A6E70"/>
<path id="Vector_31" opacity="0.6" d="M37.8278 33.9922C39.7219 33.7903 38.8609 30.6019 40.4166 27.5263C43.9731 20.4785 50.9616 19.766 50.7656 13.7513C50.5519 7.17253 40.3512 3.97815 37.2459 6.50159C36.2484 7.31503 41.9662 8.24722 41.0637 11.9997C40.1553 15.7522 33.2381 16.0075 31.5578 22.0222C29.5569 29.1591 36.5987 34.1169 37.8278 33.9922V33.9922Z" fill="#EAEAEA"/>
</g>
</svg>
