<svg width="48" height="48" viewBox="0 0 48 48" fill="none" xmlns="http://www.w3.org/2000/svg">
<g clip-path="url(#clip0_5_10)">
<path d="M21.8152 18.8137H44.9985C45.3942 18.8137 45.7861 18.8916 46.1517 19.0431C46.5174 19.1945 46.8496 19.4165 47.1294 19.6963C47.4092 19.9761 47.6312 20.3084 47.7827 20.674C47.9341 21.0396 48.0121 21.4315 48.0121 21.8272V23.9578C48.0117 27.116 47.3891 30.2431 46.18 33.1607C44.9709 36.0782 43.1988 38.729 40.9651 40.9616C38.7314 43.1942 36.0797 44.9649 33.1616 46.1726C30.2434 47.3802 27.116 48.0012 23.9578 48H21.8152C21.0159 48 20.2494 47.6825 19.6843 47.1174C19.1191 46.5522 18.8016 45.7857 18.8016 44.9864V21.8152C18.8016 21.0159 19.1191 20.2494 19.6843 19.6843C20.2494 19.1191 21.0159 18.8016 21.8152 18.8016V18.8137Z" fill="url(#paint0_linear_5_10)"/>
<path d="M46.1708 1.48567C46.1708 9.18834 38.4199 15.4324 30.7172 15.4324H17.7258C17.1351 15.4324 16.5687 15.6671 16.151 16.0847C15.7334 16.5024 15.4987 17.0688 15.4987 17.6595V42.5334C15.4987 43.1728 15.2447 43.786 14.7926 44.2381C14.3405 44.6902 13.7273 44.9442 13.0879 44.9442C8.32646 44.7423 0.997477 34.7494 0.0934083 27.5439C0.031128 26.8769 -1.21073e-05 26.2049 -1.21073e-05 25.5279V22.4721C-0.00199321 19.5205 0.577913 16.5974 1.70654 13.8701C2.83517 11.1427 4.49038 8.66463 6.5775 6.5775C8.66463 4.49038 11.1427 2.83517 13.8701 1.70654C16.5974 0.577914 19.5205 -0.00199285 22.4721 -1.17497e-05H44.6851C44.8802 -1.17497e-05 45.0734 0.0384166 45.2536 0.113079C45.4339 0.187742 45.5977 0.297177 45.7356 0.435135C45.8736 0.573094 45.983 0.736875 46.0577 0.917127C46.1323 1.09738 46.1708 1.29057 46.1708 1.48567V1.48567Z" fill="url(#paint1_linear_5_10)"/>
<path d="M15.6344 15.5349H17.78L16.9001 16.0261C16.1045 16.5897 15.8875 17.0839 15.6344 18.1567V42.4008C15.6312 42.774 15.5546 43.1429 15.4088 43.4865C15.2631 43.8301 15.0511 44.1416 14.785 44.4032C14.5189 44.6649 14.2038 44.8715 13.8578 45.0114C13.5118 45.1513 13.1417 45.2217 12.7685 45.2185C12.2531 45.7248 2.0221 38.676 2.0221 32.2451C2.0221 24.8468 8.11853 15.5349 15.6344 15.5349Z" fill="url(#paint2_linear_5_10)"/>
</g>
<defs>
<linearGradient id="paint0_linear_5_10" x1="19.6936" y1="19.6936" x2="40.9603" y2="40.9603" gradientUnits="userSpaceOnUse">
<stop stop-color="#FFB550"/>
<stop offset="1" stop-color="#F67B53"/>
</linearGradient>
<linearGradient id="paint1_linear_5_10" x1="9.37216" y1="3.79406" x2="32.3054" y2="26.7273" gradientUnits="userSpaceOnUse">
<stop stop-color="#FFB550"/>
<stop offset="0.39" stop-color="#FFB350"/>
<stop offset="0.6" stop-color="#FDAB51"/>
<stop offset="0.77" stop-color="#FB9D51"/>
<stop offset="0.92" stop-color="#F88A52"/>
<stop offset="1" stop-color="#F67B53"/>
</linearGradient>
<linearGradient id="paint2_linear_5_10" x1="19.6062" y1="41.7228" x2="6.62983" y2="19.2446" gradientUnits="userSpaceOnUse">
<stop stop-color="#FFB550"/>
<stop offset="0.61" stop-color="#F98F52"/>
<stop offset="1" stop-color="#F67B53"/>
</linearGradient>
<clipPath id="clip0_5_10">
<rect width="48" height="48" fill="white"/>
</clipPath>
</defs>
</svg>
