<svg width="18" height="18" viewBox="0 0 24 24" fill="none" xmlns="http://www.w3.org/2000/svg">
<path d="M17.53 7.46999L12.53 2.46999C12.237 2.17699 11.762 2.17699 11.47 2.46999L6.47001 7.46999C6.17601 7.76299 6.17601 8.23799 6.47001 8.52999C6.76401 8.82199 7.23701 8.82399 7.53001 8.52999L11.25 4.80999V15C11.25 15.414 11.586 15.75 12 15.75C12.414 15.75 12.75 15.414 12.75 15V4.80999L16.47 8.52999C16.616 8.67699 16.808 8.74999 17 8.74999C17.192 8.74999 17.384 8.67799 17.53 8.52999C17.823 8.23699 17.823 7.76299 17.53 7.46999V7.46999Z" fill="#6E767D"/>
<path d="M19.708 21.944H4.292C3.028 21.944 2 20.916 2 19.652V14C2 13.586 2.336 13.25 2.75 13.25C3.164 13.25 3.5 13.586 3.5 14V19.652C3.5 20.089 3.855 20.444 4.292 20.444H19.708C20.145 20.444 20.5 20.089 20.5 19.652V14C20.5 13.586 20.836 13.25 21.25 13.25C21.664 13.25 22 13.586 22 14V19.652C22 20.916 20.972 21.944 19.708 21.944V21.944Z" fill="#6E767D"/>
</svg>
