<svg width="24" height="24" viewBox="0 0 24 24" fill="none" xmlns="http://www.w3.org/2000/svg">
<path d="M20.222 9.15997H18.888C18.903 9.06997 18.916 8.97797 18.916 8.88297V6.56997C18.916 5.58997 18.119 4.79297 17.138 4.79297H3.5V3.35797C3.5 2.94397 3.164 2.60797 2.75 2.60797C2.336 2.60797 2 2.94397 2 3.35797V20.83C2 21.245 2.336 21.58 2.75 21.58C3.164 21.58 3.5 21.245 3.5 20.83V19.396H14.056C15.036 19.396 15.834 18.599 15.834 17.619V15.306C15.834 15.211 15.82 15.119 15.806 15.028H20.223C21.203 15.028 22.001 14.23 22.001 13.25V10.94C22.001 9.95697 21.204 9.15997 20.223 9.15997H20.222ZM17.14 6.29297C17.292 6.29297 17.417 6.41697 17.417 6.56997V8.87997C17.417 9.03397 17.292 9.15997 17.139 9.15997H3.5V6.28997H17.14V6.29297ZM14.333 15.307V17.619C14.333 17.772 14.208 17.896 14.055 17.896H3.5V15.028H14.056C14.209 15.028 14.333 15.154 14.333 15.308V15.307ZM20.5 13.25C20.5 13.403 20.375 13.527 20.222 13.527H3.5V10.66H20.222C20.375 10.66 20.5 10.784 20.5 10.937V13.25Z" fill="#1DA1F2"/>
</svg>
