<svg width="24" height="24" viewBox="0 0 24 24" fill="none" xmlns="http://www.w3.org/2000/svg">
<path d="M19.75 2H4.25C3.01 2 2 3.01 2 4.25V19.75C2 20.99 3.01 22 4.25 22H19.75C20.99 22 22 20.99 22 19.75V4.25C22 3.01 20.99 2 19.75 2ZM4.25 3.5H19.75C20.163 3.5 20.5 3.837 20.5 4.25V13.926L16.642 10.068C16.502 9.928 16.312 9.848 16.112 9.848H16.109C15.909 9.848 15.716 9.928 15.577 10.072L11.26 14.456L9.447 12.65C9.307 12.51 9.117 12.43 8.917 12.43C8.724 12.4 8.522 12.51 8.382 12.657L3.5 17.642V4.25C3.5 3.837 3.837 3.5 4.25 3.5ZM3.506 19.78L8.924 14.246L15.206 20.5H4.25C3.848 20.5 3.523 20.178 3.506 19.78ZM19.75 20.5H17.33L12.323 15.513L16.115 11.663L20.5 16.047V19.75C20.5 20.163 20.163 20.5 19.75 20.5Z" fill="#1DA1F2"/>
<path d="M8.86799 9.85103C9.71961 9.85103 10.41 9.16065 10.41 8.30903C10.41 7.45741 9.71961 6.76703 8.86799 6.76703C8.01637 6.76703 7.32599 7.45741 7.32599 8.30903C7.32599 9.16065 8.01637 9.85103 8.86799 9.85103Z" fill="#1DA1F2"/>
</svg>
