<svg xmlns="http://www.w3.org/2000/svg" xmlns:xlink="http://www.w3.org/1999/xlink" version="1.1" width="256" height="256" viewBox="0 0 256 256" xml:space="preserve">

<defs>
</defs>
<g style="stroke: none; stroke-width: 0; stroke-dasharray: none; stroke-linecap: butt; stroke-linejoin: miter; stroke-miterlimit: 10; fill: none; fill-rule: nonzero; opacity: 1;" transform="translate(1.4065934065934016 1.4065934065934016) scale(2.81 2.81)" >
	<path d="M 30.063 90 c -6.765 0 -13.323 -3.634 -16.759 -10.009 c -4.669 -8.691 -1.799 -19.627 6.535 -24.901 c 0.049 -0.03 0.099 -0.06 0.15 -0.086 c 0.673 -0.349 1.33 -0.708 1.989 -1.081 c -0.487 -0.279 -0.972 -0.555 -1.464 -0.83 c -5.12 -2.956 -8.263 -7.114 -9.115 -12.038 c -1.115 -6.588 -1.112 -14.914 8.886 -20.927 c 7.687 -4.595 15.564 -9.093 23.183 -13.444 c 2.527 -1.443 5.056 -2.887 7.585 -4.338 c 5.279 -3.008 11.797 -3.129 17.436 -0.329 c 5.692 2.826 9.569 8.152 10.373 14.247 c 1.166 7.769 -2.72 15.545 -9.677 19.315 c -0.449 0.254 -0.885 0.504 -1.313 0.751 c 0.409 0.244 0.816 0.483 1.227 0.715 c 5.715 3.216 9.323 8.684 9.899 14.999 c 0.568 6.244 -1.953 12.194 -6.916 16.325 c -1.584 1.287 -3.325 2.268 -5.008 3.216 c -0.487 0.274 -0.975 0.549 -1.455 0.83 c -7.804 4.547 -17.067 9.922 -26.608 15.32 C 36.162 89.271 33.091 90 30.063 90 z M 21.907 58.516 c -6.513 4.174 -8.746 12.756 -5.08 19.579 c 3.927 7.284 13.009 10.041 20.251 6.138 c 9.485 -5.367 18.734 -10.735 26.526 -15.275 c 0.497 -0.29 1.002 -0.574 1.507 -0.86 c 1.609 -0.906 3.129 -1.762 4.432 -2.821 c 3.918 -3.26 5.918 -7.958 5.472 -12.872 c -0.454 -4.984 -3.326 -9.314 -7.88 -11.877 c -0.734 -0.415 -1.449 -0.845 -2.191 -1.292 c -0.628 -0.378 -1.277 -0.769 -1.975 -1.172 c -0.61 -0.352 -0.99 -0.999 -1.001 -1.704 c -0.01 -0.705 0.352 -1.363 0.951 -1.732 c 1.398 -0.861 2.773 -1.671 4.329 -2.551 c 5.513 -2.987 8.576 -9.111 7.654 -15.256 c -0.635 -4.808 -3.695 -8.99 -8.192 -11.223 c -4.445 -2.207 -9.558 -2.125 -13.671 0.219 c -2.526 1.45 -5.057 2.895 -7.587 4.339 c -7.601 4.341 -15.462 8.83 -23.11 13.401 c -6.346 3.817 -8.376 8.691 -7 16.821 c 0.65 3.762 3.056 6.871 7.149 9.234 c 1.452 0.814 2.868 1.639 4.46 2.583 c 0.606 0.359 0.979 1.011 0.981 1.715 c 0.002 0.705 -0.367 1.359 -0.971 1.721 C 25.216 56.681 23.628 57.622 21.907 58.516 z" style="stroke: none; stroke-width: 1; stroke-dasharray: none; stroke-linecap: butt; stroke-linejoin: miter; stroke-miterlimit: 10; fill: rgb(0,0,0); fill-rule: nonzero; opacity: 1;" transform=" matrix(1 0 0 1 0 0) " stroke-linecap="round" />
	<path d="M 36.741 59.95 c -0.345 0 -0.69 -0.089 -0.999 -0.268 c -0.62 -0.357 -1.002 -1.018 -1.002 -1.733 V 32.417 c 0 -0.715 0.381 -1.375 1 -1.732 c 0.619 -0.357 1.382 -0.357 2 0 l 22.085 12.737 c 0.619 0.357 1 1.016 1.001 1.731 c 0.001 0.715 -0.38 1.374 -0.997 1.733 L 37.744 59.681 C 37.433 59.861 37.087 59.95 36.741 59.95 z M 38.741 35.88 V 54.48 l 16.088 -9.321 L 38.741 35.88 z" style="stroke: none; stroke-width: 1; stroke-dasharray: none; stroke-linecap: butt; stroke-linejoin: miter; stroke-miterlimit: 10; fill: rgb(0,0,0); fill-rule: nonzero; opacity: 1;" transform=" matrix(1 0 0 1 0 0) " stroke-linecap="round" />
</g>
</svg>