<svg xmlns="http://www.w3.org/2000/svg"  viewBox="0 0 48 48" width="48px" height="48px"><path d="M 24 4 C 12.972 4 4 12.972 4 24 C 4 35.028 12.972 44 24 44 C 35.028 44 44 35.028 44 24 C 44 20.791 43.222047 17.767172 41.873047 15.076172 L 39.628906 17.320312 C 40.508906 19.371312 41 21.629 41 24 C 41 33.374 33.374 41 24 41 C 14.626 41 7 33.374 7 24 C 7 14.626 14.626 7 24 7 C 28.446 7 32.485578 8.7292031 35.517578 11.533203 L 37.638672 9.4121094 C 34.061672 6.0651094 29.273 4 24 4 z M 39.470703 10.986328 A 1.50015 1.50015 0 0 0 38.439453 11.439453 L 21.5 28.378906 L 17.560547 24.439453 A 1.50015 1.50015 0 1 0 15.439453 26.560547 L 20.439453 31.560547 A 1.50015 1.50015 0 0 0 22.560547 31.560547 L 40.560547 13.560547 A 1.50015 1.50015 0 0 0 39.470703 10.986328 z"/></svg>