<svg width="23" height="21" viewBox="0 0 23 21" fill="none" xmlns="http://www.w3.org/2000/svg">
<path d="M22 2C15.38 1.9 11.62 4.421 8.95 8.03C6.29 11.61 5 16.331 5 21H7C7 19.993 7.07 18.988 7.19 18H11C15.1 18 18.48 14.918 18.94 10.946C21.79 9.147 22.17 5.359 22 2ZM15 10H13.5V12H15C15.63 11.984 16.2 11.92 16.72 11.812C15.95 14.24 13.68 16 11 16H7.55C8.12 13.488 9.12 11.149 10.55 9.22C12.71 6.308 15.84 4.309 20 4.033C19.95 7.079 18.9 10 15 10ZM3 8V5H0V3H3V0H5V3H8V5H5V8H3Z" fill="#E1E8ED"/>
</svg>
