<svg width="120" height="120" viewBox="0 0 120 120" fill="none" xmlns="http://www.w3.org/2000/svg">
<rect width="120" height="120" rx="30" fill="#2C3E50"/>
<path d="M60 60C57.3691 60 54.7383 59.5332 52.6875 58.5996L23.7812 45.418C22.459 44.8164 19.375 43.0566 19.375 39.7344C19.375 36.4121 22.459 34.6563 23.7852 34.0469L52.9414 20.752C56.959 18.916 63.0215 18.916 67.041 20.752L96.2148 34.0469C97.541 34.6504 100.625 36.4102 100.625 39.7344C100.625 43.0586 97.541 44.8125 96.2148 45.4199L67.3086 58.5996C65.2617 59.5332 62.6309 60 60 60Z" fill="white"/>
<path d="M96.2031 54.2988L93.2559 52.9688L85.6836 56.4336L67.3242 64.832C65.2734 65.7695 62.6367 66.2363 60.0117 66.2363C57.3867 66.2363 54.752 65.7695 52.7031 64.832L34.3301 56.4336L26.7559 52.9688L23.7832 54.3047C22.459 54.9082 19.375 56.6797 19.375 60C19.375 63.3203 22.459 65.0938 23.7812 65.6973L52.6875 78.9062C54.7266 79.8437 57.3613 80.3125 60 80.3125C62.6387 80.3125 65.2617 79.8438 67.3125 78.9082L96.1934 65.7031C97.5234 65.0996 100.625 63.3379 100.625 60C100.625 56.6621 97.5449 54.9082 96.2031 54.2988Z" fill="#00B770"/>
<path d="M96.2031 74.6094L93.2559 73.2812L85.6836 76.7441L67.3242 85.1328C65.2734 86.0664 62.6367 86.5352 60.0117 86.5352C57.3867 86.5352 54.752 86.0684 52.7031 85.1328L34.3301 76.7344L26.7559 73.2812L23.7832 74.6172C22.459 75.2207 19.375 76.9922 19.375 80.3125C19.375 83.6328 22.459 85.4043 23.7812 86.0059L52.6875 99.207C54.7266 100.141 57.3711 100.625 60 100.625C62.6289 100.625 65.25 100.141 67.3008 99.2051L96.1914 86.0078C97.5234 85.4063 100.625 83.6445 100.625 80.3125C100.625 76.9805 97.5449 75.2207 96.2031 74.6094Z" fill="white"/>
</svg>
