<?xml version="1.0" standalone="no"?>
<!DOCTYPE svg PUBLIC "-//W3C//DTD SVG 1.1//EN" "http://www.w3.org/Graphics/SVG/1.1/DTD/svg11.dtd" >
<svg xmlns="http://www.w3.org/2000/svg">
<metadata>
This is a custom SVG webfont generated by Font Squirrel.
Copyright   :  2001 Apostrophic Lab All rights reserved infoapostrophiclabcom wwwapostrophiclabcom
Designer    : Apostrophe
Foundry URL : wwwapostrophiclabcom
</metadata>
<defs>
<font id="webfontZlzQ6cNJ" horiz-adv-x="1232" >
<font-face units-per-em="2048" ascent="1638" descent="-410" />
<missing-glyph horiz-adv-x="921" />
<glyph unicode=" "  horiz-adv-x="921" />
<glyph unicode="&#x09;" horiz-adv-x="921" />
<glyph unicode="&#xa0;" horiz-adv-x="921" />
<glyph unicode="!" horiz-adv-x="411" d="M102 0v207h207v-207h-207zM102 463v975h207v-975h-207z" />
<glyph unicode="&#x22;" horiz-adv-x="819" d="M102 1126v312h207v-312h-207zM512 1126v312h207v-312h-207z" />
<glyph unicode="#" horiz-adv-x="1640" d="M102 305v207h250l80 403h-211v209h252l64 312h204l-61 -312h403l64 314h205l-64 -314h250v-209h-291l-78 -403h244v-207h-285l-61 -305h-207l62 305h-406l-61 -307h-205l61 307h-209zM559 512h406l77 403h-405z" />
<glyph unicode="$" horiz-adv-x="1026" d="M102 739v424l123 123h185v156h206v-156h170v-207h-477v-256h490l125 -125v-417l-125 -123h-183v-156h-206v156h-166v207h473v249h-492z" />
<glyph unicode="%" horiz-adv-x="1857" d="M102 741v580l123 123h578l125 -123v-453l338 568h190l-362 -607h536l125 -124v-580l-125 -125h-577l-123 125v426l-332 -551h-188l366 616h-551zM309 825h412v412h-412v-412zM1137 207h411v416h-411v-416z" />
<glyph unicode="&#x26;" horiz-adv-x="1396" d="M102 125v1188l123 125h498v-207h-414v-408h662v312h207v-312h157v-209h-157v-614h-953zM309 207h662v407h-662v-407z" />
<glyph unicode="'" horiz-adv-x="411" d="M102 1126v312h207v-312h-207z" />
<glyph unicode="(" horiz-adv-x="559" d="M96 -29v1495l123 125h238v-209h-154v-1327h154v-209h-238z" />
<glyph unicode=")" horiz-adv-x="559" d="M94 55h154v1327h-154v209h236l125 -125v-1495l-125 -125h-236v209z" />
<glyph unicode="*" horiz-adv-x="1560" d="M59 616v209h473l-329 328l145 147l334 -331v471h207v-482l336 336l145 -147l-321 -322h446v-209h-465l334 -331l-147 -146l-328 328v-465h-207v457l-328 -326l-145 148l340 335h-490z" />
<glyph unicode="+" horiz-adv-x="1540" d="M53 614v209h623v615h207v-615h606v-209h-606v-614h-207v614h-623z" />
<glyph unicode="," horiz-adv-x="411" d="M102 0v207h207v-236l-53 -53v82h-154z" />
<glyph unicode="-" horiz-adv-x="624" d="M53 614v209h522v-209h-522z" />
<glyph unicode="." horiz-adv-x="411" d="M102 0v207h207v-207h-207z" />
<glyph unicode="/" horiz-adv-x="540" d="M31 0l286 1438h207l-286 -1438h-207z" />
<glyph unicode="0" horiz-adv-x="1230" d="M102 125v1188l123 125h779l124 -125v-1188l-124 -125h-779zM309 207h613v1024h-613v-1024zM508 618v209h209v-209h-209z" />
<glyph unicode="1" horiz-adv-x="718" d="M102 1231v207h390l124 -125v-1313h-206v1231h-308z" />
<glyph unicode="2" horiz-adv-x="1230" d="M102 0v698l123 125h688v408h-811v207h893l125 -125v-574l-125 -125h-686v-407h811v-207h-1018z" />
<glyph unicode="3" d="M102 614v209h824v408h-820v207h902l125 -125v-420l-175 -174l175 -174v-420l-125 -125h-902v207h820v407h-824z" />
<glyph unicode="4" d="M102 739v699h207v-615h617v615h207v-1438h-207v614h-701z" />
<glyph unicode="5" d="M102 0v207h818v407h-695l-123 125v699h1024v-207h-817v-408h692l125 -125v-573l-125 -125h-899z" />
<glyph unicode="6" d="M102 125v1188l123 125h903v-207h-819v-408h695l124 -125v-573l-124 -125h-779zM309 207h613v407h-613v-407z" />
<glyph unicode="7" d="M102 1231v207l899 2l125 -125v-1313h-206v1231z" />
<glyph unicode="8" d="M102 125v420l174 174l-174 174v420l123 125h785l125 -125v-420l-174 -174l174 -174v-420l-125 -125h-785zM309 207h619v407h-619v-407zM309 823h619v408h-619v-408z" />
<glyph unicode="9" horiz-adv-x="1230" d="M102 0v207h818v407h-695l-123 125v574l123 125h776l125 -125v-1188l-125 -125h-899zM309 823h611v408h-611v-408z" />
<glyph unicode=":" horiz-adv-x="411" d="M102 0v207h207v-207h-207zM102 924v206h207v-206h-207z" />
<glyph unicode=";" horiz-adv-x="411" d="M102 0v207h207v-236l-53 -53v82h-154zM102 924v206h207v-206h-207z" />
<glyph unicode="&#x3c;" horiz-adv-x="784" d="M63 674v168l611 446v-280l-426 -244l426 -320v-282z" />
<glyph unicode="=" horiz-adv-x="1640" d="M102 305v207h1436v-207h-1436zM102 915v209h1436v-209h-1436z" />
<glyph unicode="&#x3e;" horiz-adv-x="784" d="M102 162v282l424 320l-424 244v280l611 -446v-168z" />
<glyph unicode="?" horiz-adv-x="1026" d="M102 0v207h207v-207h-207zM102 463v235l123 125h492v408h-615v207h697l125 -125v-574l-125 -125h-490v-151h-207z" />
<glyph unicode="@" horiz-adv-x="1536" d="M102 -23v1438l123 123h1088l125 -123v-1413h-701l-123 125v680l123 125h494v399h-922v-1497zM821 211h410v512h-410v-512z" />
<glyph unicode="A" horiz-adv-x="1628" d="M102 0v1313l123 125h1178l123 -125v-1313h-207v614h-1010v-614h-207zM309 823h1010v408h-1010v-408z" />
<glyph unicode="B" horiz-adv-x="1628" d="M102 0v1438h1301l123 -125v-420l-174 -174l174 -174v-420l-123 -125h-1301zM309 207h1010v407h-1010v-407zM309 823h1010v408h-1010v-408z" />
<glyph unicode="C" horiz-adv-x="1628" d="M102 125v1188l123 125l1301 2v-209h-1217v-1024h1217v-207h-1301z" />
<glyph unicode="D" horiz-adv-x="1728" d="M152 0v1438h1300l125 -125v-1188l-125 -125h-1300zM360 207h1008v1024h-1008v-1024z" />
<glyph unicode="E" horiz-adv-x="1630" d="M102 125v1188l123 125h1301v-207h-1217v-408h1219v-209h-1219v-407h1217v-207h-1301z" />
<glyph unicode="F" horiz-adv-x="1630" d="M102 0v1313l123 125h1301v-207h-1217v-408h1219v-209h-1219v-614h-207z" />
<glyph unicode="G" horiz-adv-x="1486" d="M102 125v1188l123 125h1159v-207h-1075v-1024h869v407h-459v209h665v-823h-1159z" />
<glyph unicode="H" horiz-adv-x="1636" d="M102 0v1438h207v-615h1018v615h207v-1438h-207v614h-1018v-614h-207z" />
<glyph unicode="I" horiz-adv-x="411" d="M102 0v1438h207v-1438h-207z" />
<glyph unicode="J" horiz-adv-x="1183" d="M102 0v207h772v1231h207v-1313l-125 -125h-854z" />
<glyph unicode="K" horiz-adv-x="1636" d="M102 0v1438h207v-615h1018v615h207v-545l-174 -174l174 -174v-545h-207v614h-1018v-614h-207z" />
<glyph unicode="L" horiz-adv-x="1032" d="M102 125v1313h207v-1231h621v-207h-705z" />
<glyph unicode="M" horiz-adv-x="1636" d="M102 0v1438h1307l125 -125v-1313h-207v1231h-407v-1231h-207v1231h-404v-1231h-207z" />
<glyph unicode="N" horiz-adv-x="1636" d="M102 0v1438h1307l125 -125v-1317h-207v1235h-1018v-1231h-207z" />
<glyph unicode="O" horiz-adv-x="1630" d="M102 125v1188l123 125h1180l123 -125v-1188l-123 -125h-1180zM309 207h1012v1024h-1012v-1024z" />
<glyph unicode="P" horiz-adv-x="1630" d="M102 0v1438h1303l123 -125v-574l-123 -125h-1096v-614h-207zM309 823h1012v408h-1012v-408z" />
<glyph unicode="Q" horiz-adv-x="1628" d="M102 125v1188l123 125h1178l123 -125v-1188l-123 -125h-483v-301h-207v301h-488zM309 207h1010v1024h-1010v-1024z" />
<glyph unicode="R" horiz-adv-x="1630" d="M102 0v1438h1303l123 -125v-420l-174 -174l174 -174v-545h-207v614h-1012v-614h-207zM309 823h1012v408h-1012v-408z" />
<glyph unicode="S" horiz-adv-x="1622" d="M102 0v207h1211v407h-1088l-123 125v574l123 125h1295v-207h-1211v-408h1086l125 -125v-573l-125 -125h-1293z" />
<glyph unicode="T" horiz-adv-x="1636" d="M102 1231v207l1432 2v-209h-604v-1229h-207v1231z" />
<glyph unicode="U" horiz-adv-x="1634" d="M102 125v1313h207v-1231h1016v1231h207v-1313l-123 -125h-1184z" />
<glyph unicode="V" horiz-adv-x="1327" d="M102 0v1438h207v-1231h709v1231h207v-1313l-125 -125h-998z" />
<glyph unicode="W" horiz-adv-x="1638" d="M102 125v1313h207v-1231h408v1231h207v-1231h405v1231h207v-1438h-1311z" />
<glyph unicode="X" horiz-adv-x="1628" d="M102 0v545l174 174l-174 174v545h207v-615h1010v615h207v-545l-174 -174l174 -174v-545h-207v614h-1010v-614h-207z" />
<glyph unicode="Y" horiz-adv-x="1624" d="M102 739v699h207v-615h1006v615h207v-699l-125 -125h-473v-614h-207v614h-492z" />
<glyph unicode="Z" horiz-adv-x="1630" d="M102 0v698l123 125h1096v408h-1219v207h1426v-699l-123 -125h-1096v-407h1219v-207h-1426z" />
<glyph unicode="[" horiz-adv-x="565" d="M102 -154v1745h361v-209h-154v-1327h154v-209h-361z" />
<glyph unicode="\" horiz-adv-x="544" d="M23 1438h206l287 -1438h-207z" />
<glyph unicode="]" horiz-adv-x="565" d="M102 55h154v1327h-154v209h361v-1745h-361v209z" />
<glyph unicode="^" horiz-adv-x="780" d="M29 1065l274 276h176l277 -276l-146 -145l-217 217l-217 -217z" />
<glyph unicode="_" horiz-adv-x="1128" d="M0 -98h1128v-207h-1128v207z" />
<glyph unicode="`" horiz-adv-x="1189" d="M473 1825l82 84l160 -162l-82 -84z" />
<glyph unicode="a" d="M102 0v1313l123 125h774l127 -125v-1313h-206v614h-611v-614h-207zM309 823h611v408h-611v-408z" />
<glyph unicode="b" d="M102 0v1438h902l124 -125v-420l-174 -174l174 -174v-420l-124 -125h-902zM309 207h613v407h-613v-407zM309 823h613v408h-613v-408z" />
<glyph unicode="c" d="M102 125v1188l123 125h901v-207h-817v-1024h817v-207h-901z" />
<glyph unicode="d" horiz-adv-x="1236" d="M102 0v1438h908l125 -125v-1188l-125 -125h-908zM309 207h619v1024h-619v-1024z" />
<glyph unicode="e" horiz-adv-x="1230" d="M102 125v1188l123 125h897v-207h-813v-408h815v-209h-815v-407h813v-207h-897z" />
<glyph unicode="f" horiz-adv-x="1230" d="M102 0v1313l123 125l893 2v-209h-809v-408h811v-209h-811v-614h-207z" />
<glyph unicode="g" horiz-adv-x="1230" d="M102 125v1188l123 125h897v-207h-813v-1024h606v407h-249v209h456v-823h-897z" />
<glyph unicode="h" horiz-adv-x="1236" d="M102 0v1438h207v-615h604v615h207v-1438h-207v614h-604v-614h-207z" />
<glyph unicode="i" horiz-adv-x="411" d="M102 0v1438h207v-1438h-207z" />
<glyph unicode="j" horiz-adv-x="821" d="M102 0v207h402v1231h207v-1313l-125 -125h-484z" />
<glyph unicode="k" d="M102 0v1438h207v-615h611v613h206v-543l-174 -174l174 -174v-547h-206v616h-611v-614h-207z" />
<glyph unicode="l" horiz-adv-x="819" d="M102 125v1313h207v-1231h400v-207h-484z" />
<glyph unicode="m" horiz-adv-x="1437" d="M102 0v1438h1108l125 -125v-1313h-207v1231h-305v-1231h-207v1231h-307v-1231h-207z" />
<glyph unicode="n" d="M102 0v1438h902l124 -125v-1313h-206v1231h-613v-1231h-207z" />
<glyph unicode="o" d="M102 125v1188l123 125h781l124 -125v-1188l-124 -125h-781zM309 207h615v1024h-615v-1024z" />
<glyph unicode="p" horiz-adv-x="1230" d="M102 0v1438h899l125 -125v-574l-125 -125h-692v-614h-207zM309 823h611v408h-611v-408z" />
<glyph unicode="q" horiz-adv-x="1234" d="M102 125v1188l123 125h781l124 -125v-1188l-124 -125h-277v-301h-207v301h-297zM309 207h615v1024h-615v-1024z" />
<glyph unicode="r" horiz-adv-x="1230" d="M102 0v1438h902l124 -125v-420l-174 -174l174 -174v-545h-206v614h-613v-614h-207zM309 823h613v408h-613v-408z" />
<glyph unicode="s" horiz-adv-x="1230" d="M102 0v207h813v407h-690l-123 125v574l123 125h897v-207h-813v-408h688l125 -125v-573l-125 -125h-895z" />
<glyph unicode="t" d="M102 1231v207l1022 2v-209h-399v-1231h-207v1231h-416z" />
<glyph unicode="u" horiz-adv-x="1230" d="M102 125v1313h207v-1231h617v1231h207v-1313l-125 -125h-783z" />
<glyph unicode="v" horiz-adv-x="1126" d="M102 0v1438h207v-1231h498v1231h207v-1313l-123 -125h-789z" />
<glyph unicode="w" horiz-adv-x="1443" d="M102 125v1313h207v-1231h309v1231h207v-1231h305v1231h207v-1438h-1112z" />
<glyph unicode="x" d="M102 0v545l174 174l-174 174v545h207v-615h617v615h207v-545l-175 -174l175 -174v-545h-207v614h-617v-614h-207z" />
<glyph unicode="y" d="M102 739v699h207v-615h619v615h207v-699l-125 -125h-293v-614h-207v614h-285z" />
<glyph unicode="z" d="M102 0v698l123 125h697v408h-820v207h1026v-699l-124 -125h-695v-407h819v-207h-1026z" />
<glyph unicode="{" horiz-adv-x="698" d="M102 719l134 133v614l124 125h238v-209h-156v-489l-174 -174l174 -174v-490h156v-209h-238l-124 125v615z" />
<glyph unicode="|" horiz-adv-x="411" d="M102 -209v1851h207v-1851h-207z" />
<glyph unicode="}" horiz-adv-x="698" d="M102 55h154v490l174 174l-174 174v489h-154v209h238l123 -125v-614l133 -133l-133 -133v-615l-123 -125h-238v209z" />
<glyph unicode="~" horiz-adv-x="1095" d="M29 1171l145 148l215 -217l240 237h176l274 -276l-145 -145l-219 215l-236 -238h-176z" />
<glyph unicode="&#xa2;" horiz-adv-x="915" d="M102 281v882l123 123h185v156h206v-156h209v-207h-516v-714h518v-207h-211v-156h-206v156h-195z" />
<glyph unicode="&#xa3;" horiz-adv-x="1091" d="M63 401v209h205v215h-205v209h205v279l123 125h543v-207h-459v-197h307v-209h-307v-215h307v-209h-307v-194h557v-209h-966v209h202v194h-205z" />
<glyph unicode="&#xa5;" d="M102 844v594h207v-510h619v510h207v-594l-125 -125h-293v-305h407v-207h-407v-207h-207v207h-406v207h406v305h-285z" />
<glyph unicode="&#xa9;" horiz-adv-x="1630" d="M102 125v1188l123 125h1180l123 -125v-1188l-123 -125h-1180zM309 207h1012v1024h-1012v-1024zM522 508v418l123 125h467v-207h-383v-252h383v-209h-467z" />
<glyph unicode="&#xad;" horiz-adv-x="624" d="M53 614v209h522v-209h-522z" />
<glyph unicode="&#xae;" horiz-adv-x="1630" d="M102 125v1188l123 125h1180l123 -125v-1188l-123 -125h-1180zM309 207h1012v1024h-1012v-1024zM522 383v543l123 125h467v-207h-383v-461h-207z" />
<glyph unicode="&#xb4;" horiz-adv-x="1189" d="M473 1747l160 162l82 -84l-160 -162z" />
<glyph unicode="&#x2000;" horiz-adv-x="954" />
<glyph unicode="&#x2001;" horiz-adv-x="1908" />
<glyph unicode="&#x2002;" horiz-adv-x="954" />
<glyph unicode="&#x2003;" horiz-adv-x="1908" />
<glyph unicode="&#x2004;" horiz-adv-x="634" />
<glyph unicode="&#x2005;" horiz-adv-x="477" />
<glyph unicode="&#x2006;" horiz-adv-x="317" />
<glyph unicode="&#x2007;" horiz-adv-x="317" />
<glyph unicode="&#x2008;" horiz-adv-x="237" />
<glyph unicode="&#x2009;" horiz-adv-x="380" />
<glyph unicode="&#x200a;" horiz-adv-x="104" />
<glyph unicode="&#x2010;" horiz-adv-x="624" d="M53 614v209h522v-209h-522z" />
<glyph unicode="&#x2011;" horiz-adv-x="624" d="M53 614v209h522v-209h-522z" />
<glyph unicode="&#x2012;" horiz-adv-x="624" d="M53 614v209h522v-209h-522z" />
<glyph unicode="&#x2013;" horiz-adv-x="1333" d="M102 614v209h1131l-2 -209h-1129z" />
<glyph unicode="&#x2014;" horiz-adv-x="1437" d="M102 614v209h1237l-2 -209h-1235z" />
<glyph unicode="&#x2018;" horiz-adv-x="411" d="M102 1126v312h207v-312h-207z" />
<glyph unicode="&#x2019;" horiz-adv-x="411" d="M102 1126v312h207v-312h-207z" />
<glyph unicode="&#x201c;" horiz-adv-x="819" d="M102 1126v312h207v-312h-207zM512 1126v312h207v-312h-207z" />
<glyph unicode="&#x201d;" horiz-adv-x="819" d="M102 1126v312h207v-312h-207zM512 1126v312h207v-312h-207z" />
<glyph unicode="&#x2022;" horiz-adv-x="821" d="M102 596v356l115 76h381l115 -76v-356l-117 -78h-379z" />
<glyph unicode="&#x2026;" horiz-adv-x="1437" d="M102 0v207h207v-207h-207zM623 0v207h206v-207h-206zM1133 -2v209h206v-209h-206z" />
<glyph unicode="&#x202f;" horiz-adv-x="380" />
<glyph unicode="&#x205f;" horiz-adv-x="477" />
<glyph unicode="&#x2122;" horiz-adv-x="1982" d="M53 1231v207l617 2v-209h-199v-617h-207v617h-211zM874 614v824h910l125 -125v-699h-207v617h-207v-617h-207v617h-207v-617h-207z" />
<glyph unicode="&#xe000;" horiz-adv-x="1440" d="M0 1440h1440v-1440h-1440v1440z" />
<glyph unicode="&#xfb01;" horiz-adv-x="1642" d="M1333 0v1438h207v-1438h-207zM102 0v1313l123 125l893 2v-209h-809v-408h811v-209h-811v-614h-207z" />
<glyph unicode="&#xfb02;" horiz-adv-x="2050" d="M1333 125v1313h207v-1231h400v-207h-484zM102 0v1313l123 125l893 2v-209h-809v-408h811v-209h-811v-614h-207z" />
<glyph unicode="&#xfb03;" horiz-adv-x="2873" d="M2564 0v1438h207v-1438h-207zM1333 0v1313l123 125l893 2v-209h-809v-408h811v-209h-811v-614h-207zM102 0v1313l123 125l893 2v-209h-809v-408h811v-209h-811v-614h-207z" />
<glyph unicode="&#xfb04;" horiz-adv-x="3280" d="M2564 125v1313h207v-1231h400v-207h-484zM1333 0v1313l123 125l893 2v-209h-809v-408h811v-209h-811v-614h-207zM102 0v1313l123 125l893 2v-209h-809v-408h811v-209h-811v-614h-207z" />
</font>
</defs>
</svg>
