<svg width="24" height="24" viewBox="0 0 24 24" fill="none" xmlns="http://www.w3.org/2000/svg">
<path d="M22.46 7.57002L12.357 2.11502C12.134 1.99502 11.867 1.99502 11.644 2.11502L1.54299 7.57002C1.17899 7.76702 1.04299 8.22202 1.23999 8.58702C1.37499 8.83702 1.63399 8.98002 1.89999 8.98002C2.01999 8.98002 2.14299 8.95002 2.25599 8.89002L3.07099 8.45002L4.69999 19.963C4.91399 21.178 6.00799 22.025 7.35799 22.025H16.64C17.992 22.025 19.085 21.177 19.303 19.938L20.929 8.44802L21.747 8.89002C22.111 9.08302 22.567 8.95002 22.764 8.58602C22.96 8.22302 22.824 7.76802 22.46 7.57002V7.57002ZM17.822 19.703C17.715 20.309 17.119 20.525 16.642 20.525H7.35999C6.87999 20.525 6.28499 20.309 6.18199 19.727L4.47999 7.69002L12 3.62802L19.522 7.68802L17.822 19.703V19.703Z" fill="#E1E8ED"/>
<path d="M8.21997 12.1841C8.21997 14.2681 9.91497 15.9641 12 15.9641C14.085 15.9641 15.78 14.2681 15.78 12.1841C15.78 10.1001 14.085 8.40405 12 8.40405C9.91497 8.40405 8.21997 10.1001 8.21997 12.1841ZM14.28 12.1841C14.28 13.4421 13.258 14.4641 12 14.4641C10.742 14.4641 9.71997 13.4421 9.71997 12.1841C9.71997 10.9261 10.742 9.90405 12 9.90405C13.258 9.90405 14.28 10.9261 14.28 12.1841Z" fill="#E1E8ED"/>
</svg>
