<svg width="24" height="24" viewBox="0 0 24 24" fill="none" xmlns="http://www.w3.org/2000/svg">
<path d="M21.697 16.468C21.677 16.452 19.557 14.828 19.594 10.438C19.614 7.90599 18.782 5.65599 17.247 4.10299C15.872 2.70999 14.01 1.93999 12.005 1.92999H11.992C9.98797 1.93999 8.12597 2.70999 6.74997 4.10399C5.21597 5.65699 4.38197 7.90599 4.40397 10.438C4.44097 14.768 2.38397 16.405 2.30197 16.468C2.04197 16.661 1.93597 16.998 2.03697 17.306C2.13897 17.614 2.42697 17.821 2.74897 17.821H7.66897C7.77097 20.131 9.66597 21.981 11.999 21.981C14.332 21.981 16.225 20.131 16.326 17.821H21.248C21.57 17.821 21.858 17.615 21.958 17.307C22.061 17 21.955 16.662 21.695 16.469L21.697 16.468ZM12 20.478C10.495 20.478 9.26997 19.301 9.17197 17.82H14.828C14.728 19.3 13.505 20.48 12 20.48V20.478ZM4.37997 16.32C5.11997 15.188 5.92797 13.292 5.90397 10.424C5.88597 8.26399 6.54797 6.44199 7.81697 5.15699C8.90997 4.04999 10.397 3.43699 12 3.42999C13.603 3.43799 15.087 4.04999 16.18 5.15799C17.45 6.44299 18.113 8.26399 18.095 10.425C18.071 13.293 18.88 15.19 19.62 16.321H4.37997V16.32Z" fill="#E1E8ED"/>
</svg>
