<svg width="24" height="24" viewBox="0 0 24 24" fill="none" xmlns="http://www.w3.org/2000/svg">
<path d="M21.697 16.468C21.677 16.452 19.557 14.828 19.594 10.438C19.614 7.90501 18.782 5.65601 17.247 4.10401C15.872 2.71101 14.01 1.94001 12.005 1.93201H11.992C9.98797 1.94001 8.12597 2.71201 6.74997 4.10401C5.21597 5.65701 4.38297 7.90601 4.40397 10.437C4.44097 14.769 2.38397 16.404 2.30197 16.467C2.04197 16.661 1.93597 16.997 2.03697 17.305C2.13797 17.613 2.42697 17.82 2.74997 17.82H7.24397C7.34397 20.364 9.43198 22.407 12 22.407C14.568 22.407 16.655 20.364 16.756 17.82H21.25C21.574 17.82 21.86 17.612 21.962 17.305C22.064 16.998 21.957 16.661 21.697 16.468V16.468ZM12 20.408C10.534 20.408 9.34298 19.261 9.24398 17.82H14.756C14.656 19.26 13.466 20.407 12 20.407V20.408Z" fill="#E1E8ED"/>
</svg>
