<svg width="22" height="22" viewBox="0 0 22 22" fill="none" xmlns="http://www.w3.org/2000/svg">
<path d="M9.25 3.25C5.936 3.25 3.25 5.936 3.25 9.25C3.25 12.564 5.936 15.25 9.25 15.25C10.907 15.25 12.405 14.58 13.493 13.493C14.58 12.405 15.25 10.907 15.25 9.25C15.25 5.936 12.564 3.25 9.25 3.25ZM0.25 9.25C0.25 4.279 4.279 0.25 9.25 0.25C14.221 0.25 18.25 4.279 18.25 9.25C18.25 11.193 17.633 12.994 16.586 14.465L21.061 18.939L18.939 21.061L14.465 16.586C12.994 17.633 11.193 18.25 9.25 18.25C4.279 18.25 0.25 14.221 0.25 9.25Z" fill="#E1E8ED"/>
</svg>