<svg width="24" height="24" viewBox="0 0 24 24" fill="none" xmlns="http://www.w3.org/2000/svg">
<path d="M19.75 22H4.25C3.01 22 2 20.99 2 19.75V4.25C2 3.01 3.01 2 4.25 2H19.75C20.99 2 22 3.01 22 4.25V19.75C22 20.99 20.99 22 19.75 22ZM4.25 3.5C3.836 3.5 3.5 3.837 3.5 4.25V19.75C3.5 20.163 3.836 20.5 4.25 20.5H19.75C20.164 20.5 20.5 20.163 20.5 19.75V4.25C20.5 3.837 20.164 3.5 19.75 3.5H4.25Z" fill="#E1E8ED"/>
<path d="M17 8.64002H7C6.586 8.64002 6.25 8.30301 6.25 7.89001C6.25 7.47701 6.586 7.14001 7 7.14001H17C17.414 7.14001 17.75 7.47501 17.75 7.89001C17.75 8.30501 17.414 8.64002 17 8.64002ZM17 12.75H7C6.586 12.75 6.25 12.414 6.25 12C6.25 11.586 6.586 11.25 7 11.25H17C17.414 11.25 17.75 11.586 17.75 12C17.75 12.414 17.414 12.75 17 12.75ZM12 16.86H7C6.586 16.86 6.25 16.525 6.25 16.11C6.25 15.695 6.586 15.36 7 15.36H12C12.414 15.36 12.75 15.697 12.75 16.11C12.75 16.523 12.414 16.86 12 16.86Z" fill="#E1E8ED"/>
</svg>
