<svg width="24" height="24" viewBox="0 0 24 24" fill="none" xmlns="http://www.w3.org/2000/svg">
<path d="M19.75 2H4.25C3.013 2 2 3.013 2 4.25V19.75C2 20.987 3.013 22 4.25 22H19.75C20.987 22 22 20.987 22 19.75V4.25C22 3.013 20.987 2 19.75 2ZM11 16.75H7C6.586 16.75 6.25 16.414 6.25 16C6.25 15.586 6.586 15.25 7 15.25H11C11.414 15.25 11.75 15.586 11.75 16C11.75 16.414 11.414 16.75 11 16.75ZM17 12.75H7C6.586 12.75 6.25 12.414 6.25 12C6.25 11.586 6.586 11.25 7 11.25H17C17.414 11.25 17.75 11.586 17.75 12C17.75 12.414 17.414 12.75 17 12.75ZM17 8.75H7C6.586 8.75 6.25 8.414 6.25 8C6.25 7.586 6.586 7.25 7 7.25H17C17.414 7.25 17.75 7.586 17.75 8C17.75 8.414 17.414 8.75 17 8.75Z" fill="#E1E8ED"/>
</svg>
