<svg width="24" height="24" viewBox="0 0 24 24" fill="none" xmlns="http://www.w3.org/2000/svg">
<path d="M11.55 12.082C11.823 12.264 12.177 12.264 12.45 12.082L22 5.716V5.5C22 4.26 20.99 3.25 19.75 3.25H4.25C3.01 3.25 2 4.26 2 5.5V5.697L11.55 12.082Z" fill="#E1E8ED"/>
<path d="M13.26 13.295C12.877 13.55 12.44 13.677 12 13.677C11.56 13.677 11.123 13.55 10.74 13.294L2 7.45203V19.122C2 20.362 3.01 21.372 4.25 21.372H19.75C20.99 21.372 22 20.362 22 19.122V7.47003L13.26 13.293V13.295Z" fill="#E1E8ED"/>
</svg>
