<svg width="24" height="24" viewBox="0 0 24 24" fill="none" xmlns="http://www.w3.org/2000/svg">
<path d="M19.25 3.01801H4.75C3.233 3.01801 2 4.25201 2 5.77001V18.265C2 19.783 3.233 21.018 4.75 21.018H19.25C20.767 21.018 22 19.783 22 18.265V5.77001C22 4.25201 20.767 3.01801 19.25 3.01801ZM4.75 4.51801H19.25C19.94 4.51801 20.5 5.07801 20.5 5.76801V6.48201L12.45 11.849C12.177 12.029 11.824 12.031 11.55 11.847L3.5 6.48201V5.76801C3.5 5.07801 4.06 4.51801 4.75 4.51801V4.51801ZM19.25 19.516H4.75C4.06 19.516 3.5 18.956 3.5 18.266V8.24001L10.74 13.07C11.123 13.326 11.562 13.454 12 13.454C12.44 13.454 12.877 13.326 13.26 13.071L20.5 8.24101V18.263C20.5 18.953 19.94 19.513 19.25 19.513V19.516Z" fill="#E1E8ED"/>
</svg>
