<svg width="24" height="24" viewBox="0 0 22 22" fill="none" xmlns="http://www.w3.org/2000/svg">
<path d="M2.75 11C2.75 6.44 6.44 2.75 11 2.75C15.56 2.75 19.25 6.44 19.25 11C19.25 15.56 15.56 19.25 11 19.25C6.44 19.25 2.75 15.56 2.75 11ZM11 0.75C5.34 0.75 0.75 5.34 0.75 11C0.75 16.66 5.34 21.25 11 21.25C16.66 21.25 21.25 16.66 21.25 11C21.25 5.34 16.66 0.75 11 0.75ZM6.25 12.25C6.94 12.25 7.5 11.69 7.5 11C7.5 10.31 6.94 9.75 6.25 9.75C5.56 9.75 5 10.31 5 11C5 11.69 5.56 12.25 6.25 12.25ZM15.75 12.25C16.44 12.25 17 11.69 17 11C17 10.31 16.44 9.75 15.75 9.75C15.06 9.75 14.5 10.31 14.5 11C14.5 11.69 15.06 12.25 15.75 12.25ZM12.25 11C12.25 11.69 11.69 12.25 11 12.25C10.31 12.25 9.75 11.69 9.75 11C9.75 10.31 10.31 9.75 11 9.75C11.69 9.75 12.25 10.31 12.25 11Z" fill="#E1E8ED"/>
</svg>