<svg width="389" height="121" viewBox="0 0 389 121" fill="none" xmlns="http://www.w3.org/2000/svg">
<path d="M102.389 86.5916C103.444 86.4644 104.141 86.7444 103.783 87.1514L104.587 87.2472L104.771 87.3535C105.061 87.2757 105.168 87.0916 105.274 86.9076L105.09 86.8013L104.906 86.695C105.012 86.511 105.118 86.3269 105.225 86.1429L105.331 85.9588L105.94 85.3288L106.114 84.8155C106.337 85.067 106.627 84.9892 106.588 84.844C106.549 84.6988 106.907 84.2918 107.158 84.0689C107.41 83.8459 108.32 83.7577 108.465 83.7188C108.571 83.5347 109.007 83.418 109.113 83.234L109.364 83.011C109.364 83.011 110.157 82.4873 110.912 81.8184L111.822 81.7302L111.967 81.6913C112.112 81.6524 112.218 81.4684 112.363 81.4295C112.47 81.2454 112.972 80.7995 113.302 80.8669C113.592 80.7891 114.385 80.2654 114.782 80.0035L115.217 79.8868L115.362 79.8479C115.547 79.9542 115.798 79.7312 116.049 79.5082C116.156 79.3242 116.765 78.6942 117.016 78.4713C117.307 78.3935 118.206 77.6857 118.748 77.385L119.328 77.2294L119.764 77.1127C120.122 76.7057 120.586 76.1146 120.837 75.8916C121.05 75.5235 122.328 75.6478 122.618 75.57L122.724 75.3859C122.83 75.2019 122.898 74.8727 123.004 74.6886C123.333 74.756 123.875 74.4552 124.272 74.1934C124.668 73.9315 125.964 72.9619 126.148 73.0682C126.332 73.1744 127.232 72.4667 127.483 72.2437L127.735 72.0208L128.16 71.2845C128.818 71.4193 129.438 71.4088 129.399 71.2636L129.36 71.1185L129.282 70.8282C129.573 70.7504 129.969 70.4885 130.075 70.3045C130.182 70.1204 130.975 69.5967 131.042 69.2675C131.255 68.8993 132.281 69.2466 132.388 69.0626C132.388 69.0626 133.036 68.5778 133.393 68.1707C133.79 67.9089 134.941 66.9781 134.902 66.833C134.902 66.833 135.444 66.5322 135.879 66.4155C136.46 66.2599 137.756 65.2903 137.795 65.4355C137.94 65.3966 138.482 65.0959 138.985 64.65C139.487 64.204 141.045 63.631 141.191 63.5921C141.191 63.5921 141.442 63.3691 141.297 63.408C141.152 63.4469 141.035 63.0114 141.393 62.6044C141.75 62.1974 143.174 62.2828 143.319 62.2439C143.319 62.2439 143.822 61.798 144.073 61.5751C144.324 61.3521 145.302 60.9346 145.408 60.7506L145.514 60.5665C145.621 60.3825 145.727 60.1984 145.872 60.1595L146.307 60.0428C146.782 60.0713 147.285 59.6254 147.497 59.2573L147.749 59.0343L148.145 58.7724C148.726 58.6169 149.491 58.5676 149.926 58.4509C150.4 58.4793 151.619 57.2194 151.976 56.8123C152.479 56.3664 154.444 56.1511 155.064 56.1407L155.421 55.7337C155.528 55.5496 155.924 55.2878 156.215 55.21L156.611 54.9481C157.086 54.9766 157.812 54.7821 158.063 54.5591L158.46 54.2973C158.605 54.2584 158.973 54.4709 159.118 54.432L159.699 54.2765C160.386 53.9368 161.072 53.5971 161.363 53.5193C161.653 53.4416 162.457 53.5374 162.853 53.2756C163.105 53.0526 164.489 52.9929 164.779 52.9151L165.07 52.8373L165.215 52.7984C165.36 52.7595 165.757 52.4976 166.337 52.342C166.773 52.2253 168.816 52.3003 169.725 52.2121C170.635 52.1239 173.829 51.2682 174.845 50.9959L175.765 51.5272C176.134 51.7398 176.424 51.662 176.781 51.255C177.111 51.3224 177.44 51.3897 177.585 51.3508C177.73 51.3119 178.021 51.2341 178.311 51.1563C178.601 51.0785 179.115 51.2522 179.483 51.4647C179.812 51.5321 180.877 52.0245 181.391 52.1982C181.904 52.3718 183.454 53.5123 184.084 54.1214L184.966 54.5076C184.859 54.6917 185.16 55.2334 185.567 55.5911C185.974 55.9488 186.905 57.0997 186.944 57.2449C186.983 57.3901 187.283 57.9318 187.545 58.3284L187.807 58.725C188.03 58.9764 188.756 58.7819 188.582 59.2952L188.448 59.9537C189.067 59.9433 189.58 60.1169 189.764 60.2231C189.949 60.3294 190.578 60.9385 190.985 61.2962L191.315 61.3636L191.934 61.3532C192.699 61.3039 193.57 61.0705 194.044 61.099C194.48 60.9823 195.931 60.5933 196.367 60.4766L196.657 60.3988L196.948 60.321C197.238 60.2432 197.819 60.0876 198.215 59.8258C198.467 59.6028 200.393 59.2424 200.605 58.8742L201.157 59.193C201.526 59.4056 201.409 58.9701 201.37 58.8249C201.253 58.3894 201.321 58.0602 201.979 58.1949L202.124 58.156C202.269 58.1171 202.482 57.749 202.404 57.4587L202.917 57.6323L203.102 57.7386C203.498 57.4767 203.895 57.2149 203.934 57.3601C204.118 57.4663 204.592 57.4948 204.592 57.4948L204.737 57.4559C205.53 56.9322 206.324 56.4085 206.972 55.9236L207.368 55.6618C207.91 55.3611 208.374 54.77 208.771 54.5082L209.245 54.5366L209.574 54.604C209.787 54.2359 210.144 53.8288 210.29 53.7899L210.435 53.751L210.58 53.7121C211.412 53.3336 212.099 52.9939 212.244 52.955C212.389 52.9161 212.825 52.7995 213.048 53.0509C213.416 53.2634 213.908 52.198 214.199 52.1202C214.489 52.0424 215.098 51.4124 215.243 51.3735C215.388 51.3346 215.93 51.0338 215.998 50.7046C216.065 50.3754 216.907 50.6164 216.868 50.4712C216.83 50.3261 217.478 49.8413 217.913 49.7246L218.349 49.6079L218.639 49.5301C218.929 49.4523 219.393 48.8612 219.751 48.4542L220.516 48.4049L220.99 48.4334C221.532 48.1326 222.112 47.977 222.364 47.7541C222.615 47.5311 223.263 47.0463 223.515 46.8233L223.844 46.8907C224.609 46.8414 225.15 46.5406 226.117 45.5036L226.263 45.4647C226.408 45.4258 227.133 45.2314 227.82 44.8917L228.178 44.4847L228.284 44.3006C228.575 44.2228 228.759 44.3291 228.652 44.5132L228.691 44.6583L228.769 44.9487C228.992 45.2001 229.137 45.1612 229.35 44.7931L229.562 44.4249L229.775 44.0568C230.172 43.795 230.607 43.6783 230.501 43.8624C230.394 44.0464 230.947 44.3652 231.779 43.9867C232.611 43.6081 234.565 42.7733 234.275 42.8511C233.946 42.7837 232.93 43.056 232.717 43.4241L232.466 43.647L232.359 43.8311C232.069 43.9089 231.885 43.8026 231.846 43.6575C231.807 43.5123 232.165 43.1053 232.377 42.7372C232.629 42.5142 233.935 42.1641 234.081 42.1252C234.226 42.0863 234.293 41.7571 234.477 41.8634C234.661 41.9696 235.532 41.7363 236.325 41.2125L236.828 40.7666C237.186 40.3596 237.37 40.4659 237.844 40.4944C238.503 40.6291 239.084 40.4735 239.547 39.8824L239.654 39.6984C239.944 39.6206 240.486 39.3198 240.776 39.242C241.066 39.1642 242.189 38.7079 242.663 38.7364L243.021 38.3294L243.379 37.9223C243.92 37.6216 244.356 37.5049 244.356 37.5049C244.356 37.5049 244.937 37.3493 245.517 37.1937C246.098 37.0381 247.656 36.4651 247.801 36.4262C247.907 36.2421 248.633 36.0477 249.146 36.2213C249.66 36.3949 251.246 35.3475 251.536 35.2697L251.827 35.192C252.117 35.1142 252.485 35.3267 252.63 35.2878C252.882 35.0648 252.804 34.7745 252.91 34.5904L253.016 34.4064C253.307 34.3286 253.597 34.2508 253.742 34.2119C253.926 34.3181 254.323 34.0563 254.468 34.0174C254.574 33.8333 254.971 33.5715 255.155 33.6777L255.3 33.6388C255.736 33.5222 256.355 33.5117 256.607 33.2888C256.964 32.8818 257.361 32.6199 257.874 32.7936C258.019 32.7547 258.271 32.5317 258.377 32.3476C258.483 32.1636 259.829 31.9587 260.158 32.0261C260.448 31.9483 261.426 31.5308 261.348 31.2405C261.27 30.9501 262.364 30.9682 262.693 31.0356C263.022 31.1029 264.474 30.714 264.803 30.7814C264.987 30.8876 265.451 30.2965 265.635 30.4028C265.781 30.3639 266.506 30.1694 266.613 29.9854C266.719 29.8013 267.657 29.2387 268.132 29.2672L268.461 29.3345L269.487 29.6818C269.042 29.179 269.109 28.8497 269.622 29.0234C270.096 29.0518 271.442 28.8469 271.626 28.9532C271.81 29.0595 272.284 29.088 272.391 28.9039C272.497 28.7198 272.738 27.8773 272.912 27.364L273.793 27.7502C274.306 27.9239 275.061 27.255 275.652 27.7189L275.836 27.8252C276.126 27.7474 276.523 27.4855 276.735 27.1174C276.987 26.8945 278.003 26.6222 278.583 26.4666L279.019 26.3499L279.309 26.2721C279.561 26.0492 280.141 25.8936 280.538 25.6317C280.973 25.515 282.754 25.1934 283.045 25.1156C283.335 25.0379 284.167 24.6593 284.206 24.8045C284.245 24.9496 284.758 25.1233 285.048 25.0455C285.339 24.9677 285.435 24.1641 285.435 24.1641C285.58 24.1252 286.345 24.0759 287.254 23.9877L287.941 23.648L288.087 23.6091C288.232 23.5702 288.812 23.4146 289.432 23.4042C290.051 23.3938 291.609 22.8207 292.268 22.9555L292.587 22.4033C292.799 22.0352 293.051 21.8122 293.206 22.3929C293.284 22.6832 293.719 22.5665 293.932 22.1984L294.183 21.9755C294.619 21.8588 295.161 21.558 295.412 21.335L295.702 21.2572L295.848 21.2183C296.032 21.3246 296.4 21.5372 296.545 21.4983C296.729 21.6045 297.6 21.3712 298.035 21.2545L298.181 21.2156L298.499 20.6634C299.013 20.837 299.487 20.8655 299.739 20.6425L299.99 20.4196L300.241 20.1966C301.112 19.9632 302.09 19.5458 302.486 19.284C302.883 19.0221 304.412 18.9235 305.032 18.913L305.39 18.506L305.747 18.099C306.222 18.1275 306.947 17.933 307.528 17.7774C308.109 17.6218 309.744 17.3391 309.851 17.1551L309.957 16.971C309.957 16.971 310.102 16.9321 310.141 17.0773C310.18 17.2224 310.654 17.2509 310.867 16.8828C311.079 16.5147 312.754 16.3771 313.19 16.2604C313.586 15.9986 314.903 16.268 314.903 16.268C314.903 16.268 315.3 16.0062 315.696 15.7444C316.093 15.4825 318.599 14.9664 319.035 14.8497L319.286 14.6268L319.432 14.5879C319.354 14.2976 319.46 14.1135 319.644 14.2197C319.828 14.326 320.448 14.3156 320.632 14.4219C320.777 14.383 321.57 13.8592 322.112 13.5585C322.509 13.2966 324.144 13.0139 324.328 13.1202C324.619 13.0424 325.635 12.7701 326.07 12.6534L326.506 12.5368L326.651 12.4979C326.718 12.1686 326.97 11.9457 327.299 12.013C327.628 12.0804 328.209 11.9248 328.46 11.7018C328.567 11.5178 329.622 11.3907 329.979 10.9837L330.57 11.4477C330.57 11.4477 331.112 11.1469 331.548 11.0302C331.944 10.7684 333.067 10.312 333.212 10.2731C333.502 10.1953 334.373 9.96192 334.702 10.0293C335.032 10.0967 335.931 9.38894 336.26 9.45631C336.589 9.52368 337.818 8.88328 338.108 8.80549C338.399 8.7277 339.202 8.82351 339.493 8.74571L339.744 8.52279C339.85 8.33872 340.141 8.26093 340.47 8.3283L340.944 8.35674C341.419 8.38522 342.183 8.33592 342.58 8.07407L342.977 7.81219L343.518 7.51148C344.244 7.317 345.406 7.00581 345.947 6.70506L346.538 7.16902L347.438 6.46127L347.583 6.42238C347.728 6.38348 348.454 6.18899 349.18 5.99451C350.051 5.76113 352.239 5.79722 352.384 5.75833C352.529 5.71943 353.322 5.1957 353.719 4.93384C354.115 4.67199 355.684 4.71853 355.684 4.71853C355.684 4.71853 356.449 4.66922 357.029 4.51363C357.61 4.35804 359.401 4.65602 359.546 4.61712C359.507 4.47195 359.575 4.14272 359.536 3.99755C359.497 3.85239 360.262 3.80308 360.697 3.68639C361.133 3.5697 362.149 3.29739 362.12 3.77178C362.053 4.101 363.834 3.77943 363.65 3.67316C363.611 3.528 363.494 3.09248 363.639 3.05359C363.785 3.01469 364.549 2.96538 364.84 2.88759C365.169 2.95496 366.436 2.45973 366.727 2.38193C367.017 2.30414 367.966 2.36111 368.256 2.28332C368.546 2.20552 369.233 1.86585 369.485 1.64289C369.736 1.41993 370.579 1.66096 370.724 1.62207C370.869 1.58317 371.556 1.24352 371.74 1.34979C372.03 1.272 372.834 1.36781 373.163 1.43518L373.415 1.21224L373.56 1.17332C373.889 1.24069 373.861 1.71511 373.648 2.08323L374.519 1.84984C374.955 1.73315 375.39 1.61647 375.128 1.21988L375.05 0.929528C375.302 0.706571 376.067 0.657247 376.502 0.540557L376.725 0.792021C376.948 1.04345 376.697 1.26637 376.261 1.38306C376.339 1.67339 376.562 1.92482 376.852 1.84703L376.958 1.66302C377.171 1.29489 377.238 0.965666 377.49 0.742708L377.741 0.519743C378.177 0.403053 378.651 0.431511 378.69 0.576675C378.729 0.721839 379.359 1.33098 379.872 1.50461C380.347 1.53309 381.391 0.78642 381.391 0.78642C381.391 0.78642 382.011 0.776006 382.485 0.804481C382.959 0.832955 384.227 0.337729 384.082 0.376625C383.976 0.560686 383.841 1.21911 383.919 1.50943L383.996 1.79978L384.113 2.23526C384.23 2.67075 384.637 3.02845 384.927 2.95066C385.256 3.01803 386.099 3.25906 386.216 3.69455C386.293 3.98488 385.394 4.69263 385.316 4.4023C385.238 4.11197 384.938 3.57022 384.831 3.75428C384.725 3.93834 384.59 4.59681 384.668 4.88714C384.746 5.17746 385.772 5.52475 386.024 5.30179C386.421 5.03993 387.398 4.62248 387.33 4.95171C387.263 5.28093 387.525 5.6775 387.603 5.96783C387.787 6.0741 388.126 6.76105 388.31 6.86732L388.456 6.82843C388.891 6.71174 389.114 6.96316 388.902 7.33128L388.834 7.66051C388.36 7.63204 387.846 7.45841 387.662 7.35215C387.662 7.35215 387.294 7.13961 387.372 7.42994C387.45 7.72027 387.276 8.23356 386.947 8.16619C386.724 7.91476 386.462 7.51813 386.423 7.37296C386.384 7.2278 385.871 7.05416 385.765 7.23822C385.659 7.42228 385.485 7.93557 385.379 8.11963C385.127 8.34259 384.557 9.11771 383.831 9.3122L383.212 9.32267L382.592 9.33309C381.866 9.52757 381.14 9.72205 381.101 9.57689C380.917 9.47062 380.443 9.44213 380.337 9.62619C380.231 9.81025 379.583 10.295 379.476 10.4791C379.37 10.6632 378.605 10.7125 378.354 10.9355C378.102 11.1584 376.863 11.1792 376.612 11.4022C376.36 11.6252 375.189 11.3168 374.753 11.4335C374.463 11.5113 373.234 12.1517 372.76 12.1232L372.324 12.2399L372.034 12.3177C371.598 12.4344 371.163 12.5511 371.163 12.5511C371.018 12.59 369.857 12.9011 368.589 13.3964C367.428 13.7075 363.983 14.7862 363.547 14.9029C363.073 14.8744 361.554 15.5926 360.828 15.7871L360.208 15.7976L359.734 15.7691C359.482 15.992 359.086 16.2539 358.834 16.4769L358.65 16.3706L357.479 16.0622C356.211 16.5574 354.905 16.9075 354.469 17.0242C354.034 17.1409 352.476 17.7139 352.04 17.8306C351.605 17.9473 350.008 18.3751 349.427 18.5307C348.992 18.6474 347.646 18.8523 347.618 19.3267L346.814 19.2309L346.195 19.2413C345.653 19.5421 344.927 19.7366 344.308 19.747L343.911 20.0088L343.514 20.2707C343.04 20.2422 342.498 20.5429 342.353 20.5818C342.102 20.8048 340.93 20.4964 340.417 20.3228C339.797 20.3332 338.25 21.5258 337.814 21.6424C337.233 21.798 335.782 22.1871 335.453 22.1197C335.123 22.0523 334.185 22.6149 333.895 22.6927C333.604 22.7705 332.588 23.0427 332.337 23.2657C332.085 23.4886 331.175 23.5769 330.885 23.6547C330.595 23.7325 329.579 24.0047 329.288 24.0825C328.998 24.1603 328.194 24.0645 328.194 24.0645C328.194 24.0645 327.217 24.4819 326.134 25.0834C325.195 25.646 322.94 25.9392 322.65 26.017C322.359 26.0947 321.092 26.59 320.511 26.7456C319.824 27.0852 317.201 27.1658 316.185 27.4381C315.168 27.7103 312.566 29.0301 312.421 29.069C312.276 29.1079 311.182 29.0898 310.272 29.178L309.663 29.808C309.411 30.031 308.965 29.5281 308.792 30.0414L308.724 30.3706C308.356 30.158 306.575 30.4796 304.794 30.8012L303.236 31.3743L302.801 31.491C302.365 31.6077 301.601 31.657 301.02 31.8126L300.585 31.9292C300.266 32.4814 299.926 31.7945 299.714 32.1626C299.356 32.5696 298.804 32.2508 298.368 32.3675L297.933 32.4842C297.536 32.7461 296.994 33.0469 296.743 33.2698C296.492 33.4928 295.398 33.4747 295.107 33.5525C294.856 33.7755 293.539 33.5059 293.249 33.5837C292.919 33.5164 292.204 34.3304 292.204 34.3304C292.204 34.3304 291.149 34.4575 290.094 34.5846L289.117 35.0021L288.72 35.264C288.139 35.4195 287.598 35.7203 287.307 35.7981C287.056 36.0211 285.739 35.7515 285.197 36.0523C284.617 36.2079 282.478 36.9365 281.858 36.9469L281.394 37.538L281.288 37.7221C280.814 37.6936 279.614 37.8596 278.597 38.1319C277.581 38.4042 275.085 39.5398 274.756 39.4724C274.426 39.405 273.672 40.0739 273.382 40.1517C273.13 40.3747 272.472 40.2399 272.327 40.2788C272.327 40.2788 271.785 40.5796 271.389 40.8414L270.953 40.9581L270.663 41.0359C270.333 40.9686 269.753 41.1241 269.317 41.2408L269.066 41.4638L268.708 41.8708C268.234 41.8423 267.469 41.8917 267.324 41.9305C267.034 42.0083 266.201 42.3869 266.134 42.7161C265.883 42.9391 264.934 42.8821 264.605 42.8147C264.314 42.8925 263.705 43.5225 263.27 43.6392C262.834 43.7559 261.528 44.106 261.237 44.1838C260.802 44.3005 259.283 45.0186 258.412 45.252C257.58 45.6305 254.822 46.3696 254.386 46.4863C253.951 46.603 252.616 47.4274 252.18 47.5441C251.89 47.6219 250.661 48.2623 250.226 48.379C249.79 48.4957 248.416 49.175 247.981 49.2917C247.545 49.4084 246.21 50.2328 245.814 50.4947C245.272 50.7954 243.385 51.3011 242.804 51.4567C242.224 51.6123 240.744 52.4756 240.492 52.6986C240.347 52.7375 239.476 52.9708 239.186 53.0486C238.895 53.1264 238.141 53.7953 237.851 53.8731C237.56 53.9509 236.332 54.5913 235.645 54.931C234.958 55.2706 232.607 56.3674 231.92 56.707C231.233 57.0467 229.501 58.133 229.172 58.0656C228.843 57.9982 228.379 58.5893 228.089 58.6671C227.943 58.706 227.295 59.1908 227.005 59.2686C226.715 59.3464 226.106 59.9764 225.815 60.0542C225.525 60.132 224.587 60.6945 224.045 60.9953C223.503 61.2961 221.772 62.3824 221.23 62.6831C220.688 62.9839 218.415 64.3709 217.515 65.0787L216.538 65.4961L216.103 65.6128C215.561 65.9136 215.019 66.2143 214.768 66.4373C214.516 66.6602 213.829 66.9999 213.539 67.0777C213.249 67.1555 212.31 67.7181 211.981 67.6507C211.545 67.7674 209.708 69.0378 208.373 69.8622L206.921 70.2512C206.486 70.3679 206.05 70.4846 205.76 70.5624C205.363 70.8242 204.967 71.0861 204.57 71.3479L204.28 71.4257C203.805 71.3972 203.37 71.5139 203.118 71.7369C202.867 71.9599 201.773 71.9418 201.444 71.8744C201.114 71.8071 200.205 71.8953 200.02 71.789C199.875 71.8279 199.295 71.9835 199.15 72.0224C198.965 71.9161 198.172 72.4399 198.066 72.6239C197.96 72.808 196.575 72.8677 195.482 72.8497L194.533 72.7927L194.388 72.8316C194.31 72.5413 194.165 72.5802 194.058 72.7642C193.952 72.9483 192.975 73.3657 192.21 73.4151C191.552 73.2803 189.566 72.2565 189.12 71.7537L188.21 71.8419L187.736 71.8134C187.251 71.1654 186.621 70.5563 186.398 70.3048C186.175 70.0534 185.216 69.3769 184.664 69.0581C184.15 68.8844 183.839 67.7231 183.655 67.6168C183.655 67.6168 183.181 67.5884 182.997 67.4821C182.851 67.521 182.076 66.9508 181.485 66.4868L180.536 66.4298C179.733 66.334 178.997 65.909 178.193 65.8131C178.009 65.7068 177.651 66.1138 177.361 66.1916C176.925 66.3083 176.345 66.4639 175.948 66.7258L175.406 67.0265C174.865 67.3273 174.362 67.7732 174.071 67.851C173.781 67.9288 173.055 68.1233 172.726 68.0559C172.397 67.9885 171.972 68.7248 171.642 68.6574L171.207 68.7741C170.772 68.8908 170.152 68.9012 169.755 69.163L168.923 69.5416C168.091 69.9201 167.153 70.4827 166.717 70.5994C166.427 70.6772 166.186 71.5197 165.935 71.7427C165.683 71.9657 164.706 72.3831 164.416 72.4609C164.125 72.5387 163.042 73.1402 162.645 73.402C162.249 73.6639 160.691 74.2369 160.691 74.2369C160.545 74.2758 160.478 74.605 160.227 74.828C159.975 75.0509 159.037 75.6136 158.785 75.8365C158.534 76.0595 157.266 76.5547 156.87 76.8166C156.473 77.0784 155.177 78.0481 154.887 78.1258C154.597 78.2036 153.803 78.7274 153.145 78.5926L153.523 79.4247C153.523 79.4247 153.417 79.6087 153.272 79.6476L152.691 79.8032C152.334 80.2102 151.686 80.6951 151.289 80.9569C150.892 81.2188 149.519 81.8981 149.122 82.1599C148.725 82.4218 147.497 83.0622 147.245 83.2851C147.1 83.324 146.636 83.9151 146.268 83.7026C145.9 83.4901 145.446 84.7007 145.34 84.8847L145.195 84.9236C144.43 84.9729 143.966 85.564 143.424 85.8648L143.173 86.0878C142.922 86.3107 142.67 86.5336 142.525 86.5725C142.38 86.6114 142.128 86.8344 142.167 86.9796C142.206 87.1247 141.441 87.1741 141.296 87.213C141.151 87.2519 140.28 87.4852 139.845 87.6019L139.894 88.3667L139.827 88.6959C139.101 88.8903 138.269 89.2689 137.727 89.5696C137.146 89.7252 136.034 90.8011 135.889 90.84C135.744 90.8789 134.292 91.2679 133.131 91.5791L133.007 92.8571L132.978 93.3315C132.61 93.1189 132.136 93.0904 131.739 93.3523C131.342 93.6141 130.153 94.3997 129.94 94.7678L129.349 94.3039C129.349 94.3039 128.914 94.4206 128.952 94.5657L128.343 95.1957C127.656 95.5354 126.863 96.0591 126.467 96.3209C126.215 96.5439 124.87 96.7488 124.551 97.301L123.825 97.4955C123.39 97.6121 124.165 98.1824 123.4 98.2317L123.11 98.3095C122.819 98.3873 122.423 98.6491 122.317 98.8332C122.21 99.0172 121.552 98.8825 121.3 99.1054C121.049 99.3284 120.479 100.104 120.266 100.472L119.463 100.376L119.317 100.415C118.96 100.822 118.457 101.268 118.167 101.345L117.876 101.423L117.441 101.54C117.005 101.657 115.777 102.297 114.693 102.899L113.794 103.606C113.687 103.79 113.581 103.974 113.252 103.907L112.884 103.695C112.816 104.024 112.459 104.431 112.207 104.654L111.917 104.731L111.336 104.887C110.833 105.333 110.437 105.595 110.476 105.74C110.476 105.74 109.789 106.08 109.102 106.419L108.599 106.865L108.096 107.311C107.448 107.796 106.722 107.99 106.577 108.029C106.393 107.923 105.851 108.224 105.667 108.118C105.483 108.011 105.387 108.815 105.097 108.893L104.807 108.97L104.661 109.009C104.477 108.903 104.081 109.165 103.868 109.533L103.472 109.795C103.075 110.057 102.678 110.319 102.243 110.435L101.953 110.513C101.701 110.736 101.344 111.143 101.025 111.695C100.667 112.102 98.9535 112.095 98.6632 112.172C98.3728 112.25 97.7637 112.88 97.3671 113.142C97.0768 113.22 95.9933 113.821 95.703 113.899C95.4126 113.977 95.0264 114.858 94.7361 114.936C94.4458 115.014 93.3907 115.141 93.0615 115.074C92.8774 114.968 92.4913 115.849 92.0947 116.111C91.8433 116.334 91.3688 116.305 91.1848 116.199C91.0007 116.093 90.2075 116.616 89.9561 116.839C89.7047 117.062 88.8726 117.441 88.6885 117.335C88.5045 117.228 87.7113 117.752 87.605 117.936C86.9076 117.656 86.734 118.169 86.4826 118.392C86.3374 118.431 86.0471 118.509 85.9408 118.693C85.8346 118.877 85.1372 118.597 84.992 118.636C84.9531 118.491 84.4788 118.463 84.2662 118.831C84.0537 119.199 82.9598 119.181 83.1049 119.142C83.066 118.997 82.8819 118.89 82.4853 119.152C82.0887 119.414 80.8108 119.29 80.6656 119.329C80.3753 119.407 79.5043 119.64 79.2139 119.718C78.9236 119.795 77.1816 120.262 75.8751 120.612C74.5687 120.962 71.3258 121.053 71.1028 120.802C70.8799 120.551 69.3893 120.794 68.7698 120.805L68.4016 120.592L67.9946 120.235C67.3361 120.1 66.8229 119.926 66.784 119.781C66.7451 119.636 66.1255 119.646 65.7963 119.579C65.4671 119.512 64.5468 118.98 64.1786 118.768C63.8494 118.7 63.5771 117.684 63.3931 117.578C63.1701 117.326 62.5012 116.572 62.6075 116.388C62.7138 116.204 61.9102 116.108 61.9102 116.108C62.0838 115.595 61.6768 115.237 61.0572 115.248L60.728 115.18C60.6891 115.035 60.9405 114.812 61.1531 114.444L61.0753 114.154L61.0364 114.008C61.21 113.495 61.0259 113.389 60.7745 113.612C60.5231 113.835 59.8751 114.32 59.8751 114.32C59.8751 114.32 59.9709 113.516 59.8931 113.226C59.9605 112.896 59.1853 112.326 59.0013 112.22C58.8172 112.114 58.7005 111.678 58.2261 111.65L58.1872 111.505L58.1768 110.885C57.7698 110.527 57.2461 109.734 56.9454 109.192C56.6446 108.651 55.2395 107.471 55.0165 107.22L54.7936 106.968L54.5317 106.572C54.1247 106.214 53.3391 105.024 52.6314 104.125L52.5925 103.98C52.4758 103.544 52.5043 103.07 52.2813 102.818L51.4957 101.629C51.3971 100.099 51.047 98.7926 51.0081 98.6475L50.9692 98.5023L50.8914 98.212C50.9588 97.8828 50.9095 97.118 50.899 96.4985L51.8944 94.9871C51.8555 94.842 51.8166 94.6968 51.9228 94.5127C52.0291 94.3286 51.5832 93.8258 51.7283 93.7869C51.8346 93.6028 52.143 92.4311 52.4229 91.7338L52.5576 91.0753C52.5861 90.6009 52.6146 90.1265 53.0112 89.8647L53.4751 89.2736C53.3196 88.6929 53.164 88.1123 53.4543 88.0345C53.7446 87.9567 54.1412 87.6948 53.9572 87.5885C53.812 87.6274 53.2987 87.4538 53.4439 87.4149C53.5891 87.376 53.8405 87.1531 53.8016 87.0079C53.8016 87.0079 53.4335 86.7954 53.2883 86.8343C52.9591 86.7669 52.0207 87.3295 51.6241 87.5913C51.2275 87.8532 49.7863 88.8617 49.2446 89.1625C48.7028 89.4632 47.4456 90.578 47.3005 90.6169L47.1553 90.6558L45.8203 91.4803C45.5689 91.7032 45.3175 91.9262 44.9209 92.1881L44.6695 92.411C44.418 92.6339 44.1666 92.8569 44.2444 93.1473L43.8089 93.264L43.5186 93.3417C43.2672 93.5647 42.5802 93.9043 42.0385 94.2051C41.4967 94.5058 39.8818 96.0276 39.4852 96.2895L39.0886 96.5514L38.8372 96.7743C38.4406 97.0362 37.7926 97.521 37.3286 98.1121C36.8257 98.558 34.7754 100.196 34.2725 100.642C33.7697 101.088 32.077 102.32 31.8256 102.543C31.7193 102.727 30.8199 103.435 30.5684 103.658C30.317 103.88 29.2334 104.482 28.982 104.705C28.5854 104.967 27.6471 105.529 27.686 105.675C27.7249 105.82 27.2609 106.411 26.5066 107.08C25.7134 107.603 23.015 109.727 21.9704 110.473L21.2939 111.433C20.9751 111.985 20.6563 112.537 20.1923 113.128L19.6895 113.574C19.2255 114.165 18.5101 114.979 18.0461 115.57C17.5822 116.161 15.8895 117.393 15.6381 117.616C15.3866 117.839 14.7386 118.323 14.3031 118.44L14.0128 118.518L13.3932 118.528C12.6285 118.578 11.9416 118.917 11.6901 119.14C11.4387 119.363 10.4511 119.161 10.4511 119.161C10.4511 119.161 9.90928 119.462 9.47378 119.579L9.50226 119.104C9.46336 118.959 9.56964 118.775 9.53075 118.63C9.55922 118.155 9.73287 117.642 8.82299 117.73C8.3486 117.702 7.69014 117.567 7.53455 116.986C7.45676 116.696 7.2727 116.59 6.83721 116.707L6.50796 116.639C6.285 116.388 5.3258 115.711 4.44439 115.325L4.64653 114.337C4.50136 114.376 3.94915 114.057 3.2518 113.778L3.05732 113.052L2.90174 112.471C2.31066 112.007 1.64181 111.253 1.37996 110.856C1.1181 110.46 1.09723 109.221 1.2035 109.036L0.690223 108.863L0.612437 108.572L0.718711 108.388C0.970143 108.165 0.892361 107.875 0.7083 107.769L0.920804 107.401C1.02707 107.217 1.13336 107.033 1.05557 106.742C1.01667 106.597 0.793714 106.346 0.899981 106.162C0.967353 105.832 1.21878 105.609 1.32505 105.425L1.64382 104.873C1.96263 104.321 2.09741 103.663 1.87445 103.411C1.65149 103.16 2.62872 102.742 2.69609 102.413C2.80236 102.229 3.59557 101.705 3.55667 101.56C3.51778 101.415 3.69141 100.902 3.94284 100.679C4.15538 100.311 4.90965 99.6417 4.90965 99.6417C5.01592 99.4576 5.08332 99.1284 5.18959 98.9444C5.15069 98.7992 5.65357 98.3533 5.8661 97.9852C6.2238 97.5781 7.55875 96.7537 7.84908 96.6759C8.13941 96.5981 8.38039 95.7556 8.63182 95.5326C8.88326 95.3097 9.30834 94.5734 9.34724 94.7186C9.38613 94.8638 9.71537 94.9311 9.59868 94.4956C9.52089 94.2053 10.6329 93.1294 11.0968 92.5383L11.9004 92.6341L12.1519 92.4112C12.3644 92.0431 12.4707 91.859 12.5381 91.5298C12.7506 91.1617 12.9347 91.268 13.2639 91.3353C13.7383 91.3638 14.1737 91.2471 13.4375 90.822C13.4375 90.822 13.6501 90.4539 13.9015 90.2309C14.0467 90.192 14.3759 90.2594 14.5211 90.2205L15.1976 89.2613C16.4262 88.6209 17.4708 87.8743 17.393 87.5839L17.4993 87.3999C17.6445 87.361 18.1189 87.3894 18.4481 87.4568L18.5155 87.1276L18.4766 86.9824C18.1085 86.7699 18.1758 86.4406 18.321 86.4017C18.6113 86.324 19.4434 85.9454 19.5886 85.9065C19.8789 85.8287 20.5554 84.8695 20.7291 84.3562L21.0867 83.9492L21.3382 83.7263C21.9189 83.5707 22.8961 83.1532 23.7282 82.7747L23.824 81.9711C23.824 81.9711 24.1143 81.8933 24.2595 81.8544C24.5498 81.7766 24.8791 81.844 24.9853 81.6599L25.2368 81.4369C25.159 81.1466 25.4104 80.9237 25.7007 80.8459L25.9911 80.7681C26.2425 80.5451 26.6391 80.2833 26.8905 80.0603L27.142 79.8374C27.3545 79.4692 27.6059 79.2463 27.7511 79.2074C27.8963 79.1685 28.2929 78.9066 28.5054 78.5385L28.7957 78.4607L29.086 78.3829C29.4153 78.4503 29.996 78.2947 30.1411 78.2558L30.2473 78.0718L30.4988 77.8488C30.7113 77.4807 30.8176 77.2966 30.9239 77.1125C31.0301 76.9285 31.3205 76.8507 31.6497 76.9181L31.7949 76.8792L32.4144 76.8688C32.7721 76.4617 33.7105 75.8991 34.2522 75.5984L34.6099 75.1913L34.8613 74.9684C35.0739 74.6003 35.5094 74.4836 35.8386 74.5509C36.0227 74.6572 36.4478 73.921 36.7381 73.8432C37.0284 73.7654 37.8605 73.3868 38.1119 73.1639C38.3634 72.9409 39.2059 73.1819 39.351 73.143C39.4962 73.1041 40.2894 72.5804 40.7923 72.1345L41.3729 71.9789C41.8084 71.8622 42.2439 71.7456 42.6794 71.6289C43.1149 71.5122 43.1149 71.5121 43.0371 71.2218L42.9982 71.0766C43.1045 70.8926 43.2496 70.8537 43.5789 70.9211C43.9081 70.9884 44.5172 70.3585 44.6624 70.3196C44.8075 70.2807 46.4043 69.8528 47.7108 69.5028C49.0173 69.1527 52.5117 68.8387 52.6568 68.7998C52.802 68.7609 53.4216 68.7505 53.7508 68.8179L54.1474 68.556C54.2536 68.372 54.728 68.4004 55.0184 68.3226C55.599 68.1671 56.1123 68.3407 56.5763 67.7496C57.2347 67.8843 57.7091 67.9128 57.6702 67.7677C57.6313 67.6225 58.6086 67.2051 59.083 67.2335C59.5574 67.262 60.7291 67.5704 61.0972 67.7829C61.4653 67.9954 62.6656 67.8295 62.8107 67.7906C62.9559 67.7517 63.4692 67.9253 63.9825 68.0989C64.4958 68.2726 65.8231 69.1616 65.7168 69.3457C65.6105 69.5297 66.3468 69.9548 66.5308 70.0611C66.7149 70.1674 67.306 70.6313 67.49 70.7376C67.6741 70.8438 68.1589 71.4919 68.2367 71.7822C68.3145 72.0725 68.8771 73.0109 68.9834 72.8268C69.0896 72.6427 69.2348 72.6039 69.3126 72.8942C69.3904 73.1845 70.1371 74.2291 70.1086 74.7035C70.0801 75.1779 70.9719 76.1836 71.4178 76.6865C71.8638 77.1894 73.0174 78.5917 73.3467 78.6591C73.637 78.5813 74.9643 79.4703 75.2935 79.5377C75.6228 79.605 75.5269 80.4087 75.711 80.5149C75.8951 80.6212 76.4472 80.94 76.4861 81.0852C76.3799 81.2692 76.6417 81.6658 76.6806 81.811C76.8647 81.9173 77.5829 83.4363 78.0962 83.6099L77.3703 83.8044C77.4092 83.9496 77.3419 84.2788 77.3808 84.4239C77.4197 84.5691 77.6919 85.5853 77.9927 86.127L77.6739 86.6792C77.4613 87.0473 77.4718 87.6669 77.5885 88.1024L77.6662 88.3927C77.4148 88.6157 77.096 89.1679 76.8835 89.536L76.8161 89.8652L76.7487 90.1944C76.7203 90.6688 76.5466 91.1821 76.4404 91.3662C76.3341 91.5502 76.0931 92.3927 76.132 92.5379C76.2098 92.8282 76.0361 93.3415 76.1528 93.777C76.2306 94.0674 75.186 94.814 75.2638 95.1043C75.1964 95.4336 74.888 96.6053 74.6755 96.9734C74.5019 97.4867 73.9136 99.3558 73.8177 100.159L73.5378 100.857C73.2579 101.554 72.978 102.251 72.6981 102.949L72.5919 103.133C72.6696 103.423 73.2892 103.413 73.9761 103.073C74.663 102.733 76.4439 102.412 76.5891 102.373L76.6564 102.044L76.6849 101.569C77.0141 101.637 77.4885 101.665 77.5948 101.481C77.7011 101.297 78.5332 100.919 78.9687 100.802C79.5493 100.646 80.4099 99.7933 80.6328 100.045C80.8558 100.296 81.7553 99.5884 82.297 99.2877C82.8388 98.9869 83.9119 97.7659 84.2022 97.6881C84.4925 97.6103 85.2468 96.9414 85.5372 96.8636C85.8275 96.7858 86.4755 96.301 86.6207 96.2621C86.7269 96.0781 87.3854 96.2128 87.5306 96.1739C87.6757 96.135 87.8883 95.7669 88.1786 95.6891C88.2848 95.505 89.0106 95.3105 89.301 95.2327C89.5913 95.1549 90.7033 94.0791 91.748 93.3324L92.8704 92.8761L93.5962 92.6816C94.4283 92.303 95.1152 91.9634 95.3666 91.7404L95.4729 91.5564L95.8306 91.1493C96.4113 90.9937 96.953 90.693 97.0593 90.509C97.1656 90.3249 97.3781 89.9568 97.5233 89.9179C97.6684 89.879 98.2491 89.7234 98.3554 89.5393C98.5005 89.5004 99.1096 88.8705 99.2833 88.3572L100.02 88.7822C100.02 88.7822 100.31 88.7044 100.416 88.5204L102.389 86.5916Z" fill="#6FB2A5"/>
</svg>
