<svg width="93" height="42" viewBox="0 0 93 42" fill="none" xmlns="http://www.w3.org/2000/svg">
<path d="M70.0264 12.1237C76.5361 9.06078 81.0667 5.70946 87.8625 0.68248C90.1278 -0.993181 91.8207 1.25923 91.5345 3.22327C90.9622 7.15135 92.6551 9.40376 92.0827 13.3318C91.5103 17.2599 93.2033 19.5123 92.6309 23.4404C92.3447 25.4045 90.3656 25.1161 88.6727 22.8637C86.9798 20.6112 87.5522 16.6832 88.1245 12.7551L88.4107 10.7911C88.1245 12.7551 87.8383 14.7191 85.573 16.3948C83.0216 20.0345 80.1839 25.6382 77.6325 29.2779C70.5504 36.269 61.7755 41.0076 51.5938 41.5297C41.4121 42.0519 30.1099 36.3935 22.7658 31.3119C19.0938 28.7711 13.7289 23.9779 10.3431 19.4731C8.65014 17.2206 6.95722 14.9682 5.26431 12.7158C3.57139 10.4634 1.87847 8.21096 0.185551 5.95854C0.471735 3.9945 0.757926 2.03047 2.45084 4.28289C4.14376 6.53531 5.83668 8.78773 7.81578 9.0761C9.5087 11.3285 11.2016 13.5809 12.8945 15.8334C16.2804 20.3382 19.9524 22.879 23.6244 25.4198C28.7031 32.177 38.3125 35.583 48.208 37.0249C58.3896 36.5027 66.8784 33.7282 71.9813 26.4488C74.5328 22.8091 77.0843 19.1694 79.6357 15.5297C79.9219 13.5656 80.2081 11.6016 82.1872 11.8899C79.9219 13.5656 75.3914 16.9169 73.1261 18.5926C69.1679 18.0158 67.7611 13.7994 70.0264 12.1237Z" fill="white"/>
</svg>
