<svg width="492" height="166" viewBox="0 0 492 166" fill="none" xmlns="http://www.w3.org/2000/svg">
<path d="M5.49456 36.7346C5.98152 36.8518 6.28336 36.6681 6.34173 36.4256C6.15662 36.1246 6.33176 35.3973 6.94545 36.058C7.31567 36.6601 8.12444 38.6502 8.24119 38.1654C8.35793 37.6805 9.07839 36.8281 9.20513 37.3715C9.08838 37.8564 9.64369 38.7596 10.4325 38.693C11.1629 38.8689 13.5394 39.6976 14.4549 40.1745L15.4288 40.409C15.9158 40.5263 16.3444 40.8859 16.8313 41.0032C17.2599 41.3629 18.2922 41.355 18.419 41.8985C18.7308 42.743 19.4512 41.8905 19.8798 42.2502L20.3084 42.6099C21.3407 42.602 22.8016 42.9537 23.4737 43.372L24.2041 43.5479C25.178 43.7824 26.7556 43.6493 27.4277 44.0676L28.5283 44.8456C29.5606 44.8377 32.1122 44.9391 33.8165 45.3495L35.4625 46.0023C36.865 46.5965 38.5694 47.0069 40.2054 46.6313C40.7507 46.5062 41.9681 46.7993 42.3967 47.159C43.0688 47.5773 43.0688 47.5773 43.8576 47.5107C44.6464 47.4442 45.8538 46.709 46.5359 48.1556L47.0228 48.2729C47.6849 47.6629 47.9384 48.7498 48.4837 48.6246C49.029 48.4995 49.6327 48.1319 50.3632 48.3078L50.8501 48.425C51.2787 48.7847 52.9831 49.1951 54.5023 49.3044C56.0216 49.4138 59.8489 49.5659 60.1507 49.3821L60.5793 49.7418C61.193 50.4025 61.7383 50.2773 62.5855 49.9684C63.4327 49.6594 64.4066 49.8939 65.4389 49.886C66.4712 49.8781 67.5619 49.6277 68.2339 50.046C69.1495 50.5229 70.1134 49.7291 70.7271 50.3898L70.9122 50.6909C71.9445 50.683 72.9084 49.8892 74.0091 50.6671L77.2327 51.1869L78.3234 50.9365C79.414 50.6862 81.9656 50.7876 83.7867 50.7131L85.3059 50.8225C86.0364 50.9983 86.7668 51.1742 86.6985 50.3883L87.4872 50.3218L88.9581 51.7019C90.409 51.0253 92.1034 50.4073 92.6487 50.2822C93.194 50.157 95.3754 49.6563 95.9207 49.5312C96.5244 49.1636 99.0859 50.2933 100.362 50.344C101.637 50.3947 105.445 48.4902 107.022 48.3571L108.727 48.7675L109.701 49.002C111.035 48.8103 111.385 47.3557 110.703 45.9091L110.508 44.5797C110.313 43.2503 109.874 41.8623 109.923 40.5915C109.893 37.5066 109.317 34.5467 110.563 31.5125L111.274 29.6317C111.984 27.7509 112.811 25.3853 113.288 24.4742L113.278 23.4459C113.268 22.4176 113.989 21.5651 114.466 20.6541L114.943 19.743C115.663 18.8905 116.685 17.8543 117.046 17.4281C117.406 17.0018 118.487 15.7231 118.545 15.4807C118.662 14.9959 120.298 14.6204 120.6 14.4366L120.658 14.1941L121.739 12.9155C123.608 11.5703 126.568 9.9747 128.263 9.35676L129.041 8.26189C129.762 7.40944 130.921 7.94497 131.398 7.03389C131.515 6.54904 133.092 6.41598 133.939 6.10701C134.241 5.92321 134.787 5.79802 135.088 5.61423C135.39 5.43043 135.751 5.00422 136.052 4.82042C136.354 4.63662 136.608 5.72358 137.27 5.11355C137.63 4.68733 138.731 5.46529 138.721 4.43696L142.411 3.01729L143.804 2.58315C145.683 2.26626 148.352 1.88282 149.988 1.50731L151.38 1.07315C152.227 0.764184 153.016 0.697629 153.747 0.873509C155.022 0.924216 156.415 0.490073 157.691 0.540781C158.723 0.532862 160.115 0.0987426 160.914 1.06052C161.158 1.11915 161.401 1.17778 161.645 1.2364L163.105 1.58816C164.625 1.69749 167.06 2.28376 168.462 2.87794L169.923 3.2297L171.384 3.58147C172.786 4.17565 174.432 4.82845 175.163 5.00433C175.893 5.18021 177.734 7.1624 178.65 7.63933C179.565 8.11626 182.819 11.721 184.417 13.6445L184.368 14.9153L184.378 15.9436C184.933 16.8468 185.615 18.2934 185.927 19.1379L186.239 19.9825C186.551 20.827 186.561 21.8553 186.873 22.6999C186.814 22.9423 186.756 23.1847 186.941 23.4858C187.37 23.8454 188.042 24.2637 188.227 24.5648C188.656 24.9245 187.506 25.4172 188.12 26.078C188.549 26.4376 188.374 27.1649 188.257 27.6498C188.209 28.9205 188.404 30.2499 188.112 31.462L187.762 32.9166C187.168 34.3125 185.435 37.2295 184.179 39.2355L182.982 40.999L182.145 42.3363C180.334 43.4391 178.221 44.7257 177.257 45.5195L175.923 45.7112L174.832 45.9616C173.868 46.7554 172.057 47.8582 171.21 48.1671C170.119 48.4175 167.159 50.0131 166.555 50.3807C165.951 50.7483 163.955 51.55 164.14 51.8511C164.267 52.3945 162.017 52.1093 160.927 52.3597C159.836 52.61 154.948 55.7932 151.014 57.1543L147.138 58.2729C142.415 59.7005 137.507 60.827 132.843 62.0122L131.996 62.3212C130.963 62.3291 131.46 63.4747 132.99 64.6123C134.519 65.75 140.869 69.331 143.372 70.7031L145.447 71.7156L146.606 72.2511C148.067 72.6029 149.771 73.0133 150.502 73.1892C151.174 73.6075 153.667 73.9513 154.154 74.0686L154.582 74.4283C155.254 74.8466 155.79 73.6931 156.102 74.5376C156.102 74.5376 156.345 74.5962 156.589 74.6548C157.134 74.5297 160.416 74.807 160.903 74.9242C161.146 74.9829 161.692 74.8577 161.935 74.9163C163.396 75.2681 165.451 74.2239 166.561 76.0302C167.107 75.905 168.626 76.0144 170.447 75.9399C171.966 76.0493 176.456 75.5914 176.144 74.7468L177.371 76.0683L177.927 76.9714C178.715 76.9049 180.536 76.8304 181.871 76.6387C183.146 76.6894 187.392 76.1729 188.61 76.466L189.457 76.157C190.547 75.9067 191.103 76.8099 191.103 76.8099L192.359 74.8039C194.852 75.1478 197.043 75.6754 197.043 75.6754C197.287 75.734 197.959 76.1523 198.202 76.211C198.446 76.2696 199.955 75.3506 200.929 75.5851C201.903 75.8196 205.603 75.4282 207.181 75.2951L208.515 75.1034C209.547 75.0955 210.453 74.5441 211.612 75.0797C212.099 75.1969 212.703 74.8293 213.248 74.7042L213.491 74.7628C213.978 74.8801 214.826 74.5711 215.244 73.9024L216.043 74.8642C216.043 74.8642 217.192 74.3714 217.981 74.3049L218.526 74.1797C219.257 74.3556 220.532 74.4063 221.019 74.5236L221.38 74.0974C221.681 73.9136 221.983 73.7297 222.227 73.7883C223.444 74.0815 225.148 74.4919 225.752 74.1243L227.018 73.1467C228.839 73.0722 230.719 72.7553 231.205 72.8726L231.692 72.9898C232.423 73.1657 233.338 73.6426 233.874 72.4891C233.874 72.4891 234.419 72.3639 234.906 72.4812C236.123 72.7743 236.912 72.7078 237.633 71.8553C238.051 71.1867 238.305 72.2736 238.363 72.0312L239.269 71.4798C240.359 71.2295 242.784 70.7874 244.664 70.4705L246.183 70.5798L247.702 70.6892C249.095 70.2551 251.461 70.0554 252.854 69.6213L254.003 69.1285C254.548 69.0034 255.288 70.2075 255.58 68.9954C255.639 68.753 256.914 68.8037 257.46 68.6785L258.249 68.612C259.037 68.5454 260.859 68.471 261.949 68.2206C263.04 67.9703 267.588 67.27 269.224 66.8944C270.86 66.5189 276.206 66.7804 276.751 66.6552C277.297 66.53 279.478 66.0293 280.267 65.9628C281.056 65.8962 283.237 65.3956 283.724 65.5128C284.269 65.3876 286.1 66.3415 286.344 66.4001C286.587 66.4588 287.074 66.576 286.217 65.8567L286.694 64.9456C287.054 64.5194 287.356 64.3356 287.785 64.6952C288.272 64.8125 288.642 65.4146 288.642 65.4146L291.057 63.9442C293.92 64.8902 296.053 65.6602 295.81 65.6016C295.566 65.543 295.439 64.9995 296.228 64.9329C297.017 64.8664 299.871 64.784 300.903 64.7761L301.75 64.4671L302.597 64.1582C303.571 64.3927 305.694 64.1344 307.574 63.8175L309.278 64.2279L310.495 64.521C311.401 63.9696 312.677 64.0203 313.349 64.4386C313.777 64.7983 315.54 64.9663 315.472 64.1804L316.991 64.2897C317.721 64.4656 318.325 64.098 318.695 64.7001C318.939 64.7587 320.877 64.1994 322.999 63.9412L324.46 64.2929C325.191 64.4688 326.048 65.1881 326.778 65.364C327.509 65.5399 328.414 64.9885 329.203 64.9219C329.992 64.8554 330.839 64.5464 331.628 64.4799L332.173 64.3547C332.904 64.5306 333.761 65.25 334.19 65.6096L334.423 64.64C334.423 64.64 335.455 64.632 335.942 64.7493L337.462 64.8586C339.409 65.3276 341.114 65.738 341.114 65.738C341.299 66.0391 341.669 66.6412 341.669 66.6412C341.669 66.6412 341.971 66.4574 342.029 66.2149C342.088 65.9725 342.019 65.1866 342.263 65.2452C342.506 65.3039 343.363 66.0232 343.977 66.6839L344.512 65.5304C344.512 65.5304 345.545 65.5225 345.486 65.7649C345.857 66.3671 346.217 65.9408 346.704 66.0581C346.947 66.1167 347.317 66.7188 347.561 66.7774L348.048 66.8947C348.593 66.7695 349.382 66.703 350.171 66.6364C350.716 66.5113 353.57 66.4289 354.787 66.722L355.878 66.4717C356.968 66.2213 357.942 66.4558 358.799 67.1752L359.286 67.2924L360.854 66.131C362.685 67.0849 363.786 67.8629 363.299 67.7456C363.055 67.687 361.965 67.9373 362.695 68.1132L362.88 68.4143C363.192 69.2588 363.611 68.5901 364.156 68.465C364.886 68.6409 365.003 68.156 365.305 67.9722L366.152 67.6632C367.73 67.5301 368.645 68.0071 368.042 68.3747L367.983 68.6171L367.925 68.8595C368.11 69.1606 368.539 69.5202 369.084 69.3951L369.142 69.1527L370.223 67.874C371.684 68.2257 373.69 68.4523 374.177 68.5696L374.421 68.6282L375.521 69.4062C376.797 69.4569 378.131 69.2652 378.618 69.3824C379.163 69.2573 380.751 70.1525 380.994 70.2111C381.481 70.3284 382.699 70.6215 383.001 70.4377C383.303 70.2539 384.335 70.246 384.52 70.547C384.705 70.8481 386.108 71.4423 386.595 71.5596C387.081 71.6768 389.448 71.4772 390.84 71.043L391.756 71.52L393.645 72.2314C395.71 72.2155 398.447 72.618 399.664 72.9111L400.881 73.2043L401.612 73.3801C402.401 73.3136 403.618 73.6068 404.592 73.8413C405.322 74.0171 408.361 74.2358 409.393 74.2279L410.007 74.8886L410.621 75.5493C411.409 75.4828 412.383 75.7173 412.685 75.5335C414.4 76.9722 416.824 76.5301 418.655 77.484L419.328 77.9023C419.941 78.563 420.672 78.7389 420.915 78.7975C421.217 78.6137 422.98 78.7817 424.08 79.5597C424.938 80.279 430.061 82.5385 432.866 83.7269L435.125 85.0405C436.041 85.5174 436.898 86.2367 438.057 86.7723L439.216 87.3079C440.2 88.5707 441.184 89.8335 441.554 90.4356C441.924 91.0377 443.093 92.6016 443.035 92.8441C442.977 93.0865 442.801 93.8138 442.743 94.0562C442.685 94.2986 444.272 95.1938 444.759 95.3111L444.526 96.2808C445.139 96.9415 446.659 97.0508 447.749 96.8005C448.597 96.4915 451.528 98.2234 452.015 98.3406C452.502 98.4579 454.265 98.6259 455.122 99.3452L456.271 98.8524L456.515 98.9111C456.758 98.9697 457.489 99.1456 458.277 99.079C459.008 99.2549 460.897 99.9663 461.384 100.084C461.628 100.142 462.485 100.862 462.728 100.92C462.972 100.979 465.65 101.624 467.9 101.909L470.091 102.437C470.822 102.612 471.007 102.914 471.796 102.847C472.584 102.78 473.802 103.074 474.23 103.433L474.844 104.094C475.574 104.27 476.792 104.563 477.522 104.739L478.253 104.915C478.983 105.091 479.957 105.325 480.142 105.626L480.454 106.471C481.058 106.103 481.905 105.794 482.45 105.669C482.996 105.544 484.466 106.924 485.382 107.401L486.112 107.577L486.843 107.753C487.632 107.686 488.606 107.921 489.093 108.038C489.58 108.155 491.469 108.866 492.199 109.042L492.93 109.218L493.845 109.695C495.004 110.231 496.163 110.766 496.65 110.884C497.137 111.001 499.329 111.528 500.117 111.462C500.848 111.638 502.981 112.408 504.257 112.459C505.474 112.752 509.565 115.019 511.513 115.488L513.1 116.383C514.016 116.86 514.736 116.008 515.593 116.727L516.207 117.388C517.123 117.865 518.097 118.099 518.642 117.974L519.129 118.091C519.918 118.025 520.95 118.017 520.902 119.288C520.902 119.288 521.817 119.765 521.876 119.522L522.781 118.971C523.697 119.448 525.041 120.284 525.469 120.644C525.898 121.004 527.963 120.988 528.206 121.047C528.635 121.406 529.979 122.243 530.281 122.059C530.582 121.875 531.371 121.809 531.254 122.293C530.894 122.72 532.959 122.704 533.689 122.88L534.42 123.056L536.368 123.525C538.315 123.994 540.575 125.307 541.13 126.21L542.036 125.659C543.243 124.924 543.438 126.253 544.169 126.429C544.899 126.605 545.873 126.839 546.487 127.5C546.73 127.559 547.276 127.434 547.821 127.308C548.366 127.183 550.198 128.137 551.113 128.614L551.844 128.79C552.574 128.966 553.606 128.958 554.162 129.861C554.162 129.861 554.649 129.978 554.892 130.037L556.216 128.817C557.56 129.653 558.846 130.733 559.216 131.335C559.645 131.694 562.381 132.097 563.599 132.39L563.969 132.992C564.768 133.954 565.245 133.043 565.917 133.461C566.589 133.879 567.446 134.599 567.748 134.415C568.897 133.922 569.151 135.009 569.939 134.943C570.67 135.118 571.342 135.537 572.014 135.955L572.443 136.315C573.416 136.549 575.364 137.018 576.825 137.37C578.286 137.722 582.308 139.203 582.737 139.563C583.166 139.923 584.383 140.216 584.812 140.575C585.24 140.935 586.818 140.802 587.061 140.861C587.548 140.978 589.379 141.932 589.935 142.835L591.2 141.857C591.872 142.276 593.46 143.171 595.106 143.824C596.509 144.418 601.018 146.017 601.69 146.435C602.362 146.853 603.638 146.904 603.881 146.963C604.368 147.08 606.014 147.733 606.93 148.21L607.3 148.812C608.157 149.531 608.469 150.376 609.92 149.699L610.465 149.574C611.381 150.051 612.725 150.887 613.339 151.548L613.709 152.15L614.147 153.538C615.365 153.831 617.128 153.999 617.615 154.116C618.102 154.234 619.806 154.644 619.747 154.887C619.689 155.129 620.43 156.333 621.16 156.509C622.134 156.744 622.943 158.734 622.514 158.374C622.086 158.014 620.741 157.178 620.439 157.362C620.138 157.545 619.719 158.214 619.904 158.515L620.391 158.632C621.608 158.925 621.19 159.594 621.258 160.38C621.142 160.865 620.051 161.115 620.85 162.077L621.22 162.679C621.045 163.406 620.695 164.861 620.276 165.53C620.101 166.257 617.364 165.854 616.877 165.737C616.39 165.62 614.442 165.151 613.712 164.975C612.982 164.799 609.933 163.552 609.203 163.376C608.472 163.2 605.726 161.769 604.937 161.836C604.206 161.66 602.56 161.007 602.015 161.133C601.47 161.258 599.268 159.702 597.866 159.108C596.405 158.756 591.165 156.981 589.763 156.387C588.36 155.793 584.153 154.01 583.481 153.592L582.994 153.475L579.527 152.896C575.991 151.532 572.271 149.867 571.053 149.574L569.836 149.28C568.862 149.046 567.888 148.811 566.787 148.033L566.115 147.615C565.083 147.623 563.622 147.271 562.833 147.338C562.103 147.162 559.785 146.091 559.054 145.915C558.324 145.739 556.064 144.426 555.09 144.191C554.116 143.957 550.708 143.136 549.675 143.144L549.49 142.843C548.876 142.182 548.273 142.55 547.844 142.19C547.416 141.83 546.685 141.654 546.198 141.537C545.468 141.361 544.737 141.185 544.007 141.009C543.52 140.892 542.965 139.989 542.419 140.114C541.027 140.548 540.043 139.285 538.524 139.176C537.793 139 537.063 138.824 536.332 138.648L535.602 138.473C534.93 138.054 534.014 137.577 533.586 137.218L532.855 137.042C532.125 136.866 531.336 136.933 530.722 136.272L530.537 135.971C529.748 136.037 527.986 135.869 526.71 135.819C525.492 135.525 522.863 133.61 522.619 133.551C522.619 133.551 520.915 133.141 519.269 132.488C517.564 132.078 512.568 130.362 511.652 129.885C510.737 129.408 507.932 128.219 507.445 128.102L506.715 127.926C505.741 127.692 504.65 127.942 503.549 127.164C502.634 126.687 501.3 126.879 500.501 125.917L499.702 124.955C498.485 124.662 496.537 124.193 495.621 123.716C494.647 123.482 490.752 122.544 489.106 121.891C487.46 121.238 482.648 119.823 482.162 119.706C481.675 119.589 480.272 118.994 479.785 118.877C479.357 118.518 476.99 118.717 475.773 118.424C474.312 118.072 470.65 116.165 469.978 115.746L469.247 115.57L463.647 114.222C457.317 112.698 451.531 111.048 450.314 110.755L449.409 111.306C449.107 111.49 448.376 111.314 448.191 111.013C447.763 110.654 447.451 109.809 446.545 110.36L445.64 110.912C444.734 111.463 443.897 112.801 443.965 113.587L443.361 113.954C443.361 113.954 443.488 114.498 443.43 114.74L443.255 115.467C442.826 115.108 442.037 115.174 441.794 115.115L441.735 115.358L441.677 115.6C441.862 115.901 441.385 116.812 440.723 117.422C440.061 118.032 437.705 119.26 436.731 119.026L436.497 119.996C436.322 120.723 435.718 121.091 434.871 121.4L434.569 121.583C434.511 121.826 434.277 122.795 434.346 123.581L433.255 123.832L433.012 123.773C432.71 123.957 432.048 124.567 431.444 124.934C430.84 125.302 427.987 125.384 427.685 125.568L427.383 125.752L427.081 125.936C426.78 126.12 426.176 126.487 425.816 126.913C425.455 127.34 424.248 128.075 423.693 127.172L423.157 128.325L423.041 128.81C422.437 129.178 421.892 129.303 421.405 129.186C421.161 129.127 419.097 129.143 417.821 129.092C416.487 129.284 412.241 129.8 411.452 129.867C410.663 129.933 407.138 129.598 405.92 129.304C404.703 129.011 399.541 129.051 397.837 128.64L396.435 128.046L395.519 127.569C394.545 127.335 392.539 127.108 391.321 126.815L390.104 126.522C388.887 126.229 387.913 125.994 386.695 125.701C386.452 125.643 386.208 125.584 385.965 125.525C385.351 124.865 385.283 124.079 383.89 124.513C383.345 124.638 382.546 123.676 381.816 123.5C380.111 123.09 379.186 121.585 377.423 121.417C377.423 121.417 377.238 121.116 377.296 120.873C377.17 120.33 376.985 120.029 376.858 119.485L376.848 118.457C376.059 118.524 375.63 118.164 375.932 117.98L375.747 117.679C375.62 117.136 375.192 116.776 375.065 116.232L374.743 114.359L374.86 113.875C374.733 113.331 374.538 112.002 374.47 111.216L374.401 110.43C374.333 109.644 374.021 108.8 373.953 108.014C374.06 106.5 374.108 105.23 374.215 103.717L374.39 102.989C374.867 102.078 375.285 101.41 375.587 101.226C375.889 101.042 377.282 100.608 377.827 100.483C378.372 100.357 379.58 99.6222 379.94 99.196L380.3 98.7698C380.904 98.4022 382.063 98.9378 382.296 97.9681L382.413 97.4832C383.085 97.9015 383.816 98.0774 384.059 98.136C384.303 98.1946 385.939 97.8191 386.484 97.694L387.029 97.5688L387.575 97.4436C388.363 97.3771 388.909 97.2519 388.967 97.0095C389.026 96.767 389.804 95.6722 390.291 95.7894C390.778 95.9067 392.298 96.016 392.054 95.9574C391.869 95.6563 391.684 95.3553 391.986 95.1715L392.229 95.2301C392.473 95.2887 392.716 95.3474 392.96 95.406C394.791 96.3599 395.628 95.0226 396.777 94.5298C397.624 94.2208 397.683 93.9784 397.936 95.0653L398.189 96.1523C398.55 95.7261 399.153 95.3585 399.338 95.6595C399.582 95.7182 400.312 95.894 400.371 95.6516L400.186 95.3506L399.63 94.4474C400.419 94.3809 402.6 93.8802 404.236 93.5046L405.872 93.1291C406.418 93.004 406.963 92.8788 407.45 92.996C408.609 93.5316 409.7 93.2812 410.547 92.9723L411.336 92.9058C412.066 93.0816 412.553 93.1989 412.797 93.2575L413.098 93.0737C413.4 92.8899 413.459 92.6475 413.702 92.7061C415.407 93.1165 416.799 92.6823 418.318 92.7917L419.838 92.901C421.6 93.069 423.85 93.3542 425.126 93.4049L426.158 93.397C426.947 93.3304 427.249 93.1466 428.106 93.866L428.534 94.2257C429.382 93.9167 430.356 94.1512 430.784 94.5109C430.969 94.8119 432.177 94.0767 432.235 93.8343C432.537 93.6505 433.696 94.1861 434.426 94.362L434.845 93.6933L434.903 93.4509C435.205 93.2671 434.777 92.9074 434.046 92.7315C433.316 92.5556 431.241 91.5431 430.394 91.8521L429.78 91.1914C429.167 90.5306 428.738 90.171 427.823 89.6941L427.15 89.2757C426.42 89.0999 425.144 89.0491 424.599 89.1743C424.054 89.2995 420.635 87.4504 417.713 86.7469C414.791 86.0434 407 84.1673 406.571 83.8076C406.143 83.448 404.205 84.0072 403.66 84.1324C403.114 84.2576 401.098 83.0027 399.881 82.7096L398.848 82.7175L397.573 82.6668C396.355 82.3736 394.291 82.3895 393.015 82.3388L392.158 81.6194L391.729 81.2597C391.602 80.7162 391.057 80.8415 390.882 81.5687L389.723 81.0332L388.564 80.4976C387.288 80.4469 385.038 80.1617 383.879 79.6261L382.487 80.0603L381.942 80.1854C381.026 79.7085 378.893 78.9384 377.374 78.8291C375.913 78.4774 371.725 78.7514 371.784 78.509C371.842 78.2666 371.414 77.9069 370.868 78.0321C370.566 78.2159 368.989 78.349 368.142 78.658L367.956 78.3569C367.158 77.3951 366.067 77.6455 365.035 77.6534L364.791 77.5948C364.606 77.2937 363.574 77.3016 362.6 77.0671C361.568 77.075 357.799 76.6805 356.523 76.6298C355.491 76.6377 352.024 76.0593 351.653 75.4572L350.933 76.3097C350.573 76.7359 349.599 76.5014 348.81 76.568C348.079 76.3921 347.349 76.2162 346.619 76.0403C346.375 75.9817 345.888 75.8644 345.83 76.1069C344.924 76.6583 343.892 76.6662 342.976 76.1892L341.817 75.6537C340.727 75.904 337.932 75.744 335.624 75.7012C333.316 75.6584 325.603 75.5966 323.051 75.4952L320.743 75.4524C319.224 75.3431 317.461 75.1751 316.254 75.9103C315.952 76.0941 315.465 75.9768 315.465 75.9768C314.909 75.0737 314.306 75.4413 313.76 75.5665C312.183 75.6995 310.849 75.8913 309.086 75.7233L307.868 75.4302C306.476 75.8643 304.596 76.1812 303.564 76.1891C302.532 76.197 299.62 76.5218 298.53 76.7722C297.682 77.0811 294.644 76.8625 294.098 76.9877C293.31 77.0542 288.577 77.4535 284.876 77.8449L281.477 78.0524C280.932 78.1776 280.689 78.1189 280.387 78.3027L279.481 78.8541C278.205 78.8034 276.813 79.2376 276.268 79.3627C275.722 79.4879 273.658 79.5038 273.171 79.3865L272.869 79.5703C272.022 79.8793 271.418 80.2469 270.444 80.0124C269.957 79.8951 269.412 80.0203 268.866 80.1455C268.078 80.212 267.474 80.5796 266.685 80.6461L263.89 80.4861C261.105 81.3544 257.833 82.1054 256.801 82.1133C255.467 82.305 251.951 82.9974 251.591 83.4237C251.046 83.5488 248.981 83.5647 248.436 83.6899C247.89 83.815 245.524 84.0147 244.375 84.5074L243.528 84.8164C243.226 85.0002 242.739 84.883 242.495 84.8243L241.58 84.3474C240.733 84.6564 237.821 84.9812 235.153 85.3646L232.601 85.2632C232.601 85.2632 232.358 85.2046 232.299 85.447L230.722 85.5801C228.901 85.6545 226.719 86.1552 225.93 86.2218C225.083 86.5308 221.314 86.1362 219.737 86.2693C218.159 86.4024 213.309 87.2865 211.975 87.4782C210.699 87.4275 205.723 87.7682 203.659 87.784L202.023 88.1595L200.63 88.5937C199.111 88.4843 197.348 88.3164 196.803 88.4415C196.014 88.5081 192.674 88.4732 190.852 88.5477L189.275 88.6808C187.941 88.8725 186.655 87.7935 185.204 88.47C184.357 88.779 182.653 88.3686 181.377 88.3179C178.825 88.2165 176.274 88.1151 173.722 88.0137L173.479 87.955C173.235 87.8964 171.229 87.6698 168.736 87.326L166.486 87.0408C164.967 86.9314 163.749 86.6383 162.474 86.5876C160.954 86.4783 159.669 85.3992 158.218 86.0758C158.218 86.0758 157.731 85.9585 157.487 85.8999C156.397 86.1503 155.831 84.2188 154.322 85.1378L153.718 85.5054C152.316 84.9112 150.485 83.9573 149.628 83.238L148.293 83.4297L147.203 83.68C146.346 82.9607 144.7 82.3079 143.424 82.2572L142.567 81.5378C142.138 81.1781 141.106 81.186 140.375 81.0101L139.645 80.8343C139.518 80.2908 138.905 79.6301 138.174 79.4542L137.687 79.3369C137.2 79.2197 136.596 79.5873 136.226 78.9852C135.671 78.082 134.697 77.8475 133.538 77.312C132.135 76.7178 130.606 75.5801 129.262 74.7435L128.775 74.6262C128.347 74.2666 128.405 74.0241 128.463 73.7817C128.522 73.5393 128.882 73.1131 128.94 72.8707C128.94 72.8707 128.453 72.7534 128.151 72.9372C127.85 73.121 126.33 73.0116 125.717 72.3509L125.346 71.7488L125.161 71.4478C124.976 71.1467 124.791 70.8457 124.791 70.8457C124.548 70.787 124.119 70.4273 123.934 70.1263C123.807 69.5828 123.31 68.4372 123.252 68.6797C123.194 68.9221 122.59 69.2897 122.405 68.9886C122.22 68.6876 121.362 67.9682 120.69 67.5499L120.262 67.1902C118.918 66.3536 118.733 66.0526 118.411 64.1797L118.469 63.9373C118.284 63.6363 117.554 63.4604 117.193 63.8866L116.58 63.2259L116.395 62.9248C116.151 62.8662 114.632 62.7569 113.113 62.6475L111.778 62.8392L109.11 63.2227C106.198 63.5475 102.8 63.755 101.767 63.763C100.492 63.7123 96.304 63.9864 95.0283 63.9356C93.7525 63.8849 89.1364 63.7994 87.8022 63.9911C86.4681 64.1828 83.001 63.6045 82.2122 63.671L81.7252 63.5538L80.0208 63.1434C78.2581 62.9754 75.4631 62.8154 73.7004 62.6474C71.9376 62.4794 66.6495 61.9756 65.8607 62.0421L65.1302 61.8662L64.3998 61.6903C63.3675 61.6983 62.3936 61.4637 61.8482 61.5889C61.3029 61.7141 57.047 61.2023 53.5215 60.8664L50.473 59.6194L49.5575 59.1424C48.5836 58.9079 46.8209 58.74 45.7302 58.9903L44.7563 58.7558C43.7823 58.5213 42.5649 58.2282 41.3475 57.935L40.3736 57.7005C39.3997 57.466 37.2668 56.696 35.8643 56.1018L34.345 55.9925L33.0693 55.9417C31.7251 55.1051 29.8356 54.3937 29.4071 54.034C28.735 53.6157 26.7288 53.3891 25.8132 52.9122L24.8493 53.706C24.6058 53.6474 23.6319 53.4129 22.9015 53.237C21.9275 53.0025 19.843 50.9617 19.1709 50.5434L18.4989 50.1251L17.5833 49.6481C17.4082 50.3754 16.8045 50.743 16.6194 50.442C16.3759 50.3833 14.8467 49.2457 13.9895 48.5263L13.8628 47.9828L13.4242 46.5948C12.5186 47.1462 10.941 47.2793 9.78198 46.7438L9.52851 45.6568C9.58688 45.4144 9.1583 45.0547 8.85644 45.2385C7.03534 45.313 6.89862 43.7411 6.04144 43.0218C5.79796 42.9632 5.67124 42.4197 5.72961 42.1773C6.03146 41.9935 6.33331 41.8097 5.66125 41.3914C5.41777 41.3328 4.9308 41.2155 4.68732 41.1569C4.20036 41.0396 4.07363 40.4961 3.83015 40.4375C3.15809 40.0192 3.03136 39.4757 3.57669 39.3506L4.72571 38.8578C4.05365 38.4395 3.19648 37.7201 2.7679 37.3605C2.33931 37.0008 0.751687 36.1055 0.439846 35.261L0.37149 34.4751C0.0596491 33.6306 0.906834 33.3216 1.56891 32.7116C2.24098 33.1299 2.98141 34.3341 3.23488 35.421L5.49456 36.7346ZM130.18 44.1868C129.751 43.8271 129.625 43.2836 130.111 43.4009C130.598 43.5181 132.663 43.5023 133.51 43.1934L133.929 42.5247C134.406 41.6136 135.623 41.9068 136.529 41.3554C137.132 40.9878 138.223 40.7374 139.07 40.4284C139.917 40.1195 140.765 39.8105 141.553 39.7439C143.189 39.3684 144.825 38.9929 145.663 37.6556C146.023 37.2294 146.14 36.7446 147.114 36.9791C147.844 37.1549 148.146 36.9711 148.263 36.4863C148.321 36.2439 149.051 36.4198 149.353 36.236C149.655 36.0522 149.343 35.2076 149.587 35.2662L151.164 35.1331C152.187 34.0969 153.452 33.1193 153.998 32.9941C154.358 32.5679 157.63 31.8169 159.626 31.0151L161.194 29.8537L162.46 28.8761C164.096 28.5006 165.605 27.5816 165.42 27.2805L165.663 27.3392L165.965 27.1553C166.452 27.2726 167.416 26.4788 168.322 25.9274C169.285 25.1336 171.632 22.8773 172.051 22.2086C172.469 21.54 173.968 19.5926 174.202 18.6229C174.435 17.6532 172.107 15.5538 171.864 15.4951C171.62 15.4365 170.461 14.901 169.916 15.0261C169.371 15.1513 166.819 15.0499 165.543 14.9992C164.024 14.8899 159.291 15.2891 158.201 15.5395C157.11 15.7898 152.085 17.4012 150.089 18.203L147.781 18.1602C147.537 18.1016 147.479 18.344 147.421 18.5864C146.574 18.8954 145.483 19.1457 145.123 19.5719C144.587 20.7254 143.302 19.6464 142.639 20.2564C142.639 20.2564 142.152 20.1392 142.094 20.3816C141.257 21.7189 139.436 21.7934 138.17 22.771C136.904 23.7486 135.882 24.7848 134.616 25.7625C133.409 26.4977 132.386 27.5339 131.423 28.3277C130.702 29.1802 129.495 29.9154 128.716 31.0103L127.995 31.8627C126.73 32.8403 125.766 33.6341 125.649 34.119L125.834 34.4201C126.633 35.3818 126.273 35.8081 124.997 35.7573C124.753 35.6987 124.578 36.426 124.462 36.9108L124.403 37.1533C124.286 37.6381 124.053 38.6078 123.878 39.3351L122.972 39.8865L122.31 40.4965C122.018 41.7087 121.483 42.8621 121.181 43.0459C120.821 43.4722 121.746 44.9774 121.688 45.2198C121.571 45.7047 124.298 45.0789 125.934 44.7033L127.512 44.5702C128.3 44.5037 129.089 44.4372 129.635 44.312L130.18 44.1868ZM434.518 110.029C435.55 110.021 436.154 109.654 435.667 109.537C435.238 109.177 433.651 108.282 433.349 108.465C433.047 108.649 431.528 108.54 431.284 108.481C430.739 108.606 429.151 107.711 428.421 107.535C427.389 107.543 424.535 107.626 423.805 107.45C422.831 107.215 420.533 108.201 419.861 107.782L419.374 107.665C419.13 107.607 418.77 108.033 418.225 108.158C417.981 108.099 417.553 107.74 417.309 107.681L416.462 107.99C415.615 108.299 414.281 108.491 413.794 108.373C413.307 108.256 410.337 108.823 408.701 109.199L407.181 109.09L405.906 109.039C405.243 109.649 404.455 109.715 404.026 109.356L403.783 109.297L402.994 109.364C402.205 109.43 400.754 110.107 399.663 110.357C398.514 110.85 394.755 111.484 393.908 111.793L393.119 111.859L392.331 111.926C391.727 112.293 391.367 112.72 391.123 112.661C391.065 112.903 390.763 113.087 391.006 113.146L391.192 113.447C391.435 113.506 392.107 113.924 392.594 114.041C393.081 114.158 395.457 114.987 396.003 114.862L396.792 114.795L397.58 114.729C398.554 114.963 400.259 115.374 401.233 115.608L402.265 115.6L403.054 115.534C403.424 116.136 404.281 116.855 404.71 117.215L405.012 117.031L406.161 116.538C407.134 116.773 408.897 116.941 409.871 117.175L410.66 117.109C411.692 117.101 412.783 116.85 412.433 118.305C412.433 118.305 413.348 118.782 413.407 118.539L414.312 117.988C414.974 117.378 415.821 117.069 416.007 117.37C416.192 117.671 416.318 118.215 416.075 118.156C415.831 118.097 415.53 118.281 416.805 118.332C418.081 118.383 420.681 117.213 420.564 117.698C420.448 118.183 421.061 118.844 421.607 118.719C422.21 118.351 424.265 117.307 424.508 117.365C425.054 117.24 426.329 117.291 426.144 116.99C426.203 116.747 427.955 115.887 428.803 115.578L429.465 114.968C429.825 114.542 430.244 113.873 430.731 113.99C431.763 113.983 431.821 113.74 432.24 113.071C432.658 112.403 433.749 112.152 433.924 111.425L434.518 110.029Z" fill="#51C8FF"/>
</svg>
