<svg width="285" height="201" viewBox="0 0 285 201" fill="none" xmlns="http://www.w3.org/2000/svg">
<path d="M280.156 3.93979C279.828 4.08209 279.735 4.31652 279.805 4.47981C280.04 4.57194 280.253 5.06182 279.619 4.9487C279.149 4.76443 277.834 3.97715 277.975 4.30372C278.117 4.6303 278.072 5.42576 277.767 5.17034C277.625 4.84376 276.92 4.56733 276.499 4.94407C276.007 5.15752 274.296 5.70574 273.57 5.82705L272.914 6.11165C272.586 6.25395 272.187 6.23298 271.859 6.37528C271.46 6.35429 270.875 6.80216 270.569 6.54674C270.029 6.19918 269.984 6.99462 269.585 6.97364L269.186 6.95266C268.601 7.40055 267.617 7.82745 267.054 7.87761L266.562 8.09106C265.906 8.37566 265.064 9.12912 264.501 9.17928L263.54 9.20847C262.954 9.65635 261.456 10.6944 260.308 11.1925L259.089 11.5272C258.035 11.7908 256.887 12.2889 256.115 13.2057C255.858 13.5113 255.038 13.867 254.639 13.846C254.076 13.8962 254.076 13.8962 253.655 14.2729C253.234 14.6497 252.861 15.5874 251.851 15.0556L251.523 15.1979C251.408 15.83 250.796 15.3192 250.539 15.6248C250.282 15.9304 250.096 16.3992 249.604 16.6127L249.276 16.755C248.877 16.734 247.729 17.232 246.816 17.8222C245.903 18.4124 243.655 19.9695 243.562 20.2039L243.163 20.183C242.53 20.0698 242.272 20.3754 241.922 20.9154C241.572 21.4555 240.916 21.7401 240.331 22.188C239.746 22.6358 239.231 23.247 238.668 23.2972C237.942 23.4185 237.733 24.2851 237.099 24.172L236.864 24.0798C236.279 24.5277 236.071 25.3943 235.109 25.4235L233.048 26.5117L232.534 27.1229C232.019 27.7341 230.521 28.7722 229.515 29.5968L228.602 30.187C228.11 30.4004 227.618 30.6139 227.994 31.0326L227.573 31.4093L226.142 31.2542C225.605 32.2631 224.904 33.3432 224.647 33.6487C224.39 33.9543 223.361 35.1767 223.104 35.4823C222.918 35.9511 220.972 36.4072 220.223 36.9262C219.474 37.4453 218.121 40.1664 217.279 40.9199L216.131 41.4179L215.475 41.7025C214.797 42.3848 215.222 43.3646 216.232 43.8964L216.914 44.5705C217.596 45.2447 218.443 45.8476 218.961 46.5929C220.303 48.3389 221.902 49.7793 222.495 52.0444L222.898 53.4218C223.301 54.7992 223.845 56.5033 223.964 57.2276L224.412 57.8095C224.859 58.3915 224.815 59.187 224.934 59.9113L225.053 60.6356C225.009 61.431 224.871 62.4609 224.849 62.8586C224.826 63.2564 224.759 64.4495 224.83 64.6128C224.972 64.9394 224.2 65.8561 224.107 66.0906L224.178 66.2539L224.111 67.447C223.623 69.0169 222.621 71.198 221.92 72.2781L221.946 73.2368C221.902 74.0323 221.011 74.2247 221.13 74.949C221.272 75.2756 220.43 76.0291 220.079 76.5691C219.986 76.8035 219.729 77.1091 219.636 77.3436C219.543 77.578 219.52 77.9757 219.427 78.2101C219.334 78.4446 218.723 77.9337 218.607 78.5659C218.585 78.9636 217.623 78.9928 218.071 79.5748L216.576 81.9693L215.969 82.8149C215.033 83.8028 213.677 85.1675 212.905 86.0843L212.298 86.9299C211.947 87.4699 211.526 87.8466 211.034 88.0601C210.285 88.5791 209.678 89.4247 208.929 89.9438C208.343 90.3917 207.736 91.2373 206.867 91.032C206.703 91.1031 206.539 91.1743 206.375 91.2454L205.391 91.6723C204.478 92.2625 202.838 92.974 201.784 93.2376L200.8 93.6645L199.816 94.0914C198.761 94.3551 197.542 94.6898 197.05 94.9033C196.558 95.1167 194.657 94.7774 193.93 94.8987C193.203 95.02 189.8 94.3622 188.063 93.9517L187.545 93.2064L187.097 92.6244C186.393 92.348 185.383 91.8162 184.842 91.4686L184.302 91.121C183.761 90.7735 183.314 90.1915 182.773 89.8439C182.702 89.6806 182.632 89.5173 182.397 89.4252C181.998 89.4042 181.435 89.4544 181.2 89.3623C180.801 89.3413 181.245 88.5668 180.611 88.4537C180.212 88.4327 180 87.9428 179.858 87.6163C179.34 86.871 178.658 86.1968 178.304 85.3804L177.878 84.4007C177.617 83.3498 177.352 80.9425 177.207 79.2595L177.132 77.7397L177.035 76.6177C177.594 75.2111 178.246 73.57 178.455 72.7034L179.133 72.0211L179.647 71.4099C179.856 70.5433 180.415 69.1367 180.765 68.5967C181.28 67.9855 182.282 65.8044 182.468 65.3356C182.655 64.8667 183.448 63.5522 183.213 63.4601C182.908 63.2046 184.313 62.401 184.827 61.7898C185.341 61.1787 186.761 57.2644 188.42 54.7987L190.149 52.4963C192.228 49.6539 194.543 46.9036 196.693 44.2245L197.043 43.6845C197.628 43.2366 196.853 42.7969 195.493 42.8051C194.132 42.8133 188.973 43.4992 186.957 43.7919L185.339 44.1057L184.448 44.2982C183.465 44.7251 182.317 45.2231 181.825 45.4366C181.262 45.4868 179.693 46.3615 179.365 46.5038L178.966 46.4828C178.403 46.533 178.593 47.4206 178.053 47.073C178.053 47.073 177.889 47.1442 177.725 47.2153C177.467 47.5209 175.477 48.7724 175.149 48.9147C174.985 48.9859 174.728 49.2915 174.564 49.3626C173.58 49.7895 172.857 51.2673 171.448 50.7145C171.191 51.0201 170.278 51.6102 169.272 52.4349C168.358 53.0251 165.995 55.2143 166.536 55.5619L165.269 55.3356L164.564 55.0592C164.143 55.436 163.137 56.2606 162.458 56.9429C161.709 57.4619 159.51 59.5801 158.69 59.9358L158.34 60.4758C157.826 61.087 157.121 60.8106 157.121 60.8106L157.267 62.4936C155.698 63.3684 154.222 64.0088 154.222 64.0088C154.058 64.0799 153.495 64.1301 153.331 64.2012C153.167 64.2724 152.701 65.4446 152.045 65.7292C151.389 66.0138 149.447 67.8263 148.605 68.5798L147.927 69.2621C147.342 69.71 147.062 70.4133 146.171 70.6058C145.843 70.7481 145.657 71.2169 145.4 71.5225L145.236 71.5937C144.908 71.736 144.558 72.276 144.606 72.837L143.738 72.6318C143.738 72.6318 143.294 73.4062 142.873 73.7829L142.616 74.0885C142.124 74.302 141.375 74.821 141.047 74.9633L141.024 75.361C140.931 75.5955 140.838 75.8299 140.674 75.9011C139.854 76.2568 138.706 76.7549 138.52 77.2237L138.218 78.3248C137.212 79.1494 136.276 80.1373 135.948 80.2796L135.62 80.4219C135.128 80.6354 134.401 80.7567 134.592 81.6442C134.592 81.6442 134.335 81.9498 134.007 82.0921C133.187 82.4479 132.765 82.8246 132.721 83.6201C132.769 84.1811 132.158 83.6702 132.229 83.8335L131.949 84.5368C131.435 85.148 130.242 86.4415 129.307 87.4294L128.394 88.0196L127.481 88.6098C126.873 89.4554 125.61 90.5856 125.002 91.4312L124.559 92.2057C124.302 92.5112 123.362 92.1427 123.717 92.9591C123.787 93.1224 123.038 93.6415 122.781 93.947L122.36 94.3238C121.939 94.7005 120.933 95.5251 120.418 96.1363C119.904 96.7475 117.612 99.1 116.84 100.017C116.069 100.934 112.908 103.081 112.651 103.386C112.394 103.692 111.365 104.914 110.944 105.291C110.523 105.668 109.495 106.89 109.167 107.033C108.909 107.338 107.456 107.581 107.292 107.652C107.128 107.723 106.8 107.865 107.597 107.907L107.717 108.632C107.694 109.029 107.601 109.264 107.202 109.243C106.875 109.385 106.405 109.201 106.405 109.201L105.66 111.076C103.621 111.767 102.074 112.244 102.238 112.173C102.402 112.102 102.708 112.357 102.286 112.734C101.865 113.11 100.274 114.383 99.6887 114.831L99.3385 115.371L98.9881 115.911C98.3322 116.195 97.2327 117.255 96.2972 118.242L95.1493 118.741L94.3293 119.096C94.0498 119.8 93.3007 120.319 92.7379 120.369C92.339 120.348 91.2619 121.009 91.6384 121.428L90.7252 122.018C90.2333 122.231 90.047 122.7 89.5773 122.516C89.4133 122.587 88.5487 123.738 87.4492 124.797L86.4652 125.224C85.9732 125.438 85.1756 125.396 84.6836 125.609C84.1916 125.823 83.9121 126.526 83.491 126.903C83.0698 127.28 82.7195 127.82 82.2984 128.196L82.0412 128.502C81.5492 128.715 80.7516 128.673 80.3527 128.652L80.6361 129.306C80.6361 129.306 80.051 129.753 79.723 129.896L78.8098 130.486C77.4978 131.055 76.3498 131.553 76.3498 131.553C76.115 131.461 75.6453 131.277 75.6453 131.277C75.6453 131.277 75.5522 131.511 75.623 131.674C75.6939 131.838 76.0704 132.256 75.9064 132.328C75.7424 132.399 74.9447 132.357 74.3111 132.244L74.5013 133.131C74.5013 133.131 73.9161 133.579 73.8453 133.416C73.3756 133.232 73.3533 133.629 73.0253 133.772C72.8613 133.843 72.3916 133.658 72.2276 133.73L71.8996 133.872C71.6425 134.178 71.2213 134.554 70.8002 134.931C70.543 135.237 68.9516 136.509 68.1316 136.865L67.6173 137.476C67.103 138.087 66.447 138.372 65.6493 138.33L65.3213 138.472L64.9264 139.808C63.4728 140.05 62.5111 140.079 62.8391 139.937C63.0031 139.866 63.5174 139.255 63.0254 139.468L62.7905 139.376C62.25 139.028 62.2986 139.589 62.0414 139.895C61.5494 140.109 61.6911 140.435 61.5979 140.67L61.2476 141.21C60.4053 141.963 59.6785 142.084 59.8648 141.615L59.794 141.452L59.7231 141.289C59.4883 141.197 59.0894 141.176 58.8323 141.481L58.9031 141.645L58.8362 142.838C57.8522 143.265 56.6111 143.997 56.2831 144.14L56.1191 144.211L55.1574 144.24C54.4083 144.759 53.73 145.441 53.402 145.584C53.1449 145.889 51.8552 146.061 51.6912 146.132C51.3632 146.274 50.5432 146.63 50.45 146.864C50.3569 147.099 49.7717 147.547 49.5369 147.454C49.302 147.362 48.2472 147.626 47.9192 147.768C47.5913 147.91 46.3278 149.041 45.7203 149.886L44.9935 150.008L43.6107 150.414C42.4404 151.309 40.7073 152.255 39.8873 152.611L39.0673 152.967L38.5753 153.18C38.1542 153.557 37.3342 153.913 36.6782 154.197C36.1862 154.411 34.3599 155.591 33.7748 156.039L33.1411 155.926L32.5074 155.813C32.0863 156.189 31.4303 156.474 31.3372 156.708C29.7418 156.625 28.5492 157.918 27.0955 158.161L26.5327 158.211C25.899 158.098 25.407 158.311 25.243 158.382C25.1499 158.617 24.0728 159.278 23.1111 159.307C22.3134 159.265 18.4221 160.177 16.3125 160.705L14.46 160.926C13.7331 161.048 12.9355 161.006 12.0446 161.198L11.1538 161.391C10.0505 161.093 8.94709 160.796 8.47743 160.611C8.00774 160.427 6.66957 160.038 6.59873 159.874C6.52789 159.711 6.31536 159.221 6.24452 159.058C6.17368 158.895 4.88404 159.066 4.55604 159.208L4.27266 158.555C3.63897 158.442 2.72583 159.032 2.21151 159.644C1.86121 160.184 -0.554101 160.455 -0.882078 160.598C-1.21008 160.74 -2.28726 161.401 -3.08493 161.359L-3.52838 162.134L-3.69238 162.205C-3.85638 162.276 -4.34834 162.49 -4.76951 162.866C-5.26149 163.08 -6.64434 163.486 -6.97232 163.628C-7.13632 163.699 -7.93396 163.657 -8.09796 163.728C-8.26193 163.799 -10.0659 164.582 -11.4711 165.386L-12.947 166.026C-13.439 166.239 -13.6739 166.147 -14.095 166.524C-14.5162 166.901 -15.3362 167.257 -15.735 167.236L-16.3686 167.122C-16.8606 167.336 -17.6806 167.692 -18.1726 167.905L-18.6646 168.119C-19.1566 168.332 -19.8126 168.617 -20.0474 168.524L-20.588 168.177C-20.7743 168.646 -21.1246 169.186 -21.3817 169.491C-21.6389 169.797 -23.0703 169.642 -23.7971 169.763L-24.2891 169.977L-24.781 170.19C-25.2022 170.567 -25.8582 170.851 -26.1862 170.994C-26.5142 171.136 -27.897 171.542 -28.389 171.755L-28.8809 171.969L-29.6078 172.09C-30.4986 172.283 -31.3894 172.475 -31.7174 172.617C-32.0454 172.76 -33.5214 173.4 -33.9425 173.777C-34.4345 173.99 -35.9814 174.467 -36.7305 174.986C-37.5505 175.342 -40.8566 175.806 -42.1686 176.376L-43.4583 176.547C-44.1851 176.668 -44.2297 177.464 -45.0274 177.422L-45.6611 177.309C-46.3879 177.43 -47.0439 177.715 -47.3011 178.02L-47.629 178.162C-48.0502 178.539 -48.6354 178.987 -49.1536 178.242C-49.1536 178.242 -49.8804 178.363 -49.8095 178.526L-50.089 179.23C-50.8158 179.351 -51.9415 179.451 -52.3403 179.43C-52.7391 179.409 -53.9095 180.305 -54.0735 180.376C-54.4723 180.355 -55.598 180.456 -55.6911 180.69C-55.7843 180.925 -56.2054 181.301 -56.3471 180.975C-56.3248 180.577 -57.4951 181.473 -57.9871 181.686L-58.4791 181.9L-59.791 182.469C-61.103 183.038 -62.9555 183.26 -63.66 182.983L-63.9395 183.687C-64.3121 184.624 -64.9943 183.95 -65.4863 184.164C-65.9783 184.377 -66.6343 184.662 -67.2679 184.549C-67.4319 184.62 -67.6891 184.925 -67.9462 185.231C-68.2034 185.536 -69.6571 185.779 -70.3839 185.9L-70.8759 186.114C-71.3679 186.327 -71.953 186.775 -72.6576 186.499C-72.6576 186.499 -72.9855 186.641 -73.1495 186.712L-73.3805 187.977C-74.5062 188.077 -75.7026 188.014 -76.1723 187.83C-76.5712 187.809 -78.3043 188.755 -79.1243 189.11L-79.5939 188.926C-80.4624 188.721 -80.3431 189.445 -80.9059 189.495C-81.4687 189.545 -82.2665 189.503 -82.3596 189.738C-82.8031 190.512 -83.4144 190.002 -83.8356 190.378C-84.3276 190.592 -84.8904 190.642 -85.4532 190.692L-85.852 190.671C-86.5081 190.956 -87.82 191.525 -88.804 191.952C-89.788 192.379 -92.7176 193.262 -93.1164 193.241C-93.5153 193.22 -94.3352 193.575 -94.7341 193.554C-95.1329 193.533 -95.9752 194.287 -96.1392 194.358C-96.4672 194.5 -97.9209 194.743 -98.6254 194.467L-98.9272 195.568C-99.49 195.618 -100.78 195.789 -101.998 196.124C-103.053 196.388 -106.311 197.413 -106.874 197.463C-107.437 197.513 -108.186 198.032 -108.35 198.103C-108.678 198.246 -109.897 198.58 -110.623 198.702L-111.093 198.517C-111.891 198.476 -112.431 198.128 -112.968 199.137L-113.225 199.442C-113.952 199.564 -115.078 199.664 -115.711 199.551L-116.181 199.367L-117.027 198.764C-117.847 199.119 -118.924 199.781 -119.252 199.923C-119.58 200.065 -120.728 200.563 -120.799 200.4C-120.87 200.237 -121.809 199.868 -122.301 200.082C-122.957 200.366 -124.273 199.579 -123.874 199.6C-123.475 199.621 -122.35 199.521 -122.257 199.286C-122.163 199.052 -122.212 198.491 -122.447 198.399L-122.775 198.541C-123.595 198.897 -123.643 198.336 -124.02 197.917C-124.161 197.59 -123.647 196.979 -124.516 196.774L-124.985 196.59C-125.198 196.1 -125.623 195.12 -125.671 194.559C-125.884 194.069 -124.151 193.123 -123.823 192.981C-123.495 192.839 -122.183 192.27 -121.691 192.056C-121.199 191.843 -118.925 191.244 -118.433 191.031C-117.941 190.817 -115.761 190.453 -115.34 190.077C-114.848 189.863 -113.629 189.529 -113.372 189.223C-113.115 188.917 -111.191 188.859 -110.136 188.595C-109.152 188.169 -105.403 186.93 -104.348 186.666C-103.293 186.403 -100.129 185.612 -99.5659 185.562L-99.2378 185.419L-97.0127 184.26C-94.4111 183.519 -91.5746 182.871 -90.7546 182.515L-89.9346 182.159C-89.2787 181.875 -88.6227 181.59 -87.661 181.561L-87.0982 181.511C-86.513 181.063 -85.529 180.636 -85.1079 180.259C-84.6159 180.046 -82.8342 179.661 -82.3423 179.447C-81.8502 179.234 -79.9978 179.012 -79.3418 178.728C-78.6858 178.443 -76.3898 177.447 -75.8047 176.999L-75.5698 177.091C-74.9362 177.204 -74.7499 176.735 -74.3511 176.756C-73.9522 176.777 -73.4602 176.564 -73.1322 176.422C-72.6402 176.208 -72.1482 175.995 -71.6563 175.781C-71.3283 175.639 -70.6237 175.915 -70.3666 175.61C-69.7591 174.764 -68.6558 175.062 -67.7426 174.471C-67.2506 174.258 -66.7586 174.044 -66.2666 173.831L-65.7747 173.618C-65.2118 173.567 -64.485 173.446 -64.0862 173.467L-63.5942 173.254C-63.1022 173.04 -62.681 172.663 -62.0474 172.777L-61.8125 172.869C-61.3914 172.492 -60.3142 171.831 -59.5651 171.312C-58.7451 170.956 -56.423 170.918 -56.259 170.847C-56.259 170.847 -55.111 170.349 -53.8922 170.015C-52.7442 169.516 -49.1586 168.349 -48.4317 168.228C-47.7049 168.106 -45.5953 167.579 -45.2673 167.437L-44.7752 167.223C-44.1193 166.939 -43.605 166.328 -42.6433 166.298C-41.9165 166.177 -41.2381 165.495 -40.3696 165.7L-39.5011 165.905C-38.6811 165.549 -37.3692 164.98 -36.6424 164.859C-35.9864 164.574 -33.3624 163.436 -32.1436 163.101C-30.9248 162.766 -27.574 161.507 -27.246 161.364C-26.918 161.222 -25.8632 160.959 -25.5352 160.816C-25.1364 160.837 -23.8729 159.707 -23.0529 159.351C-22.0689 158.924 -19.1616 158.439 -18.5988 158.389L-18.1068 158.175L-14.3348 156.539C-10.0709 154.689 -6.06416 153.145 -5.24415 152.789L-4.96473 152.086C-4.87157 151.851 -4.37959 151.638 -4.14475 151.73C-3.7459 151.751 -3.20537 152.099 -2.92589 151.395L-2.64646 150.692C-2.36698 149.989 -2.46406 148.867 -2.84059 148.448L-2.65424 147.979C-2.65424 147.979 -2.95995 147.724 -3.0308 147.56L-3.24331 147.07C-2.84447 147.091 -2.4233 146.715 -2.2593 146.644L-2.33014 146.48L-2.40099 146.317C-2.63583 146.225 -2.75519 145.501 -2.63971 144.868C-2.52426 144.236 -1.70816 142.524 -1.05218 142.239L-1.33555 141.586C-1.54808 141.096 -1.36178 140.628 -1.01146 140.088L-0.918306 139.853C-0.989147 139.69 -1.27251 139.037 -1.64903 138.618L-1.13474 138.007L-0.970742 137.936C-0.877581 137.701 -0.762124 137.069 -0.575803 136.6C-0.389482 136.131 1.20193 134.859 1.29509 134.624L1.38826 134.39L1.48141 134.155C1.57457 133.921 1.76087 133.452 1.78319 133.054C1.80551 132.657 2.17809 131.719 2.88262 131.995L2.69241 131.108L2.55073 130.781C2.73705 130.312 2.99422 130.007 3.32219 129.864C3.48619 129.793 4.65647 128.898 5.40561 128.378C6.08391 127.696 8.28282 125.578 8.70396 125.201C9.12512 124.825 11.2794 123.502 12.0994 123.146C12.9194 122.79 15.8451 120.551 16.993 120.053L18.0479 119.789L18.7747 119.668C19.4307 119.383 20.6719 118.651 21.4918 118.295L22.3118 117.939C23.1318 117.584 23.7878 117.299 24.6078 116.943C24.7718 116.872 24.9358 116.801 25.0998 116.73C25.7335 116.843 26.11 117.262 26.7174 116.416C26.9746 116.11 27.8431 116.316 28.3351 116.102C29.4831 115.604 30.6572 116.065 31.7344 115.404C31.7344 115.404 31.9692 115.496 32.0401 115.659C32.3457 115.914 32.5806 116.007 32.8863 116.262L33.3336 116.844C33.7548 116.467 34.1536 116.488 34.0605 116.723L34.2953 116.815C34.601 117.07 34.9998 117.091 35.3055 117.347L36.2934 118.276L36.4351 118.603C36.7407 118.858 37.423 119.532 37.7995 119.951L38.176 120.37C38.5525 120.788 39.093 121.136 39.4695 121.555C40.0586 122.463 40.5768 123.209 41.1659 124.117L41.3784 124.607C41.4978 125.331 41.5463 125.892 41.4531 126.127C41.36 126.361 40.7525 127.207 40.4954 127.512C40.2382 127.818 39.8656 128.756 39.8433 129.153L39.8209 129.551C39.6347 130.02 38.7438 130.213 39.0272 130.866L39.1689 131.192C38.606 131.242 38.1141 131.456 37.9501 131.527C37.786 131.598 37.0146 132.515 36.7575 132.821L36.5003 133.126L36.2432 133.432C35.822 133.808 35.5649 134.114 35.6357 134.277C35.7065 134.441 35.7327 135.399 35.4047 135.542C35.0767 135.684 34.1636 136.274 34.3276 136.203C34.5625 136.295 34.7973 136.387 34.7041 136.622L34.5401 136.693C34.3761 136.764 34.2121 136.835 34.0481 136.906C32.5945 137.149 32.6915 138.271 32.2481 139.045C31.8978 139.585 31.9686 139.749 31.3573 139.238L30.7459 138.727C30.7236 139.125 30.5372 139.594 30.3024 139.501C30.1384 139.573 29.6464 139.786 29.7173 139.949L29.9521 140.041L30.6566 140.318C30.2355 140.695 29.2069 141.917 28.4354 142.834L27.664 143.75C27.4068 144.056 27.1497 144.362 26.8217 144.504C25.9308 144.696 25.4166 145.308 25.0663 145.848L24.6451 146.224C24.1531 146.438 23.8251 146.58 23.6611 146.651L23.568 146.886C23.4748 147.12 23.5456 147.283 23.3816 147.355C22.2337 147.853 21.6262 148.698 20.7131 149.288L19.7999 149.879C18.7228 150.54 17.3177 151.344 16.5685 151.863L15.9834 152.31C15.5622 152.687 15.469 152.922 14.6714 152.88L14.2726 152.859C13.9223 153.399 13.2663 153.683 12.8674 153.662C12.6326 153.57 12.26 154.508 12.3308 154.671C12.2377 154.906 11.3468 155.098 10.8548 155.312L10.9034 155.873L10.9742 156.036C10.8811 156.27 11.2799 156.291 11.7719 156.078C12.2639 155.864 13.8815 155.551 14.2318 155.011L14.8655 155.124C15.4992 155.237 15.898 155.258 16.6248 155.137L17.1877 155.086C17.6797 154.873 18.4288 154.354 18.686 154.048C18.9431 153.743 21.6864 153.329 23.6544 152.475C25.6224 151.621 30.8703 149.344 31.2691 149.365C31.6679 149.386 32.5326 148.235 32.7897 147.929C33.0469 147.624 34.7353 147.473 35.5553 147.118L36.1405 146.67L36.8896 146.151C37.7096 145.795 38.8799 144.899 39.629 144.38L40.4267 144.422L40.8256 144.443C41.1312 144.698 41.3884 144.393 41.1758 143.903L42.0667 143.711L42.9575 143.518C43.7066 142.999 45.1118 142.195 46.0026 142.003L46.6101 141.157L46.8672 140.852C47.5941 140.73 49.1409 140.253 50.054 139.663C51.038 139.236 53.3077 137.281 53.3786 137.445C53.4494 137.608 53.8482 137.629 54.1054 137.323C54.1986 137.089 55.0408 136.336 55.3912 135.795L55.626 135.888C56.4945 136.093 57.0088 135.482 57.594 135.034L57.758 134.963C57.9928 135.055 58.5779 134.607 59.234 134.322C59.8191 133.874 62.1374 132.481 62.8865 131.962C63.4716 131.514 65.6968 130.354 66.1664 130.539L66.211 129.743C66.2334 129.345 66.8894 129.061 67.3105 128.684C67.8025 128.471 68.2945 128.257 68.7865 128.044C68.9505 127.973 69.2785 127.83 69.2076 127.667C69.4871 126.964 70.0723 126.516 70.7991 126.395L71.6899 126.202C72.2042 125.591 73.8665 124.482 75.2008 123.515C76.5351 122.548 80.9591 119.27 82.4574 118.232L83.7916 117.265C84.7048 116.675 85.7819 116.014 86.1545 115.076C86.2477 114.842 86.5757 114.699 86.5757 114.699C87.2802 114.976 87.4665 114.507 87.7237 114.201C88.566 113.448 89.2443 112.765 90.3214 112.104L91.1414 111.748C91.7489 110.903 92.6843 109.915 93.2695 109.467C93.8546 109.019 95.3752 107.583 95.8895 106.972C96.2398 106.432 98.0661 105.252 98.3232 104.946C98.7444 104.569 101.271 102.309 103.213 100.496L105.062 98.9183C105.319 98.6127 105.483 98.5416 105.576 98.3072L105.855 97.6038C106.605 97.0848 107.212 96.2392 107.469 95.9336C107.726 95.628 108.897 94.7322 109.225 94.5899L109.318 94.3555C109.668 93.8155 109.854 93.3466 110.51 93.062C110.838 92.9197 111.095 92.6141 111.353 92.3085C111.774 91.9318 111.96 91.4629 112.381 91.0862L114.044 89.977C115.258 88.2857 116.801 86.4522 117.387 86.0044C118.065 85.322 119.772 83.4174 119.794 83.0196C120.051 82.7141 121.221 81.8183 121.479 81.5127C121.736 81.2071 122.999 80.0769 123.443 79.3024L123.793 78.7624C123.886 78.528 124.214 78.3857 124.378 78.3145L125.105 78.1932C125.455 77.6532 126.976 76.2174 128.333 74.8527L129.831 73.8147C129.831 73.8147 129.995 73.7435 129.924 73.5802L130.766 72.8268C131.773 72.0021 132.801 70.7798 133.222 70.4031C133.573 69.863 135.891 68.4692 136.733 67.7157C137.575 66.9623 139.961 64.3753 140.639 63.6929C141.388 63.1739 144.079 60.8423 145.249 59.9466L146.021 59.0298L146.628 58.1842C147.541 57.594 148.619 56.9327 148.876 56.6271C149.297 56.2503 151.216 54.8355 152.223 54.0109L153.065 53.2574C153.743 52.5751 154.94 52.6381 155.476 51.6292C155.827 51.0891 156.975 50.5911 157.724 50.0721C159.222 49.034 160.72 47.9959 162.219 46.9578L162.383 46.8867C162.547 46.8156 163.788 46.0831 165.357 45.2083L166.762 44.4046C167.675 43.8145 168.495 43.4587 169.244 42.9397C170.157 42.3495 171.354 42.4124 171.89 41.4036C171.89 41.4036 172.218 41.2613 172.382 41.1901C172.897 40.5789 174.049 41.4373 174.514 40.2652L174.701 39.7963C175.756 39.5327 177.209 39.2901 178.007 39.332L178.685 38.6497L179.199 38.0385C179.997 38.0805 181.216 37.7457 181.965 37.2267L182.763 37.2687C183.162 37.2897 183.747 36.8418 184.239 36.6283L184.731 36.4149C185.036 36.6703 185.67 36.7834 186.162 36.57L186.49 36.4277C186.818 36.2854 187.004 35.8165 187.474 36.0008C188.179 36.2772 188.835 35.9926 189.725 35.8001C190.78 35.5365 192.141 35.5283 193.266 35.428L193.594 35.2857C193.993 35.3067 194.064 35.47 194.135 35.6333C194.206 35.7965 194.183 36.1943 194.254 36.3575C194.254 36.3575 194.582 36.2153 194.675 35.9808C194.769 35.7464 195.682 35.1562 196.315 35.2693L196.785 35.4536L197.02 35.5457C197.255 35.6378 197.49 35.73 197.49 35.73C197.654 35.6588 198.052 35.6798 198.287 35.772C198.593 36.0274 199.368 36.4671 199.297 36.3038C199.227 36.1405 199.413 35.6716 199.648 35.7638C199.883 35.8559 200.68 35.8979 201.243 35.8477L201.642 35.8687C202.768 35.7684 203.002 35.8605 203.99 36.7901L204.061 36.9534C204.296 37.0455 204.788 36.8321 204.81 36.4343L205.444 36.5474L205.679 36.6396C205.843 36.5684 206.756 35.9782 207.669 35.3881L208.347 34.7057L209.704 33.3411C211.225 31.9053 213.073 30.3272 213.658 29.8793C214.407 29.3603 216.677 27.4054 217.426 26.8864C218.176 26.3674 220.844 24.4335 221.522 23.7512C222.201 23.0689 224.426 21.9095 224.847 21.5328L225.175 21.3904L226.323 20.8924C227.4 20.2311 229.062 19.1218 230.139 18.4605C231.217 17.7992 234.448 15.8152 234.869 15.4384L235.361 15.225L235.853 15.0115C236.438 14.5636 237.094 14.2791 237.351 13.9735C237.609 13.6679 240.255 12.1318 242.409 10.8091L244.683 10.2107L245.41 10.0894C246.066 9.8048 247.143 9.14346 247.657 8.53228L248.313 8.24768C248.969 7.96308 249.789 7.60733 250.609 7.25158L251.265 6.96699C251.921 6.68239 253.468 6.20532 254.523 5.94171L255.436 5.35151L256.185 4.83249C257.311 4.73216 258.693 4.32624 259.092 4.34722C259.655 4.29706 260.896 3.56458 261.623 3.44327L261.832 2.57666C261.996 2.50551 262.652 2.22091 263.144 2.00746C263.8 1.72286 265.865 1.9911 266.427 1.94094L266.99 1.89076L267.717 1.76946C267.505 1.2796 267.691 0.810711 267.926 0.902849C268.09 0.831699 269.45 0.823508 270.248 0.865482L270.554 1.12092L271.4 1.72391C271.679 1.0206 272.522 0.267113 273.412 0.0746517L274.024 0.585509C274.095 0.748798 274.493 0.769772 274.587 0.535334C275.593 -0.289289 276.346 0.548139 277.144 0.590113C277.308 0.518963 277.613 0.774396 277.684 0.937681C277.591 1.17212 277.498 1.40654 278.061 1.35637C278.225 1.28522 278.553 1.14292 278.717 1.07177C279.045 0.929472 279.35 1.18492 279.514 1.11377C280.077 1.0636 280.383 1.31902 280.126 1.6246L279.682 2.39906C280.245 2.3489 281.043 2.39087 281.442 2.41186C281.84 2.43284 283.13 2.26137 283.671 2.60893L284.047 3.02765C284.588 3.37521 284.237 3.91522 284.122 4.54738C283.559 4.59754 282.62 4.229 282.008 3.71816L280.156 3.93979ZM205.867 53.2436C206.266 53.2646 206.572 53.5201 206.244 53.6624C205.916 53.8047 204.746 54.7004 204.395 55.2405L204.444 55.8015C204.563 56.5258 203.743 56.8815 203.464 57.5848C203.277 58.0537 202.763 58.6649 202.413 59.2049C202.062 59.7449 201.712 60.2849 201.291 60.6617C200.52 61.5784 199.748 62.4952 199.845 63.6172C199.823 64.0149 199.965 64.3415 199.309 64.6261C198.817 64.8396 198.723 65.074 198.865 65.4006C198.936 65.5639 198.444 65.7773 198.351 66.0117C198.258 66.2462 198.798 66.5938 198.634 66.6649L197.792 67.4184C197.654 68.4482 197.352 69.5493 197.095 69.8549C197.073 70.2526 195.53 72.0861 194.736 73.4006L194.341 74.7361L194.039 75.8371C193.268 76.7539 192.802 77.926 193.037 78.0182L192.873 78.0893L192.78 78.3238C192.452 78.4661 192.243 79.3327 191.964 80.036C191.755 80.9026 191.386 83.1968 191.435 83.7578C191.484 84.3188 191.465 86.073 191.748 86.7261C192.032 87.3793 194.261 87.5764 194.425 87.5052C194.589 87.4341 195.48 87.2416 195.737 86.936C195.994 86.6304 197.492 85.5923 198.241 85.0733C199.155 84.4831 201.681 82.2227 202.196 81.6115C202.71 81.0004 204.883 77.9235 205.677 76.609L207.011 75.6421C207.175 75.5709 207.104 75.4077 207.033 75.2444C207.383 74.7043 207.898 74.0932 207.92 73.6954C207.73 72.8079 208.926 72.8708 209.042 72.2387C209.042 72.2387 209.37 72.0964 209.299 71.9331C209.202 70.811 210.208 69.9864 210.51 68.8854C210.812 67.7844 210.95 66.7545 211.251 65.6535C211.624 64.7157 211.762 63.6858 211.97 62.8192C212.015 62.0238 212.388 61.086 212.361 60.1273L212.406 59.3318C212.708 58.2308 212.916 57.3642 212.775 57.0376L212.54 56.9455C211.671 56.7402 211.694 56.3425 212.443 55.8235C212.607 55.7523 212.394 55.2625 212.253 54.9359L212.182 54.7726C212.04 54.446 211.757 53.7929 211.544 53.303L211.824 52.5997L211.939 51.9676C211.585 51.1511 211.395 50.2636 211.488 50.0291C211.51 49.6314 210.336 49.1707 210.265 49.0074C210.123 48.6808 208.838 50.2088 208.066 51.1255L207.224 51.879C206.803 52.2557 206.382 52.6325 206.124 52.9381L205.867 53.2436ZM4.07349 146.418C3.48835 146.866 3.30206 147.335 3.63007 147.193C4.02888 147.214 5.31855 147.042 5.41171 146.808C5.50485 146.573 6.41802 145.983 6.58202 145.912C6.83919 145.606 8.12881 145.435 8.62081 145.222C9.20595 144.774 10.7974 143.501 11.2894 143.288C11.9454 143.003 12.8323 141.454 13.3952 141.404L13.7231 141.262C13.8871 141.191 13.9094 140.793 14.1666 140.487C14.3306 140.416 14.7295 140.437 14.8935 140.366L15.2437 139.826C15.594 139.286 16.2724 138.604 16.6003 138.461C16.9283 138.319 18.3781 136.72 19.1495 135.803L20.0627 135.213L20.8118 134.694C20.9273 134.062 21.3485 133.685 21.7473 133.706L21.9112 133.635L22.3324 133.258C22.7536 132.881 23.2902 131.873 23.8045 131.261C24.2479 130.487 26.1188 128.511 26.4692 127.971L26.8903 127.594L27.3115 127.218C27.4978 126.749 27.5201 126.351 27.6841 126.28C27.6132 126.117 27.7064 125.882 27.5424 125.953L27.3076 125.861C27.1436 125.932 26.5808 125.982 26.2528 126.125C25.9248 126.267 24.2139 126.815 23.9567 127.121L23.5356 127.498L23.1145 127.874C22.4585 128.159 21.3105 128.657 20.6546 128.942L20.0694 129.389L19.6483 129.766C19.1786 129.582 18.3809 129.54 17.9821 129.519L17.8889 129.753L17.4455 130.528C16.7895 130.812 15.7123 131.474 15.0564 131.758L14.6352 132.135C14.05 132.583 13.5357 133.194 13.1107 132.214C13.1107 132.214 12.3839 132.336 12.4547 132.499L12.1752 133.202C12.0598 133.834 11.7094 134.375 11.4746 134.282C11.2397 134.19 10.9341 133.935 11.0981 133.864C11.2621 133.793 11.3552 133.558 10.6061 134.077C9.85694 134.596 8.87687 136.38 8.73519 136.053C8.5935 135.726 7.95984 135.613 7.70268 135.919C7.51636 136.388 6.79345 137.865 6.62945 137.937C6.37228 138.242 5.62313 138.761 5.85798 138.853C5.92882 139.017 5.29904 140.26 4.94875 140.8L4.83327 141.432C4.81095 141.83 4.85948 142.391 4.5315 142.533C3.94633 142.981 4.01717 143.144 4.06572 143.705C4.11425 144.266 3.59995 144.878 3.81248 145.367L4.07349 146.418Z" fill="#C5B7FF"/>
</svg>
