<svg width="168" height="48" viewBox="0 0 168 48" fill="none" xmlns="http://www.w3.org/2000/svg">
<path d="M64.06 33C62.7907 33 62.156 32.3653 62.156 31.096V15.164C62.156 13.8947 62.7907 13.26 64.06 13.26H74.056C75.0267 13.26 75.512 13.7267 75.512 14.66C75.512 15.6307 75.0267 16.116 74.056 16.116H65.6V21.548H73.44C74.4107 21.548 74.896 22.024 74.896 22.976C74.896 23.928 74.4107 24.404 73.44 24.404H65.6V30.144H74.056C75.0267 30.144 75.512 30.62 75.512 31.572C75.512 32.524 75.0267 33 74.056 33H64.06ZM83.709 33.28C82.5143 33.28 81.4597 32.9907 80.545 32.412C79.649 31.8333 78.949 31.012 78.445 29.948C77.941 28.8653 77.689 27.596 77.689 26.14C77.689 24.6653 77.941 23.4053 78.445 22.36C78.949 21.296 79.649 20.4747 80.545 19.896C81.4597 19.3173 82.5143 19.028 83.709 19.028C84.6797 19.028 85.557 19.2427 86.341 19.672C87.125 20.1013 87.713 20.6707 88.105 21.38V14.8C88.105 13.624 88.6837 13.036 89.841 13.036C91.017 13.036 91.605 13.624 91.605 14.8V31.432C91.605 32.6267 91.0263 33.224 89.869 33.224C88.7117 33.224 88.133 32.6267 88.133 31.432V30.844C87.741 31.5907 87.153 32.188 86.369 32.636C85.585 33.0653 84.6983 33.28 83.709 33.28ZM84.689 30.62C85.7343 30.62 86.5743 30.2467 87.209 29.5C87.8437 28.7347 88.161 27.6147 88.161 26.14C88.161 24.6467 87.8437 23.536 87.209 22.808C86.5743 22.0613 85.7343 21.688 84.689 21.688C83.6437 21.688 82.8037 22.0613 82.169 22.808C81.5343 23.536 81.217 24.6467 81.217 26.14C81.217 27.6147 81.5343 28.7347 82.169 29.5C82.8037 30.2467 83.6437 30.62 84.689 30.62ZM100.19 33.28C96.8301 33.28 95.1501 31.3947 95.1501 27.624V20.848C95.1501 19.672 95.7287 19.084 96.8861 19.084C98.0621 19.084 98.6501 19.672 98.6501 20.848V27.68C98.6501 28.6507 98.8461 29.3693 99.2381 29.836C99.6301 30.3027 100.255 30.536 101.114 30.536C102.047 30.536 102.813 30.2187 103.41 29.584C104.007 28.9307 104.306 28.072 104.306 27.008V20.848C104.306 19.672 104.885 19.084 106.042 19.084C107.218 19.084 107.806 19.672 107.806 20.848V31.432C107.806 32.6267 107.237 33.224 106.098 33.224C104.959 33.224 104.39 32.6267 104.39 31.432V30.956C103.475 32.5053 102.075 33.28 100.19 33.28ZM116.125 33.28C113.008 33.28 111.449 31.5347 111.449 28.044V14.8C111.449 13.624 112.028 13.036 113.185 13.036C114.361 13.036 114.949 13.624 114.949 14.8V27.876C114.949 29.556 115.649 30.396 117.049 30.396C117.198 30.396 117.338 30.396 117.469 30.396C117.6 30.3773 117.73 30.3587 117.861 30.34C118.122 30.3027 118.3 30.3773 118.393 30.564C118.486 30.732 118.533 31.0867 118.533 31.628C118.533 32.0947 118.44 32.4587 118.253 32.72C118.066 32.9813 117.758 33.14 117.329 33.196C116.937 33.252 116.536 33.28 116.125 33.28ZM124.898 33.28C123.909 33.28 123.022 33.0933 122.238 32.72C121.473 32.328 120.866 31.8053 120.418 31.152C119.989 30.4987 119.774 29.7613 119.774 28.94C119.774 27.932 120.036 27.1387 120.558 26.56C121.081 25.9627 121.93 25.5333 123.106 25.272C124.282 25.0107 125.86 24.88 127.838 24.88H128.818V24.292C128.818 23.3587 128.613 22.6867 128.202 22.276C127.792 21.8653 127.101 21.66 126.13 21.66C125.589 21.66 125.001 21.7253 124.366 21.856C123.75 21.9867 123.097 22.2107 122.406 22.528C121.958 22.7333 121.585 22.7613 121.286 22.612C120.988 22.444 120.782 22.192 120.67 21.856C120.577 21.5013 120.596 21.1467 120.726 20.792C120.876 20.4373 121.165 20.176 121.594 20.008C122.453 19.6533 123.274 19.4013 124.058 19.252C124.861 19.1027 125.589 19.028 126.242 19.028C128.24 19.028 129.724 19.4947 130.694 20.428C131.665 21.3427 132.15 22.7707 132.15 24.712V31.432C132.15 32.6267 131.609 33.224 130.526 33.224C129.425 33.224 128.874 32.6267 128.874 31.432V30.816C128.557 31.5813 128.053 32.188 127.362 32.636C126.672 33.0653 125.85 33.28 124.898 33.28ZM125.626 30.872C126.541 30.872 127.297 30.5547 127.894 29.92C128.51 29.2853 128.818 28.4827 128.818 27.512V26.896H127.866C126.112 26.896 124.889 27.036 124.198 27.316C123.526 27.5773 123.19 28.0627 123.19 28.772C123.19 29.388 123.405 29.892 123.834 30.284C124.264 30.676 124.861 30.872 125.626 30.872ZM137.439 33.224C136.281 33.224 135.703 32.6267 135.703 31.432V20.848C135.703 19.672 136.272 19.084 137.411 19.084C138.549 19.084 139.119 19.672 139.119 20.848V21.436C139.585 20.652 140.211 20.0547 140.995 19.644C141.797 19.2333 142.693 19.028 143.683 19.028C146.912 19.028 148.527 20.904 148.527 24.656V31.432C148.527 32.6267 147.948 33.224 146.791 33.224C145.615 33.224 145.027 32.6267 145.027 31.432V24.824C145.027 23.76 144.821 22.9853 144.411 22.5C144.019 22.0147 143.403 21.772 142.563 21.772C141.536 21.772 140.715 22.0987 140.099 22.752C139.501 23.3867 139.203 24.236 139.203 25.3V31.432C139.203 32.6267 138.615 33.224 137.439 33.224ZM157.346 33.28C156.151 33.28 155.096 32.9907 154.182 32.412C153.286 31.8333 152.586 31.012 152.082 29.948C151.578 28.8653 151.326 27.596 151.326 26.14C151.326 24.6653 151.578 23.4053 152.082 22.36C152.586 21.296 153.286 20.4747 154.182 19.896C155.096 19.3173 156.151 19.028 157.346 19.028C158.316 19.028 159.194 19.2427 159.978 19.672C160.762 20.1013 161.35 20.6707 161.742 21.38V14.8C161.742 13.624 162.32 13.036 163.478 13.036C164.654 13.036 165.242 13.624 165.242 14.8V31.432C165.242 32.6267 164.663 33.224 163.506 33.224C162.348 33.224 161.77 32.6267 161.77 31.432V30.844C161.378 31.5907 160.79 32.188 160.006 32.636C159.222 33.0653 158.335 33.28 157.346 33.28ZM158.326 30.62C159.371 30.62 160.211 30.2467 160.846 29.5C161.48 28.7347 161.798 27.6147 161.798 26.14C161.798 24.6467 161.48 23.536 160.846 22.808C160.211 22.0613 159.371 21.688 158.326 21.688C157.28 21.688 156.44 22.0613 155.806 22.808C155.171 23.536 154.854 24.6467 154.854 26.14C154.854 27.6147 155.171 28.7347 155.806 29.5C156.44 30.2467 157.28 30.62 158.326 30.62Z" fill="#FBC01D"/>
<g clip-path="url(#clip0_5_9)">
<path d="M21.8152 18.8137H44.9985C45.3942 18.8137 45.7861 18.8916 46.1517 19.0431C46.5174 19.1945 46.8496 19.4165 47.1294 19.6963C47.4092 19.9761 47.6312 20.3084 47.7827 20.674C47.9341 21.0396 48.0121 21.4315 48.0121 21.8272V23.9578C48.0117 27.116 47.3891 30.2431 46.18 33.1607C44.9709 36.0782 43.1988 38.729 40.9651 40.9616C38.7314 43.1942 36.0797 44.9649 33.1616 46.1726C30.2434 47.3802 27.116 48.0012 23.9578 48H21.8152C21.0159 48 20.2494 47.6825 19.6843 47.1174C19.1191 46.5522 18.8016 45.7857 18.8016 44.9864V21.8152C18.8016 21.0159 19.1191 20.2494 19.6843 19.6843C20.2494 19.1191 21.0159 18.8016 21.8152 18.8016V18.8137Z" fill="url(#paint0_linear_5_9)"/>
<path d="M46.1708 1.48568C46.1708 9.18834 38.4199 15.4324 30.7172 15.4324H17.7258C17.1351 15.4324 16.5687 15.6671 16.151 16.0847C15.7334 16.5024 15.4987 17.0688 15.4987 17.6595V42.5334C15.4987 43.1728 15.2447 43.786 14.7926 44.2381C14.3405 44.6902 13.7273 44.9442 13.0879 44.9442C8.32646 44.7423 0.997477 34.7494 0.0934083 27.5439C0.031128 26.8769 -1.21073e-05 26.2049 -1.21073e-05 25.5279V22.4721C-0.00199321 19.5205 0.577913 16.5974 1.70654 13.8701C2.83517 11.1427 4.49038 8.66463 6.5775 6.5775C8.66463 4.49038 11.1427 2.83517 13.8701 1.70654C16.5974 0.577915 19.5205 -0.0019913 22.4721 -1.02e-05H44.6851C44.8802 -1.02e-05 45.0734 0.0384182 45.2536 0.113081C45.4339 0.187744 45.5977 0.297178 45.7356 0.435137C45.8736 0.573096 45.983 0.736876 46.0577 0.917128C46.1323 1.09738 46.1708 1.29057 46.1708 1.48568V1.48568Z" fill="url(#paint1_linear_5_9)"/>
<path d="M15.6344 15.5349H17.78L16.9001 16.0261C16.1045 16.5897 15.8875 17.0839 15.6344 18.1567V42.4008C15.6312 42.774 15.5546 43.1429 15.4088 43.4865C15.2631 43.8301 15.0511 44.1416 14.785 44.4032C14.5189 44.6649 14.2038 44.8715 13.8578 45.0114C13.5118 45.1513 13.1417 45.2217 12.7685 45.2185C12.2531 45.7248 2.0221 38.676 2.0221 32.2451C2.0221 24.8468 8.11853 15.5349 15.6344 15.5349Z" fill="url(#paint2_linear_5_9)"/>
</g>
<defs>
<linearGradient id="paint0_linear_5_9" x1="19.6936" y1="19.6936" x2="40.9603" y2="40.9603" gradientUnits="userSpaceOnUse">
<stop stop-color="#FFB550"/>
<stop offset="1" stop-color="#F67B53"/>
</linearGradient>
<linearGradient id="paint1_linear_5_9" x1="9.37216" y1="3.79406" x2="32.3054" y2="26.7273" gradientUnits="userSpaceOnUse">
<stop stop-color="#FFB550"/>
<stop offset="0.39" stop-color="#FFB350"/>
<stop offset="0.6" stop-color="#FDAB51"/>
<stop offset="0.77" stop-color="#FB9D51"/>
<stop offset="0.92" stop-color="#F88A52"/>
<stop offset="1" stop-color="#F67B53"/>
</linearGradient>
<linearGradient id="paint2_linear_5_9" x1="19.6062" y1="41.7228" x2="6.62983" y2="19.2446" gradientUnits="userSpaceOnUse">
<stop stop-color="#FFB550"/>
<stop offset="0.61" stop-color="#F98F52"/>
<stop offset="1" stop-color="#F67B53"/>
</linearGradient>
<clipPath id="clip0_5_9">
<rect width="48" height="48" fill="white"/>
</clipPath>
</defs>
</svg>
