<?xml version="1.0" encoding="utf-8"?>
<!-- Uploaded to: SVG Repo, www.svgrepo.com, Generator: SVG Repo Mixer Tools -->
<svg width="800px" height="800px" viewBox="0 0 1024 1024" class="icon"  version="1.1" xmlns="http://www.w3.org/2000/svg"><path d="M64 512a448 441.806 0 1 0 896 0 448 441.806 0 1 0-896 0Z" fill="#2577FF" /><path d="M781.762 159.297c-9.478-7.062-19.292-13.692-29.336-20.008 4.529 28.581 17.641 63.033 17.641 63.033s-10.323 43.354-6.194 64c4.129 20.647 55.742-22.709 6.194 14.453-49.549 37.162-78.452 2.065-41.292 39.225 37.161 37.162 41.292-39.225 33.033 59.869-8.258 99.098-20.645 115.615-45.42 140.39-24.773 24.773-41.289 82.581-20.645 123.869 20.645 41.292 66.065 82.581 66.065 82.581s-22.557 146.768 4.186 149.183a448.776 448.776 0 0 0 17.486-12.517c33.532-43.599 80.517-185.695 102.201-196.536 6.569-3.285 22.253 1.83 41.592 10.938C948.31 626.572 960 570.647 960 511.999c0-26.273-2.458-51.965-6.917-76.978l-2.373 2.657c-43.711-27.736-100.367-122.283-168.948-278.381zM121.745 295.108c22.103 3.109 43.417 3.732 43.417 3.732-15.484 3.096 15.484 105.291 15.484 105.291-28.157 33.607-34.424 66.64-18.581 99.095-29.934 27.356 37.162 48.002 37.162 48.002 3.097 4.646-18.58 82.063-18.58 82.063-15.486 44.901 109.934 191.999 109.934 191.999-3.097-117.678 58.839-258.579 58.839-258.579 15.484-4.646 21.677-85.162 21.677-85.162 0-21.679-68.129-10.839-68.129-10.839 7.743-9.29 0-12.389 0-12.389-32.516-30.967-85.16-40.257-85.16-40.257-26.323-54.193-13.936-92.902-13.936-92.902 4.644-32.519 40.258 34.063 40.258 34.063 0 44.904 89.805 46.453 89.805 46.453-43.354-60.387 12.387-117.679 12.387-117.679 1.548-12.386 37.162-3.094 37.162-3.094-1.547-35.614-46.452-27.873-46.452-27.873C330.839 244.646 272 284.905 272 284.905c-15.483-15.486 60.388-51.099 60.388-51.099 52.644-83.612-103.743-48-103.743-48-8.131 1.274-15.701 2.618-23.009 3.993-33.081 30.602-61.429 66.085-83.891 105.309z" fill="#FFFFFF" /><path d="M512 70.194c-10.97 0-21.81 0.524-32.582 1.29C711.614 87.96 894.837 278.815 894.837 511.999c0 233.187-183.223 424.041-415.418 440.518 10.772 0.763 21.612 1.289 32.582 1.289 247.424 0 448-197.802 448-441.807C960 267.998 759.425 70.194 512 70.194z" fill="" /></svg>