<svg width="100" height="100" viewBox="0 0 100 100" fill="none" xmlns="http://www.w3.org/2000/svg">
<g clip-path="url(#clip0_27_2)">
<rect width="100" height="100" rx="20" fill="#242424"/>
<path d="M43.75 79.7891C43.7524 76.6123 42.6738 73.5292 40.6914 71.0469L43.9902 62.9414L41.5234 61.6094C41.082 61.3697 40.6653 61.0871 40.2793 60.7656L37.4629 57.9883L32.5918 66.0293C29.7485 65.4291 26.7891 65.7246 24.1205 66.875C21.4519 68.0254 19.2053 69.9743 17.6895 72.4536C16.1738 74.933 15.4633 77.821 15.6559 80.7206C15.8485 83.6202 16.9347 86.3889 18.765 88.646C20.5954 90.9031 23.08 92.5377 25.8773 93.3251C28.6746 94.1125 31.6471 94.0139 34.386 93.043C37.125 92.072 39.4959 90.2764 41.1727 87.903C42.8496 85.5296 43.7499 82.695 43.75 79.7891V79.7891ZM21.875 79.7891C21.875 78.2439 22.3332 76.7334 23.1917 75.4487C24.0501 74.1639 25.2702 73.1626 26.6978 72.5713C28.1253 71.98 29.6962 71.8252 31.2117 72.1267C32.7271 72.4281 34.1192 73.1722 35.2118 74.2648C36.3044 75.3574 37.0484 76.7495 37.3499 78.2649C37.6513 79.7804 37.4966 81.3512 36.9053 82.7788C36.314 84.2063 35.3127 85.4265 34.0279 86.2849C32.7431 87.1434 31.2327 87.6016 29.6875 87.6016C27.6155 87.6016 25.6284 86.7785 24.1632 85.3133C22.6981 83.8482 21.875 81.8611 21.875 79.7891V79.7891Z" fill="#D5A153"/>
<path d="M33.0078 6.24999L30.5507 7.32811C28.5156 8.20311 27.4258 10.207 27.0644 13.7305C26.8691 15.707 26.8222 18.9941 27.8086 23.4355C28.6777 27.3418 33.3164 47.291 39.2578 55.6523C42.0683 59.6074 45.834 60.3515 48.8593 60.9375C51.6211 61.4805 53.8027 61.914 55.6953 64.4531C57.8711 67.3828 58.8945 69.7793 59.3281 71.0117C57.2594 73.6175 56.1854 76.8743 56.2983 80.1995C56.4112 83.5247 57.7037 86.7012 59.9444 89.1606C62.1852 91.62 65.2279 93.2018 68.5283 93.6229C71.8286 94.0441 75.1711 93.2771 77.9577 91.4593C80.7443 89.6414 82.793 86.8913 83.7374 83.701C84.6817 80.5107 84.4601 77.0885 83.112 74.0468C81.764 71.005 79.3775 68.5422 76.3797 67.099C73.3819 65.6558 69.9684 65.3265 66.75 66.1699L33.0078 6.24999ZM50 50.1015C50 50.7196 49.8167 51.3238 49.4733 51.8377C49.1299 52.3516 48.6419 52.7521 48.0709 52.9887C47.4998 53.2252 46.8715 53.2871 46.2653 53.1665C45.6591 53.0459 45.1023 52.7483 44.6653 52.3113C44.2282 51.8742 43.9306 51.3174 43.81 50.7112C43.6894 50.105 43.7513 49.4767 43.9878 48.9057C44.2244 48.3346 44.6249 47.8466 45.1388 47.5032C45.6527 47.1598 46.2569 46.9765 46.875 46.9765C47.7038 46.9765 48.4986 47.3058 49.0847 47.8918C49.6707 48.4779 50 49.2727 50 50.1015V50.1015ZM78.125 79.789C78.125 81.3342 77.6668 82.8447 76.8083 84.1294C75.9499 85.4142 74.7297 86.4155 73.3022 87.0069C71.8746 87.5982 70.3038 87.7529 68.7883 87.4514C67.2728 87.15 65.8808 86.4059 64.7882 85.3133C63.6956 84.2207 62.9515 82.8287 62.6501 81.3132C62.3486 79.7977 62.5034 78.2269 63.0947 76.7993C63.686 75.3718 64.6873 74.1516 65.9721 73.2932C67.2568 72.4347 68.7673 71.9765 70.3125 71.9765C72.3845 71.9765 74.3716 72.7996 75.8367 74.2648C77.3019 75.7299 78.125 77.717 78.125 79.789Z" fill="#D5A153"/>
<path d="M50.7559 32.8535L60.166 49.209L62.7207 43.8125L63.0605 43.1055C64.8281 39.4531 69.5313 29.7383 70.1172 19.8184C70.1621 19.0586 70.1836 18.3594 70.1836 17.7129C70.1777 13.6719 69.1406 11.5234 68.3594 10.2051L65.625 6.25L50.7559 32.8535Z" fill="#D5A153"/>
</g>
<defs>
<clipPath id="clip0_27_2">
<rect width="100" height="100" rx="20" fill="white"/>
</clipPath>
</defs>
</svg>
