<svg width="60" height="60" viewBox="0 0 60 60" fill="none" xmlns="http://www.w3.org/2000/svg">
<rect width="60" height="60" rx="15" fill="#0C003D"/>
<path d="M35.1875 13.6562H43V9.0625C43 7.37104 41.6008 6 39.875 6H21.125C19.3992 6 18 7.37104 18 9.0625V13.6562H25.8125C26.6754 13.6562 27.375 14.3419 27.375 15.1875C27.375 16.0331 26.6754 16.7188 25.8125 16.7188H18V22.8438H25.8125C26.6754 22.8438 27.375 23.5294 27.375 24.375C27.375 25.2206 26.6754 25.9062 25.8125 25.9062H18V32.0312H25.8125C26.6754 32.0312 27.375 32.7169 27.375 33.5625C27.375 34.4081 26.6754 35.0938 25.8125 35.0938H18V39.6875C18 41.3788 19.3992 42.75 21.125 42.75H24.25C24.25 44.4413 25.6492 45.8125 27.375 45.8125V51.9375C27.375 53.6288 28.7742 55 30.5 55C32.2258 55 33.625 53.6288 33.625 51.9375V45.8125C35.3508 45.8125 36.75 44.4413 36.75 42.75H39.875C41.6008 42.75 43 41.3788 43 39.6875V35.0938H35.1875C34.3246 35.0938 33.625 34.4081 33.625 33.5625C33.625 32.7169 34.3246 32.0312 35.1875 32.0312H43V25.9062H35.1875C34.3246 25.9062 33.625 25.2206 33.625 24.375C33.625 23.5294 34.3246 22.8438 35.1875 22.8438H43V16.7188H35.1875C34.3246 16.7188 33.625 16.0331 33.625 15.1875C33.625 14.3419 34.3246 13.6562 35.1875 13.6562Z" fill="url(#paint0_linear_2_17)"/>
<defs>
<linearGradient id="paint0_linear_2_17" x1="18" y1="30.5" x2="43" y2="30.5" gradientUnits="userSpaceOnUse">
<stop stop-color="#01F7F6"/>
<stop offset="1" stop-color="#044CE8"/>
</linearGradient>
</defs>
</svg>
