<svg width="143" height="43" viewBox="0 0 143 43" fill="none" xmlns="http://www.w3.org/2000/svg">
<g clip-path="url(#clip0_2_2)">
<path d="M59.214 35.408C57.31 35.408 55.8027 35.0113 54.692 34.218C53.604 33.4247 52.822 32.314 52.346 30.886C51.8927 29.4353 51.666 27.7693 51.666 25.888V16.64C51.666 14.6907 51.9153 13.002 52.414 11.574C52.9127 10.146 53.7627 9.04667 54.964 8.276C56.188 7.48267 57.8427 7.086 59.928 7.086C61.968 7.086 63.566 7.426 64.722 8.106C65.9007 8.786 66.7393 9.72667 67.238 10.928C67.7367 12.1293 67.986 13.5347 67.986 15.144V16.912H62.036V14.668C62.036 14.0787 61.9907 13.5347 61.9 13.036C61.832 12.5373 61.6507 12.1407 61.356 11.846C61.084 11.5287 60.6307 11.37 59.996 11.37C59.3387 11.37 58.8627 11.5513 58.568 11.914C58.2733 12.254 58.0807 12.6847 57.99 13.206C57.922 13.7273 57.888 14.2713 57.888 14.838V27.588C57.888 28.2 57.9447 28.778 58.058 29.322C58.194 29.8433 58.4207 30.274 58.738 30.614C59.078 30.9313 59.554 31.09 60.166 31.09C60.8007 31.09 61.288 30.92 61.628 30.58C61.968 30.24 62.206 29.798 62.342 29.254C62.478 28.71 62.546 28.132 62.546 27.52V24.29H60.064V20.72H68.02V35H64.008L63.668 32.722C63.3053 33.4927 62.7727 34.1387 62.07 34.66C61.3673 35.1587 60.4153 35.408 59.214 35.408ZM69.8231 35L75.0251 7.46H81.9611L87.0951 35H81.4851L80.5671 29.186H76.5211L75.5691 35H69.8231ZM77.0651 25.548H79.9891L78.5271 14.804L77.0651 25.548ZM89.0936 35L89.5696 7.46H96.0976L99.1236 23.474L102.388 7.46H108.678L109.154 35H104.836L104.326 16.674L101.13 35H97.2876L93.8876 16.538L93.4796 35H89.0936ZM112.057 35V7.46H124.433V11.608H118.143V18.442H122.937V22.658H118.143V30.886H124.501V35H112.057ZM124.782 35L130.12 20.176L125.02 7.46H130.766L133.792 14.906L136.24 7.46H141.306L136.478 21.774L141.85 35H136.138L132.772 26.772L129.814 35H124.782Z" fill="white"/>
<path d="M10.0918 1.66735C8.16122 2.5449 5.70408 4.21225 4.65102 5.35306C0.702041 9.74082 0 13.0755 0 28.5204V43H14.4796C29.9245 43 33.2592 42.298 37.6469 38.349C42.1224 34.2245 43 30.6265 43 14.6551V1.51992e-06H28.3449C15.8837 1.51992e-06 13.0755 0.263267 10.0918 1.66735ZM37.7347 5.17755C37.7347 6.75714 34.1367 10.3551 31.2408 11.7592C29.398 12.6367 25.9755 13.1633 22.2898 13.1633C14.0408 13.1633 13.1633 14.1286 13.1633 22.9918V29.8367H19.9204C28.4327 29.8367 29.8367 28.7837 29.8367 22.2898C29.8367 17.7265 29.8367 17.6388 33.8735 15.4449C36.1551 14.2163 38.1735 13.1633 38.349 13.1633C38.6122 13.1633 38.7 17.0245 38.4367 21.851C38.1735 29.6612 37.9102 30.802 35.7163 33.6102C32.4694 37.8224 28.8714 38.7 15.6204 38.4367L4.82653 38.1735V25.449C4.82653 14.3041 5.00204 12.4612 6.58163 10.1796C9.56531 5.70408 13.9531 4.38776 26.5898 4.38776C32.7327 4.38776 37.7347 4.73878 37.7347 5.17755Z" fill="#FF8503"/>
</g>
<defs>
<clipPath id="clip0_2_2">
<rect width="143" height="43" fill="white"/>
</clipPath>
</defs>
</svg>
