<svg width="155" height="50" viewBox="0 0 155 50" fill="none" xmlns="http://www.w3.org/2000/svg">
<g clip-path="url(#clip0_1_3)">
<path d="M74.1895 38H67.9053V15.5C67.9053 15.0605 67.8174 14.6504 67.6416 14.2695C67.4805 13.8887 67.2534 13.5591 66.9604 13.2808C66.6821 12.9878 66.3525 12.7607 65.9717 12.5996C65.5908 12.4385 65.1807 12.3579 64.7412 12.3579C64.3018 12.3579 63.8916 12.4385 63.5107 12.5996C63.1299 12.7607 62.793 12.9878 62.5 13.2808C62.2217 13.5591 62.002 13.8887 61.8408 14.2695C61.6797 14.6504 61.5991 15.0605 61.5991 15.5V38H55.293V15.5C55.293 15.0605 55.2124 14.6504 55.0513 14.2695C54.8901 13.8887 54.6631 13.5591 54.3701 13.2808C54.0918 12.9878 53.7622 12.7607 53.3813 12.5996C53.0005 12.4385 52.5903 12.3579 52.1509 12.3579C51.7114 12.3579 51.3013 12.4385 50.9204 12.5996C50.5396 12.7607 50.2026 12.9878 49.9097 13.2808C49.6313 13.5591 49.4116 13.8887 49.2505 14.2695C49.0894 14.6504 49.0088 15.0605 49.0088 15.5V38H42.7026V15.5C42.7026 14.1963 42.9443 12.9731 43.4277 11.8306C43.9258 10.6733 44.5996 9.66992 45.4492 8.82031C46.3135 7.95605 47.3169 7.28223 48.4595 6.79883C49.6167 6.30078 50.8472 6.05176 52.1509 6.05176C53.3228 6.05176 54.4507 6.26416 55.5347 6.68896C56.6187 7.09912 57.5928 7.69971 58.457 8.49072C59.3213 7.69971 60.2881 7.09912 61.3574 6.68896C62.4414 6.26416 63.5693 6.05176 64.7412 6.05176C66.0449 6.05176 67.2681 6.30078 68.4106 6.79883C69.5679 7.28223 70.5713 7.95605 71.4209 8.82031C72.2852 9.66992 72.959 10.6733 73.4424 11.8306C73.9404 12.9731 74.1895 14.1963 74.1895 15.5V38ZM86.2744 8.07324C86.2744 8.62988 86.1646 9.1499 85.9448 9.6333C85.7397 10.1167 85.4541 10.5415 85.0879 10.9077C84.7217 11.2593 84.2896 11.5449 83.7915 11.7646C83.3081 11.9697 82.7881 12.0723 82.2314 12.0723C81.6748 12.0723 81.1475 11.9697 80.6494 11.7646C80.166 11.5449 79.7412 11.2593 79.375 10.9077C79.0234 10.5415 78.7378 10.1167 78.5181 9.6333C78.313 9.1499 78.2104 8.62988 78.2104 8.07324C78.2104 7.53125 78.313 7.01855 78.5181 6.53516C78.7378 6.03711 79.0234 5.6123 79.375 5.26074C79.7412 4.89453 80.166 4.60889 80.6494 4.40381C81.1475 4.18408 81.6748 4.07422 82.2314 4.07422C82.7881 4.07422 83.3081 4.18408 83.7915 4.40381C84.2896 4.60889 84.7217 4.89453 85.0879 5.26074C85.4541 5.6123 85.7397 6.03711 85.9448 6.53516C86.1646 7.01855 86.2744 7.53125 86.2744 8.07324ZM85.2417 38H79.1992V14.4673H85.2417V38ZM110.4 19.1475L106.006 23.564C105.786 22.9487 105.486 22.3994 105.105 21.916C104.724 21.418 104.292 21.0005 103.809 20.6636C103.34 20.3267 102.827 20.0703 102.271 19.8945C101.714 19.7188 101.143 19.6309 100.557 19.6309C99.7363 19.6309 98.96 19.7993 98.2275 20.1362C97.5098 20.4731 96.8799 20.9492 96.3379 21.5645C95.8105 22.165 95.3931 22.8828 95.0854 23.7178C94.7778 24.5527 94.624 25.4756 94.624 26.4863C94.624 27.3066 94.7778 28.0757 95.0854 28.7935C95.3931 29.5112 95.8105 30.1411 96.3379 30.6831C96.8799 31.2251 97.5098 31.6499 98.2275 31.9575C98.96 32.2651 99.7363 32.4189 100.557 32.4189C101.143 32.4189 101.707 32.3384 102.249 32.1772C102.791 32.0161 103.296 31.7891 103.765 31.4961C104.248 31.1885 104.673 30.8223 105.039 30.3975C105.42 29.958 105.728 29.4746 105.962 28.9473L110.356 33.3638C109.8 34.1548 109.155 34.8652 108.423 35.4951C107.705 36.125 106.921 36.6597 106.072 37.0991C105.237 37.5386 104.351 37.8682 103.413 38.0879C102.49 38.3223 101.538 38.4395 100.557 38.4395C98.9014 38.4395 97.3413 38.1318 95.8765 37.5166C94.4263 36.8867 93.1519 36.0298 92.0532 34.9458C90.9692 33.8618 90.1123 32.5947 89.4824 31.1445C88.8525 29.6943 88.5376 28.1416 88.5376 26.4863C88.5376 24.6846 88.8525 23 89.4824 21.4326C90.1123 19.8652 90.9692 18.5029 92.0532 17.3457C93.1519 16.1738 94.4263 15.251 95.8765 14.5771C97.3413 13.9033 98.9014 13.5664 100.557 13.5664C101.538 13.5664 102.498 13.6909 103.435 13.9399C104.387 14.189 105.288 14.5552 106.138 15.0386C107.002 15.5073 107.793 16.0859 108.511 16.7744C109.243 17.4629 109.873 18.2539 110.4 19.1475ZM119.343 38H113.345V14.4673H114.795L116.772 17.2578C117.739 16.3789 118.838 15.7051 120.068 15.2363C121.299 14.7529 122.573 14.5112 123.892 14.5112H129.187V20.4878H123.892C123.262 20.4878 122.668 20.605 122.112 20.8394C121.555 21.0737 121.072 21.396 120.662 21.8062C120.251 22.2163 119.929 22.6997 119.695 23.2563C119.46 23.813 119.343 24.4062 119.343 25.0361V38ZM154.28 26.0249C154.28 27.7827 153.965 29.4233 153.335 30.9468C152.705 32.4556 151.848 33.7666 150.764 34.8799C149.68 35.9785 148.406 36.8501 146.941 37.4946C145.491 38.1245 143.931 38.4395 142.261 38.4395C140.605 38.4395 139.045 38.1245 137.581 37.4946C136.13 36.8501 134.856 35.9785 133.757 34.8799C132.673 33.7666 131.816 32.4556 131.187 30.9468C130.557 29.4233 130.242 27.7827 130.242 26.0249C130.242 24.2378 130.557 22.5825 131.187 21.0591C131.816 19.5356 132.673 18.2246 133.757 17.126C134.856 16.0127 136.13 15.1411 137.581 14.5112C139.045 13.8813 140.605 13.5664 142.261 13.5664C143.931 13.5664 145.491 13.8667 146.941 14.4673C148.406 15.0532 149.68 15.8955 150.764 16.9941C151.848 18.0781 152.705 19.3892 153.335 20.9272C153.965 22.4507 154.28 24.1499 154.28 26.0249ZM148.237 26.0249C148.237 25.0581 148.076 24.1865 147.754 23.4102C147.446 22.6191 147.021 21.9453 146.479 21.3887C145.938 20.8174 145.3 20.3853 144.568 20.0923C143.85 19.7847 143.081 19.6309 142.261 19.6309C141.44 19.6309 140.664 19.7847 139.932 20.0923C139.214 20.3853 138.584 20.8174 138.042 21.3887C137.515 21.9453 137.097 22.6191 136.79 23.4102C136.482 24.1865 136.328 25.0581 136.328 26.0249C136.328 26.9331 136.482 27.7754 136.79 28.5518C137.097 29.3281 137.515 30.002 138.042 30.5732C138.584 31.1445 139.214 31.5986 139.932 31.9355C140.664 32.2578 141.44 32.4189 142.261 32.4189C143.081 32.4189 143.85 32.2651 144.568 31.9575C145.3 31.6499 145.938 31.2178 146.479 30.6611C147.021 30.1045 147.446 29.4307 147.754 28.6396C148.076 27.8486 148.237 26.9771 148.237 26.0249Z" fill="white"/>
<path d="M20.1875 7.65625H28V3.0625C28 1.37104 26.6008 0 24.875 0H6.125C4.39922 0 3 1.37104 3 3.0625V7.65625H10.8125C11.6754 7.65625 12.375 8.34187 12.375 9.1875C12.375 10.0331 11.6754 10.7188 10.8125 10.7188H3V16.8438H10.8125C11.6754 16.8438 12.375 17.5294 12.375 18.375C12.375 19.2206 11.6754 19.9062 10.8125 19.9062H3V26.0312H10.8125C11.6754 26.0312 12.375 26.7169 12.375 27.5625C12.375 28.4081 11.6754 29.0938 10.8125 29.0938H3V33.6875C3 35.3788 4.39922 36.75 6.125 36.75H9.25C9.25 38.4413 10.6492 39.8125 12.375 39.8125V45.9375C12.375 47.6288 13.7742 49 15.5 49C17.2258 49 18.625 47.6288 18.625 45.9375V39.8125C20.3508 39.8125 21.75 38.4413 21.75 36.75H24.875C26.6008 36.75 28 35.3788 28 33.6875V29.0938H20.1875C19.3246 29.0938 18.625 28.4081 18.625 27.5625C18.625 26.7169 19.3246 26.0312 20.1875 26.0312H28V19.9062H20.1875C19.3246 19.9062 18.625 19.2206 18.625 18.375C18.625 17.5294 19.3246 16.8438 20.1875 16.8438H28V10.7188H20.1875C19.3246 10.7188 18.625 10.0331 18.625 9.1875C18.625 8.34187 19.3246 7.65625 20.1875 7.65625Z" fill="url(#paint0_linear_1_3)"/>
</g>
<defs>
<linearGradient id="paint0_linear_1_3" x1="3" y1="24.5" x2="28" y2="24.5" gradientUnits="userSpaceOnUse">
<stop stop-color="#01F7F6"/>
<stop offset="1" stop-color="#044CE8"/>
</linearGradient>
<clipPath id="clip0_1_3">
<rect width="155" height="50" fill="white"/>
</clipPath>
</defs>
</svg>
