<svg width="128" height="34" viewBox="0 0 128 34" fill="none" xmlns="http://www.w3.org/2000/svg">
<g clip-path="url(#clip0_26_7)">
<path d="M53.6 6.9C54.8 6.9 55.9 7 57 7.3C58 7.5 58.8 7.8 59.4 8.2C59.6 8.3 59.7 8.5 59.7 8.8V12.6C59.7 13.1 59.2 13.4 58.7 13.2C58.2 12.9 57.7 12.7 57.2 12.5C56.4 12.1 55.4 11.9 54.3 11.9C53.7 11.9 53.1 12 52.6 12.2C52.1 12.4 51.9 12.7 51.9 13.2C51.9 13.7 52.2 14.1 52.7 14.3C53.3 14.5 54 14.8 54.8 15.1L57 16C58.4 16.5 59.4 17.3 60 18.2C60.6 19.1 60.9 20.1 60.9 21C60.9 22.3 60.5 23.4 59.8 24.3C59.1 25.3 58.1 26 56.9 26.6C55.7 27.1 54.3 27.4 52.8 27.4C51.6 27.4 50.5 27.2 49.3 26.8C48.3 26.4 47.4 26 46.6 25.5C46.4 25.4 46.3 25.2 46.3 24.9C46.3 24.2 46.3 22.4 46.3 21.2C46.3 20.7 46.9 20.4 47.3 20.6C47.9 21 48.6 21.3 49.3 21.6C50.4 22 51.5 22.3 52.6 22.3C53.3 22.3 53.8 22.2 54.2 22.1C54.6 21.9 54.8 21.6 54.8 21.2C54.8 20.9 54.6 20.7 54.3 20.4C54 20.2 53.6 20 53 19.8L50.2 18.9C49.1 18.5 48.3 18.1 47.7 17.5C47.1 16.9 46.7 16.2 46.4 15.5C46.2 14.7 46 14 46 13.2C46 11.8 46.4 10.7 47.1 9.7C47.8 8.7 48.7 8 49.9 7.5C51.1 7 52.3 6.9 53.6 6.9ZM73.4 6.9C74.4 6.9 75.4 7 76.3 7.3C77 7.6 77.7 8 78.3 8.5C78.5 8.6 78.6 8.8 78.6 9V12.7C78.6 13.2 78 13.5 77.6 13.2C77.2 12.9 76.8 12.7 76.4 12.5C76 12.3 75.5 12.2 74.9 12.1C73.6 11.9 71.6 12.3 70.5 13.2C70 13.6 69.7 14 69.3 14.6C68.8 15.4 68.6 16.2 68.6 17.2C68.6 18.2 68.8 19.1 69.3 19.8C69.6 20.3 70 20.8 70.5 21.1C71.5 22 73.5 22.3 74.8 22.2C75.4 22.1 75.9 22 76.3 21.8C76.7 21.6 77.1 21.4 77.5 21.1C77.9 20.8 78.5 21.1 78.5 21.6V25C78.5 25.5 78.4 25.7 78.2 25.8C77.6 26.3 76.9 26.6 76.1 26.9C75.2 27.2 74.3 27.3 73.2 27.3C71.9 27.3 70.6 27.1 69.3 26.6C68.1 26.1 67 25.5 66 24.6C65 23.7 64.2 22.6 63.7 21.4C63.1 20.1 62.9 18.7 62.9 17.1C62.9 15.5 63.2 14 63.7 12.8C64.3 11.5 65.1 10.5 66 9.6C67 8.7 68.1 8.1 69.3 7.6C70.7 7.2 72 6.9 73.4 6.9ZM95.6 15.7V18.5C95.6 18.9 95.3 19.2 94.9 19.2H88.4C88 19.2 87.7 19.5 87.7 19.9V21.8C87.7 22.2 88 22.5 88.4 22.5H96C96.4 22.5 96.7 22.8 96.7 23.2V26.6C96.7 27 96.4 27.3 96 27.3H83C82.6 27.3 82.3 27 82.3 26.6V8C82.3 7.6 82.6 7.3 83 7.3H96C96.4 7.3 96.7 7.6 96.7 8V11.2C96.7 11.6 96.4 11.9 96 11.9H88.5C88.1 11.9 87.8 12.2 87.8 12.6V14.4C87.8 14.8 88.1 15.1 88.5 15.1H95C95.3 15 95.6 15.3 95.6 15.7ZM110.4 6.9C111.7 6.9 113 7.1 114.2 7.6C115.4 8 116.5 8.7 117.5 9.6C118.5 10.5 119.2 11.6 119.8 12.8C120.4 14.1 120.6 15.5 120.6 17.1C120.6 18.7 120.3 20.2 119.8 21.4C119.3 22.7 118.5 23.7 117.5 24.6C116.5 25.5 115.4 26.2 114.2 26.6C113 27 111.7 27.3 110.4 27.3C109.1 27.3 107.8 27.1 106.6 26.6C105.4 26.1 104.3 25.5 103.3 24.6C102.3 23.7 101.6 22.6 101 21.4C100.5 20.1 100.2 18.7 100.2 17.1C100.2 15.5 100.5 14 101 12.8C101.6 11.5 102.3 10.5 103.3 9.6C104.3 8.7 105.3 8.1 106.6 7.6C107.8 7.2 109 6.9 110.4 6.9ZM110.4 12.1C109.5 12.1 108.7 12.3 108.1 12.8C107.4 13.2 106.9 13.9 106.5 14.6C106.1 15.4 105.9 16.2 105.9 17.2C105.9 18.2 106.1 19.1 106.5 19.8C106.9 20.6 107.5 21.2 108.1 21.6C108.8 22 109.6 22.3 110.4 22.3C111.2 22.3 112.1 22.1 112.7 21.6C113.4 21.2 114 20.5 114.3 19.8C114.7 19 114.9 18.1 114.9 17.2C114.9 16.2 114.7 15.4 114.3 14.6C113.9 13.8 113.4 13.2 112.7 12.8C112 12.3 111.2 12.1 110.4 12.1ZM125.4 22.3C126.1 22.3 126.7 22.6 127.2 23.1C127.7 23.6 128 24.2 128 25C128 25.7 127.7 26.3 127.2 26.9C126.7 27.4 126.1 27.7 125.4 27.7C124.7 27.7 124.1 27.4 123.5 26.9C123 26.4 122.7 25.7 122.7 25C122.7 24.3 123 23.6 123.5 23.1C124.1 22.5 124.7 22.3 125.4 22.3Z" fill="#2C3E50"/>
<path d="M17 17C15.9 17 14.8 16.8 13.9 16.4L1.8 10.9C1.3 10.6 0 9.9 0 8.5C0 7.1 1.3 6.4 1.8 6.1L14 0.6C15.7 -0.2 18.2 -0.2 19.9 0.6L32.1 6.2C32.7 6.5 33.9 7.2 33.9 8.6C33.9 10 32.6 10.7 32.1 11L20 16.5C19.2 16.8 18.1 17 17 17Z" fill="#2C3E50"/>
<path d="M32.1 14.6L30.9 14L27.7 15.4L20.1 19C19.2 19.4 18.1 19.6 17 19.6C15.9 19.6 14.8 19.4 13.9 19L6.2 15.5L3 14.1L1.8 14.7C1.3 14.9 0 15.6 0 17C0 18.4 1.3 19.1 1.8 19.4L13.9 24.9C14.8 25.3 15.9 25.5 17 25.5C18.1 25.5 19.2 25.3 20.1 24.9L32.2 19.4C32.8 19.1 34.1 18.4 34.1 17C34.1 15.6 32.7 14.9 32.1 14.6Z" fill="#00B770"/>
<path d="M32.1 23.1L30.9 22.5L27.7 24L20 27.5C19.1 27.9 18 28.1 16.9 28.1C15.8 28.1 14.7 27.9 13.8 27.5L6.3 24L3.1 22.6L1.9 23.2C1.3 23.5 0.0999985 24.2 0.0999985 25.6C0.0999985 27 1.4 27.7 1.9 28L14 33.5C14.9 33.9 16 34.1 17.1 34.1C18.2 34.1 19.3 33.9 20.2 33.5L32.3 28C32.9 27.7 34.2 27 34.2 25.6C34.2 24.2 32.7 23.4 32.1 23.1Z" fill="#2C3E50"/>
</g>
<defs>
<clipPath id="clip0_26_7">
<rect width="128" height="34" fill="white"/>
</clipPath>
</defs>
</svg>
