<svg width="100" height="100" viewBox="0 0 100 100" fill="none" xmlns="http://www.w3.org/2000/svg">
<path d="M23.4694 3.87755C18.9796 5.91836 13.2653 9.79592 10.8163 12.449C1.63265 22.6531 0 30.4082 0 66.3265V100H33.6735C69.5918 100 77.3469 98.3673 87.551 89.1837C97.9592 79.5918 100 71.2245 100 34.0816V-3.42727e-06H65.9184C36.9388 -3.42727e-06 30.4082 0.612241 23.4694 3.87755ZM87.7551 12.0408C87.7551 15.7143 79.3878 24.0816 72.6531 27.3469C68.3673 29.3878 60.4082 30.6122 51.8367 30.6122C32.6531 30.6122 30.6122 32.8571 30.6122 53.4694V69.3878H46.3265C66.1225 69.3878 69.3878 66.9388 69.3878 51.8367C69.3878 41.2245 69.3878 41.0204 78.7755 35.9184C84.0816 33.0612 88.7755 30.6122 89.1837 30.6122C89.7959 30.6122 90 39.5918 89.3878 50.8163C88.7755 68.9796 88.1633 71.6327 83.0612 78.1633C75.5102 87.9592 67.1429 90 36.3265 89.3878L11.2245 88.7755V59.1837C11.2245 33.2653 11.6327 28.9796 15.3061 23.6735C22.2449 13.2653 32.449 10.2041 61.8367 10.2041C76.1225 10.2041 87.7551 11.0204 87.7551 12.0408Z" fill="#FF8503"/>
</svg>
