<svg width="100" height="100" viewBox="0 0 100 100" fill="none" xmlns="http://www.w3.org/2000/svg">
<rect width="100" height="100" rx="20" fill="white"/>
<path d="M89.0697 38.0265C88.1445 35.8708 86.6077 34.3165 84.6241 33.5336L84.5974 33.5238C83.6945 33.1771 82.7333 32.9997 81.7637 33.0008H81.657C77.1164 33.0678 72.4807 36.8514 70.1237 42.4165C68.3952 46.4861 68.1968 50.863 69.5936 54.1252C70.5171 56.2826 72.0573 57.8368 74.0493 58.6197L74.0709 58.6279C74.9739 58.9744 75.935 59.1518 76.9047 59.1509C81.4886 59.1509 86.1726 55.3673 88.5729 49.7287C90.2798 45.664 90.4682 41.2904 89.0697 38.0265ZM70.9272 62.029C68.3085 60.4862 65.8331 59.0267 64.2162 56.4051C59.7556 49.1485 57.0619 44.7684 49.9993 44.7684C42.9366 44.7684 40.2363 49.1485 35.7656 56.4051C34.1454 59.0299 31.6651 60.4911 29.038 62.0405C26.026 63.8154 22.9139 65.6492 21.5703 69.2579C21.0481 70.5588 20.7849 71.9458 20.7952 73.3438C20.7952 79.2194 25.4626 84 31.1967 84C34.1554 84 37.3042 82.9949 40.6363 81.9309C43.8401 80.9078 47.1522 79.8503 50.0159 79.8503C52.8797 79.8503 56.1835 80.9078 59.3756 81.9309C62.701 82.9883 65.8348 83.9935 68.8019 83.9935C74.5277 83.9935 79.1866 79.2129 79.1866 73.3373C79.1914 71.9382 78.9226 70.5512 78.3949 69.2514C77.0513 65.6394 73.9376 63.804 70.9272 62.029ZM32.3302 39.0235C34.3138 41.4636 36.8308 42.8071 39.4178 42.8071C39.771 42.8071 40.1237 42.7814 40.473 42.7303C45.8687 41.9523 49.2308 35.4965 48.1274 28.0209C47.6656 24.878 46.4321 21.9508 44.6652 19.7803C42.6849 17.3451 40.1646 16.0033 37.5792 16.0033C37.2261 16.0033 36.8734 16.029 36.5241 16.0801C31.1283 16.858 27.7662 23.3138 28.8697 30.7895C29.3298 33.9275 30.5633 36.8514 32.3302 39.0235ZM59.5273 42.7303C59.8766 42.7814 60.2292 42.8071 60.5824 42.8071C63.1711 42.8071 65.6864 41.4636 67.6701 39.0235C69.4353 36.8514 70.6621 33.9275 71.1289 30.7862C72.2323 23.3138 68.8702 16.858 63.4745 16.0768C63.1252 16.0257 62.7725 16 62.4193 16C59.834 16.0033 57.3136 17.3451 55.3333 19.7803C53.5664 21.9508 52.3329 24.878 51.8729 28.0241C50.7694 35.4965 54.1315 41.9523 59.5273 42.7303ZM25.9276 58.6279L25.951 58.6197C27.9396 57.8368 29.4781 56.2842 30.3999 54.1284C31.7968 50.8597 31.6001 46.4877 29.8748 42.4181C27.4862 36.786 22.8039 33.0008 18.2249 33.0008C17.2552 32.9994 16.294 33.1769 15.3912 33.5238L15.3678 33.532C13.3842 34.3083 11.8457 35.8675 10.9239 38.0233C9.52702 41.292 9.72371 45.664 11.449 49.7336C13.8376 55.3657 18.5199 59.1509 23.0989 59.1509C24.0669 59.1516 25.0264 58.9742 25.9276 58.6279V58.6279Z" fill="#F2652C"/>
</svg>
