<svg width="100" height="100" viewBox="0 0 100 100" fill="none" xmlns="http://www.w3.org/2000/svg">
<rect width="100" height="100" rx="20" fill="#FB1C62"/>
<path d="M21.5625 39.0625V39.1527C21.5593 39.7164 21.3557 40.2606 20.9883 40.6881V40.6949C20.25 41.5672 19.375 43.1285 19.375 45.625C19.375 47.8877 20.0996 49.4846 20.9719 50.5346C21.3546 51.0003 21.5634 51.5847 21.5625 52.1875C21.5625 53.3478 22.0234 54.4606 22.8439 55.2811C23.6644 56.1015 24.7772 56.5625 25.9375 56.5625H27.0312C27.3213 56.5625 27.5995 56.4473 27.8046 56.2421C28.0098 56.037 28.125 55.7588 28.125 55.4687V35.7812C28.125 35.4912 28.0098 35.213 27.8046 35.0078C27.5995 34.8027 27.3213 34.6875 27.0312 34.6875H25.9375C24.7772 34.6875 23.6644 35.1484 22.8439 35.9689C22.0234 36.7894 21.5625 37.9022 21.5625 39.0625V39.0625ZM76.8215 40.5049L76.6943 40.4816C76.5693 40.4578 76.4565 40.391 76.3754 40.293C76.2943 40.1949 76.25 40.0716 76.25 39.9443V23.4765C76.25 21.7484 75.1029 20.1953 73.3939 19.6047C71.7643 19.0428 70.0662 19.5008 69.0627 20.7709C66.9278 23.3202 64.5811 25.6843 62.0477 27.8379C58.817 30.5723 55.7258 32.5205 52.8875 33.6224C52.6805 33.7014 52.5024 33.8413 52.3767 34.0236C52.2509 34.206 52.1835 34.4222 52.1834 34.6437V55.8789C52.1838 56.3065 52.3094 56.7246 52.5449 57.0816C52.7803 57.4385 53.1152 57.7187 53.5082 57.8873C56.1523 59.0207 59.0098 60.8719 61.9848 63.3943C64.5373 65.5674 66.901 67.953 69.0504 70.5256C69.3947 70.9576 69.8343 71.3041 70.3347 71.5382C70.8351 71.7723 71.3828 71.8876 71.9352 71.875C72.4206 71.8728 72.9026 71.7925 73.3625 71.6371C75.1166 71.0547 76.25 69.5576 76.25 67.8281V51.3029C76.2501 51.1738 76.2959 51.049 76.3792 50.9504C76.4625 50.8518 76.578 50.7859 76.7053 50.7642L76.8215 50.7451C78.1367 50.3883 80.625 48.8611 80.625 45.625C80.625 42.3889 78.1367 40.8617 76.8215 40.5049ZM47.8125 58.75V35.7812C47.8125 35.4912 47.6973 35.213 47.4921 35.0078C47.287 34.8027 47.0088 34.6875 46.7188 34.6875H33.5938C33.3037 34.6875 33.0255 34.8027 32.8204 35.0078C32.6152 35.213 32.5 35.4912 32.5 35.7812V77.3437C32.5 78.214 32.8457 79.0486 33.4611 79.6639C34.0764 80.2793 34.911 80.625 35.7812 80.625H42.9521C43.6338 80.6307 44.3077 80.4802 44.9222 80.1852C45.5367 79.8902 46.0755 79.4583 46.4973 78.9228C46.9297 78.3685 47.2206 77.7171 47.3447 77.0251C47.4688 76.3331 47.4224 75.6212 47.2096 74.9512C46.9881 74.243 46.7133 73.4473 46.4207 72.601C45.3393 69.4701 43.9133 67.5328 43.5332 63.1236C44.6766 63.0986 45.7648 62.6268 46.5646 61.8093C47.3645 60.9919 47.8124 59.8937 47.8125 58.75Z" fill="white"/>
</svg>
