<svg width="32" height="32" viewBox="0 0 32 32" fill="none" xmlns="http://www.w3.org/2000/svg">
<path d="M27.2909 2.66667H4.70918C3.64106 2.65381 2.76444 3.50879 2.75061 4.57691V27.4237C2.76452 28.4918 3.64114 29.3465 4.70918 29.3333H27.2909C28.3591 29.3466 29.2359 28.4916 29.2495 27.4234V4.57691C29.2358 3.50871 28.3591 2.65364 27.2909 2.66667ZM10.784 24.9893H6.78137V12.948H10.784V24.9893ZM9.11104 11.3061C9.00174 11.314 8.89205 11.3133 8.78292 11.304H8.75662C7.60657 11.3734 6.61804 10.4973 6.5487 9.34725C6.47937 8.19719 7.35542 7.20867 8.50549 7.13933C8.60673 7.13323 8.70837 7.13453 8.80945 7.14316C9.95902 7.05991 10.9584 7.92433 11.0417 9.07391C11.125 10.2234 10.2605 11.2228 9.11104 11.3061ZM25.2156 24.9893H21.2136V18.5482C21.2136 16.9292 20.6341 15.8251 19.1861 15.8251C18.2611 15.8305 17.4392 16.4164 17.1324 17.2891C17.03 17.604 16.9853 17.9347 17.0006 18.2655V24.9893H12.9986C12.9986 24.9857 13.0511 14.0776 12.999 12.9482H17.001V14.6548C17.7386 13.3712 19.129 12.6044 20.6081 12.6656C23.2413 12.6656 25.2156 14.3866 25.2156 18.0851V24.9893H25.2156Z" fill="black"/>
</svg>
