<svg width="32" height="32" viewBox="0 0 32 32" fill="none" xmlns="http://www.w3.org/2000/svg">
<path d="M16 2.77735C8.63619 2.77735 2.66663 8.74691 2.66663 16.1107C2.66663 22.008 6.49955 27.0023 11.8068 28.7611C12.453 28.8619 12.7 28.4728 12.7 28.1277C12.7 27.811 12.6833 26.7611 12.6833 25.6444C9.33329 26.2611 8.4666 24.8277 8.19999 24.0777C7.90401 23.3483 7.43493 22.702 6.83329 22.1944C6.36665 21.9444 5.69999 21.3277 6.81661 21.311C7.68193 21.4049 8.44715 21.915 8.86667 22.6777C8.86797 22.6801 8.86927 22.6824 8.87057 22.6847C9.64003 24.0578 11.3768 24.5471 12.75 23.7777C12.8077 23.0998 13.1098 22.4661 13.6 21.9944C10.6333 21.661 7.53333 20.511 7.53333 15.411C7.51453 14.0858 8.00355 12.8038 8.89995 11.8277C8.49231 10.6759 8.54 9.41203 9.03332 8.29435C9.03332 8.29435 10.1499 7.94433 12.7 9.66104C14.8817 9.06095 17.1849 9.06095 19.3667 9.66104C21.9166 7.92764 23.0333 8.29435 23.0333 8.29435C23.5266 9.41203 23.5743 10.6759 23.1666 11.8277C24.0657 12.8021 24.5551 14.0853 24.5333 15.411C24.5333 20.5277 21.4166 21.661 18.45 21.9944C19.0939 22.6469 19.4223 23.5471 19.35 24.461C19.35 26.2444 19.3333 27.6777 19.3333 28.1277C19.3324 28.1987 19.343 28.2694 19.3647 28.3371C19.4756 28.6822 19.8449 28.872 20.1901 28.7621C25.499 27.0042 29.3333 22.0091 29.3333 16.1107C29.3333 8.74691 23.3637 2.77735 16 2.77735Z" fill="black"/>
</svg>
