<svg width="100" height="100" viewBox="0 0 100 100" fill="none" xmlns="http://www.w3.org/2000/svg">
<rect width="100" height="100" rx="20" fill="white"/>
<path d="M57.1123 64.825C45.6 76.3373 22.588 89.537 16.5256 83.4746C13.2007 80.1497 15.6756 71.7124 20.488 62.8751C20.9005 62.1251 21.3255 61.3751 21.7755 60.6251C24.5281 55.9081 27.6769 51.4338 31.1878 47.2504C31.7378 46.6004 32.2878 45.9754 32.8378 45.3629C33.6127 44.488 34.4002 43.663 35.1752 42.888C46.6875 31.3757 52.1499 35.7256 58.2122 41.788C64.2746 47.8504 68.6245 53.3128 57.1123 64.825Z" fill="#F58967"/>
<path d="M61.0122 60.3751C60.5497 61.0001 60.0247 61.6625 59.4372 62.3375C58.7497 63.1375 57.9747 63.9625 57.1123 64.825C54.075 67.8114 50.8066 70.5532 47.3375 73.0248C46.6625 73.5248 45.975 74.0123 45.275 74.4998C40.6814 77.7036 35.7727 80.4302 30.6253 82.6371C29.7378 82.9996 28.8878 83.3246 28.0504 83.5996C22.9255 85.3496 18.6631 85.612 16.5256 83.4746L58.2122 41.788C63.4371 47.0129 67.387 51.7878 61.0122 60.3751V60.3751Z" fill="#F37046"/>
<path d="M76.8618 31.9132C71.412 37.3631 60.6372 44.2129 58.2122 41.788C55.7873 39.363 62.6371 28.5883 68.087 23.1384C73.5369 17.676 75.5369 19.6135 77.9618 22.0384C80.3868 24.4634 82.3242 26.4633 76.8618 31.9132V31.9132Z" fill="#81C785"/>
<path d="M76.8618 31.9132C71.412 37.3631 60.6372 44.2129 58.2122 41.788L77.9618 22.0384C80.3868 24.4633 82.3242 26.4633 76.8618 31.9132Z" fill="#66BB6A"/>
<path d="M78.8118 42.5504C71.8744 44.3629 60.2122 44.8129 58.5372 41.988C60.0122 42.8504 63.3496 41.6005 66.9746 39.4755C70.5536 37.3484 73.8719 34.8104 76.8618 31.9132C77.4118 31.3632 77.8743 30.8507 78.2743 30.3632C83.0242 29.7757 83.6992 32.0757 84.4617 34.8381C85.3492 38.0505 86.0242 40.6755 78.8118 42.5504Z" fill="#81C785"/>
<path d="M78.8118 42.5505C71.8744 44.3629 60.2122 44.8129 58.5372 41.988C60.0122 42.8505 63.3496 41.6005 66.9746 39.4755L84.4617 34.8381C85.3492 38.0506 86.0242 40.6755 78.8118 42.5505Z" fill="#66BB6A"/>
<path d="M69.637 21.7259C69.1495 22.1259 68.637 22.5884 68.087 23.1384C65.1898 26.1284 62.6518 29.4466 60.5247 33.0257C58.3997 36.6506 57.1498 39.988 58.0122 41.463C55.1873 39.788 55.6373 28.1258 57.4498 21.1884C59.3247 13.9761 61.9497 14.6511 65.1621 15.5385C67.9245 16.301 70.2245 16.976 69.637 21.7259V21.7259Z" fill="#81C785"/>
<path d="M69.637 21.7259C69.1495 22.1259 68.637 22.5884 68.087 23.1384C65.1898 26.1283 62.6518 29.4466 60.5247 33.0256L65.1621 15.5385C67.9245 16.301 70.2245 16.976 69.637 21.7259V21.7259Z" fill="#66BB6A"/>
<path d="M61.0122 60.375C60.5497 61 60.0247 61.6625 59.4372 62.3375L51.8499 54.7377C51.734 54.622 51.642 54.4847 51.5793 54.3335C51.5166 54.1822 51.4843 54.0201 51.4843 53.8564C51.4843 53.6927 51.5166 53.5306 51.5793 53.3794C51.642 53.2282 51.734 53.0908 51.8499 52.9752C51.964 52.8566 52.1008 52.7623 52.2523 52.6979C52.4037 52.6334 52.5665 52.6002 52.7311 52.6002C52.8957 52.6002 53.0585 52.6334 53.2099 52.6979C53.3614 52.7623 53.4982 52.8566 53.6123 52.9752L61.0122 60.375Z" fill="#E44C25"/>
<path d="M47.3375 73.0248C46.6625 73.5248 45.975 74.0123 45.275 74.4998L38.6751 67.8999C38.5592 67.7843 38.4673 67.6469 38.4046 67.4957C38.3418 67.3445 38.3095 67.1824 38.3095 67.0187C38.3095 66.855 38.3418 66.6929 38.4046 66.5416C38.4673 66.3904 38.5592 66.2531 38.6751 66.1374C38.9111 65.9033 39.2301 65.7719 39.5626 65.7719C39.8951 65.7719 40.2141 65.9033 40.4501 66.1374L47.3375 73.0248Z" fill="#E44C25"/>
<path d="M30.6253 82.6371C29.7378 82.9996 28.8879 83.3246 28.0504 83.5996L25.5129 81.0621C25.397 80.9465 25.3051 80.8092 25.2424 80.6579C25.1796 80.5067 25.1473 80.3446 25.1473 80.1809C25.1473 80.0172 25.1796 79.8551 25.2424 79.7039C25.3051 79.5527 25.397 79.4153 25.5129 79.2997C25.7489 79.0655 26.0679 78.9341 26.4004 78.9341C26.7329 78.9341 27.0519 79.0655 27.2879 79.2997L30.6253 82.6371Z" fill="#E44C25"/>
<path d="M40.4501 54.7377C40.2124 54.9689 39.8942 55.0989 39.5626 55.1002C39.2315 55.0966 38.9142 54.9669 38.6751 54.7377L31.1878 47.2504C31.7378 46.6004 32.2878 45.9754 32.8378 45.3629L40.4501 52.9753C40.566 53.0909 40.6579 53.2282 40.7207 53.3795C40.7834 53.5307 40.8157 53.6928 40.8157 53.8565C40.8157 54.0202 40.7834 54.1823 40.7207 54.3335C40.6579 54.4847 40.566 54.6221 40.4501 54.7377V54.7377Z" fill="#F05223"/>
<path d="M27.2879 67.8999C27.0533 68.1373 26.7342 68.2721 26.4004 68.2749C26.2349 68.2747 26.0712 68.2415 25.9188 68.1771C25.7664 68.1127 25.6284 68.0184 25.5129 67.8999L20.488 62.875C20.9005 62.125 21.3255 61.375 21.7755 60.6251L27.2879 66.1374C27.4038 66.2531 27.4957 66.3904 27.5585 66.5416C27.6212 66.6929 27.6535 66.855 27.6535 67.0187C27.6535 67.1824 27.6212 67.3445 27.5585 67.4957C27.4957 67.6469 27.4038 67.7843 27.2879 67.8999V67.8999Z" fill="#F05223"/>
</svg>
