<svg width="191" height="50" viewBox="0 0 191 50" fill="none" xmlns="http://www.w3.org/2000/svg">
<g clip-path="url(#clip0_2_2)">
<path d="M73.204 38.36C71.548 38.36 70.132 38.156 68.956 37.748C67.78 37.34 66.796 36.812 66.004 36.164C65.236 35.516 64.624 34.832 64.168 34.112C63.712 33.368 63.364 32.672 63.124 32.024C62.908 31.376 62.764 30.848 62.692 30.44C62.62 30.032 62.584 29.828 62.584 29.828H67.552C67.552 29.828 67.576 29.972 67.624 30.26C67.696 30.548 67.84 30.92 68.056 31.376C68.272 31.808 68.584 32.24 68.992 32.672C69.424 33.104 69.988 33.476 70.684 33.788C71.404 34.076 72.292 34.22 73.348 34.22C74.98 34.22 76.216 33.86 77.056 33.14C77.92 32.396 78.352 31.484 78.352 30.404C78.352 29.492 78.028 28.772 77.38 28.244C76.732 27.692 75.772 27.284 74.5 27.02L70.972 26.264C69.604 25.976 68.32 25.544 67.12 24.968C65.944 24.392 64.996 23.612 64.276 22.628C63.556 21.644 63.196 20.384 63.196 18.848C63.196 17.24 63.592 15.848 64.384 14.672C65.2 13.496 66.316 12.596 67.732 11.972C69.148 11.324 70.804 11 72.7 11C74.5 11 75.988 11.264 77.164 11.792C78.34 12.32 79.276 12.968 79.972 13.736C80.692 14.504 81.22 15.272 81.556 16.04C81.892 16.808 82.108 17.456 82.204 17.984C82.324 18.512 82.384 18.776 82.384 18.776H77.596C77.596 18.776 77.548 18.596 77.452 18.236C77.356 17.852 77.14 17.42 76.804 16.94C76.468 16.46 75.964 16.04 75.292 15.68C74.62 15.296 73.72 15.104 72.592 15.104C70.984 15.104 69.808 15.464 69.064 16.184C68.344 16.904 67.984 17.684 67.984 18.524C67.984 19.388 68.32 20.06 68.992 20.54C69.664 21.02 70.564 21.392 71.692 21.656L75.472 22.448C76.888 22.76 78.184 23.228 79.36 23.852C80.536 24.476 81.472 25.304 82.168 26.336C82.864 27.344 83.212 28.604 83.212 30.116C83.212 31.652 82.828 33.044 82.06 34.292C81.292 35.54 80.164 36.536 78.676 37.28C77.188 38 75.364 38.36 73.204 38.36ZM96.361 38.36C94.273 38.36 92.497 37.892 91.033 36.956C89.569 36.02 88.453 34.808 87.685 33.32C86.941 31.808 86.569 30.188 86.569 28.46C86.569 26.732 86.941 25.124 87.685 23.636C88.453 22.124 89.569 20.9 91.033 19.964C92.497 19.028 94.273 18.56 96.361 18.56C98.473 18.56 100.249 19.028 101.689 19.964C103.153 20.9 104.257 22.124 105.001 23.636C105.769 25.124 106.153 26.732 106.153 28.46C106.153 30.188 105.769 31.808 105.001 33.32C104.257 34.808 103.153 36.02 101.689 36.956C100.249 37.892 98.473 38.36 96.361 38.36ZM96.361 34.364C97.441 34.364 98.341 34.088 99.061 33.536C99.805 32.984 100.369 32.264 100.753 31.376C101.137 30.464 101.329 29.492 101.329 28.46C101.329 27.404 101.137 26.432 100.753 25.544C100.369 24.656 99.805 23.936 99.061 23.384C98.341 22.832 97.441 22.556 96.361 22.556C95.305 22.556 94.405 22.832 93.661 23.384C92.917 23.936 92.353 24.656 91.969 25.544C91.585 26.432 91.393 27.404 91.393 28.46C91.393 29.492 91.585 30.464 91.969 31.376C92.353 32.264 92.917 32.984 93.661 33.536C94.405 34.088 95.305 34.364 96.361 34.364ZM110.561 38L110.597 10.64H115.349V38H110.561ZM126.233 38.36C124.241 38.36 122.729 37.748 121.697 36.524C120.689 35.3 120.185 33.728 120.185 31.808V18.92H124.937V31.016C124.937 32.048 125.213 32.876 125.765 33.5C126.317 34.1 127.097 34.4 128.105 34.4C128.993 34.4 129.713 34.172 130.265 33.716C130.817 33.26 131.213 32.672 131.453 31.952C131.717 31.232 131.849 30.488 131.849 29.72V18.92H136.637V38H131.849V35.264H131.633C131.393 35.696 131.045 36.152 130.589 36.632C130.157 37.112 129.581 37.52 128.861 37.856C128.165 38.192 127.289 38.36 126.233 38.36ZM149.707 38.36C148.411 38.36 147.343 38.168 146.503 37.784C145.663 37.4 145.003 36.896 144.523 36.272C144.067 35.648 143.743 34.964 143.551 34.22C143.359 33.476 143.263 32.744 143.263 32.024V22.772H139.987V18.92H143.263V14.168H148.051V18.92H152.335V22.772H148.051V31.916C148.051 33.62 149.011 34.472 150.931 34.472C151.387 34.472 151.807 34.448 152.191 34.4C152.599 34.328 152.803 34.292 152.803 34.292V38.036C152.803 38.036 152.491 38.084 151.867 38.18C151.267 38.3 150.547 38.36 149.707 38.36ZM156.712 38V18.92H161.464V21.548H161.644C161.98 20.804 162.532 20.12 163.3 19.496C164.068 18.872 165.22 18.56 166.756 18.56C167.236 18.56 167.632 18.596 167.944 18.668C168.256 18.716 168.412 18.74 168.412 18.74V23.384C168.412 23.384 168.232 23.36 167.872 23.312C167.536 23.264 167.116 23.24 166.612 23.24C164.932 23.24 163.66 23.708 162.796 24.644C161.932 25.58 161.5 27.092 161.5 29.18V38H156.712ZM173.126 45.02C172.502 45.02 171.986 44.996 171.578 44.948C171.194 44.9 171.002 44.876 171.002 44.876V40.952C171.002 40.952 171.182 40.964 171.542 40.988C171.902 41.036 172.322 41.06 172.802 41.06C174.026 41.06 175.034 40.856 175.826 40.448C176.642 40.064 177.326 39.332 177.878 38.252L170.714 18.92H175.574L180.362 32.528L185.078 18.92H189.938L182.954 37.532C181.994 40.076 180.758 41.96 179.246 43.184C177.734 44.408 175.694 45.02 173.126 45.02Z" fill="#1D2B53"/>
<g style="mix-blend-mode:darken">
<path d="M22.197 22.0523C29.3476 12.4921 44.0593 13.7992 49.4124 24.4704V24.4704C54.7654 35.1416 47.017 47.7156 35.0784 47.7312L2.95882 47.7732L22.197 22.0523Z" fill="#1D2B53"/>
</g>
<g style="mix-blend-mode:darken">
<path d="M29.4693 27.929C22.2953 37.4717 7.58683 36.1286 2.25986 25.4444V25.4444C-3.06712 14.7601 4.71201 2.20516 16.6506 2.21871L48.7702 2.25518L29.4693 27.929Z" fill="#FF004D"/>
</g>
</g>
<defs>
<clipPath id="clip0_2_2">
<rect width="191" height="50" fill="white"/>
</clipPath>
</defs>
</svg>
